<svg id="Layer_1" data-name="Layer 1" xmlns="http://www.w3.org/2000/svg" xmlns:xlink="http://www.w3.org/1999/xlink" viewBox="0 0 526.06 584.59"><defs><linearGradient id="linear-gradient" x1="308" y1="663.4" x2="558.2" y2="663.4" gradientTransform="translate(-32.14 -538.3)" gradientUnits="userSpaceOnUse"><stop offset="0" stop-color="#6e0ef3"/><stop offset="0.01" stop-color="#028f2b"/><stop offset="0.66" stop-color="#06c83e"/><stop offset="1" stop-color="#08e146"/></linearGradient><clipPath id="clip-path"><rect x="-2.36" y="584.6" width="700" height="700" fill="none"/></clipPath><clipPath id="clip-path-2"><rect y="568.91" width="11.37" height="15.69" fill="none"/></clipPath><symbol id="e" data-name="e" viewBox="0 0 11.36 15.7"><path d="M11.36,4.57a6.55,6.55,0,0,0-1.29-.44A5.38,5.38,0,0,0,8.8,4,3.56,3.56,0,0,0,5.9,5.19a5.19,5.19,0,0,0-1,3.45V15.7H0V.4H4.89V2.91A6.21,6.21,0,0,1,7,.71,5.88,5.88,0,0,1,10,0h.54l.84.08Z"/></symbol></defs><title>celunk_zold</title><circle cx="400.96" cy="125.1" r="125.1" fill="url(#linear-gradient)"/><path d="M150.54,469H78.86A7.66,7.66,0,0,1,71,461.52V297.6a7.66,7.66,0,0,1,7.48-7.84H150a7.66,7.66,0,0,1,7.84,7.48V461.16c.56,4.48-3.36,7.84-7.28,7.84ZM87.26,452.76h54.88V305.48H87.26Z"/><path d="M288.3,469H216.62a7.66,7.66,0,0,1-7.84-7.48V241.08a7.66,7.66,0,0,1,7.48-7.84h71.48a7.66,7.66,0,0,1,7.84,7.48V461.16C296.14,465.64,292.78,469,288.3,469ZM225,452.76H279.9V248.92H225Z"/><path d="M426.06,469H354.38a7.66,7.66,0,0,1-7.84-7.48V186.16a7.66,7.66,0,0,1,7.48-7.84h72a7.66,7.66,0,0,1,7.84,7.48V461.16a7.66,7.66,0,0,1-7.48,7.84Zm-63.28-16.24h54.88V194.6H362.78Z"/><path d="M114.7,248.92a31.36,31.36,0,1,1,31.36-31.36v0a31.31,31.31,0,0,1-31.3,31.32Zm0-46.48a15,15,0,1,0,.16,0Z"/><path d="M252.46,200.76a31.36,31.36,0,1,1,31.36-31.36h0a31.31,31.31,0,0,1-31.26,31.36Zm0-46.48a15.06,15.06,0,1,0,.12,0Z"/><path d="M390.22,150.92a31.36,31.36,0,1,1,31.36-31.36v0a31.31,31.31,0,0,1-31.3,31.32Zm0-46.48a15,15,0,1,0,.16,0Z"/><path d="M136.54,218.12c-3.36,0-6.16-2.24-7.84-5.6A8.1,8.1,0,0,1,133.29,202l.41-.15,93.52-34.16a8.32,8.32,0,1,1,5.6,15.68h0l-93.48,34.2c-1.12,0-1.68.56-2.8.56Z"/><path d="M273.74,168.28c-3.36,0-6.16-2.24-7.84-5.6a8.1,8.1,0,0,1,4.59-10.49l.41-.15L365,117.88a8.32,8.32,0,1,1,5.6,15.68h0L276.5,167.72a5,5,0,0,1-2.8.56Z"/><g clip-path="url(#clip-path)"><g clip-path="url(#clip-path-2)"><use width="11.36" height="15.7" transform="translate(0 568.9)" xlink:href="#e"/></g></g></svg>