<svg id="Layer_1" data-name="Layer 1" xmlns="http://www.w3.org/2000/svg" xmlns:xlink="http://www.w3.org/1999/xlink" viewBox="0 0 522.35 586.51"><defs><linearGradient id="linear-gradient" x1="318" y1="619.4" x2="568.2" y2="619.4" gradientTransform="translate(-45.85 -494.3)" gradientUnits="userSpaceOnUse"><stop offset="0" stop-color="#6e0ef3"/><stop offset="0.01" stop-color="#f99c00"/><stop offset="0.27" stop-color="#fbab24"/><stop offset="0.77" stop-color="#fec564"/><stop offset="1" stop-color="#ffcf7d"/></linearGradient></defs><title>celunk_sarga</title><circle cx="397.25" cy="125.1" r="125.1" fill="url(#linear-gradient)"/><path d="M272.53,224.35,253.75,166.7,235,224.35h-60.7L223.42,260l-18.78,57.69,49.11-35.57,49.12,35.61L284.08,260l49.15-35.68Zm-3,47.55-15.78-11.46L237.94,271.9,244,253.3l-15.77-11.45h19.45l6.07-18.64,6.08,18.64h19.45L263.53,253.3Z"/><path d="M422.83,205.29a54,54,0,0,1,.46-18.84,50.43,50.43,0,0,0-2.81-32.1,50.7,50.7,0,0,0-26.73-18.68,52.83,52.83,0,0,1-16.26-8.81,52.59,52.59,0,0,1-8.8-16.26A50.77,50.77,0,0,0,350,83.87a50.32,50.32,0,0,0-32.15-2.8,53.62,53.62,0,0,1-18.82.45,51.39,51.39,0,0,1-15.28-9.42,51.08,51.08,0,0,0-30-14,51.14,51.14,0,0,0-30,14,51.77,51.77,0,0,1-15.31,9.5,54.1,54.1,0,0,1-18.82-.46A50.49,50.49,0,0,0,157.5,83.9a50.78,50.78,0,0,0-18.68,26.7A52.62,52.62,0,0,1,130,126.86a52.83,52.83,0,0,1-16.26,8.81A50.64,50.64,0,0,0,87,154.35a50.35,50.35,0,0,0-2.82,32.14,53.67,53.67,0,0,1,.46,18.83,52.21,52.21,0,0,1-9.47,15.35,51.12,51.12,0,0,0-14,29.93,51.13,51.13,0,0,0,14,30A52.05,52.05,0,0,1,84.67,296a53.67,53.67,0,0,1-.46,18.83A50.47,50.47,0,0,0,87,346.9a50.71,50.71,0,0,0,26.73,18.63A52.88,52.88,0,0,1,130,374.34a52.89,52.89,0,0,1,8.79,16.26l1.19,2.84v193L253.75,548.6,367.5,586.51v-193c.4-.94.8-1.89,1.18-2.81h0a52.83,52.83,0,0,1,8.81-16.26,53,53,0,0,1,16.26-8.91,50.68,50.68,0,0,0,26.72-18.68,50.35,50.35,0,0,0,2.82-32.14,53.91,53.91,0,0,1-.46-18.83,52.21,52.21,0,0,1,9.47-15.35,51.16,51.16,0,0,0,14-29.93,51.14,51.14,0,0,0-14-30,52,52,0,0,1-9.47-15.35ZM262.5,533V469.35H245V533l-87.5,29.17V478.1h61.25V460.6H157.5V417.35a50.46,50.46,0,0,0,32.11,2.78,54.15,54.15,0,0,1,18.83-.45,51.45,51.45,0,0,1,15.31,9.46,51.17,51.17,0,0,0,30,14,51.17,51.17,0,0,0,30-14,51.59,51.59,0,0,1,15.34-9.46,53.67,53.67,0,0,1,18.83.45A50.26,50.26,0,0,0,350,417.34V495.6H288.75v17.5H350v49.11ZM418.42,269.9a64,64,0,0,0-12.49,21.49,66.37,66.37,0,0,0,0,25.59,38.12,38.12,0,0,1-.6,21.12,38.32,38.32,0,0,1-18.26,11.26A65.14,65.14,0,0,0,365.12,362a65.32,65.32,0,0,0-12.61,21.93,38.25,38.25,0,0,1-11.26,18.28,38.16,38.16,0,0,1-21.13.6,66.32,66.32,0,0,0-25.58,0,64.17,64.17,0,0,0-21.49,12.49,38.46,38.46,0,0,1-19.3,10.33,38.46,38.46,0,0,1-19.3-10.33A64,64,0,0,0,213,402.77a41.21,41.21,0,0,0-10.66-1.28,116.58,116.58,0,0,0-14.93,1.29,38.21,38.21,0,0,1-21.12-.6A38.28,38.28,0,0,1,155,383.91,65.1,65.1,0,0,0,142.39,362a65.29,65.29,0,0,0-21.93-12.6,38.38,38.38,0,0,1-18.29-11.27,38.12,38.12,0,0,1-.61-21.12,66,66,0,0,0,0-25.6,64,64,0,0,0-12.49-21.49A38.53,38.53,0,0,1,78.75,250.6a38.46,38.46,0,0,1,10.33-19.3,64,64,0,0,0,12.49-21.5,65.93,65.93,0,0,0,0-25.58,38.21,38.21,0,0,1,.6-21.12,38.22,38.22,0,0,1,18.27-11.26,65.27,65.27,0,0,0,21.94-12.61A65.1,65.1,0,0,0,155,117.29,38.22,38.22,0,0,1,166.25,99a37.92,37.92,0,0,1,21.14-.6,66.32,66.32,0,0,0,25.58,0,64,64,0,0,0,21.49-12.5A38.41,38.41,0,0,1,253.75,75.6a38.46,38.46,0,0,1,19.3,10.33,64.24,64.24,0,0,0,21.5,12.5,66.37,66.37,0,0,0,25.59,0,38.08,38.08,0,0,1,21.11.58,38.42,38.42,0,0,1,11.26,18.27,65.29,65.29,0,0,0,12.6,21.95,65.24,65.24,0,0,0,21.94,12.6,38.38,38.38,0,0,1,18.29,11.27,38,38,0,0,1,.6,21.12,66.37,66.37,0,0,0,0,25.59,63.81,63.81,0,0,0,12.5,21.5,38.51,38.51,0,0,1,10.31,19.29A38.46,38.46,0,0,1,418.42,269.9Z"/><path d="M253.75,110.6a140.17,140.17,0,1,0,99,41.06A140.17,140.17,0,0,0,253.75,110.6Zm45.39,253.75a122.82,122.82,0,1,1,55.95-45.08A122.83,122.83,0,0,1,299.14,364.35Z"/><path d="M52.5,373.1H35a35,35,0,0,1-35,35H0v17.5a35,35,0,0,1,35,35H52.5a35,35,0,0,1,35-35h0V408.1a35,35,0,0,1-35-35Zm-8.75,58.5-.08-.1a53,53,0,0,0-14.58-14.58l-.1-.08a52.88,52.88,0,0,0,14.76-14.75,52.92,52.92,0,0,0,14.76,14.76A52.88,52.88,0,0,0,43.75,431.6Z"/><path d="M472.5,66.85H455a35,35,0,0,1-35,35h0v17.5a35,35,0,0,1,35,35h17.5a35,35,0,0,1,35-35h0v-17.5a35,35,0,0,1-35-35Zm-8.75,58.51-.08-.1a53,53,0,0,0-14.58-14.58l-.1-.08a52.92,52.92,0,0,0,14.76-14.76,52.92,52.92,0,0,0,14.76,14.76A52.92,52.92,0,0,0,463.75,125.36Z"/></svg>