<svg id="Layer_1" data-name="Layer 1" xmlns="http://www.w3.org/2000/svg" xmlns:xlink="http://www.w3.org/1999/xlink" viewBox="0 0 831.5 554.92"><defs><linearGradient id="linear-gradient" x1="322" y1="636.4" x2="572.2" y2="636.4" gradientTransform="translate(38.09 -495.75)" gradientUnits="userSpaceOnUse"><stop offset="0" stop-color="#6e0ef3"/><stop offset="0" stop-color="#6114cc"/><stop offset="0" stop-color="#6e20da"/><stop offset="1" stop-color="#966ef3"/></linearGradient><linearGradient id="linear-gradient-2" x1="792.87" y1="496.17" x2="793.42" y2="496.17" gradientTransform="translate(38.09 -495.75)" gradientUnits="userSpaceOnUse"><stop offset="0" stop-color="#ffcb72"/><stop offset="1" stop-color="#ffa000"/><stop offset="1" stop-color="#020202"/></linearGradient><clipPath id="clip-path" transform="translate(0.01 0.15)"><rect x="830.47" y="1.46" width="1.54" height="1.54" fill="none"/></clipPath><clipPath id="clip-path-2" transform="translate(0.01 0.15)"><rect x="830.48" y="1.41" width="0.06" height="0.06" fill="none"/></clipPath><clipPath id="clip-path-3" transform="translate(0.01 0.15)"><rect width="25.68" height="25.12" fill="none"/></clipPath><clipPath id="clip-path-4" transform="translate(0.01 0.15)"><rect x="831.14" y="1.46" width="1.54" height="1.54" fill="none"/></clipPath><symbol id="a_2" data-name="a 2" viewBox="0 0 25.68 25.09"><path d="M25.68,12.61V10.42H7.8a5.65,5.65,0,0,1,1.93-4A7.23,7.23,0,0,1,14.4,5.08a18.25,18.25,0,0,1,4.93.71A25.23,25.23,0,0,1,24.54,8V2.08A31.14,31.14,0,0,0,19.11.53,28.21,28.21,0,0,0,13.69,0Q7.19,0,3.59,3.3T0,12.51q0,5.87,3.53,9.21t9.73,3.36a12.18,12.18,0,0,0,9-3.4,12.27,12.27,0,0,0,3.39-9.06Zm-7.86,2.53a4.84,4.84,0,0,1-1.28,3.51A4.33,4.33,0,0,1,13.22,20a5.18,5.18,0,0,1-3.61-1.25,5.83,5.83,0,0,1-1.72-3.61Z"/></symbol><symbol id="b_2" data-name="b 2" viewBox="0 0 26.25 33.23"><path d="M0,33.23H7.66V15.14l8.79,8.78h8.89L13.66,13,26.25,0H17L7.66,10V0H0Z"/></symbol></defs><title>celunk_lila</title><circle cx="485.19" cy="140.65" r="125.1" fill="url(#linear-gradient)"/><path d="M524.74,150.69H435V134.44l17.33-43.28a9,9,0,0,0-8.35-12.31H408a9,9,0,0,0-8.35,5.66L399,86.13l-.62-1.62a9,9,0,0,0-8.35-5.66H354.14a9,9,0,0,0-8.35,12.31l17.33,43.28v16.25H273.33a27,27,0,0,0-26.94,26.93v18H147.62a26.94,26.94,0,0,0-26.94,26.9V429a26.94,26.94,0,0,0,26.88,27H255.37v44.89h-18a9,9,0,0,0,0,18H363.12a9,9,0,0,0,0-18h-18V456H452.91a26.94,26.94,0,0,0,26.94-26.94V366.19h44.89a26.94,26.94,0,0,0,26.94-26.94h0V177.62A27,27,0,0,0,524.74,150.69Zm-143.66,9v-18H417v26.94H381.08Zm33-62.86h16.6l-10.77,26.94h-5.75l-5.39-13.47Zm-30.17,0,10.78,26.94H378.2L367.43,96.83ZM327.2,500.88H273.33V456H327.2ZM461.89,429a9,9,0,0,1-9,9H147.62a9,9,0,0,1-9-9V402.1H461.89Zm0-44.89H138.68V222.52a9,9,0,0,1,9-9h98.77V339.25a26.94,26.94,0,0,0,26.94,26.94h188.5Zm71.79-44.86a9,9,0,0,1-9,9H273.33a9,9,0,0,1-9-9V177.63a9,9,0,0,1,9-9h89.79v9a8.88,8.88,0,0,0,8.76,9H426a9,9,0,0,0,9-9v-9h89.79a9,9,0,0,1,9,9Zm-18-125.71a9,9,0,0,1-9,9H417a9,9,0,0,1,0-18h89.79a9,9,0,0,1,9,9ZM390.05,321.29a9,9,0,1,1-17.95,1.34,10,10,0,0,1,0-1.34,35.92,35.92,0,0,0-71.84,0h0a9,9,0,0,1-18,0h0a53.88,53.88,0,0,1,107.75,0Zm-53.87-62.85a35.92,35.92,0,1,0-25.4-10.52A35.92,35.92,0,0,0,336.18,258.44Zm0-53.88a18,18,0,1,1-12.7,5.26A18,18,0,0,1,336.18,204.56Zm179.58,44.9a9,9,0,0,1-9,9H417a9,9,0,0,1,0-18h89.79a9,9,0,0,1,9,9Zm0,35.92a9,9,0,0,1-9,9H452.91a9,9,0,1,1,0-18h53.87a9,9,0,0,1,9,9ZM282.3,420.06a9,9,0,0,1,9-9h18a9,9,0,0,1,0,18h-18A9,9,0,0,1,282.3,420.06ZM390.05,545.77a9,9,0,0,1-9,9H219.45a9,9,0,0,1,0-18H381.08a9,9,0,0,1,9,9Zm53.88,0a9,9,0,0,1-9,9h-18a9,9,0,0,1,0-18h18A9,9,0,0,1,443.93,545.77Z" transform="translate(0.01 0.15)"/><path d="M52.27,366.58H17A16.52,16.52,0,0,1,.5,350.13V315.05A16.54,16.54,0,0,1,17,298.52H52.27a16.54,16.54,0,0,1,16.54,16.53h0v35.08A16.53,16.53,0,0,1,52.27,366.58Zm-35-56.52a5,5,0,0,0-5,5h0v35.08a5,5,0,0,0,5,5h35a5,5,0,0,0,5.07-5V315.05a5,5,0,0,0-5.07-5Z" transform="translate(0.01 0.15)" fill="#fff" stroke="#fff" stroke-miterlimit="10"/><circle cx="831.23" cy="0.42" r="0.27" fill="url(#linear-gradient-2)"/><path d="M830.34.31V.5h0V.31h.77A.09.09,0,0,0,831,.23h-.77a.09.09,0,0,0,.08.08Z" transform="translate(0.01 0.15)" fill="#fff"/><path d="M830.3,1.39h.88a.09.09,0,0,0,.08-.08h0V1.23h0v.08h0V1.25h-.76V.87h0v.38h-.1v.06a.09.09,0,0,0-.1.08Zm0-.12h0Z" transform="translate(0.01 0.15)" fill="#fff"/><path d="M830.24.81h.44V.58h-.39V.81h0Zm0-.23h.35V.77h-.35Z" transform="translate(0.01 0.15)" fill="#fff"/><path d="M830.34.62Z" transform="translate(0.01 0.15)" fill="#fff"/><path d="M830.52.62Z" transform="translate(0.01 0.15)" fill="#fff"/><path d="M830.4.73V.61h0Z" transform="translate(0.01 0.15)" fill="#fff"/><path d="M831.36.35h-.68V.73h.66V.35h0Zm0,.38h-.68l.17-.11.17.11h0l.14-.07.12.07Zm0-.09-.11-.06h0l-.14.07L831,.54h0l-.16.1V.39h.62Z" transform="translate(0.01 0.15)" fill="#fff"/><path d="M831.14.56a.07.07,0,1,0-.07-.07h0Zm0-.1Z" transform="translate(0.01 0.15)" fill="#fff"/><path d="M830.41.87V1.1h.48V.87h-.48Zm0,0h.44v.19h-.44Z" transform="translate(0.01 0.15)" fill="#fff"/><path d="M830.49.93h0Z" transform="translate(0.01 0.15)" fill="#fff"/><path d="M830.61.93h0Z" transform="translate(0.01 0.15)" fill="#fff"/><path d="M830.82.93Z" transform="translate(0.01 0.15)" fill="#fff"/><path d="M830.49,1h0Z" transform="translate(0.01 0.15)" fill="#fff"/><path d="M830.76,1h0Z" transform="translate(0.01 0.15)" fill="#fff"/><path d="M830.41.31Z" transform="translate(0.01 0.15)" fill="#fff"/><path d="M830.49.31Z" transform="translate(0.01 0.15)" fill="#fff"/><path d="M830.57.31Z" transform="translate(0.01 0.15)" fill="#fff"/><path d="M830.41.39h0Z" transform="translate(0.01 0.15)" fill="#fff"/><path d="M831.36.93H831v.24h.41V.93Zm0,.23H831V1h.33Z" transform="translate(0.01 0.15)" fill="#fff"/><path d="M831.05,1Z" transform="translate(0.01 0.15)" fill="#fff"/><path d="M831.05,1.08Z" transform="translate(0.01 0.15)" fill="#fff"/><path d="M831.13,1h0Z" transform="translate(0.01 0.15)" fill="#fff"/><path d="M831.13,1.08h0Z" transform="translate(0.01 0.15)" fill="#fff"/><path d="M831.22.81h0V.89h0Z" transform="translate(0.01 0.15)" fill="#fff"/><g clip-path="url(#clip-path)"><g clip-path="url(#clip-path-2)"><g clip-path="url(#clip-path-3)"><use width="25.68" height="25.09" transform="matrix(1, 0, 0, -1, 0, 25.09)" xlink:href="#a_2"/></g></g></g><g clip-path="url(#clip-path-4)"><use width="26.25" height="33.23" transform="matrix(1, 0, 0, -1, 0.01, 33.38)" xlink:href="#b_2"/></g></svg>