<svg xmlns="http://www.w3.org/2000/svg" xmlns:xlink="http://www.w3.org/1999/xlink" viewBox="0 0 901.05 706.37"><defs><style>.cls-1{isolation:isolate;}.cls-2{fill:#1a2e35;}.cls-3,.cls-73{opacity:0.5;}.cls-3{mix-blend-mode:screen;}.cls-4{fill:#25054d;}.cls-5{opacity:0.2;}.cls-6{opacity:0;}.cls-7{opacity:0.09;}.cls-8{opacity:0.18;}.cls-9{opacity:0.27;}.cls-10{opacity:0.36;}.cls-11{opacity:0.45;}.cls-12{opacity:0.55;}.cls-13{opacity:0.64;}.cls-14{opacity:0.73;}.cls-15{opacity:0.82;}.cls-16{opacity:0.91;}.cls-17{fill:url(#linear-gradient);}.cls-18{fill:url(#linear-gradient-2);}.cls-19{fill:url(#linear-gradient-3);}.cls-20{fill:url(#linear-gradient-4);}.cls-21{fill:url(#linear-gradient-5);}.cls-22{fill:url(#linear-gradient-6);}.cls-23{fill:url(#linear-gradient-7);}.cls-24{fill:url(#linear-gradient-8);}.cls-25{fill:url(#linear-gradient-9);}.cls-26{fill:url(#linear-gradient-10);}.cls-27{fill:url(#linear-gradient-11);}.cls-28{fill:url(#linear-gradient-12);}.cls-29{fill:url(#linear-gradient-13);}.cls-30{fill:url(#linear-gradient-14);}.cls-31{fill:url(#linear-gradient-15);}.cls-32{fill:url(#linear-gradient-16);}.cls-33{fill:url(#linear-gradient-17);}.cls-34{fill:url(#linear-gradient-18);}.cls-35{fill:url(#linear-gradient-19);}.cls-36{fill:url(#linear-gradient-20);}.cls-37{fill:url(#linear-gradient-21);}.cls-38{fill:url(#linear-gradient-22);}.cls-39{fill:#c4e0f7;}.cls-40{fill:url(#linear-gradient-23);}.cls-41{fill:url(#linear-gradient-24);}.cls-42{fill:url(#linear-gradient-25);}.cls-43{fill:url(#linear-gradient-26);}.cls-44,.cls-46,.cls-49,.cls-50,.cls-51,.cls-52,.cls-82,.cls-85{mix-blend-mode:multiply;}.cls-44{fill:url(#linear-gradient-27);}.cls-45{fill:url(#linear-gradient-28);}.cls-46,.cls-53{fill:#e5d4ef;}.cls-47{fill:url(#linear-gradient-29);}.cls-48{fill:#91b3fa;}.cls-49{fill:url(#linear-gradient-30);}.cls-50{fill:url(#linear-gradient-31);}.cls-51{fill:url(#linear-gradient-32);}.cls-54{opacity:0.1;}.cls-55{fill:url(#linear-gradient-33);}.cls-56,.cls-74{opacity:0.7;}.cls-57{opacity:0.02;}.cls-58{opacity:0.05;}.cls-59{opacity:0.07;}.cls-60{opacity:0.1;}.cls-61{opacity:0.12;}.cls-62{opacity:0.15;}.cls-63{opacity:0.17;}.cls-64{opacity:0.2;}.cls-65{opacity:0.22;}.cls-66{opacity:0.25;}.cls-67{opacity:0.27;}.cls-68{opacity:0.3;}.cls-69{fill:url(#linear-gradient-34);}.cls-70,.cls-73,.cls-74,.cls-86{fill:#ebdef3;}.cls-71{fill:url(#linear-gradient-35);}.cls-72{fill:#231f20;mix-blend-mode:color-dodge;}.cls-75{fill:url(#linear-gradient-36);}.cls-76{fill:url(#linear-gradient-37);}.cls-77{fill:url(#linear-gradient-38);}.cls-78{fill:url(#linear-gradient-39);}.cls-79{fill:url(#linear-gradient-40);}.cls-80{fill:url(#linear-gradient-41);}.cls-81{fill:url(#linear-gradient-42);}.cls-82{fill:#fff;}.cls-83{fill:url(#linear-gradient-43);}.cls-84{fill:url(#linear-gradient-44);}.cls-85{fill:#d1b4e3;}.cls-86{opacity:0.8;}.cls-87{fill:url(#linear-gradient-45);}.cls-88{fill:url(#linear-gradient-46);}.cls-89{fill:url(#linear-gradient-47);}.cls-90{fill:url(#linear-gradient-48);}.cls-91{fill:#9fc9ff;}.cls-92{fill:url(#linear-gradient-49);}.cls-93{fill:url(#linear-gradient-50);}.cls-94{fill:url(#linear-gradient-51);}.cls-95{fill:url(#linear-gradient-52);}.cls-96{fill:url(#linear-gradient-53);}.cls-97{fill:url(#linear-gradient-54);}.cls-98{opacity:0.15;}</style><linearGradient id="linear-gradient" x1="612.46" y1="699.47" x2="612.46" y2="796.84" gradientUnits="userSpaceOnUse"><stop offset="0.04" stop-color="#6b24d6"/><stop offset="0.22" stop-color="#5c28cc" stop-opacity="0.96"/><stop offset="0.57" stop-color="#3634b2" stop-opacity="0.86"/><stop offset="0.98" stop-color="#00448e" stop-opacity="0.72"/></linearGradient><linearGradient id="linear-gradient-2" x1="609.02" y1="687.23" x2="601.29" y2="806.06" xlink:href="#linear-gradient"/><linearGradient id="linear-gradient-3" x1="607.29" y1="673.66" x2="588.89" y2="814.34" xlink:href="#linear-gradient"/><linearGradient id="linear-gradient-4" x1="607.5" y1="659.06" x2="575.41" y2="821.49" xlink:href="#linear-gradient"/><linearGradient id="linear-gradient-5" x1="609.82" y1="643.75" x2="560.96" y2="827.32" xlink:href="#linear-gradient"/><linearGradient id="linear-gradient-6" x1="614.33" y1="628.09" x2="545.7" y2="831.67" xlink:href="#linear-gradient"/><linearGradient id="linear-gradient-7" x1="621.11" y1="612.48" x2="529.83" y2="834.41" xlink:href="#linear-gradient"/><linearGradient id="linear-gradient-8" x1="630.11" y1="597.31" x2="513.56" y2="835.4" xlink:href="#linear-gradient"/><linearGradient id="linear-gradient-9" x1="641.89" y1="581.85" x2="497.2" y2="834.41" xlink:href="#linear-gradient"/><linearGradient id="linear-gradient-10" x1="657.69" y1="564.86" x2="474.31" y2="841.56" xlink:href="#linear-gradient"/><linearGradient id="linear-gradient-11" x1="676.58" y1="548.72" x2="449.8" y2="846.83" xlink:href="#linear-gradient"/><linearGradient id="linear-gradient-12" x1="698.62" y1="533.76" x2="424.36" y2="849.4" xlink:href="#linear-gradient"/><linearGradient id="linear-gradient-13" x1="723.6" y1="520.58" x2="398.34" y2="849.11" xlink:href="#linear-gradient"/><linearGradient id="linear-gradient-14" x1="751.24" y1="509.71" x2="372.13" y2="845.84" xlink:href="#linear-gradient"/><linearGradient id="linear-gradient-15" x1="781.15" y1="501.66" x2="346.13" y2="839.51" xlink:href="#linear-gradient"/><linearGradient id="linear-gradient-16" x1="812.83" y1="496.82" x2="320.73" y2="830.09" xlink:href="#linear-gradient"/><linearGradient id="linear-gradient-17" x1="845.72" y1="495.46" x2="296.33" y2="817.55" xlink:href="#linear-gradient"/><linearGradient id="linear-gradient-18" x1="879.19" y1="497.74" x2="273.3" y2="801.89" xlink:href="#linear-gradient"/><linearGradient id="linear-gradient-19" x1="912.74" y1="504.02" x2="252.17" y2="783.46" xlink:href="#linear-gradient"/><linearGradient id="linear-gradient-20" x1="945.73" y1="514.38" x2="233.35" y2="762.51" xlink:href="#linear-gradient"/><linearGradient id="linear-gradient-21" x1="977.51" y1="528.8" x2="217.18" y2="739.33" xlink:href="#linear-gradient"/><linearGradient id="linear-gradient-22" x1="1007.39" y1="547.14" x2="203.97" y2="714.26" xlink:href="#linear-gradient"/><linearGradient id="linear-gradient-23" x1="909.98" y1="628.66" x2="899.91" y2="606.51" gradientUnits="userSpaceOnUse"><stop offset="0.04" stop-color="#6b24d6"/><stop offset="0.32" stop-color="#7a1cd0"/><stop offset="0.86" stop-color="#a306c1"/><stop offset="0.98" stop-color="#ad00bd"/></linearGradient><linearGradient id="linear-gradient-24" x1="888.67" y1="616.42" x2="920.15" y2="616.42" gradientUnits="userSpaceOnUse"><stop offset="0" stop-color="#2d085d"/><stop offset="1" stop-color="#410f82"/></linearGradient><linearGradient id="linear-gradient-25" x1="870.88" y1="661.93" x2="856.45" y2="626.36" xlink:href="#linear-gradient-23"/><linearGradient id="linear-gradient-26" x1="846.54" y1="640.74" x2="878.02" y2="640.74" xlink:href="#linear-gradient-24"/><linearGradient id="linear-gradient-27" x1="738.61" y1="410.77" x2="362.39" y2="1000.64" gradientUnits="userSpaceOnUse"><stop offset="0" stop-color="#fff"/><stop offset="1" stop-color="#e5d4ef"/></linearGradient><linearGradient id="linear-gradient-28" x1="836.27" y1="465.23" x2="893.26" y2="465.23" xlink:href="#linear-gradient-24"/><linearGradient id="linear-gradient-29" x1="880.31" y1="543.38" x2="926.67" y2="543.38" xlink:href="#linear-gradient-24"/><linearGradient id="linear-gradient-30" x1="585.89" y1="225.83" x2="635.18" y2="225.83" xlink:href="#linear-gradient"/><linearGradient id="linear-gradient-31" x1="599.14" y1="214.12" x2="621.84" y2="214.12" xlink:href="#linear-gradient"/><linearGradient id="linear-gradient-32" x1="571.24" y1="205.5" x2="649.74" y2="205.5" xlink:href="#linear-gradient"/><linearGradient id="linear-gradient-33" x1="4467.63" y1="1609.56" x2="4646.55" y2="1609.56" gradientTransform="translate(-3804 -1083)" xlink:href="#linear-gradient"/><linearGradient id="linear-gradient-34" x1="691.47" y1="474.95" x2="656.49" y2="657.73" xlink:href="#linear-gradient"/><linearGradient id="linear-gradient-35" x1="556.57" y1="691.37" x2="591.02" y2="774.6" xlink:href="#linear-gradient-24"/><linearGradient id="linear-gradient-36" x1="154.29" y1="304.6" x2="296.36" y2="550.06" xlink:href="#linear-gradient"/><linearGradient id="linear-gradient-37" x1="232.1" y1="259.57" x2="374.16" y2="505.03" xlink:href="#linear-gradient"/><linearGradient id="linear-gradient-38" x1="167.49" y1="296.96" x2="309.56" y2="542.43" xlink:href="#linear-gradient"/><linearGradient id="linear-gradient-39" x1="218.9" y1="267.21" x2="360.97" y2="512.67" xlink:href="#linear-gradient"/><linearGradient id="linear-gradient-40" x1="357.47" y1="388.58" x2="361.2" y2="395.01" xlink:href="#linear-gradient"/><linearGradient id="linear-gradient-41" x1="256.64" y1="450.47" x2="257.18" y2="451.4" xlink:href="#linear-gradient"/><linearGradient id="linear-gradient-42" x1="408.9" y1="637.45" x2="443.36" y2="720.68" xlink:href="#linear-gradient-24"/><linearGradient id="linear-gradient-43" x1="358.89" y1="214.77" x2="614.41" y2="214.77" xlink:href="#linear-gradient"/><linearGradient id="linear-gradient-44" x1="471.27" y1="461.21" x2="460.73" y2="686.87" xlink:href="#linear-gradient-24"/><linearGradient id="linear-gradient-45" x1="472.73" y1="449.35" x2="503.99" y2="449.35" xlink:href="#linear-gradient-24"/><linearGradient id="linear-gradient-46" x1="429.8" y1="475.42" x2="459.56" y2="475.42" xlink:href="#linear-gradient-24"/><linearGradient id="linear-gradient-47" x1="-2953.74" y1="2440.14" x2="-2554.73" y2="2440.14" gradientTransform="matrix(0.87, 0.5, -1, 0.58, 5337.55, 186.99)" xlink:href="#linear-gradient"/><linearGradient id="linear-gradient-48" x1="746.01" y1="516.67" x2="768.09" y2="516.67" xlink:href="#linear-gradient-24"/><linearGradient id="linear-gradient-49" x1="-256.9" y1="297.94" x2="-91.78" y2="466.4" gradientTransform="matrix(0.9, -0.06, -0.06, 0.97, 376.92, 59.69)" xlink:href="#linear-gradient"/><linearGradient id="linear-gradient-50" x1="-272.21" y1="312.94" x2="-107.09" y2="481.41" gradientTransform="matrix(0.9, -0.06, -0.06, 0.97, 376.92, 59.69)" xlink:href="#linear-gradient"/><linearGradient id="linear-gradient-51" x1="-252.18" y1="293.31" x2="-87.07" y2="461.78" gradientTransform="matrix(0.9, -0.06, -0.06, 0.97, 376.92, 59.69)" xlink:href="#linear-gradient"/><linearGradient id="linear-gradient-52" x1="-262.39" y1="303.32" x2="-97.28" y2="471.79" gradientTransform="matrix(0.9, -0.06, -0.06, 0.97, 376.92, 59.69)" xlink:href="#linear-gradient"/><linearGradient id="linear-gradient-53" x1="-266.08" y1="306.94" x2="-100.97" y2="475.41" gradientTransform="matrix(0.9, -0.06, -0.06, 0.97, 376.92, 59.69)" xlink:href="#linear-gradient"/><linearGradient id="linear-gradient-54" x1="-248.31" y1="289.52" x2="-83.19" y2="457.99" gradientTransform="matrix(0.9, -0.06, -0.06, 0.97, 376.92, 59.69)" xlink:href="#linear-gradient"/></defs><title>telefon</title><g class="cls-1"><g id="Layer_1" data-name="Layer 1"><path class="cls-2" d="M5837.9,1524.67" transform="translate(-128.79 -232.28)"/><g class="cls-3"><polygon class="cls-4" points="709.23 112.9 623.5 63.41 629.04 60.2 714.77 109.7 709.23 112.9"/><path class="cls-4" d="M780.47,366.6l11.35,6.56,5.64-3.26-11.35-6.56Zm30.47,26.12-7-4-5.64,3.26,7,4Zm6.32-11.39-15.14-8.74-5.64,3.26,15.14,8.74ZM852.09,402l-30.17-18-5.64,3.26,30.17,18Zm-46,2.93-24.46-14.12L776,394.08l24.46,14.12ZM777,388.13l-15.14-8.74-5.64,3.26,15.14,8.74Zm-14.75-17,31.45,18.16,5.64-3.26-31.44-18.15Zm23,36.83-31.45-18.16L748.1,393l31.45,18.16Zm54.57,1.44L815.6,395.41,810,398.66l24.16,14Zm-16.48,5.5-12.55-7.23-5.64,3.26,12.55,7.23Zm-41.83-54.21-11-6.32-5.64,3.26,11,6.32Zm-32.37,26.42-17.65-10.19-5.64,3.26,17.65,10.19Zm8.07-10.37-12.7-7.34-5.64,3.26,12.7,7.34Zm6-11.55-5.72-3.3-5.64,3.25,5.71,3.3Z" transform="translate(-128.79 -232.28)"/><path class="cls-4" d="M755.89,340.71l-81.2,46.88-81-46.79,81.2-46.88,81,46.79Zm6.06,0-87.11-50.3L587.6,340.79l87.11,50.29L762,340.72Z" transform="translate(-128.79 -232.28)"/><path class="cls-4" d="M937.31,361,724.92,238.36c-14-8.07-36.67-8.11-50.57-.09l-342,197.47,2,1.18,342-197.48c12.79-7.38,33.66-7.34,46.53.09L935.29,362.15c12.87,7.43,12.93,19.48.15,26.86L591.32,587.69l2,1.18L937.46,390.18C951.36,382.16,951.29,369.06,937.31,361Z" transform="translate(-128.79 -232.28)"/></g><g class="cls-5"><path class="cls-6" d="M482.22,938.65c13.46,0,25.67-2.94,35.32-8.51l492.05-283.22c12.87-7.44,20.26-19.21,20.26-32.28,0-14.34-8.9-27.69-24.4-36.64L793.21,455.46c-12.18-7-27.41-10.9-42.89-10.9-13.46,0-25.67,2.94-35.31,8.51L223,736.29c-12.88,7.44-20.26,19.2-20.26,32.28,0,14.33,8.89,27.69,24.39,36.64L439.34,927.75C451.51,934.78,466.74,938.65,482.22,938.65Z" transform="translate(-128.79 -232.28)"/><path class="cls-7" d="M715.4,453.92l-492,283.22C211,744.28,204,755.5,204,767.93c.06,13.58,8.58,26.3,23.46,34.89l202.66,117c.32.19,10.27,5.88,10.65,6,12.49,6.83,28,10.28,43.16,9.66a75.72,75.72,0,0,0,34.82-9.3l489.33-281.66c12.37-7.14,19.38-18.36,19.32-30.79-.06-13.58-8.58-26.3-23.46-34.88L793,457a88.45,88.45,0,0,0-15.67-7,91.41,91.41,0,0,0-26.79-4.37C737.19,445.57,725,448.4,715.4,453.92Z" transform="translate(-128.79 -232.28)"/><path class="cls-8" d="M715.79,454.77,223.75,738c-11.87,6.85-18.5,17.52-18.38,29.31.12,12.83,8.26,24.89,22.51,33.12L431.5,918c.65.38,10,5.67,10.76,5.9a82.26,82.26,0,0,0,43.43,8.44c11,0,26.44-5.54,34.33-10.1l486.61-280.09c11.87-6.85,18.5-17.53,18.38-29.31-.12-12.83-8.26-24.9-22.52-33.13L792.8,458.62a101.84,101.84,0,0,0-15.51-7.08,91,91,0,0,0-26.54-4.7C737.52,446.58,725.26,449.3,715.79,454.77Z" transform="translate(-128.79 -232.28)"/><path class="cls-9" d="M716.19,455.61,224.14,738.84c-11.36,6.55-17.61,16.69-17.43,27.82.18,12.08,7.94,23.5,21.57,31.37L432.85,916.14c1,.57,9.73,5.45,10.87,5.81a79.78,79.78,0,0,0,43.7,7.2c9.79,0,26.82-6.83,33.84-10.88l483.9-278.53c11.35-6.56,17.61-16.69,17.43-27.83-.19-12.08-7.94-23.5-21.57-31.37L792.59,460.21A117,117,0,0,0,777.26,453,90,90,0,0,0,751,448C737.84,447.6,725.57,450.2,716.19,455.61Z" transform="translate(-128.79 -232.28)"/><path class="cls-10" d="M716.58,456.46l-492,283.22C213.68,746,207.81,755.54,208.05,766c.24,11.33,7.62,22.11,20.62,29.62L434.21,914.3c1.3.76,9.46,5.24,11,5.71a77.17,77.17,0,0,0,44,6c8.56,0,27.2-8.13,33.34-11.67l481.18-277c10.85-6.26,16.73-15.85,16.49-26.34-.25-11.33-7.63-22.11-20.63-29.61L792.39,461.79a139.65,139.65,0,0,0-15.17-7.3,89.85,89.85,0,0,0-26-5.36C738.17,448.61,725.87,451.1,716.58,456.46Z" transform="translate(-128.79 -232.28)"/><path class="cls-11" d="M717,457.31l-492,283.22c-10.34,6-15.84,15-15.55,24.86.31,10.58,7.31,20.71,19.69,27.85L435.56,912.46c1.63.95,9.19,5,11.09,5.62,13.77,6,30.5,7.79,44.24,4.73,7.34,0,27.59-9.42,32.85-12.46L1002.2,635c10.35-6,15.85-15,15.55-24.86-.31-10.58-7.31-20.71-19.69-27.85L792.19,463.37c-2.65-1.53-12-6.31-15-7.41a89.16,89.16,0,0,0-25.78-5.69C738.49,449.62,726.18,452,717,457.31Z" transform="translate(-128.79 -232.28)"/><path class="cls-12" d="M717.37,458.16l-492,283.22c-9.84,5.68-15,14.18-14.61,23.37.37,9.83,7,19.32,18.74,26.1L436.91,910.62c2,1.13,8.92,4.82,11.2,5.52,14.09,5.83,31.12,7.18,44.52,3.51,6.11,0,28-10.72,32.35-13.26l475.75-273.83c9.83-5.69,15-14.18,14.6-23.37-.37-9.84-7-19.32-18.74-26.11L792,465c-2.2-1.27-12.32-6.58-14.83-7.52-7.91-3-16.58-5.46-25.53-6C738.82,450.63,726.48,452.9,717.37,458.16Z" transform="translate(-128.79 -232.28)"/><path class="cls-13" d="M717.77,459l-492,283.23c-9.33,5.39-14.08,13.34-13.66,21.88.43,9.08,6.68,17.93,17.8,24.35L438.27,908.78a85.27,85.27,0,0,0,11.3,5.43c14.41,5.62,31.74,6.55,44.79,2.27,4.89,0,28.35-12,31.86-14l473-272.28c9.33-5.39,14.08-13.34,13.66-21.88-.43-9.09-6.68-17.93-17.8-24.35L791.78,466.54c-1.77-1-12.66-6.86-14.67-7.64-7.81-3-16.38-5.7-25.27-6.34C739.15,451.65,726.79,453.8,717.77,459Z" transform="translate(-128.79 -232.28)"/><path class="cls-14" d="M718.16,459.85l-492,283.22c-8.82,5.1-13.19,12.51-12.71,20.4.49,8.34,6.36,16.53,16.85,22.59L439.62,906.94A75.93,75.93,0,0,0,451,912.27c14.72,5.43,32.35,5.94,45,1,3.67,0,28.74-13.31,31.37-14.83L997.77,627.77c8.83-5.1,13.2-12.51,12.72-20.4-.49-8.33-6.36-16.53-16.85-22.59L791.57,468.12c-1.32-.77-13-7.15-14.5-7.75-7.72-3.08-16.19-5.93-25-6.67C739.47,452.66,727.09,454.7,718.16,459.85Z" transform="translate(-128.79 -232.28)"/><path class="cls-15" d="M718.56,460.7l-492,283.22c-8.32,4.81-12.31,11.67-11.77,18.92.55,7.58,6,15.13,15.91,20.83L441,905.1a68.58,68.58,0,0,0,11.53,5.24c15,5.22,33,5.31,45.33-.19,2.44,0,29.12-14.62,30.87-15.63L996.3,625.38c8.31-4.81,12.31-11.67,11.77-18.92-.55-7.58-6-15.14-15.91-20.83L791.37,469.7c-.88-.51-13.34-7.45-14.33-7.86-7.64-3.14-16-6.17-24.77-7C739.8,453.67,727.39,455.6,718.56,460.7Z" transform="translate(-128.79 -232.28)"/><path class="cls-16" d="M719,461.55,226.9,744.77c-7.81,4.51-11.42,10.83-10.83,17.43.61,6.83,5.73,13.74,15,19.08l211.28,122A62,62,0,0,0,454,908.4c15.36,5,33.59,4.7,45.6-1.42,1.22,0,29.51-15.91,30.38-16.42L994.82,623c7.81-4.51,11.43-10.83,10.83-17.43-.61-6.83-5.72-13.74-15-19.08L791.16,471.28c-.44-.25-13.66-7.76-14.16-8-7.55-3.2-15.8-6.41-24.51-7.32C740.12,454.68,727.7,456.5,719,461.55Z" transform="translate(-128.79 -232.28)"/><path d="M501.3,903.81l492-283.22c14.77-8.53,12.92-23.42-4.13-33.27L777,464.78c-17.05-9.84-42.85-10.91-57.61-2.38l-492,283.22c-14.77,8.52-12.92,23.42,4.14,33.26L443.68,901.42C460.73,911.27,486.53,912.34,501.3,903.81Z" transform="translate(-128.79 -232.28)"/></g><path class="cls-17" d="M431.58,855.89,233.16,741.33c-10-5.78-15-13.48-15.11-21.56,0-.71,0-6.88.07-7.59.83-9.36,8-4.21,21.31-11.88L706,430.92C731.86,416,771,414.38,793.34,427.3L991.77,541.86c10,5.77,15-4.38,15.11,3.69,0,.71,0,9.86-.08,10.57-.8,9.38-8,19.08-21.3,26.76L518.91,852.27C493.06,867.19,454,868.81,431.58,855.89Z" transform="translate(-128.79 -232.28)"/><path class="cls-18" d="M706,430.11c25.84-14.92,64.94-16.54,87.32-3.62L991.77,541.05c9.81,5.67,14.45-3.78,15,4.13.06.83.1,9.71,0,10.55-.8,9.39-8,19.1-21.31,26.79L518.91,851.91c-25.85,14.92-64.94,16.54-87.33,3.62L233.16,741c-10-5.79-15-13.52-15.11-21.64,0-.8.07-6.79.17-7.6,1.11-9.22,8.09-4.65,21.21-12.22Z" transform="translate(-128.79 -232.28)"/><path class="cls-19" d="M706,429.3c25.84-14.92,64.94-16.54,87.32-3.62L991.77,540.24c9.64,5.57,14-3.16,14.9,4.56.11,1,.22,9.57.14,10.55-.75,9.39-8,19.11-21.31,26.81L518.91,851.54c-25.85,14.93-64.94,16.55-87.33,3.62L233.16,740.6c-10.07-5.81-15.1-13.58-15.11-21.72,0-.89.13-6.71.26-7.61,1.35-9.09,8.17-5.11,21.12-12.58Z" transform="translate(-128.79 -232.28)"/><path class="cls-20" d="M706,428.49c25.84-14.92,64.94-16.54,87.32-3.62L991.77,539.43c9.46,5.47,13.71-2.55,14.8,5,.15,1.09.33,9.43.24,10.54-.73,9.4-8,19.13-21.31,26.84L518.91,851.18c-25.85,14.92-64.94,16.54-87.33,3.62L233.16,740.24c-10.11-5.83-15.15-13.63-15.11-21.81,0-1,.18-6.62.35-7.61,1.55-9,8.24-5.56,21-12.94Z" transform="translate(-128.79 -232.28)"/><path class="cls-21" d="M706,427.68c25.84-14.92,64.94-16.54,87.32-3.62L991.77,538.62c9.28,5.36,13.43-1.94,14.69,5.42.21,1.23.45,9.28.35,10.53-.72,9.41-8,19.16-21.31,26.86L518.91,850.82c-25.85,14.92-64.94,16.54-87.33,3.62L233.16,739.88C223,734,218,726.19,218.06,718c0-1.07.22-6.54.43-7.63,1.72-8.81,8.32-6,20.94-13.29Z" transform="translate(-128.79 -232.28)"/><path class="cls-22" d="M706,426.87c25.84-14.92,64.94-16.54,87.32-3.62L991.77,537.81c9.11,5.26,13.18-1.33,14.59,5.85a99.82,99.82,0,0,1,.45,10.52c-.7,9.42-7.95,19.18-21.31,26.89L518.91,850.46C493.06,865.38,454,867,431.58,854.08L233.16,739.51c-10.18-5.87-15.24-13.74-15.1-22,0-1.16.28-6.45.53-7.63,1.85-8.69,8.38-6.46,20.84-13.65Z" transform="translate(-128.79 -232.28)"/><path class="cls-23" d="M706,426.06c25.84-14.92,64.94-16.54,87.32-3.62L991.77,537c8.93,5.16,13-.72,14.48,6.29a82,82,0,0,1,.56,10.51c-.69,9.42-7.94,19.19-21.31,26.91L518.91,850.09C493.06,865,454,866.64,431.58,853.71L233.16,739.15c-10.21-5.89-15.28-13.79-15.1-22.06a76.14,76.14,0,0,1,.62-7.63c2-8.56,8.46-6.92,20.75-14Z" transform="translate(-128.79 -232.28)"/><path class="cls-24" d="M706,425.25c25.84-14.92,64.94-16.54,87.32-3.62L991.77,536.19c8.75,5.06,12.76-.12,14.38,6.72a72.23,72.23,0,0,1,.67,10.5c-.68,9.43-7.94,19.21-21.32,26.94L518.91,849.73c-25.85,14.92-64.94,16.55-87.33,3.62L233.16,738.79c-10.24-5.91-15.31-13.85-15.1-22.14a66.74,66.74,0,0,1,.71-7.65c2.09-8.43,8.53-7.36,20.66-14.36Z" transform="translate(-128.79 -232.28)"/><path class="cls-25" d="M706,424.44c25.84-14.92,64.94-16.54,87.32-3.62L991.77,535.38c8.57,5,12.57.48,14.28,7.15a63.62,63.62,0,0,1,.77,10.49c-.67,9.44-7.92,19.23-21.32,27L518.91,849.37C493.06,864.29,454,865.91,431.58,853L233.16,738.43c-10.28-5.93-15.34-13.9-15.09-22.23a58.89,58.89,0,0,1,.79-7.65c2.2-8.31,8.61-7.82,20.57-14.72Z" transform="translate(-128.79 -232.28)"/><path class="cls-26" d="M706,423.63c25.84-14.92,64.94-16.54,87.32-3.62L991.77,534.57c8.4,4.85,12.39,1.08,14.17,7.58a56,56,0,0,1,.88,10.48c-.66,9.45-7.91,19.25-21.32,27L518.91,849c-25.85,14.92-64.94,16.54-87.33,3.62L233.16,738.07c-10.31-6-15.37-14-15.09-22.31a53.07,53.07,0,0,1,.89-7.66c2.28-8.19,8.67-8.27,20.47-15.08Z" transform="translate(-128.79 -232.28)"/><path class="cls-27" d="M706,422.82c25.84-14.92,64.94-16.54,87.32-3.62L991.77,533.77c8.22,4.74,12.22,1.66,14.07,8a50.62,50.62,0,0,1,1,10.48c-.65,9.45-7.9,19.26-21.32,27L518.91,848.65c-25.85,14.92-64.94,16.54-87.33,3.62L233.16,737.7c-10.35-6-15.4-14-15.09-22.39a48.5,48.5,0,0,1,1-7.67c2.36-8.07,8.75-8.72,20.38-15.43Z" transform="translate(-128.79 -232.28)"/><path class="cls-28" d="M706,422c25.84-14.92,64.94-16.54,87.32-3.62L991.77,533c8,4.64,12.05,2.25,14,8.43a45.7,45.7,0,0,1,1.08,10.47c-.64,9.46-7.89,19.28-21.32,27L518.91,848.28c-25.85,14.93-64.94,16.55-87.33,3.62L233.16,737.34c-10.38-6-15.43-14.06-15.09-22.47a44.61,44.61,0,0,1,1.07-7.68c2.44-8,8.82-9.17,20.29-15.79Z" transform="translate(-128.79 -232.28)"/><path class="cls-29" d="M706,421.2c25.84-14.92,64.94-16.54,87.32-3.62L991.77,532.15c7.87,4.54,11.89,2.84,13.86,8.87a41.56,41.56,0,0,1,1.2,10.45c-.64,9.47-7.89,19.3-21.33,27.07L518.91,847.92c-25.85,14.92-64.94,16.54-87.33,3.62L233.16,737c-10.42-6-15.46-14.12-15.09-22.56a41.13,41.13,0,0,1,1.16-7.68c2.52-7.85,8.9-9.63,20.2-16.15Z" transform="translate(-128.79 -232.28)"/><path class="cls-30" d="M706,420.39c25.84-14.92,64.94-16.54,87.32-3.62L991.77,531.34c7.69,4.44,11.74,3.43,13.76,9.3a37.79,37.79,0,0,1,1.3,10.44c-.63,9.48-7.87,19.32-21.33,27.09L518.91,847.56c-25.85,14.92-64.94,16.54-87.33,3.62L233.16,736.62c-10.45-6-15.48-14.17-15.08-22.65a37,37,0,0,1,1.25-7.68c2.58-7.74,9-10.08,20.1-16.51Z" transform="translate(-128.79 -232.28)"/><path class="cls-31" d="M706,419.58C731.86,404.66,771,403,793.34,416L991.77,530.53c7.51,4.33,11.59,4,13.65,9.73a34.07,34.07,0,0,1,1.41,10.44c-.62,9.48-7.86,19.33-21.33,27.11L518.91,847.2c-25.85,14.92-64.94,16.54-87.33,3.62L233.16,736.25c-10.49-6-15.51-14.22-15.08-22.72a35.55,35.55,0,0,1,1.34-7.7c2.65-7.62,9-10.53,20-16.86Z" transform="translate(-128.79 -232.28)"/><path class="cls-32" d="M706,418.77c25.84-14.92,64.94-16.54,87.32-3.62L991.77,529.72c7.33,4.23,11.44,4.59,13.55,10.16a31.58,31.58,0,0,1,1.51,10.43c-.61,9.49-7.85,19.36-21.33,27.14L518.91,846.84c-25.85,14.92-64.94,16.54-87.33,3.62L233.16,735.89c-10.52-6.07-15.53-14.27-15.08-22.81a33,33,0,0,1,1.43-7.7c2.71-7.52,9.11-11,19.92-17.22Z" transform="translate(-128.79 -232.28)"/><path class="cls-33" d="M706,418c25.84-14.92,64.94-16.54,87.32-3.62L991.77,528.91c7.16,4.13,11.29,5.17,13.45,10.59a29.18,29.18,0,0,1,1.61,10.42c-.6,9.5-7.84,19.38-21.33,27.17L518.91,846.47C493.06,861.4,454,863,431.58,850.09L233.16,735.53c-10.55-6.09-15.56-14.33-15.08-22.89a31.24,31.24,0,0,1,1.52-7.71c2.78-7.42,9.19-11.44,19.83-17.58Z" transform="translate(-128.79 -232.28)"/><path class="cls-34" d="M706,417.15c25.84-14.92,64.94-16.54,87.32-3.61L991.77,528.1c7,4,11.14,5.74,13.34,11a26.86,26.86,0,0,1,1.72,10.4c-.61,9.51-7.83,19.4-21.33,27.19L518.91,846.11C493.06,861,454,862.65,431.58,849.73L233.16,735.17c-10.59-6.11-15.58-14.38-15.08-23a29.41,29.41,0,0,1,1.62-7.72c2.83-7.31,9.25-11.88,19.73-17.93Z" transform="translate(-128.79 -232.28)"/><path class="cls-35" d="M706,416.35c25.84-14.93,64.94-16.55,87.32-3.62L991.77,527.29c6.8,3.93,11,6.31,13.24,11.46a25.14,25.14,0,0,1,1.83,10.4c-.61,9.51-7.82,19.41-21.34,27.21L518.91,845.75c-25.85,14.92-64.94,16.54-87.33,3.62L233.16,734.81c-10.62-6.13-15.6-14.44-15.07-23.06a27.35,27.35,0,0,1,1.7-7.73c2.89-7.21,9.33-12.34,19.64-18.29Z" transform="translate(-128.79 -232.28)"/><path class="cls-36" d="M706,415.54c25.84-14.93,64.94-16.55,87.32-3.62L991.77,526.48c6.62,3.82,10.85,6.88,13.14,11.89a23.34,23.34,0,0,1,1.93,10.39c-.6,9.52-7.81,19.43-21.34,27.24L518.91,845.39C493.06,860.31,454,861.93,431.58,849L233.16,734.44c-10.66-6.15-15.62-14.48-15.07-23.14a25.63,25.63,0,0,1,1.79-7.73c3-7.12,9.4-12.79,19.55-18.65Z" transform="translate(-128.79 -232.28)"/><path class="cls-37" d="M706,414.73c25.84-14.93,64.94-16.55,87.32-3.62L991.77,525.67c6.45,3.72,10.71,7.44,13,12.32a21.67,21.67,0,0,1,2,10.38c-.58,9.53-7.8,19.45-21.34,27.27L518.91,845C493.06,860,454,861.57,431.58,848.64L233.16,734.08c-10.69-6.17-15.63-14.54-15.07-23.22a24.73,24.73,0,0,1,1.88-7.75c3-7,9.48-13.24,19.46-19Z" transform="translate(-128.79 -232.28)"/><path class="cls-38" d="M431.58,848.28,233.16,733.72c-22.39-12.92-19.58-35.5,6.27-50.42L706,413.92C731.86,399,771,397.37,793.34,410.3L991.77,524.86c22.38,12.92,19.57,35.49-6.27,50.42L518.91,844.66C493.06,859.58,454,861.21,431.58,848.28Z" transform="translate(-128.79 -232.28)"/><path class="cls-39" d="M431.58,831.5,233.16,716.94c-22.39-12.92-19.58-35.5,6.27-50.42L706,397.14c25.84-14.93,64.94-16.55,87.32-3.62L991.77,508.08c22.38,12.92,19.57,35.49-6.27,50.42L518.91,827.88C493.06,842.8,454,844.43,431.58,831.5Z" transform="translate(-128.79 -232.28)"/><path class="cls-39" d="M244.24,667l463.1-267.37c24.07-13.9,60.48-15.41,81.32-3.38L985,509.58c20.85,12,18.23,33.06-5.83,46.95L516,823.91c-24.07,13.89-60.48,15.4-81.32,3.37L238.4,713.94C217.56,701.91,220.17,680.88,244.24,667Z" transform="translate(-128.79 -232.28)"/><path class="cls-39" d="M249.05,667.45,708.67,402.09c22.29-12.87,56-14.26,75.32-3.12L978.18,511.09c19.3,11.14,16.88,30.61-5.41,43.48L513.15,819.93c-22.29,12.87-56,14.27-75.31,3.12L243.65,710.94C224.34,699.79,226.76,680.32,249.05,667.45Z" transform="translate(-128.79 -232.28)"/><path class="cls-40" d="M892.61,630.34l23.6-13.63c2.94-1.7,5.33-6.26,5.33-10.19h0c0-3.92-2.39-5.73-5.33-4l-23.6,13.63c-2.94,1.7-5.33,6.26-5.33,10.19h0C887.28,630.23,889.67,632,892.61,630.34Z" transform="translate(-128.79 -232.28)"/><path class="cls-41" d="M890.49,629.59a2.91,2.91,0,0,0,1.42-.46l23.6-13.62c2.52-1.45,4.64-5.57,4.64-9,0-1.52-.48-3.29-1.82-3.29a2.91,2.91,0,0,0-1.42.46l-23.6,13.62c-2.52,1.45-4.64,5.57-4.64,9C888.67,627.82,889.15,629.59,890.49,629.59Z" transform="translate(-128.79 -232.28)"/><path class="cls-42" d="M850.48,654.66,874.08,641c2.95-1.7,5.33-6.27,5.33-10.19h0c0-3.93-2.38-5.73-5.33-4l-23.6,13.62c-2.94,1.7-5.33,6.26-5.33,10.19h0C845.15,654.56,847.54,656.36,850.48,654.66Z" transform="translate(-128.79 -232.28)"/><path class="cls-43" d="M848.36,653.91a3,3,0,0,0,1.42-.45l23.6-13.63c2.52-1.45,4.64-5.56,4.64-9,0-1.52-.48-3.28-1.82-3.28a2.88,2.88,0,0,0-1.42.45l-23.6,13.62c-2.52,1.46-4.64,5.57-4.64,9C846.54,652.14,847,653.91,848.36,653.91Z" transform="translate(-128.79 -232.28)"/><path class="cls-44" d="M471.41,823.89h0c-10.84,0-21.06-2.46-28.78-6.91L253.94,708c-7.95-4.59-12.33-10.77-12.33-17.39s4.32-12.67,12.16-17.2l470-271.33c7.6-4.39,17.71-6.81,28.45-6.81s21.05,2.46,28.77,6.91L969.64,511.16c8,4.59,12.33,10.77,12.33,17.39s-4.32,12.67-12.16,17.2L499.86,817.08C492.25,821.47,482.15,823.89,471.41,823.89ZM752.18,398c-10.28,0-19.91,2.3-27.11,6.46l-470,271.33c-7,4-10.82,9.31-10.82,14.87s3.91,11,11,15.06L444,814.65c7.31,4.23,17,6.56,27.43,6.56h0c10.27,0,19.9-2.29,27.1-6.45l470-271.33c7-4,10.82-9.32,10.82-14.88s-3.91-11-11-15.06L779.61,404.55C772.29,400.32,762.55,398,752.18,398Z" transform="translate(-128.79 -232.28)"/><path class="cls-45" d="M884.32,481l-46.81-27c-1.84-1.07-1.61-2.92.52-4.15h0a8,8,0,0,1,7.18-.3l46.81,27c1.84,1.07,1.61,2.93-.52,4.15h0A8,8,0,0,1,884.32,481Z" transform="translate(-128.79 -232.28)"/><path class="cls-46" d="M628.19,608.33,597.8,590.78l-7.1,4.1,30.39,17.54Zm-13.82,10.93-36.24-20.93-7.1,4.1,36.25,20.93Zm44.57,6.82L634,611.71,627,615.8l24.9,14.38Zm15.56,9-9.7-5.6-7.1,4.09,9.71,5.6ZM531.89,552.73,509.7,539.92,502.6,544l22.2,12.82ZM527.24,569l-33.92-19.58-7.09,4.1,33.91,19.58Zm93,53.69-7.09,4.1,9.52,5.49,7.09-4.09Zm-42.94-43.7-39.54-22.83-7.09,4.1L570.2,583Zm14.65,8.46-8.79-5.07-7.09,4.09,8.78,5.08ZM572.27,595l-19-11-7.09,4.09,19,11Zm-39.18-22.62-7.09,4.1,14.28,8.24,7.09-4.09Zm95.43,63.29,26,15,7.1-4.09-26-15ZM712.4,657l-32-18.5-7.1,4.1,32,18.49Zm20.68,11.94-14.83-8.56-7.09,4.09L726,673ZM553.81,642.17l-18.52-10.7-5.28,3,18.52,10.69Zm5.81-4.62,27.48,15.91,5.28-3.05L564.9,634.5Zm50.32,15.13,23.23,13.55,5.28-3-23.23-13.56Zm-23,14.85,33.31,19.37,5.28-3-33.31-19.38ZM591.46,656l36.17,21.13,5.28-3.05-36.17-21.13Zm-116-67,10.63,6.13,5.28-3.05-10.63-6.13ZM504,613.39l-6.53-3.78-5.28,3,6.53,3.77Zm5.92-10.65-14.17-8.18-5.27,3.05,14.16,8.17Zm31.32,18.08-27-15.57-5.28,3,27,15.57Zm26.58,43.62-40.59-23.58-5.28,3,40.6,23.57ZM494.17,585.7l29.42,17,5.28-3-29.42-17Zm71.64,41.36,39.78,23.1,5.27-3L571.09,624Zm2.36,57.76,5.27-3.05L545,665.2l-5.27,3ZM621,695.29,572.14,667l-5.28,3,48.84,28.34Zm-54.25-73.8-22.61-13-5.27,3,22.6,13Zm-67.32,3.33-22.88-13.21-5.28,3,22.88,13.21ZM560.54,632l-15-8.65-5.28,3,15,8.65ZM472.17,609.1,458,600.92,452.73,604l14.16,8.17Zm-13.8-15.94,29.42,17,5.28-3-29.42-17Zm21.5,34.45-29.41-17-5.28,3,29.42,17ZM530.93,629,508.32,615.9,503,619l22.61,13Zm9.69,33.72L522.09,652l-5.27,3,18.52,10.7Zm-34.08.49,7.08,4.09,5.28-3-7.08-4.09Zm11.44,6.6,19.34,11.17,5.28-3.05-19.34-11.17Zm-28.13-30.31,22.61,13.06,5.28-3-22.61-13.05Zm-33.16-5.07,14.17,8.17,5.28-3L462,631.34Zm66.14,4-19.06-11-5.28,3,19.07,11ZM479,633.17l6.54,3.78,5.28-3.05-6.54-3.77Zm190.83,48.1-5.28,3.05L686.88,697l5.27-3Zm-24.33,20.18,17.06,9.64,5.28-3-17.06-9.65Zm-25-.36,29.86,17,5.28-3-29.87-17Zm-5,11.2L637.88,725l5.28-3-22.38-12.71Zm-43-25,38.62,22.45,5.28-3L577.8,684.29Zm-97.3-42.25,27,15.57,5.28-3-27-15.57Zm19.87-65L466,563.29l-5.28,3.05,29.11,16.84Zm142.44,88.62,22.61,13,5.28-3L642.81,665.7ZM528,605.2l6.54,3.77,5.28-3-6.54-3.78Zm151.62,95.58-43.08-24.66-5.28,3,43.08,24.67Zm-32.28-4.36-17.4-10-5.28,3L642,699.47ZM587.86,662l-29.69-17.29-5.28,3.05L582.59,665ZM476.38,583.39l-22.57-13.06-5.28,3,22.57,13.07ZM399.8,601.5l37.55,21.72,5.28-3.05-37.55-21.71Zm46.3,6.61-28.84-16.69L412,594.47l28.84,16.69Zm7.55-9.71-24.21-14-5.27,3.05,24.2,14Zm5.64-10.81-17.66-10.23-5.28,3L454,590.64Zm-17.58,38.15,10.63,6.13,5.27-3L447,622.69Z" transform="translate(-128.79 -232.28)"/><path class="cls-47" d="M894.73,532.8l27.07,15.63a4.46,4.46,0,0,0,4,0c1.11-.64,1.1-1.68,0-2.33l-27.08-15.63a4.44,4.44,0,0,0-4,0A1.23,1.23,0,0,0,894.73,532.8ZM919,550,892,534.4a4.44,4.44,0,0,0-4,0,1.23,1.23,0,0,0,0,2.33L915,552.35a4.44,4.44,0,0,0,4,0A1.23,1.23,0,0,0,919,550ZM912.25,554l-27.07-15.63a4.46,4.46,0,0,0-4,0,1.23,1.23,0,0,0,0,2.33l27.08,15.63a4.44,4.44,0,0,0,4,0A1.23,1.23,0,0,0,912.25,554Z" transform="translate(-128.79 -232.28)"/><polygon class="cls-48" points="584.14 323 624.1 427.89 765.82 346.06 584.14 323"/><polygon class="cls-48" points="619.79 427.34 579.83 322.45 398.16 299.38 619.79 427.34"/><polygon class="cls-48" points="583.2 320.51 764.87 343.58 543.24 215.62 583.2 320.51"/><polygon class="cls-48" points="397.21 296.89 578.88 319.96 538.93 215.07 397.21 296.89"/><polygon class="cls-49" points="624.55 215.7 610.55 223.78 596.46 215.65 585.89 221.75 610.61 236.02 635.18 221.84 624.55 215.7"/><polygon class="cls-50" points="610.53 220.67 621.84 214.14 610.46 207.56 599.14 214.09 610.53 220.67"/><polygon class="cls-51" points="610.44 204.49 637.84 220.3 649.74 213.43 610.37 190.7 571.25 213.29 583.22 220.2 610.44 204.49"/><g class="cls-52"><polygon class="cls-53" points="252 442.18 146.55 441.99 252.34 503.06 252 442.18"/><polygon class="cls-53" points="255.59 379.03 255.93 439.91 361.38 440.1 255.59 379.03"/><polygon class="cls-53" points="251.99 439.91 251.66 379.02 146.54 439.72 251.99 439.91"/><polygon class="cls-53" points="361.39 442.38 255.94 442.18 256.27 503.07 361.39 442.38"/><polygon class="cls-53" points="363.35 441.24 363.35 441.24 363.35 441.24 363.35 441.24"/><polygon class="cls-53" points="254.31 504.2 254.31 504.2 254.31 504.2 254.31 504.2"/></g><g class="cls-52"><polygon class="cls-53" points="369.76 510.54 264.31 510.35 370.09 571.42 369.76 510.54"/><polygon class="cls-53" points="373.35 447.39 373.68 508.28 479.13 508.47 373.35 447.39"/><polygon class="cls-53" points="369.75 508.27 369.42 447.39 264.3 508.08 369.75 508.27"/><polygon class="cls-53" points="479.15 510.74 373.69 510.55 374.02 571.43 479.15 510.74"/><polygon class="cls-53" points="481.1 509.61 481.11 509.61 481.1 509.6 481.1 509.61"/><polygon class="cls-53" points="372.06 572.56 372.06 572.56 372.06 572.56 372.06 572.56"/></g><g class="cls-54"><path d="M769,542.57l7.09-4.1-30.39-17.54-7.09,4.1Zm-43-14.09-7.09,4.1,36.25,20.92,7.09-4.09Zm73.72,31.85,7.1-4.1-24.9-14.37-7.1,4.09Zm12.95-.72-7.09,4.1,29.87,17.13,7.09-4.1Zm-44.56-6.82-7.1,4.1,9.52,5.49,7.1-4.09ZM723,507.8l-52.31-29.95-7.1,4.1,52.31,29.95Zm9.69,13.84,7.09-4.09-10.92-6.36-7.1,4.09Zm-31.61-7.53L694,518.2l19,11,7.1-4.09ZM674.6,499l-7.1,4.1,20.66,11.77,7.1-4.1Zm101.8,66.81,26,15,7.09-4.09-26-15Z" transform="translate(-128.79 -232.28)"/></g><path class="cls-55" d="M769,539.79l7.09-4.1-30.39-17.55-7.09,4.1ZM726,525.7l-7.09,4.09,36.25,20.93,7.09-4.1Zm73.72,31.84,7.1-4.09-24.9-14.38-7.1,4.1Zm12.95-.71-7.09,4.09,29.87,17.13,7.09-4.1ZM768.12,550,761,554.1l9.52,5.5,7.1-4.1ZM723,505l-52.31-29.95-7.1,4.09,52.31,30Zm9.69,13.84,7.09-4.1L728.9,508.4l-7.1,4.1Zm-31.61-7.54-7.1,4.1,19,11,7.1-4.1ZM674.6,496.17l-7.1,4.09L688.16,512l7.1-4.1ZM776.4,563l26,15,7.09-4.1-26-15Z" transform="translate(-128.79 -232.28)"/><g class="cls-56"><path class="cls-57" d="M716.36,632.64c-7.29,0-13.83-1.55-18.92-4.49l-44.89-25.92-44.89-25.91c-6.15-3.56-9.68-9-9.68-15,0-6.78,4.45-13.24,12.22-17.73a48.48,48.48,0,0,1,23.56-5.95c7.29,0,13.83,1.55,18.92,4.49L697.57,568l44.89,25.92c6.15,3.55,9.68,9,9.68,15,0,6.78-4.45,13.24-12.22,17.72A48.48,48.48,0,0,1,716.36,632.64Z" transform="translate(-128.79 -232.28)"/><path class="cls-58" d="M611.88,544.08h0a47.07,47.07,0,0,1,23-5.77,38.72,38.72,0,0,1,16.22,3.28c.71.33,1.52.76,2.17,1.14L696.94,568l3.74,2.15,40,23.08a21.5,21.5,0,0,1,7.87,7.64,15,15,0,0,1,1.92,6.72c.22,6.54-4,12.88-11.64,17.29h0a47.07,47.07,0,0,1-22.94,5.78,38.66,38.66,0,0,1-16.24-3.29c-.7-.32-1.51-.75-2.17-1.13L653.74,601,650,598.81l-40-23.08a21.56,21.56,0,0,1-7.87-7.63,15.17,15.17,0,0,1-1.92-6.72C600,554.84,604.24,548.5,611.88,544.08Z" transform="translate(-128.79 -232.28)"/><path class="cls-59" d="M613.56,544.62h0a45.58,45.58,0,0,1,22.33-5.6,37.4,37.4,0,0,1,15.78,3.23c.63.3,1.51.77,2.1,1.11l42.54,24.56L700,570l38.9,22.46c3,1.71,6.35,4.76,7.78,7.28a15,15,0,0,1,2.11,6.4c.45,6.29-3.54,12.52-11.06,16.86h0a45.83,45.83,0,0,1-22.33,5.6,37.52,37.52,0,0,1-15.78-3.24c-.63-.3-1.52-.77-2.11-1.11l-42.54-24.56-3.64-2.1-38.89-22.46a23.41,23.41,0,0,1-7.79-7.27,15,15,0,0,1-2.11-6.4C602.05,555.18,606,549,613.56,544.62Z" transform="translate(-128.79 -232.28)"/><path class="cls-60" d="M615.24,545.15h0A44.29,44.29,0,0,1,637,539.72a36.25,36.25,0,0,1,15.32,3.2c.56.26,1.52.78,2,1.08l41.36,23.88,3.54,2L737,591.76c2.63,1.52,6.38,4.71,7.7,6.91a15.28,15.28,0,0,1,2.31,6.08c.66,6.06-3.1,12.16-10.5,16.43h0a44.28,44.28,0,0,1-21.71,5.43,36.27,36.27,0,0,1-15.33-3.2c-.56-.27-1.52-.78-2-1.08l-41.36-23.88-3.54-2.05-37.82-21.83c-2.63-1.52-6.38-4.72-7.7-6.92a15,15,0,0,1-2.31-6.08C604.08,555.52,607.84,549.42,615.24,545.15Z" transform="translate(-128.79 -232.28)"/><path class="cls-61" d="M616.92,545.68h0a42.88,42.88,0,0,1,21.1-5.25,35,35,0,0,1,14.87,3.15c.49.23,1.52.79,2,1l40.19,23.21,3.44,2L735.23,591c2.31,1.33,6.41,4.66,7.62,6.55a15.4,15.4,0,0,1,2.5,5.76c.89,5.82-2.64,11.79-9.92,16h0a42.88,42.88,0,0,1-21.1,5.26,35.24,35.24,0,0,1-14.88-3.16c-.48-.23-1.51-.79-2-1.05l-40.19-23.21-3.44-2L617.11,574c-2.3-1.33-6.41-4.66-7.61-6.56a15.09,15.09,0,0,1-2.5-5.76C606.1,555.86,609.64,549.88,616.92,545.68Z" transform="translate(-128.79 -232.28)"/><path class="cls-62" d="M618.6,546.21h0a41.47,41.47,0,0,1,20.48-5.08,34,34,0,0,1,14.43,3.11c.41.2,1.51.8,1.9,1l39,22.52,3.34,1.93,35.66,20.59c2,1.14,6.46,4.6,7.53,6.2a15.62,15.62,0,0,1,2.69,5.44c1.13,5.57-2.19,11.43-9.34,15.56h0a41.53,41.53,0,0,1-20.49,5.07,33.79,33.79,0,0,1-14.42-3.1c-.42-.21-1.52-.81-1.91-1l-39-22.53L655.14,594l-35.67-20.58c-2-1.15-6.45-4.61-7.53-6.21a15.58,15.58,0,0,1-2.69-5.43C608.13,556.19,611.44,550.34,618.6,546.21Z" transform="translate(-128.79 -232.28)"/><path class="cls-63" d="M620.28,546.74h0a40.2,40.2,0,0,1,19.87-4.9,32.88,32.88,0,0,1,14,3.06c.35.17,1.51.82,1.84,1l37.84,21.85,3.24,1.87,34.58,20c1.65.95,6.52,4.53,7.45,5.84a16.46,16.46,0,0,1,2.88,5.11c1.36,5.34-1.73,11.07-8.77,15.13h0a40.2,40.2,0,0,1-19.87,4.9,32.58,32.58,0,0,1-14-3.06c-.35-.17-1.51-.82-1.84-1l-37.84-21.85-3.24-1.87-34.58-20c-1.65-1-6.52-4.53-7.45-5.84a16.26,16.26,0,0,1-2.88-5.11C610.15,556.53,613.24,550.8,620.28,546.74Z" transform="translate(-128.79 -232.28)"/><path class="cls-64" d="M622,547.27h0a38.74,38.74,0,0,1,19.26-4.72,31.45,31.45,0,0,1,13.52,3c.28.14,1.51.83,1.78,1l36.66,21.17,3.14,1.81,33.51,19.35c1.31.76,6.59,4.46,7.36,5.48,1.26,1.68,2.53,3.07,3.07,4.79,1.6,5.1-1.28,10.71-8.19,14.7h0a38.78,38.78,0,0,1-19.25,4.72,31.45,31.45,0,0,1-13.52-3c-.28-.13-1.52-.82-1.78-1L660.84,593.4l-3.14-1.82-33.5-19.34c-1.32-.76-6.59-4.46-7.36-5.49-1.26-1.67-2.54-3.06-3.08-4.78C612.16,556.87,615,551.26,622,547.27Z" transform="translate(-128.79 -232.28)"/><path class="cls-65" d="M623.63,547.8h0a37.45,37.45,0,0,1,18.65-4.55,30.24,30.24,0,0,1,13.06,3c.21.1,1.52.83,1.71.95l35.49,20.49,3,1.75L728,588.14c1,.57,6.84,4.28,7.28,5.13a11,11,0,0,1,3.26,4.46c1.85,4.86-.82,10.35-7.61,14.27h0a37.44,37.44,0,0,1-18.64,4.55,30.39,30.39,0,0,1-13.07-3c-.21-.11-1.52-.84-1.71-1L662,592.13l-3-1.75-32.43-18.72c-1-.57-6.84-4.28-7.28-5.13a10.88,10.88,0,0,1-3.26-4.46C614.18,557.21,616.84,551.72,623.63,547.8Z" transform="translate(-128.79 -232.28)"/><path class="cls-66" d="M625.31,548.33h0a36.06,36.06,0,0,1,18-4.37A29.19,29.19,0,0,1,656,546.89l1.64.92,34.31,19.81,3,1.7,31.34,18.1c.66.38,6.9,4.2,7.2,4.77a10.86,10.86,0,0,1,3.45,4.14c2.1,4.61-.37,10-7,13.83h0a36,36,0,0,1-18,4.38,29.19,29.19,0,0,1-12.62-2.93l-1.64-.93-34.32-19.81-2.94-1.7-31.35-18.09c-.65-.38-6.9-4.21-7.19-4.78a10.8,10.8,0,0,1-3.46-4.13C616.18,557.56,618.65,552.18,625.31,548.33Z" transform="translate(-128.79 -232.28)"/><path class="cls-67" d="M627,548.86h0a34.77,34.77,0,0,1,17.42-4.2,28.09,28.09,0,0,1,12.16,2.89l1.58.9,33.14,19.13,2.84,1.64L724.4,586.7c.33.19,7,4.13,7.11,4.41a10.84,10.84,0,0,1,3.65,3.81c2.34,4.37.08,9.63-6.47,13.41h0a34.73,34.73,0,0,1-17.41,4.2,28.09,28.09,0,0,1-12.16-2.89l-1.58-.9L664.4,589.61,661.56,588l-30.27-17.48c-.33-.19-7-4.13-7.11-4.41a10.84,10.84,0,0,1-3.65-3.81C618.18,557.9,620.45,552.64,627,548.86Z" transform="translate(-128.79 -232.28)"/><path class="cls-68" d="M699.06,607.67l-36.22-20.91-36.22-20.91c-7.3-4.22-6.39-11.59,2-16.46h0c8.44-4.87,21.2-5.4,28.51-1.18l36.22,20.91L729.62,590c7.31,4.22,6.39,11.59-2,16.46h0C719.13,611.36,706.37,611.89,699.06,607.67Z" transform="translate(-128.79 -232.28)"/></g><path class="cls-69" d="M701,597.54l-89.78-51.83c-9.06-5.23-7.92-14.37,2.54-20.4h0c10.46-6,26.28-6.7,35.34-1.47l89.78,51.84c9.06,5.23,7.92,14.36-2.54,20.4h0C725.89,602.12,710.07,602.77,701,597.54Z" transform="translate(-128.79 -232.28)"/><polygon class="cls-70" points="570.77 339.91 568.41 332.02 564.64 334.2 540.37 320.19 536.62 322.36 560.88 336.37 557.11 338.55 570.77 339.91"/><path class="cls-70" d="M725.54,585.49l-.14-.08,3.52-2c2.26-1.3,2.25-3.42,0-4.73L726.06,577a9.08,9.08,0,0,0-8.2,0l-3.53,2-.14-.08a4.22,4.22,0,0,0-3.82,0L701.63,584c-1,.6-1,1.59,0,2.2L713,592.73a4.19,4.19,0,0,0,3.81,0l8.74-5A1.16,1.16,0,0,0,725.54,585.49Zm-12.28,1.35L711.2,588l-1.42-.81,2.07-1.2c-.31-.47-.13-1,.54-1.41a3.66,3.66,0,0,1,3.32,0,1,1,0,0,1,0,1.92A3.66,3.66,0,0,1,713.26,586.84ZM723,584l-6.29-3.63,2.82-1.63a5.16,5.16,0,0,1,4.67,0l1.61.93c1.29.74,1.3,1.95,0,2.69Z" transform="translate(-128.79 -232.28)"/><path class="cls-71" d="M591.53,738.3a15.3,15.3,0,0,0-9.87-1.42c1-1.94.22-4.15-2.45-5.7a15.34,15.34,0,0,0-13.87,0c-7,4-2.48,16.58-2.48,16.58s21.73,2.59,28.71-1.44C595.39,744.1,595.37,740.51,591.53,738.3Z" transform="translate(-128.79 -232.28)"/><path class="cls-57" d="M338.18,853,153.43,745.7a18.17,18.17,0,0,1-.56-31.14L385.52,566.44a18.15,18.15,0,0,1,18.73-.33L601,680.51A18.17,18.17,0,0,1,601,712L356.39,853A18.15,18.15,0,0,1,338.18,853Z" transform="translate(-128.79 -232.28)"/><path class="cls-58" d="M339.34,850.28l-180.79-105a18.26,18.26,0,0,1-.51-31.32L385.39,570.15a18.27,18.27,0,0,1,18.78-.3L595.84,681.31a18.27,18.27,0,0,1,0,31.61L357.64,850.25A18.25,18.25,0,0,1,339.34,850.28Z" transform="translate(-128.79 -232.28)"/><path class="cls-59" d="M340.5,847.55,163.68,744.83a18.36,18.36,0,0,1-.46-31.52l222-139.44a18.36,18.36,0,0,1,18.83-.28L590.7,682.12a18.36,18.36,0,0,1,0,31.77L358.9,847.53A18.36,18.36,0,0,1,340.5,847.55Z" transform="translate(-128.79 -232.28)"/><path class="cls-60" d="M341.65,844.83,168.81,744.4a18.45,18.45,0,0,1-.42-31.71L385.13,577.58a18.45,18.45,0,0,1,18.88-.25L585.56,682.92a18.45,18.45,0,0,1,0,31.93L360.15,844.8A18.47,18.47,0,0,1,341.65,844.83Z" transform="translate(-128.79 -232.28)"/><path class="cls-61" d="M342.81,842.1,173.94,744a18.54,18.54,0,0,1-.38-31.89L385,581.29a18.54,18.54,0,0,1,18.92-.22l176.5,102.65a18.55,18.55,0,0,1,0,32.1L361.4,842.07A18.55,18.55,0,0,1,342.81,842.1Z" transform="translate(-128.79 -232.28)"/><path class="cls-62" d="M344,839.37,179.06,743.53a18.64,18.64,0,0,1-.32-32.09L384.88,585a18.63,18.63,0,0,1,19-.2l171.44,99.72a18.64,18.64,0,0,1,0,32.25L362.66,839.35A18.66,18.66,0,0,1,344,839.37Z" transform="translate(-128.79 -232.28)"/><path class="cls-63" d="M345.13,836.65,184.19,743.1a18.73,18.73,0,0,1-.28-32.28l200.84-122.1a18.72,18.72,0,0,1,19-.17l166.38,96.78a18.73,18.73,0,0,1,0,32.42L363.91,836.62A18.71,18.71,0,0,1,345.13,836.65Z" transform="translate(-128.79 -232.28)"/><path class="cls-64" d="M346.29,833.92l-157-91.26a18.83,18.83,0,0,1-.24-32.47L384.63,592.43a18.82,18.82,0,0,1,19.06-.14L565,686.13a18.83,18.83,0,0,1,0,32.58L365.16,833.9A18.8,18.8,0,0,1,346.29,833.92Z" transform="translate(-128.79 -232.28)"/><path class="cls-65" d="M347.44,831.2l-153-89a18.92,18.92,0,0,1-.19-32.66L384.5,596.14a18.91,18.91,0,0,1,19.11-.11l156.27,90.91a18.92,18.92,0,0,1,0,32.74L366.41,831.17A18.92,18.92,0,0,1,347.44,831.2Z" transform="translate(-128.79 -232.28)"/><path class="cls-66" d="M348.6,828.47l-149-86.67a19,19,0,0,1-.14-32.85L384.37,599.86a19,19,0,0,1,19.17-.09l151.2,88a19,19,0,0,1,0,32.91L367.67,828.44A19,19,0,0,1,348.6,828.47Z" transform="translate(-128.79 -232.28)"/><path class="cls-67" d="M349.76,825.75,204.7,741.36a19.11,19.11,0,0,1-.1-33L384.25,603.57a19.12,19.12,0,0,1,19.21-.06l146.14,85a19.11,19.11,0,0,1,0,33.07L368.92,825.72A19.12,19.12,0,0,1,349.76,825.75Z" transform="translate(-128.79 -232.28)"/><path class="cls-68" d="M350.92,823,209.83,740.93a19.2,19.2,0,0,1-.05-33.23L384.12,607.28a19.21,19.21,0,0,1,19.26,0l141.08,82.09a19.21,19.21,0,0,1,0,33.24L370.17,823A19.2,19.2,0,0,1,350.92,823Z" transform="translate(-128.79 -232.28)"/><polygon class="cls-48" points="224.08 588.7 0 458.48 259.57 308.95 483.65 439.16 224.08 588.7"/><polygon class="cls-72" points="224.08 585.98 3.92 456.22 0 458.48 224.08 588.69 483.49 439.22 479.58 438.77 224.08 585.98"/><path class="cls-73" d="M316.23,731.36l-18.44-10.64-5.26,3L311,734.4Zm5.79-4.59,19.26,11.12,5.25-3-19.25-11.12ZM351,729.48l8.41,4.85,5.26-3-8.41-4.86Zm-22.9,14.78,18.45,10.65,5.25-3-18.44-10.65Zm17.56-3.87,8.24,4.76,5.25-3-8.24-4.76Zm-107.41-62,10.58,6.11,5.25-3-10.58-6.1Zm28.39,24.33L260.09,699l-5.26,3,6.51,3.76Zm5.89-10.61L258.38,684l-5.25,3,14.1,8.15Zm31.19,18-26.85-15.5-5.26,3,26.85,15.51Zm5.3,31.08-19.25-11.12-5.26,3,19.26,11.12Zm-52.13-66.05,29.29,16.91,5.26-3L262.1,672.1Zm71.33,41.18L346.63,727l5.25-3-18.44-10.65Zm-18.82,45.16,5.26-3-7.19-4.15-5.25,3Zm37.87,1.79-33.91-19.58-5.25,3L342,766.3ZM329.1,710.78l-22.51-13-5.26,3,22.51,13Zm-67,3.31-22.78-13.15L234,704l22.79,13.15Zm60.88,7.14L308,712.62l-5.26,3,14.92,8.61Zm-88-22.79-14.11-8.15-5.25,3,14.1,8.14ZM221.2,682.57l29.29,16.91,5.26-3-29.3-16.91Zm21.41,34.3L213.32,700l-5.26,3,29.29,16.91Zm50.84,1.34-22.51-13-5.26,3,22.51,13Zm9.64,33.58-18.44-10.65-5.26,3,18.45,10.64Zm-50.55-23.12,22.51,13,5.26-3-22.51-13Zm32.85-1.11-19-11-5.26,3,19,11Zm-43.7-5.15,6.51,3.76,5.26-3L247,719.37ZM395.82,749.3l-5.26,3,23.49,13.48,5.25-3Zm-24.23,20.1,18.2,10.43,5.25-3-18.19-10.43ZM346.72,769l30.94,17.79,5.26-3L352,766Zm-89-99.44L230.5,654l-5.25,3,27.26,15.57Zm106,67.24,22.51,13,5.26-3L369,733.8Zm-73.23-42.29,6.51,3.76,5.26-3-6.51-3.76Zm116.29,75-44.1-25.39-5.26,3,44.1,25.38Zm-33.34-5.17-17.33-10-5.25,3,17.32,10ZM329,738.72l-8.41-4.85-5.26,3,8.41,4.86Zm-89.85-65.88L218.37,661l-5.25,3,20.75,11.82ZM209,697.45,182,682l-5.25,3,27,15.42Zm7.51-9.66L194.11,675l-5.25,3,22.38,12.75ZM222.11,677l-15.87-9-5.25,3,15.87,9Z" transform="translate(-128.79 -232.28)"/><polygon class="cls-74" points="443.62 442.44 421.11 429.45 415.85 432.48 438.36 445.48 443.62 442.44"/><polygon class="cls-74" points="383.02 407.3 366.58 397.81 361.32 400.84 377.77 410.33 383.02 407.3"/><polygon class="cls-74" points="379.57 419.31 354.45 404.81 349.2 407.85 374.32 422.35 379.57 419.31"/><polygon class="cls-74" points="416.66 426.72 387.36 409.81 382.11 412.84 411.4 429.75 416.66 426.72"/><polygon class="cls-74" points="412.94 438.58 398.83 430.43 393.57 433.47 407.68 441.61 412.94 438.58"/><polygon class="cls-74" points="383.91 421.82 378.66 424.86 389.24 430.96 394.49 427.93 383.91 421.82"/><g class="cls-56"><polygon class="cls-74" points="331.13 435.07 341.7 441.18 346.96 438.14 336.38 432.04 331.13 435.07"/><polygon class="cls-74" points="359.51 459.4 353 455.64 347.75 458.67 354.26 462.43 359.51 459.4"/><polygon class="cls-74" points="365.4 448.79 351.3 440.65 346.04 443.68 360.15 451.83 365.4 448.79"/><polygon class="cls-74" points="349.76 431.83 379.06 448.74 384.31 445.7 355.02 428.79 349.76 431.83"/><polygon class="cls-74" points="314.11 439.26 343.41 456.17 348.66 453.13 319.37 436.22 314.11 439.26"/><polygon class="cls-74" points="350.68 426.29 333.97 416.64 328.71 419.67 345.43 429.32 350.68 426.29"/><polygon class="cls-74" points="383.4 451.25 389.91 455 395.16 451.97 388.65 448.21 383.4 451.25"/><polygon class="cls-74" points="332.04 429.53 321.84 423.64 316.58 426.68 326.79 432.57 332.04 429.53"/><polygon class="cls-74" points="315.03 433.72 309.71 430.64 304.45 433.68 309.77 436.75 315.03 433.72"/></g><polygon class="cls-75" points="254.74 392.67 155.69 392.5 255.05 449.86 254.74 392.67"/><polygon class="cls-76" points="258.12 333.36 258.43 390.55 357.48 390.73 258.12 333.36"/><polygon class="cls-77" points="254.73 390.54 254.42 333.35 155.68 390.36 254.73 390.54"/><polygon class="cls-78" points="357.49 392.86 258.44 392.68 258.75 449.87 357.49 392.86"/><polygon class="cls-79" points="359.33 391.8 359.33 391.8 359.33 391.8 359.33 391.8"/><polygon class="cls-80" points="256.91 450.93 256.91 450.93 256.91 450.93 256.91 450.93"/><path class="cls-81" d="M443.86,684.38A15.26,15.26,0,0,0,434,683c1-1.94.22-4.15-2.45-5.7a15.37,15.37,0,0,0-13.87,0c-7,4-2.48,16.58-2.48,16.58s21.73,2.59,28.71-1.44C447.72,690.18,447.71,686.59,443.86,684.38Z" transform="translate(-128.79 -232.28)"/><polygon class="cls-82" points="277.69 393.68 256.62 405.84 235.41 393.6 219.51 402.78 256.72 424.26 293.69 402.91 277.69 393.68"/><polygon class="cls-82" points="256.59 401.16 273.62 391.33 256.48 381.44 239.46 391.27 256.59 401.16"/><polygon class="cls-82" points="256.46 376.8 297.69 400.61 315.6 390.27 256.35 356.06 197.47 390.05 215.49 400.46 256.46 376.8"/><path class="cls-57" d="M484.92,664.49l-167.6-96.76a26.11,26.11,0,0,1-.06-45.19L525,402.27a26.1,26.1,0,0,1,26.16,0L718.73,499a26.11,26.11,0,0,1,.06,45.19L511.08,664.46A26.1,26.1,0,0,1,484.92,664.49Z" transform="translate(-128.79 -232.28)"/><path class="cls-58" d="M486.08,662,320.23,566.21a25.44,25.44,0,0,1-.05-44L524,404.11a25.47,25.47,0,0,1,25.51,0L715.4,499.83a25.45,25.45,0,0,1,.05,44.05l-203.87,118A25.43,25.43,0,0,1,486.08,662Z" transform="translate(-128.79 -232.28)"/><path class="cls-59" d="M487.25,659.44,323.14,564.69a24.78,24.78,0,0,1-.05-42.89L523.12,406a24.78,24.78,0,0,1,24.84,0l164.1,94.75a24.78,24.78,0,0,1,.06,42.89l-200,115.84A24.78,24.78,0,0,1,487.25,659.44Z" transform="translate(-128.79 -232.28)"/><path class="cls-60" d="M488.41,656.91,326.06,563.17a24.11,24.11,0,0,1-.06-41.74L522.2,407.8a24.09,24.09,0,0,1,24.17,0L708.73,501.5a24.12,24.12,0,0,1,.06,41.75L512.59,656.88A24.13,24.13,0,0,1,488.41,656.91Z" transform="translate(-128.79 -232.28)"/><path class="cls-61" d="M489.58,654.38,329,561.66a23.47,23.47,0,0,1-.06-40.61L521.27,409.64a23.48,23.48,0,0,1,23.52,0L705.4,502.34a23.46,23.46,0,0,1,.05,40.6L513.09,654.35A23.44,23.44,0,0,1,489.58,654.38Z" transform="translate(-128.79 -232.28)"/><path class="cls-62" d="M490.74,651.86,331.88,560.14a22.8,22.8,0,0,1-.05-39.46l188.52-109.2a22.81,22.81,0,0,1,22.85,0l158.86,91.72a22.79,22.79,0,0,1,.06,39.45L513.59,651.83A22.81,22.81,0,0,1,490.74,651.86Z" transform="translate(-128.79 -232.28)"/><path class="cls-63" d="M491.91,649.33,334.79,558.62a22.14,22.14,0,0,1-.05-38.31l184.69-107a22.14,22.14,0,0,1,22.18,0L698.73,504a22.14,22.14,0,0,1,0,38.31L514.1,649.3A22.14,22.14,0,0,1,491.91,649.33Z" transform="translate(-128.79 -232.28)"/><path class="cls-64" d="M493.07,646.8,337.7,557.1a21.47,21.47,0,0,1-.05-37.16L518.5,415.16a21.51,21.51,0,0,1,21.53,0L695.4,504.84a21.47,21.47,0,0,1,.05,37.16L514.6,646.77A21.46,21.46,0,0,1,493.07,646.8Z" transform="translate(-128.79 -232.28)"/><path class="cls-65" d="M494.24,644.28l-153.62-88.7a20.81,20.81,0,0,1-.06-36L517.58,417a20.79,20.79,0,0,1,20.86,0l153.62,88.69a20.81,20.81,0,0,1,.06,36l-177,102.57A20.82,20.82,0,0,1,494.24,644.28Z" transform="translate(-128.79 -232.28)"/><path class="cls-66" d="M495.4,641.75,343.53,554.07a20.15,20.15,0,0,1,0-34.87L516.66,418.85a20.14,20.14,0,0,1,20.2,0L688.73,506.5a20.15,20.15,0,0,1,0,34.87L515.6,641.72A20.14,20.14,0,0,1,495.4,641.75Z" transform="translate(-128.79 -232.28)"/><path class="cls-67" d="M496.57,639.23,346.44,552.55a19.48,19.48,0,0,1-.05-33.72l169.34-98.14a19.49,19.49,0,0,1,19.54,0L685.4,507.34a19.49,19.49,0,0,1,.05,33.72L516.1,639.2A19.48,19.48,0,0,1,496.57,639.23Z" transform="translate(-128.79 -232.28)"/><path class="cls-68" d="M497.73,636.7,349.35,551a18.82,18.82,0,0,1-.05-32.57l165.51-95.93a18.83,18.83,0,0,1,18.87,0l148.39,85.67a18.82,18.82,0,0,1,0,32.57L516.61,636.67A18.84,18.84,0,0,1,497.73,636.7Z" transform="translate(-128.79 -232.28)"/><polygon class="cls-48" points="371.99 403.54 159.97 281.13 392.74 146.63 604.77 269.04 371.99 403.54"/><polygon class="cls-83" points="570.92 288.47 358.89 166.06 402.38 141.06 614.41 263.48 570.92 288.47"/><polygon class="cls-39" points="485.35 304.25 329.1 214.04 361.73 195.74 517.98 285.95 485.35 304.25"/><polygon class="cls-39" points="439.21 331.33 282.97 241.12 315.6 222.82 471.84 313.03 439.21 331.33"/><path class="cls-84" d="M490.22,603.16l-81-46.74c-7.86-4.54-6.88-12.47,2.2-17.71h0c9.07-5.23,22.8-5.8,30.65-1.27l81,46.74c7.86,4.54,6.88,12.47-2.2,17.71h0C511.81,607.12,498.08,607.69,490.22,603.16Z" transform="translate(-128.79 -232.28)"/><polygon class="cls-85" points="434.39 358.75 235.94 244.18 237.75 243.4 436.21 357.98 434.39 358.75"/><path class="cls-73" d="M699.3,494.82l10.88,0c.94,0,1.7-.43,1.7-1s-.77-1-1.72-1l-10.87,0,0-6.28c0-.54-.77-1-1.72-1s-1.7.43-1.7,1l0,6.28-10.88,0c-.94,0-1.7.44-1.7,1a.86.86,0,0,0,.5.7,2.46,2.46,0,0,0,1.21.29l10.88,0,0,6.28a.83.83,0,0,0,.5.69,2.46,2.46,0,0,0,1.21.29c1,0,1.71-.43,1.71-1Z" transform="translate(-128.79 -232.28)"/><polygon class="cls-72" points="371.99 401.28 163.22 279.25 159.97 281.13 371.99 403.54 613.95 263.5 610.69 263.13 371.99 401.28"/><polygon class="cls-86" points="357.83 348.49 355.47 340.6 351.69 342.78 327.43 328.76 323.67 330.93 347.94 344.94 344.16 347.13 357.83 348.49"/><polygon class="cls-86" points="379.19 358.61 373.24 362.04 367.26 358.59 362.77 361.18 373.27 367.24 383.7 361.22 379.19 358.61"/><polygon class="cls-86" points="373.23 360.72 378.04 357.95 373.2 355.16 368.4 357.93 373.23 360.72"/><polygon class="cls-86" points="373.2 353.85 384.83 360.56 389.88 357.65 373.16 348 356.55 357.59 361.64 360.52 373.2 353.85"/><path class="cls-87" d="M494.24,452.91a4.07,4.07,0,0,1-1.43-2.73c0-.57.81-1,1.8-1a17.41,17.41,0,0,0,3.88-.43,3.58,3.58,0,0,0,2.5,0c.65-.38.86-.89.55-1.22,2.6-1.66,3.83-3.64.11-5.78a9.77,9.77,0,0,0-10,.06,2.91,2.91,0,0,0-2.12.32.86.86,0,0,0-.08,1.44,3.9,3.9,0,0,0-.73,2.24c0,.57-.8,1.05-1.79,1a15.12,15.12,0,0,1-4.74-.83,8,8,0,0,0-6.15.41L473.14,448c-.56.32-.55.85,0,1.17l15.46,8.93a2.27,2.27,0,0,0,2,0l2.89-1.66C495.19,455.5,495.43,454,494.24,452.91Z" transform="translate(-128.79 -232.28)"/><path class="cls-88" d="M454.49,476.31l-.14-.08,3.52-2c2.26-1.3,2.25-3.42,0-4.73L455,467.82a9.08,9.08,0,0,0-8.2,0l-3.52,2-.15-.08a4.19,4.19,0,0,0-3.82,0l-8.74,5.05c-1.05.6-1,1.59,0,2.2L442,483.55a4.19,4.19,0,0,0,3.81,0l8.74-5.05C455.56,477.91,455.55,476.92,454.49,476.31Zm-12.28,1.35-2.06,1.19-1.42-.82,2.07-1.19c-.3-.48-.13-1,.54-1.41a3.66,3.66,0,0,1,3.32,0,1,1,0,0,1,0,1.92A3.66,3.66,0,0,1,442.21,477.66Zm9.75-2.81-6.29-3.64,2.82-1.62a5.16,5.16,0,0,1,4.67,0l1.61.93c1.29.74,1.3,2,0,2.69Z" transform="translate(-128.79 -232.28)"/><path class="cls-57" d="M736.74,580.32l-208.46-122a15.19,15.19,0,0,1-.47-26l57.52-44.86A15.18,15.18,0,0,1,601,387.2L819.46,515.09a15.18,15.18,0,0,1,0,26.28L752,580.3A15.19,15.19,0,0,1,736.74,580.32Z" transform="translate(-128.79 -232.28)"/><path class="cls-58" d="M737.71,578,532.57,458a15.27,15.27,0,0,1-.43-26.19l53.09-41.24a15.28,15.28,0,0,1,15.7-.25L815.17,515.76a15.27,15.27,0,0,1,0,26.42L753,578A15.24,15.24,0,0,1,737.71,578Z" transform="translate(-128.79 -232.28)"/><path class="cls-59" d="M738.67,575.76,536.85,457.65a15.35,15.35,0,0,1-.38-26.36l48.65-37.6a15.33,15.33,0,0,1,15.74-.23l210,123a15.35,15.35,0,0,1,0,26.56l-56.84,32.75A15.34,15.34,0,0,1,738.67,575.76Z" transform="translate(-128.79 -232.28)"/><path class="cls-60" d="M739.64,573.49,541.14,457.28a15.42,15.42,0,0,1-.35-26.51l44.22-34a15.42,15.42,0,0,1,15.78-.21L806.58,517.1a15.43,15.43,0,0,1,0,26.7L755.1,573.46A15.42,15.42,0,0,1,739.64,573.49Z" transform="translate(-128.79 -232.28)"/><path class="cls-61" d="M740.61,571.21,545.43,456.92a15.5,15.5,0,0,1-.31-26.67l39.79-30.36a15.49,15.49,0,0,1,15.82-.18L802.28,517.77a15.5,15.5,0,0,1,0,26.83l-46.16,26.59A15.52,15.52,0,0,1,740.61,571.21Z" transform="translate(-128.79 -232.28)"/><path class="cls-62" d="M741.58,568.93,549.71,456.56a15.59,15.59,0,0,1-.27-26.83L584.8,403a15.57,15.57,0,0,1,15.86-.16L798,518.44a15.59,15.59,0,0,1,0,27l-40.82,23.5A15.6,15.6,0,0,1,741.58,568.93Z" transform="translate(-128.79 -232.28)"/><path class="cls-63" d="M742.54,566.65,554,456.2a15.66,15.66,0,0,1-.23-27L584.7,406.1a15.66,15.66,0,0,1,15.9-.14L793.69,519.11a15.67,15.67,0,0,1,0,27.11l-35.48,20.41A15.67,15.67,0,0,1,742.54,566.65Z" transform="translate(-128.79 -232.28)"/><path class="cls-64" d="M743.51,564.37,558.29,455.83a15.73,15.73,0,0,1-.2-27.14l26.5-19.48a15.74,15.74,0,0,1,15.94-.12l188.86,110.7a15.74,15.74,0,0,1,0,27.24l-30.14,17.32A15.75,15.75,0,0,1,743.51,564.37Z" transform="translate(-128.79 -232.28)"/><path class="cls-65" d="M744.48,562.09,562.57,455.47a15.82,15.82,0,0,1-.15-27.31l22.06-15.85a15.81,15.81,0,0,1,16-.09L785.1,520.46a15.81,15.81,0,0,1,0,27.37l-24.8,14.24A15.8,15.8,0,0,1,744.48,562.09Z" transform="translate(-128.79 -232.28)"/><path class="cls-66" d="M745.45,559.81,566.86,455.11a15.9,15.9,0,0,1-.12-27.47l17.64-12.22a15.91,15.91,0,0,1,16-.08L780.8,521.13a15.89,15.89,0,0,1,0,27.51l-19.45,11.15A15.9,15.9,0,0,1,745.45,559.81Z" transform="translate(-128.79 -232.28)"/><path class="cls-67" d="M746.42,557.54,571.15,454.75a16,16,0,0,1-.08-27.63l13.2-8.6a16,16,0,0,1,16.06,0L776.51,521.8a16,16,0,0,1,0,27.65l-14.11,8.06A16,16,0,0,1,746.42,557.54Z" transform="translate(-128.79 -232.28)"/><path class="cls-68" d="M747.38,555.26,575.44,454.38a16.05,16.05,0,0,1-.05-27.78l8.78-5a16,16,0,0,1,16.09,0l172,100.87a16.06,16.06,0,0,1,0,27.79l-8.78,5A16.08,16.08,0,0,1,747.38,555.26Z" transform="translate(-128.79 -232.28)"/><polygon class="cls-89" points="624.11 328.27 400.03 198.06 477.15 153.67 701.23 283.89 624.11 328.27"/><polygon class="cls-72" points="624.11 325.56 403.95 195.79 400.03 198.06 624.11 328.27 701.07 283.94 697.15 283.49 624.11 325.56"/><polygon class="cls-39" points="628.17 301.8 446.74 196.82 479.37 178.52 660.8 283.5 628.17 301.8"/><path class="cls-90" d="M760.43,526.93l0-6.09c0-.64-.76-1.17-1.78-1.33v-1.79c5.37-.42,9.5-3.06,9.48-6.29,0-3.52-5-6.38-11.07-6.39s-11,2.83-11,6.35c0,3.23,4.17,5.89,9.55,6.33v1.78c-1,.16-1.77.69-1.77,1.33l0,6.09c0,.76,1.08,1.38,2.4,1.39h1.81C759.37,528.31,760.44,527.7,760.43,526.93Zm-3.36-11.32c-4,0-7.28-1.89-7.29-4.21s3.23-4.19,7.25-4.19,7.28,1.9,7.29,4.22S761.09,515.62,757.07,515.61Z" transform="translate(-128.79 -232.28)"/><path class="cls-57" d="M664.37,491.33l-83.48-46.16a9,9,0,0,1-.06-15.63l94-54.81a9,9,0,0,1,9,0l83.49,46.16a9,9,0,0,1,0,15.63l-94,54.81A9,9,0,0,1,664.37,491.33Z" transform="translate(-128.79 -232.28)"/><path class="cls-58" d="M664.69,489.47l-81.22-44.85a9.08,9.08,0,0,1-.05-15.72l90.48-52.77a9.08,9.08,0,0,1,9.1,0L764.22,421a9.08,9.08,0,0,1,0,15.72l-90.49,52.77A9.06,9.06,0,0,1,664.69,489.47Z" transform="translate(-128.79 -232.28)"/><path class="cls-59" d="M665,487.61l-78.94-43.55a9.13,9.13,0,0,1-.06-15.8l87-50.73a9.1,9.1,0,0,1,9.14,0l78.94,43.55a9.12,9.12,0,0,1,.06,15.79l-87,50.74A9.1,9.1,0,0,1,665,487.61Z" transform="translate(-128.79 -232.28)"/><path class="cls-60" d="M665.31,485.75,588.65,443.5a9.17,9.17,0,0,1-.06-15.87l83.46-48.7a9.15,9.15,0,0,1,9.19,0l76.67,42.25A9.17,9.17,0,0,1,758,437l-83.45,48.7A9.19,9.19,0,0,1,665.31,485.75Z" transform="translate(-128.79 -232.28)"/><path class="cls-61" d="M665.63,483.89l-74.4-40.95a9.22,9.22,0,0,1-.06-15.95l80-46.66a9.19,9.19,0,0,1,9.24,0l74.39,40.94a9.21,9.21,0,0,1,.06,15.95l-79.94,46.67A9.22,9.22,0,0,1,665.63,483.89Z" transform="translate(-128.79 -232.28)"/><path class="cls-62" d="M665.94,482l-72.12-39.64a9.26,9.26,0,0,1-.06-16l76.43-44.63a9.29,9.29,0,0,1,9.29,0l72.12,39.65a9.26,9.26,0,0,1,.06,16L675.23,482A9.29,9.29,0,0,1,665.94,482Z" transform="translate(-128.79 -232.28)"/><path class="cls-63" d="M666.26,480.17l-69.85-38.34a9.31,9.31,0,0,1-.07-16.11l72.92-42.59a9.31,9.31,0,0,1,9.33,0l69.86,38.35a9.3,9.3,0,0,1,.06,16.1l-72.92,42.6A9.31,9.31,0,0,1,666.26,480.17Z" transform="translate(-128.79 -232.28)"/><path class="cls-64" d="M666.57,478.31l-67.58-37a9.35,9.35,0,0,1-.06-16.18l69.41-40.56a9.34,9.34,0,0,1,9.37,0l67.58,37a9.36,9.36,0,0,1,.07,16.19L676,478.28A9.36,9.36,0,0,1,666.57,478.31Z" transform="translate(-128.79 -232.28)"/><path class="cls-65" d="M666.88,476.45l-65.3-35.73a9.41,9.41,0,0,1-.07-16.27l65.9-38.52a9.41,9.41,0,0,1,9.42,0l65.31,35.74a9.39,9.39,0,0,1,.06,16.26l-65.89,38.52A9.38,9.38,0,0,1,666.88,476.45Z" transform="translate(-128.79 -232.28)"/><path class="cls-66" d="M667.2,474.59l-63-34.43a9.44,9.44,0,0,1-.07-16.34l62.38-36.49a9.45,9.45,0,0,1,9.47,0l63,34.44a9.44,9.44,0,0,1,.07,16.34l-62.38,36.48A9.43,9.43,0,0,1,667.2,474.59Z" transform="translate(-128.79 -232.28)"/><path class="cls-67" d="M667.51,472.73,606.75,439.6a9.49,9.49,0,0,1-.07-16.42l58.87-34.45a9.5,9.5,0,0,1,9.52,0l60.76,33.13a9.49,9.49,0,0,1,.07,16.42L677,472.69A9.47,9.47,0,0,1,667.51,472.73Z" transform="translate(-128.79 -232.28)"/><path class="cls-68" d="M667.83,470.87,609.34,439a9.53,9.53,0,0,1-.07-16.49l55.35-32.42a9.54,9.54,0,0,1,9.57,0l58.49,31.83a9.54,9.54,0,0,1,.07,16.5l-55.36,32.41A9.5,9.5,0,0,1,667.83,470.87Z" transform="translate(-128.79 -232.28)"/><polygon class="cls-48" points="546.56 168.6 512.36 148.85 486.7 163.66 546.72 198.32 606.37 163.88 580.55 148.98 546.56 168.6"/><polygon class="cls-48" points="546.35 129.23 518.88 145.09 546.52 161.05 573.99 145.19 546.35 129.23"/><polygon class="cls-91" points="546.12 88.29 451.14 143.13 480.21 159.92 546.3 121.76 612.82 160.16 641.71 143.48 546.12 88.29"/><polygon class="cls-72" points="546.72 195.63 489.03 162.32 486.7 163.66 546.72 198.32 606.37 163.88 604.04 162.54 546.72 195.63"/><polygon class="cls-72" points="612.82 157.47 546.3 119.07 480.21 157.23 453.46 141.79 451.14 143.13 480.21 159.92 546.3 121.76 612.82 160.16 641.71 143.48 639.38 142.13 612.82 157.47"/><polygon class="cls-72" points="546.52 161.05 573.99 145.19 571.66 143.85 546.52 158.36 521.2 143.75 518.88 145.09 546.52 161.05"/><polygon class="cls-92" points="211.96 444.11 188.59 430.62 183.68 433.85 207.05 447.34 211.96 444.11"/><polygon class="cls-93" points="155.78 411.67 124.72 393.91 119.81 397.14 150.86 414.9 155.78 411.67"/><polygon class="cls-94" points="215.74 446.29 210.82 449.52 216.96 453.06 221.88 449.83 215.74 446.29"/><polygon class="cls-95" points="184.81 428.44 172.54 421.35 167.62 424.58 179.9 431.67 184.81 428.44"/><polygon class="cls-96" points="159.56 413.85 154.64 417.08 163.85 422.4 168.76 419.17 159.56 413.85"/><polygon class="cls-97" points="220.74 455.25 237.5 464.92 242.41 461.69 225.65 452.01 220.74 455.25"/><g class="cls-98"><polygon points="224.21 467.22 197.35 451.72 192.1 454.75 218.95 470.25 224.21 467.22"/><polygon points="159.65 429.95 123.98 409.52 118.73 412.56 154.4 432.99 159.65 429.95"/><polygon points="228.55 469.73 223.29 472.76 230.34 476.83 235.6 473.8 228.55 469.73"/><polygon points="193.01 449.21 178.91 441.07 173.66 444.1 187.76 452.25 193.01 449.21"/><polygon points="163.99 432.46 158.74 435.49 169.31 441.6 174.57 438.56 163.99 432.46"/><polygon points="234.68 479.34 253.94 490.45 259.19 487.42 239.94 476.3 234.68 479.34"/></g></g></g></svg>