<svg xmlns="http://www.w3.org/2000/svg" xmlns:xlink="http://www.w3.org/1999/xlink" viewBox="0 0 1151.89 805.92"><defs><style>.cls-1{isolation:isolate;}.cls-2,.cls-89{fill:#1a2e35;}.cls-3{fill:url(#linear-gradient);}.cls-4{fill:url(#linear-gradient-2);}.cls-5{fill:url(#linear-gradient-3);}.cls-6{fill:url(#linear-gradient-4);}.cls-7{fill:url(#linear-gradient-5);}.cls-8{fill:url(#linear-gradient-6);}.cls-9{fill:url(#linear-gradient-7);}.cls-10{fill:url(#linear-gradient-8);}.cls-11{fill:url(#linear-gradient-9);}.cls-12{fill:url(#linear-gradient-10);}.cls-13{fill:url(#linear-gradient-11);}.cls-14{fill:url(#linear-gradient-12);}.cls-15{fill:url(#linear-gradient-13);}.cls-16{fill:url(#linear-gradient-14);}.cls-17{fill:url(#linear-gradient-15);}.cls-18{fill:url(#linear-gradient-16);}.cls-19{fill:url(#linear-gradient-17);}.cls-20{fill:url(#linear-gradient-18);}.cls-21{fill:url(#linear-gradient-19);}.cls-22{fill:url(#linear-gradient-20);}.cls-23{fill:url(#linear-gradient-21);}.cls-24{fill:url(#linear-gradient-22);}.cls-25{fill:url(#linear-gradient-23);}.cls-26{fill:url(#linear-gradient-24);}.cls-27{fill:url(#linear-gradient-25);}.cls-28{fill:url(#linear-gradient-26);}.cls-29{fill:url(#linear-gradient-27);}.cls-30{fill:url(#linear-gradient-28);}.cls-31{fill:url(#linear-gradient-29);}.cls-32{fill:url(#linear-gradient-30);}.cls-33{fill:url(#linear-gradient-31);}.cls-34{fill:url(#linear-gradient-32);}.cls-35{fill:url(#linear-gradient-33);}.cls-36{fill:url(#linear-gradient-34);}.cls-37{fill:url(#linear-gradient-35);}.cls-38{fill:url(#linear-gradient-36);}.cls-39{fill:url(#linear-gradient-37);}.cls-40{fill:url(#linear-gradient-38);}.cls-41{fill:url(#linear-gradient-39);}.cls-42{fill:url(#linear-gradient-40);}.cls-43{fill:url(#linear-gradient-41);}.cls-44{fill:url(#linear-gradient-42);}.cls-45{fill:url(#linear-gradient-43);}.cls-46{fill:url(#linear-gradient-44);}.cls-47{fill:url(#linear-gradient-45);}.cls-48{fill:url(#linear-gradient-46);}.cls-49{fill:url(#linear-gradient-47);}.cls-50{fill:#cce3ff;}.cls-51{stroke-miterlimit:10;fill:url(#linear-gradient-48);stroke:url(#linear-gradient-49);}.cls-52{fill:url(#linear-gradient-50);}.cls-53{fill:#fff;}.cls-54{fill:url(#linear-gradient-51);}.cls-55{fill:url(#linear-gradient-52);}.cls-56{fill:url(#linear-gradient-53);}.cls-57{fill:#d1d4fb;}.cls-57,.cls-61,.cls-63{mix-blend-mode:multiply;}.cls-58{fill:url(#linear-gradient-54);}.cls-59{fill:#91b3fa;}.cls-60{fill:#f4f8fc;}.cls-61,.cls-63,.cls-79{opacity:0.3;}.cls-62,.cls-63{fill:#2164ad;}.cls-64{fill:url(#linear-gradient-55);}.cls-65{fill:url(#linear-gradient-56);}.cls-66{fill:url(#linear-gradient-57);}.cls-67{fill:url(#linear-gradient-58);}.cls-68{fill:url(#linear-gradient-59);}.cls-69{fill:url(#linear-gradient-60);}.cls-70{fill:url(#linear-gradient-61);}.cls-71{fill:url(#linear-gradient-62);}.cls-72{fill:url(#linear-gradient-63);}.cls-73{fill:url(#linear-gradient-64);}.cls-74{fill:url(#linear-gradient-65);}.cls-75{fill:url(#linear-gradient-66);}.cls-76{fill:url(#linear-gradient-67);}.cls-77{fill:url(#linear-gradient-68);}.cls-78{fill:url(#linear-gradient-69);}.cls-79{mix-blend-mode:color-burn;}.cls-80{fill:url(#linear-gradient-70);}.cls-81{fill:#e1e1e1;}.cls-82{fill:url(#linear-gradient-71);}.cls-83{opacity:0.34;fill:url(#linear-gradient-72);}.cls-84{fill:url(#linear-gradient-73);}.cls-85{fill:#ffbf9d;}.cls-86{fill:#4d4d4d;}.cls-87{fill:#ffaba1;}.cls-88,.cls-89{opacity:0.1;}.cls-90{fill:#16282d;}.cls-91{fill:#dd9373;}.cls-92{fill:#c17e67;}.cls-93{fill:#89705d;}.cls-94{fill:#d1945d;}.cls-95{fill:#c18859;}.cls-96{fill:url(#linear-gradient-74);}.cls-97{fill:url(#linear-gradient-75);}.cls-98{fill:url(#linear-gradient-76);}.cls-99{fill:url(#linear-gradient-77);}.cls-100{fill:url(#linear-gradient-78);}.cls-101{fill:url(#linear-gradient-79);}.cls-102{fill:url(#linear-gradient-80);}.cls-103{fill:url(#linear-gradient-81);}.cls-104{fill:url(#linear-gradient-82);}.cls-105{fill:url(#linear-gradient-83);}.cls-106{fill:url(#linear-gradient-84);}.cls-107{fill:url(#linear-gradient-85);}.cls-108{fill:url(#linear-gradient-86);}.cls-109{fill:url(#linear-gradient-87);}.cls-110{fill:url(#linear-gradient-88);}.cls-111{fill:url(#linear-gradient-89);}.cls-112{fill:url(#linear-gradient-90);}.cls-113{fill:url(#linear-gradient-91);}</style><linearGradient id="linear-gradient" x1="165.04" y1="714.05" x2="190.83" y2="714.05" gradientUnits="userSpaceOnUse"><stop offset="0.04" stop-color="#6b24d6"/><stop offset="0.22" stop-color="#5c28cc" stop-opacity="0.96"/><stop offset="0.57" stop-color="#3634b2" stop-opacity="0.86"/><stop offset="0.98" stop-color="#00448e" stop-opacity="0.72"/></linearGradient><linearGradient id="linear-gradient-2" x1="73.04" y1="718.77" x2="138.33" y2="718.77" xlink:href="#linear-gradient"/><linearGradient id="linear-gradient-3" x1="80.44" y1="766.02" x2="141.25" y2="766.02" xlink:href="#linear-gradient"/><linearGradient id="linear-gradient-4" x1="173.49" y1="732.21" x2="223.67" y2="732.21" xlink:href="#linear-gradient"/><linearGradient id="linear-gradient-5" x1="97.21" y1="733.13" x2="218.02" y2="733.13" xlink:href="#linear-gradient"/><linearGradient id="linear-gradient-6" x1="96.48" y1="757.52" x2="187.98" y2="757.52" xlink:href="#linear-gradient"/><linearGradient id="linear-gradient-7" x1="195" y1="775.05" x2="232.83" y2="775.05" xlink:href="#linear-gradient"/><linearGradient id="linear-gradient-8" x1="195.65" y1="747.11" x2="233.03" y2="747.11" xlink:href="#linear-gradient"/><linearGradient id="linear-gradient-9" x1="209.12" y1="763.81" x2="278.64" y2="763.81" xlink:href="#linear-gradient"/><linearGradient id="linear-gradient-10" x1="203.48" y1="749.58" x2="258.95" y2="749.58" xlink:href="#linear-gradient"/><linearGradient id="linear-gradient-11" x1="140.35" y1="663.99" x2="310.57" y2="663.99" xlink:href="#linear-gradient"/><linearGradient id="linear-gradient-12" x1="175.77" y1="664.67" x2="203.15" y2="664.67" xlink:href="#linear-gradient"/><linearGradient id="linear-gradient-13" x1="205.34" y1="666.48" x2="237.97" y2="666.48" xlink:href="#linear-gradient"/><linearGradient id="linear-gradient-14" x1="244.42" y1="673.78" x2="275.51" y2="673.78" xlink:href="#linear-gradient"/><linearGradient id="linear-gradient-15" x1="264.31" y1="651.96" x2="284.25" y2="651.96" xlink:href="#linear-gradient"/><linearGradient id="linear-gradient-16" x1="231.73" y1="643.73" x2="254.69" y2="643.73" xlink:href="#linear-gradient"/><linearGradient id="linear-gradient-17" x1="195.84" y1="639.7" x2="220.9" y2="639.7" xlink:href="#linear-gradient"/><linearGradient id="linear-gradient-18" x1="159.12" y1="640.2" x2="189.04" y2="640.2" xlink:href="#linear-gradient"/><linearGradient id="linear-gradient-19" x1="132.92" y1="658.42" x2="168.9" y2="658.42" xlink:href="#linear-gradient"/><linearGradient id="linear-gradient-20" x1="208.42" y1="606.13" x2="310.38" y2="606.13" xlink:href="#linear-gradient"/><linearGradient id="linear-gradient-21" x1="221.83" y1="578.56" x2="251.89" y2="578.56" xlink:href="#linear-gradient"/><linearGradient id="linear-gradient-22" x1="240.24" y1="602.73" x2="273.85" y2="602.73" xlink:href="#linear-gradient"/><linearGradient id="linear-gradient-23" x1="261.32" y1="635.9" x2="293.42" y2="635.9" xlink:href="#linear-gradient"/><linearGradient id="linear-gradient-24" x1="280.86" y1="604.89" x2="296.07" y2="604.89" xlink:href="#linear-gradient"/><linearGradient id="linear-gradient-25" x1="260.37" y1="577.17" x2="276.28" y2="577.17" xlink:href="#linear-gradient"/><linearGradient id="linear-gradient-26" x1="237.59" y1="551.75" x2="250.95" y2="551.75" xlink:href="#linear-gradient"/><linearGradient id="linear-gradient-27" x1="198.74" y1="544.81" x2="229.5" y2="544.81" xlink:href="#linear-gradient"/><linearGradient id="linear-gradient-28" x1="1055.86" y1="602.63" x2="1163.11" y2="602.63" xlink:href="#linear-gradient"/><linearGradient id="linear-gradient-29" x1="1122.59" y1="573.84" x2="1137.07" y2="573.84" xlink:href="#linear-gradient"/><linearGradient id="linear-gradient-30" x1="1104.86" y1="599.71" x2="1117.97" y2="599.71" xlink:href="#linear-gradient"/><linearGradient id="linear-gradient-31" x1="1077.44" y1="627.86" x2="1091.23" y2="627.86" xlink:href="#linear-gradient"/><linearGradient id="linear-gradient-32" x1="1063.39" y1="645.36" x2="1072.83" y2="645.36" xlink:href="#linear-gradient"/><linearGradient id="linear-gradient-33" x1="1077.7" y1="652.37" x2="1110.92" y2="652.37" xlink:href="#linear-gradient"/><linearGradient id="linear-gradient-34" x1="1100.15" y1="630.42" x2="1135.45" y2="630.42" xlink:href="#linear-gradient"/><linearGradient id="linear-gradient-35" x1="1122.06" y1="602.87" x2="1156.79" y2="602.87" xlink:href="#linear-gradient"/><linearGradient id="linear-gradient-36" x1="1140.06" y1="573.23" x2="1176.07" y2="573.23" xlink:href="#linear-gradient"/><linearGradient id="linear-gradient-37" x1="1148.43" y1="543.92" x2="1167.26" y2="543.92" xlink:href="#linear-gradient"/><linearGradient id="linear-gradient-38" x1="1122.9" y1="727.41" x2="1162.33" y2="727.41" xlink:href="#linear-gradient"/><linearGradient id="linear-gradient-39" x1="1161.19" y1="673.5" x2="1224.93" y2="673.5" xlink:href="#linear-gradient"/><linearGradient id="linear-gradient-40" x1="1137.3" y1="641.34" x2="1175.69" y2="641.34" xlink:href="#linear-gradient"/><linearGradient id="linear-gradient-41" x1="1084.71" y1="722.49" x2="1149.23" y2="722.49" xlink:href="#linear-gradient"/><linearGradient id="linear-gradient-42" x1="1089.87" y1="698.8" x2="1202.32" y2="698.8" xlink:href="#linear-gradient"/><linearGradient id="linear-gradient-43" x1="1115.4" y1="670.05" x2="1164.25" y2="670.05" xlink:href="#linear-gradient"/><linearGradient id="linear-gradient-44" x1="1064.67" y1="707.83" x2="1087.71" y2="707.83" xlink:href="#linear-gradient"/><linearGradient id="linear-gradient-45" x1="1076.8" y1="728.71" x2="1116.07" y2="728.71" xlink:href="#linear-gradient"/><linearGradient id="linear-gradient-46" x1="1047.35" y1="736.49" x2="1077.95" y2="736.49" xlink:href="#linear-gradient"/><linearGradient id="linear-gradient-47" x1="1058.99" y1="738.71" x2="1105.73" y2="738.71" xlink:href="#linear-gradient"/><linearGradient id="linear-gradient-48" x1="256.15" y1="511.09" x2="1041.89" y2="511.09" gradientUnits="userSpaceOnUse"><stop offset="0" stop-color="#5b39c9"/><stop offset="1" stop-color="#2164ad"/></linearGradient><linearGradient id="linear-gradient-49" x1="255.65" y1="511.09" x2="1042.39" y2="511.09" gradientUnits="userSpaceOnUse"><stop offset="0" stop-color="#2d085d"/><stop offset="1" stop-color="#410f82"/></linearGradient><linearGradient id="linear-gradient-50" x1="283.09" y1="485.54" x2="1068.83" y2="485.54" gradientUnits="userSpaceOnUse"><stop offset="0" stop-color="#98b8f8"/><stop offset="1" stop-color="#e4e6fe"/></linearGradient><linearGradient id="linear-gradient-51" x1="722.65" y1="437.32" x2="814.88" y2="437.32" xlink:href="#linear-gradient-50"/><linearGradient id="linear-gradient-52" x1="784.74" y1="451.15" x2="836.52" y2="451.15" xlink:href="#linear-gradient-50"/><linearGradient id="linear-gradient-53" x1="789.63" y1="401.87" x2="809.32" y2="401.87" xlink:href="#linear-gradient-50"/><linearGradient id="linear-gradient-54" x1="258.87" y1="249.49" x2="258.35" y2="251.82" gradientUnits="userSpaceOnUse"><stop offset="0" stop-color="#ebeff2"/><stop offset="1" stop-color="#fff"/></linearGradient><linearGradient id="linear-gradient-55" x1="249.47" y1="239.68" x2="504.19" y2="239.68" xlink:href="#linear-gradient"/><linearGradient id="linear-gradient-56" x1="249.29" y1="268.72" x2="504.01" y2="268.72" xlink:href="#linear-gradient"/><linearGradient id="linear-gradient-57" x1="479.01" y1="205.58" x2="504.42" y2="205.58" xlink:href="#linear-gradient"/><linearGradient id="linear-gradient-58" x1="433.82" y1="190.19" x2="459.6" y2="190.19" xlink:href="#linear-gradient"/><linearGradient id="linear-gradient-59" x1="388.29" y1="178.14" x2="414.39" y2="178.14" xlink:href="#linear-gradient"/><linearGradient id="linear-gradient-60" x1="342.43" y1="187.62" x2="368.6" y2="187.62" xlink:href="#linear-gradient"/><linearGradient id="linear-gradient-61" x1="296.22" y1="171.87" x2="322.77" y2="171.87" xlink:href="#linear-gradient"/><linearGradient id="linear-gradient-62" x1="249.67" y1="166.41" x2="276.47" y2="166.41" xlink:href="#linear-gradient"/><linearGradient id="linear-gradient-63" x1="1035.46" y1="487.13" x2="1084.93" y2="487.13" xlink:href="#linear-gradient-49"/><linearGradient id="linear-gradient-64" x1="894.66" y1="410.69" x2="987.74" y2="410.69" xlink:href="#linear-gradient-49"/><linearGradient id="linear-gradient-65" x1="961.52" y1="366.98" x2="1150.45" y2="366.98" xlink:href="#linear-gradient"/><linearGradient id="linear-gradient-66" x1="-2089.69" y1="-734.96" x2="-1986.43" y2="-734.96" gradientTransform="matrix(0, -1, -1, 0, 330.21, -1685.16)" xlink:href="#linear-gradient-54"/><linearGradient id="linear-gradient-67" x1="960.44" y1="457.14" x2="1033.71" y2="457.14" gradientTransform="translate(835.43 -627.76) rotate(56.9)" xlink:href="#linear-gradient"/><linearGradient id="linear-gradient-68" x1="956.28" y1="468.98" x2="1019.26" y2="468.98" xlink:href="#linear-gradient-49"/><linearGradient id="linear-gradient-69" x1="954.99" y1="475.35" x2="1015.79" y2="475.35" gradientTransform="translate(845.38 -609.71) rotate(56.89)" xlink:href="#linear-gradient"/><linearGradient id="linear-gradient-70" x1="-2087.81" y1="-672.61" x2="-2010.93" y2="-784.8" gradientTransform="matrix(-0.84, -0.55, -0.55, 0.84, -1043.37, -144.52)" gradientUnits="userSpaceOnUse"><stop offset="0" stop-color="#444b8c"/><stop offset="1" stop-color="#26264f"/></linearGradient><linearGradient id="linear-gradient-71" x1="1025.23" y1="352.83" x2="1105.33" y2="352.83" gradientTransform="translate(779 -732.23) rotate(56.89)" xlink:href="#linear-gradient-50"/><linearGradient id="linear-gradient-72" x1="-2089.69" y1="-733.27" x2="-1986.43" y2="-733.27" gradientTransform="matrix(-0.84, -0.55, -0.55, 0.84, -1043.37, -144.52)" xlink:href="#linear-gradient-50"/><linearGradient id="linear-gradient-73" x1="1033.32" y1="304.14" x2="1150.39" y2="304.14" xlink:href="#linear-gradient-49"/><linearGradient id="linear-gradient-74" x1="896.41" y1="630.78" x2="1059.44" y2="630.78" gradientUnits="userSpaceOnUse"><stop offset="0.04" stop-color="#91b3fa"/><stop offset="0.31" stop-color="#abc5fb" stop-opacity="0.94"/><stop offset="0.85" stop-color="#edf3fe" stop-opacity="0.77"/><stop offset="0.98" stop-color="#fff" stop-opacity="0.72"/></linearGradient><linearGradient id="linear-gradient-75" x1="917.82" y1="637.26" x2="936.51" y2="637.26" xlink:href="#linear-gradient-74"/><linearGradient id="linear-gradient-76" x1="890.35" y1="562.41" x2="936.4" y2="562.41" xlink:href="#linear-gradient-74"/><linearGradient id="linear-gradient-77" x1="248.31" y1="434.55" x2="340.53" y2="434.55" xlink:href="#linear-gradient-50"/><linearGradient id="linear-gradient-78" x1="310.4" y1="448.38" x2="362.17" y2="448.38" xlink:href="#linear-gradient-50"/><linearGradient id="linear-gradient-79" x1="315.28" y1="399.1" x2="334.98" y2="399.1" xlink:href="#linear-gradient-50"/><linearGradient id="linear-gradient-80" x1="406.52" y1="433.54" x2="498.75" y2="433.54" xlink:href="#linear-gradient-50"/><linearGradient id="linear-gradient-81" x1="468.61" y1="447.36" x2="520.39" y2="447.36" xlink:href="#linear-gradient-50"/><linearGradient id="linear-gradient-82" x1="473.5" y1="398.09" x2="493.2" y2="398.09" xlink:href="#linear-gradient-50"/><linearGradient id="linear-gradient-83" x1="250.7" y1="585.47" x2="342.92" y2="585.47" xlink:href="#linear-gradient-50"/><linearGradient id="linear-gradient-84" x1="312.79" y1="598.72" x2="364.56" y2="598.72" xlink:href="#linear-gradient-50"/><linearGradient id="linear-gradient-85" x1="316.93" y1="549.43" x2="336.63" y2="549.43" xlink:href="#linear-gradient-50"/><linearGradient id="linear-gradient-86" x1="407.42" y1="582.6" x2="499.64" y2="582.6" xlink:href="#linear-gradient-50"/><linearGradient id="linear-gradient-87" x1="469.51" y1="596.43" x2="521.29" y2="596.43" xlink:href="#linear-gradient-50"/><linearGradient id="linear-gradient-88" x1="474.4" y1="547.15" x2="494.09" y2="547.15" xlink:href="#linear-gradient-50"/><linearGradient id="linear-gradient-89" x1="554.8" y1="434.01" x2="647.02" y2="434.01" xlink:href="#linear-gradient-50"/><linearGradient id="linear-gradient-90" x1="616.25" y1="447.98" x2="668.03" y2="447.98" xlink:href="#linear-gradient-50"/><linearGradient id="linear-gradient-91" x1="621.77" y1="398.57" x2="641.47" y2="398.57" xlink:href="#linear-gradient-50"/></defs><title>webshop</title><g class="cls-1"><g id="Layer_1" data-name="Layer 1"><path class="cls-2" d="M5937.9,1524.67" transform="translate(-73.04 -146.38)"/><path class="cls-3" d="M166.3,725.86c-2.29-7.55-1.26-15.75,1.41-23.17,1.43-4,3.45-8,7-10.27s9.13-1.77,11.19,1.93c1.23,2.2,1,4.91.5,7.39-1.17,6-3.44,12.43-.72,17.87,1.56,3.11,4.64,5.55,5.05,9s-2.14,6.64-5.33,7.8-6.81.56-9.91-.82A15.11,15.11,0,0,1,166.3,725.86Z" transform="translate(-73.04 -146.38)"/><path class="cls-4" d="M132.93,736.06c6.79-3.11,6.3-11.67,3.32-16.14s-8-7-12.81-9.45c-11-5.46-22.55-11.06-34.82-10.75a20.06,20.06,0,0,0-10.5,2.78c-3.08,2-5.34,5.53-5.06,9.19.34,4.33,3.91,7.63,7.42,10.19a86.13,86.13,0,0,0,34.87,15.06c5.86,1.1,12.13,1.54,17.58-.88" transform="translate(-73.04 -146.38)"/><path class="cls-5" d="M139.44,749.21c-4.59-5.57-12.35-7.89-19.53-7.1s-13.8,4.33-19.5,8.76a65.26,65.26,0,0,0-16.53,19.06,23.15,23.15,0,0,0-3.4,9.31c-.28,3.32.78,6.91,3.4,9,3.88,3,9.48,1.83,14.15.28a166.34,166.34,0,0,0,24-10.12c6.19-3.21,12.43-7,16.06-13s4.56-12.67.73-16.89" transform="translate(-73.04 -146.38)"/><path class="cls-6" d="M223.67,753a13.36,13.36,0,0,0-2.67-.88l-7.33-2.1A108.75,108.75,0,0,1,203,746.33,86.1,86.1,0,0,1,190.84,740a48.69,48.69,0,0,1-10.48-8.74,25,25,0,0,1-5.4-9.62,23.57,23.57,0,0,1-.9-7.42,13,13,0,0,0,.1-2.8,12.88,12.88,0,0,0-.55,2.76,21.55,21.55,0,0,0,.56,7.68,25,25,0,0,0,5.38,10.08,47.46,47.46,0,0,0,10.68,9,79.89,79.89,0,0,0,12.41,6.36,93.34,93.34,0,0,0,10.81,3.49c3.13.81,5.68,1.38,7.45,1.74A12.31,12.31,0,0,0,223.67,753Z" transform="translate(-73.04 -146.38)"/><path class="cls-7" d="M218,751.43a5.11,5.11,0,0,0-1.26-.31l-3.63-.66c-3.15-.57-7.7-1.4-13.3-2.6-11.21-2.35-23.14-5.54-39.88-10.54-15.73-4.72-34-10.53-45.67-15.27-2.67-1-5.06-2-7.14-2.95s-3.9-1.65-5.35-2.33l-3.37-1.49a5.19,5.19,0,0,0-1.21-.45,5.59,5.59,0,0,0,1.11.66l3.28,1.69c1.42.74,3.21,1.56,5.28,2.51s4.44,2,7.09,3.11a416.83,416.83,0,0,0,42.23,15c16.77,5,32.2,8.72,43.47,10.86,5.63,1.1,10.22,1.82,13.39,2.25l3.67.45A6.25,6.25,0,0,0,218,751.43Z" transform="translate(-73.04 -146.38)"/><path class="cls-8" d="M188,745.84a24.92,24.92,0,0,0-3.8-.67,104.53,104.53,0,0,0-10.48-.72,135.38,135.38,0,0,0-15.58.59,125.61,125.61,0,0,0-18.85,3c-13.26,2.93-24.62,8.14-32,13.13a48.34,48.34,0,0,0-4.82,3.59c-.68.56-1.34,1-1.9,1.56l-1.46,1.46a24.18,24.18,0,0,0-2.63,2.82c.21.22,3.84-4,11.25-8.75s18.65-9.78,31.8-12.69a141.45,141.45,0,0,1,18.7-3.07,151.81,151.81,0,0,1,15.46-.84c4.42,0,8,.18,10.45.35A24.85,24.85,0,0,0,188,745.84Z" transform="translate(-73.04 -146.38)"/><path class="cls-9" d="M229.12,763.4c4.18,1.48,4.35,6.57,2.83,9.37s-4.36,4.61-7.08,6.28c-6.21,3.82-12.74,7.75-20,8.23a11.92,11.92,0,0,1-6.36-1.08A6.25,6.25,0,0,1,195,781c0-2.58,1.91-4.72,3.84-6.43a51.39,51.39,0,0,1,19.82-10.78c3.41-1,7.1-1.56,10.46-.42" transform="translate(-73.04 -146.38)"/><path class="cls-10" d="M232.26,755.27c-2.41,3.54-6.88,5.33-11.17,5.25a23.43,23.43,0,0,1-12-4.14A38.72,38.72,0,0,1,198.28,746a13.69,13.69,0,0,1-2.51-5.33,6.09,6.09,0,0,1,1.53-5.48c2.13-2,5.51-1.59,8.36-.93A98.75,98.75,0,0,1,220.37,739c3.84,1.56,7.74,3.5,10.2,6.83s3.38,7.26,1.34,10" transform="translate(-73.04 -146.38)"/><path class="cls-11" d="M278.64,749.74a3,3,0,0,1-.73.25l-2.11.59c-1.84.5-4.49,1.24-7.74,2.25-6.5,2-13.39,4.52-23,8.38-9.06,3.63-19.55,8-26.21,11.48-1.52.76-2.88,1.48-4.06,2.13s-2.22,1.18-3,1.66l-1.92,1.07a3,3,0,0,1-.69.33,3.54,3.54,0,0,1,.62-.45l1.85-1.18c.81-.51,1.82-1.09,3-1.76s2.52-1.44,4-2.23a247.61,247.61,0,0,1,24.18-11.13c9.65-3.87,18.58-6.89,25.14-8.76,3.27-1,5.94-1.62,7.8-2l2.15-.46A3.49,3.49,0,0,1,278.64,749.74Z" transform="translate(-73.04 -146.38)"/><path class="cls-12" d="M259,753.41a13.84,13.84,0,0,1-2.21.6,61.5,61.5,0,0,1-6.16,1,80.24,80.24,0,0,1-9.25.49,73.78,73.78,0,0,1-11.32-.77,57.4,57.4,0,0,1-19.63-6.05,28.5,28.5,0,0,1-3-1.87c-.43-.29-.85-.54-1.2-.82l-.95-.79a16.1,16.1,0,0,1-1.71-1.52c.12-.15,2.49,2.14,7.13,4.57A59.93,59.93,0,0,0,230.1,754a83.53,83.53,0,0,0,11.23.82,90.3,90.3,0,0,0,9.2-.34c2.61-.23,4.71-.53,6.16-.77A16,16,0,0,1,259,753.41Z" transform="translate(-73.04 -146.38)"/><path class="cls-13" d="M140.35,656.6a8.38,8.38,0,0,0,1.76-.07l5-.44c2.17-.22,4.83-.48,7.93-.67s6.61-.54,10.51-.67c7.79-.44,17.09-.61,27.41-.45s21.64.86,33.48,2.1,23,3.11,33.18,5.06,19.16,4.18,26.69,6.26c3.78,1,7.15,2,10.13,2.89s5.53,1.66,7.61,2.34l4.8,1.5a9.2,9.2,0,0,0,1.7.44,7.92,7.92,0,0,0-1.61-.69l-4.73-1.73c-2.06-.75-4.59-1.64-7.56-2.55s-6.32-2.06-10.1-3.08c-7.51-2.2-16.56-4.44-26.7-6.55s-21.39-3.87-33.27-5.17-23.26-1.84-33.6-2-19.68.17-27.48.73c-3.91.19-7.43.58-10.53.86s-5.75.59-7.92.89l-5,.68A10.38,10.38,0,0,0,140.35,656.6Z" transform="translate(-73.04 -146.38)"/><path class="cls-14" d="M196,655.33a29.19,29.19,0,0,0-17.63,8.81c-1.58,1.66-3,3.86-2.5,6.09.74,3,4.48,4,7.52,3.77a21.58,21.58,0,0,0,13.71-6.23c3.62-3.64,5.73-7.27,6-12.39" transform="translate(-73.04 -146.38)"/><path class="cls-15" d="M234,657.62c-7.93.41-19.88,4.17-25.84,9.42a9.48,9.48,0,0,0-2.4,2.88,3.82,3.82,0,0,0,0,3.61c.95,1.53,3,1.83,4.83,1.82A31,31,0,0,0,238,657.61" transform="translate(-73.04 -146.38)"/><path class="cls-16" d="M268.3,663.59a45,45,0,0,0-21.05,10.56c-1.38,1.25-2.78,2.77-2.83,4.63-.08,2.83,3,4.76,5.8,5.1,5.77.69,11.23-2.69,15.69-6.42,4.8-4,9.6-11.84,9.6-11.84" transform="translate(-73.04 -146.38)"/><path class="cls-17" d="M279.3,664.16A139.6,139.6,0,0,1,265.18,643c-.63-1.16-1.25-2.6-.59-3.75a2.67,2.67,0,0,1,2.68-1.11,6.7,6.7,0,0,1,2.78,1.27c8.42,5.75,13.76,16.25,14.2,26.43" transform="translate(-73.04 -146.38)"/><path class="cls-18" d="M249.19,658.43l-13.85-17.21a17.18,17.18,0,0,1-3.29-5.33,5.77,5.77,0,0,1,1.16-5.87,5.66,5.66,0,0,1,5.91-.72,14.74,14.74,0,0,1,4.93,3.83,41.54,41.54,0,0,1,8.52,12.21c1.93,4.61,3,8.64,1.24,13.33" transform="translate(-73.04 -146.38)"/><path class="cls-19" d="M215,653.26a48.82,48.82,0,0,1-17.82-18.13,8.28,8.28,0,0,1-1.35-4c0-2.86,2.9-5,5.74-5.36a11.55,11.55,0,0,1,8.81,3.15,24.48,24.48,0,0,1,5.47,7.87,56.65,56.65,0,0,1,5,17" transform="translate(-73.04 -146.38)"/><path class="cls-20" d="M184.41,653c-9.41-3.36-16.42-10.09-23-17.58-1.4-1.58-2.79-3.66-2-5.64a4.07,4.07,0,0,1,3-2.35,9.47,9.47,0,0,1,4,.27,30.59,30.59,0,0,1,22.67,25" transform="translate(-73.04 -146.38)"/><path class="cls-21" d="M168.9,654.26A80.8,80.8,0,0,0,154,650.62a27.36,27.36,0,0,0-15,2,11.69,11.69,0,0,0-5,4.15,6.43,6.43,0,0,0-.47,6.27,6.79,6.79,0,0,0,4.94,3.22,17.2,17.2,0,0,0,6.06-.34c9.56-1.81,20.57-5.87,24.36-11.71" transform="translate(-73.04 -146.38)"/><path class="cls-22" d="M208.42,537.37a9.33,9.33,0,0,0,1.25,1.25l3.72,3.38c1.64,1.45,3.63,3.23,5.87,5.38s4.88,4.49,7.62,7.27c5.6,5.43,12,12.15,18.91,19.84s14,16.5,21.15,26,13.35,19,18.78,27.82,9.92,16.92,13.49,23.86c1.86,3.43,3.35,6.63,4.74,9.41s2.53,5.19,3.44,7.17l2.15,4.55a8.28,8.28,0,0,0,.84,1.55,9.12,9.12,0,0,0-.6-1.65l-1.93-4.65c-.84-2-1.9-4.48-3.25-7.29s-2.77-6-4.58-9.51c-3.47-7-8-15.18-13.28-24.07s-11.66-18.34-18.76-28-14.42-18.34-21.3-26.07S233.22,559.36,227.51,554c-2.79-2.74-5.46-5.06-7.76-7.15s-4.34-3.83-6-5.22l-3.89-3.2A8.21,8.21,0,0,0,208.42,537.37Z" transform="translate(-73.04 -146.38)"/><path class="cls-23" d="M247.09,577.42a29.21,29.21,0,0,0-18.43-7c-2.29,0-4.91.38-6.17,2.3-1.67,2.54.12,6,2.33,8.08a21.49,21.49,0,0,0,13.87,5.85c5.12.2,9.23-.72,13.2-4" transform="translate(-73.04 -146.38)"/><path class="cls-24" d="M271.18,606.92c-5.69-5.55-16.55-11.79-24.45-12.61a9.23,9.23,0,0,0-3.74.19,3.82,3.82,0,0,0-2.64,2.46c-.48,1.74.7,3.47,1.93,4.79a31,31,0,0,0,31.57,8.07" transform="translate(-73.04 -146.38)"/><path class="cls-25" d="M290,636.16a45,45,0,0,0-22-8.31c-1.86-.17-3.92-.16-5.33,1.06-2.12,1.86-1.47,5.42.19,7.71,3.4,4.72,9.59,6.44,15.36,7.19,6.21.8,15.21-1,15.21-1" transform="translate(-73.04 -146.38)"/><path class="cls-26" d="M280.86,618.62l3.27-21.85a16.85,16.85,0,0,1,1.69-6,5.76,5.76,0,0,1,5.09-3.13,5.69,5.69,0,0,1,4.54,3.86,15,15,0,0,1,.53,6.22,41.47,41.47,0,0,1-3.2,14.54c-2.08,4.54-4.35,8-9,9.95" transform="translate(-73.04 -146.38)"/><path class="cls-27" d="M261.49,590a48.8,48.8,0,0,1,1.25-25.4,8.21,8.21,0,0,1,2.05-3.72c2.13-1.91,5.66-1.28,7.83.58a11.52,11.52,0,0,1,3.66,8.62,24.54,24.54,0,0,1-2.08,9.35,56.37,56.37,0,0,1-9.07,15.21" transform="translate(-73.04 -146.38)"/><path class="cls-28" d="M240.91,567.34c-3.91-9.19-3.71-18.91-2.69-28.85.21-2.09.8-4.53,2.75-5.33a4.06,4.06,0,0,1,3.8.66,9.24,9.24,0,0,1,2.5,3.11,30.58,30.58,0,0,1-3,33.63" transform="translate(-73.04 -146.38)"/><path class="cls-29" d="M229.5,556.76a82,82,0,0,0-7.41-13.4,27.5,27.5,0,0,0-11.68-9.64,11.82,11.82,0,0,0-6.44-.87,6.45,6.45,0,0,0-4.94,3.91,6.76,6.76,0,0,0,1,5.81,17,17,0,0,0,4.36,4.23c7.81,5.8,18.25,11.14,25.12,10" transform="translate(-73.04 -146.38)"/><path class="cls-30" d="M1163.11,535.9a8.91,8.91,0,0,0-.89,1.52l-2.33,4.46c-1,2-2.21,4.33-3.72,7s-3.11,5.86-5.11,9.21c-3.84,6.8-8.71,14.72-14.41,23.32s-12.4,17.76-19.84,27.06-15,17.73-22.16,25.2-13.86,13.88-19.67,19.09c-2.85,2.67-5.57,4.93-7.9,7s-4.38,3.77-6.07,5.15l-3.85,3.23a9,9,0,0,0-1.3,1.2,8.72,8.72,0,0,0,1.46-1l4-3.05c1.74-1.32,3.85-3,6.22-5s5.14-4.21,8-6.84c5.9-5.14,12.68-11.55,19.92-19s14.8-15.92,22.31-25.22,14.09-18.59,19.83-27.21,10.46-16.66,14.21-23.53c2-3.39,3.51-6.57,5-9.32s2.61-5.17,3.53-7.15l2.11-4.58A9.13,9.13,0,0,0,1163.11,535.9Z" transform="translate(-73.04 -146.38)"/><path class="cls-31" d="M1134.15,583.45a29.23,29.23,0,0,0,2.1-19.6c-.55-2.23-1.61-4.65-3.79-5.38-2.89-1-5.75,1.62-7.22,4.29a21.56,21.56,0,0,0-2.16,14.9c1.11,5,3,8.75,7.18,11.77" transform="translate(-73.04 -146.38)"/><path class="cls-32" d="M1111.71,614.22c3.93-6.9,7.22-19,6-26.85a9.28,9.28,0,0,0-1.13-3.57,3.86,3.86,0,0,0-3-1.93c-1.8,0-3.18,1.57-4.14,3.09a31,31,0,0,0,.18,32.58" transform="translate(-73.04 -146.38)"/><path class="cls-33" d="M1088.19,639.85a45,45,0,0,0,2.46-23.41c-.3-1.84-.83-3.84-2.37-4.89-2.34-1.59-5.62,0-7.42,2.13-3.7,4.49-3.79,10.91-3.06,16.68.8,6.21,4.79,14.47,4.79,14.47" transform="translate(-73.04 -146.38)"/><path class="cls-34" d="M1071.16,656.14c1.54-6.16,2.29-12.64,1-18.87a9.13,9.13,0,0,0-1.49-3.82,3.82,3.82,0,0,0-3.6-1.57c-2.18.43-3.07,3-3.35,5.24-1,7.61-.07,15,3.54,21.78" transform="translate(-73.04 -146.38)"/><path class="cls-35" d="M1081.77,648.81a138.73,138.73,0,0,1,25.45-.46c1.32.09,2.87.35,3.48,1.53a2.66,2.66,0,0,1-.52,2.85,6.61,6.61,0,0,1-2.57,1.65c-9.38,4-21.1,2.82-29.91-2.31" transform="translate(-73.04 -146.38)"/><path class="cls-36" d="M1102.84,626.54l22-2.36a16.72,16.72,0,0,1,6.27.11,5.72,5.72,0,0,1,4.31,4.13,5.67,5.67,0,0,1-2.58,5.37,14.81,14.81,0,0,1-5.88,2.09,41.66,41.66,0,0,1-14.88.58c-4.92-.86-8.88-2.17-11.89-6.15" transform="translate(-73.04 -146.38)"/><path class="cls-37" d="M1125.63,600.56a48.8,48.8,0,0,1,24.89-5.22,8.1,8.1,0,0,1,4.12,1c2.39,1.58,2.68,5.15,1.43,7.72a11.61,11.61,0,0,1-7.42,5.72,24.44,24.44,0,0,1-9.57.35,56.56,56.56,0,0,1-17-4.92" transform="translate(-73.04 -146.38)"/><path class="cls-38" d="M1142.34,574.92c7.9-6.11,17.35-8.38,27.22-9.91,2.08-.32,4.59-.37,5.86,1.32a4,4,0,0,1,.32,3.84,9.45,9.45,0,0,1-2.37,3.21,30.59,30.59,0,0,1-33.31,5.58" transform="translate(-73.04 -146.38)"/><path class="cls-39" d="M1149.68,561.2a81.52,81.52,0,0,0,11.09-10.56,27.38,27.38,0,0,0,6.37-13.74,11.81,11.81,0,0,0-.79-6.45,6.43,6.43,0,0,0-5-3.79,6.81,6.81,0,0,0-5.38,2.43,17.13,17.13,0,0,0-3,5.29c-3.63,9-6.15,20.47-3.28,26.82" transform="translate(-73.04 -146.38)"/><path class="cls-40" d="M1144.87,710.07c6.88,3.84,11.83,10.47,15.05,17.66,1.73,3.87,3.09,8.19,2,12.3s-5.36,7.6-9.41,6.36c-2.41-.73-4.11-2.86-5.48-5-3.3-5.11-6.13-11.34-11.87-13.38-3.28-1.16-7.2-.78-9.88-3s-3.06-6.26-1.56-9.32,4.51-5.12,7.71-6.27A15.09,15.09,0,0,1,1144.87,710.07Z" transform="translate(-73.04 -146.38)"/><path class="cls-41" d="M1161.85,679.58c-2.73,6.95,3.55,12.78,8.8,13.93s10.66-.46,15.78-2.07c11.71-3.68,23.92-7.66,32.54-16.39a20.11,20.11,0,0,0,5.65-9.28c.83-3.58,0-7.69-2.73-10.13-3.24-2.89-8.11-2.79-12.41-2.21a86.2,86.2,0,0,0-35.57,13.32c-5,3.27-9.81,7.31-12.06,12.83" transform="translate(-73.04 -146.38)"/><path class="cls-42" d="M1148,674.61c7.17.84,14.37-2.87,19-8.42s7-12.69,8-19.83a65.24,65.24,0,0,0-1.3-25.2,23.12,23.12,0,0,0-4-9.07c-2.09-2.59-5.35-4.44-8.66-4.1-4.9.5-8.1,5.25-10.39,9.61a164.7,164.7,0,0,0-10.25,23.9c-2.24,6.61-4.07,13.7-2.56,20.51s5.51,12.3,11.18,12.69" transform="translate(-73.04 -146.38)"/><path class="cls-43" d="M1084.72,730.28a13.41,13.41,0,0,0,2.53-1.22l6.73-3.57c2.86-1.46,6.29-3.17,10.23-4.72a85.67,85.67,0,0,1,13.19-3.87,48.11,48.11,0,0,1,13.61-1,25.1,25.1,0,0,1,10.56,3.19,23.93,23.93,0,0,1,5.8,4.72,13.35,13.35,0,0,0,1.86,2.09,13.38,13.38,0,0,0-1.52-2.37,21.56,21.56,0,0,0-5.73-5.14,24.87,24.87,0,0,0-10.86-3.54,47.33,47.33,0,0,0-13.95.89,80.42,80.42,0,0,0-13.35,4,92.55,92.55,0,0,0-10.22,5c-2.82,1.58-5,2.94-6.58,3.9A12.63,12.63,0,0,0,1084.72,730.28Z" transform="translate(-73.04 -146.38)"/><path class="cls-44" d="M1089.87,727.49a5.22,5.22,0,0,0,1.12-.65l3.07-2c2.67-1.78,6.53-4.33,11.4-7.35,9.7-6.08,20.51-12.05,36-20.05,14.61-7.5,31.79-16,43.5-20.66,2.65-1.09,5.06-2,7.19-2.82s4-1.51,5.47-2l3.47-1.26a5.63,5.63,0,0,0,1.19-.51,5,5,0,0,0-1.26.29l-3.54,1.06c-1.54.45-3.4,1.09-5.55,1.85s-4.59,1.62-7.26,2.66a422,422,0,0,0-40.83,18.48c-15.56,8-29.25,16-38.86,22.31-4.82,3.11-8.62,5.77-11.21,7.66l-3,2.22A5.91,5.91,0,0,0,1089.87,727.49Z" transform="translate(-73.04 -146.38)"/><path class="cls-45" d="M1115.4,710.69a24.12,24.12,0,0,0,3.2-2.15c2-1.48,4.78-3.74,8.05-6.74a140.54,140.54,0,0,0,10.82-11.23,125.55,125.55,0,0,0,11.5-15.24c7.52-11.31,12.1-22.94,14-31.64a47.7,47.7,0,0,0,1-5.91c.1-.88.25-1.69.29-2.45s0-1.43,0-2.07a24,24,0,0,0-.06-3.85c-.31,0,0,5.52-2,14.11s-6.66,20-14.12,31.18a142.64,142.64,0,0,1-11.35,15.18,154.29,154.29,0,0,1-10.56,11.33c-3.19,3-5.89,5.39-7.78,7A25.39,25.39,0,0,0,1115.4,710.69Z" transform="translate(-73.04 -146.38)"/><path class="cls-46" d="M1073.57,726.55c-4,1.84-7.69-1.71-8.53-4.79s0-6.34.75-9.43c1.82-7.06,3.8-14.42,8.72-19.81a12,12,0,0,1,5.33-3.64,6.26,6.26,0,0,1,6.1,1.31c1.81,1.84,1.9,4.73,1.69,7.3a51.17,51.17,0,0,1-6.82,21.51c-1.78,3.06-4,6-7.24,7.55" transform="translate(-73.04 -146.38)"/><path class="cls-47" d="M1076.94,734.59c-.71-4.23,1.27-8.61,4.41-11.53a23.51,23.51,0,0,1,11.53-5.34,38.58,38.58,0,0,1,15,0,13.75,13.75,0,0,1,5.5,2.1,6.09,6.09,0,0,1,2.7,5c-.15,2.93-2.87,5-5.38,6.46a99.62,99.62,0,0,1-13.87,6.82c-3.85,1.53-8,2.83-12.09,2.14s-7.47-2.89-7.87-6.25" transform="translate(-73.04 -146.38)"/><path class="cls-48" d="M1047.35,770.72a3.12,3.12,0,0,1,.35-.68c.3-.5.67-1.12,1.12-1.89,1-1.63,2.37-4,4-7,3.31-5.94,6.52-12.54,10.79-22,4-8.9,8.51-19.35,10.93-26.44.57-1.61,1-3.07,1.45-4.36s.78-2.39,1-3.3l.64-2.1a2.93,2.93,0,0,1,.27-.72,3.75,3.75,0,0,1-.14.76c-.14.56-.31,1.26-.52,2.13s-.54,2.05-.92,3.35-.82,2.77-1.36,4.39a250.51,250.51,0,0,1-9.72,24.79c-4.27,9.48-8.62,17.84-12,23.73-1.7,3-3.16,5.3-4.2,6.89l-1.23,1.82A3.57,3.57,0,0,1,1047.35,770.72Z" transform="translate(-73.04 -146.38)"/><path class="cls-49" d="M1059,754.43a14.46,14.46,0,0,1,1.17-2,62.17,62.17,0,0,1,3.76-5,80.57,80.57,0,0,1,6.33-6.76,74,74,0,0,1,8.69-7.29,57,57,0,0,1,18.34-9.25,29.26,29.26,0,0,1,3.48-.76c.52-.09,1-.2,1.44-.25l1.23-.08a16.36,16.36,0,0,1,2.29-.09c0,.19-3.28.18-8.31,1.65a59.9,59.9,0,0,0-18.07,9.33,83,83,0,0,0-8.66,7.2,90.14,90.14,0,0,0-6.39,6.61c-1.72,2-3,3.66-3.91,4.83A15.46,15.46,0,0,1,1059,754.43Z" transform="translate(-73.04 -146.38)"/><ellipse class="cls-50" cx="727.74" cy="761.92" rx="197.11" ry="44"/><path class="cls-51" d="M293.17,172l715.5,27a34.52,34.52,0,0,1,33.22,34.5V795a35.67,35.67,0,0,1-34.69,35.66l-714.39,19.6a35.68,35.68,0,0,1-36.66-35.66v-607A35.67,35.67,0,0,1,293.17,172Z" transform="translate(-73.04 -146.38)"/><path class="cls-52" d="M320.11,146.41l715.5,27a34.52,34.52,0,0,1,33.22,34.5V769.42a35.67,35.67,0,0,1-34.69,35.66l-714.39,19.6A35.68,35.68,0,0,1,283.09,789v-607A35.67,35.67,0,0,1,320.11,146.41Z" transform="translate(-73.04 -146.38)"/><rect class="cls-53" x="719.21" y="378.48" width="114.04" height="90.7"/><polygon class="cls-54" points="722.65 468.84 766.88 405.8 814.88 468.84 722.65 468.84"/><polyline class="cls-55" points="836.52 468.84 784.74 468.84 809.57 433.45"/><circle class="cls-56" cx="799.48" cy="401.87" r="9.85"/><rect class="cls-57" x="636.04" y="625.14" width="114.37" height="6.89" transform="translate(-78.15 -140.7) rotate(-0.47)"/><rect class="cls-57" x="635.92" y="638.8" width="114.37" height="6.89" transform="matrix(1, -0.01, 0.01, 1, -78.26, -140.7)"/><rect class="cls-57" x="321.08" y="629.94" width="114.37" height="6.89" transform="translate(-78.2 -143.27) rotate(-0.47)"/><rect class="cls-57" x="320.96" y="643.61" width="114.37" height="6.89" transform="translate(-78.31 -143.27) rotate(-0.47)"/><rect class="cls-57" x="479" y="626.26" width="114.37" height="6.89" transform="translate(-78.16 -141.98) rotate(-0.47)"/><rect class="cls-57" x="478.89" y="639.92" width="114.37" height="6.89" transform="matrix(1, -0.01, 0.01, 1, -78.28, -141.98)"/><rect class="cls-57" x="792.04" y="627.32" width="114.37" height="6.89" transform="translate(-78.16 -139.42) rotate(-0.47)"/><rect class="cls-57" x="791.93" y="640.98" width="114.37" height="6.89" transform="translate(-78.27 -139.42) rotate(-0.47)"/><circle class="cls-58" cx="258.54" cy="250.96" r="1.8"/><polygon class="cls-59" points="973.02 98.93 230.04 77.18 230.26 41.17 973.22 67.03 973.02 98.93"/><path class="cls-60" d="M989.73,227.55a3.94,3.94,0,0,1-4,4,4.21,4.21,0,0,1-4-4.26,3.94,3.94,0,0,1,4-4A4.19,4.19,0,0,1,989.73,227.55Z" transform="translate(-73.04 -146.38)"/><path class="cls-60" d="M1006.18,228.08a3.93,3.93,0,0,1-4,4,4.17,4.17,0,0,1-4-4.24,3.94,3.94,0,0,1,4-4A4.2,4.2,0,0,1,1006.18,228.08Z" transform="translate(-73.04 -146.38)"/><path class="cls-60" d="M1022.53,228.6a3.92,3.92,0,0,1-4,4,4.16,4.16,0,0,1-3.94-4.23,3.91,3.91,0,0,1,4-4A4.17,4.17,0,0,1,1022.53,228.6Z" transform="translate(-73.04 -146.38)"/><g class="cls-61"><polygon class="cls-62" points="874.75 247 888.53 247.22 891.8 135.19 878.03 134.63 874.75 247"/><polygon class="cls-62" points="850.06 246.6 863.98 246.82 865.62 190.51 851.71 190.12 850.06 246.6"/><polygon class="cls-62" points="825.11 246.19 839.17 246.42 842.79 122.49 828.73 121.89 825.11 246.19"/><polygon class="cls-62" points="799.89 245.78 814.11 246.01 817.21 139.91 803 139.37 799.89 245.78"/><polygon class="cls-62" points="774.41 245.37 788.78 245.6 789.61 217 775.25 216.68 774.41 245.37"/><polygon class="cls-62" points="748.66 244.95 763.18 245.19 765.15 177.61 750.64 177.17 748.66 244.95"/><polygon class="cls-62" points="722.64 244.53 737.31 244.77 740.17 146.85 725.5 146.32 722.64 244.53"/><polygon class="cls-62" points="696.33 244.1 711.16 244.34 713.26 172.55 698.43 172.09 696.33 244.1"/><polygon class="cls-62" points="669.74 243.67 684.73 243.91 688 131.96 673.02 131.37 669.74 243.67"/><polygon class="cls-62" points="642.86 243.23 658.02 243.48 661.67 118.36 646.52 117.73 642.86 243.23"/></g><polygon class="cls-63" points="642.3 262.46 888 265.5 888.34 253.55 642.67 249.89 642.3 262.46"/><polygon class="cls-63" points="641.79 279.84 813.08 281.36 813.23 276.01 641.95 274.29 641.79 279.84"/><polygon class="cls-64" points="249.47 245.88 504.1 248.15 504.19 233.78 249.56 231.21 249.47 245.88"/><polygon class="cls-65" points="249.29 275.22 503.93 276.89 504.01 262.52 249.38 260.55 249.29 275.22"/><polygon class="cls-66" points="479.01 216.37 504.29 216.66 504.42 194.82 479.15 194.49 479.01 216.37"/><polygon class="cls-67" points="433.82 215.85 459.28 216.15 459.6 164.63 434.13 164.23 433.82 215.85"/><polygon class="cls-68" points="388.29 215.33 413.94 215.63 414.39 141.1 388.74 140.65 388.29 215.33"/><polygon class="cls-69" points="342.43 214.8 368.27 215.1 368.6 160.55 342.76 160.14 342.43 214.8"/><polygon class="cls-70" points="296.22 214.27 322.25 214.57 322.77 129.64 296.73 129.16 296.22 214.27"/><polygon class="cls-71" points="249.67 213.74 275.9 214.04 276.47 119.28 250.24 118.78 249.67 213.74"/><circle class="cls-60" cx="260.34" cy="60.59" r="12.57"/><path d="M1061.6,442.25s35.28,33,13.37,93.24a7.73,7.73,0,0,1-13.23,2.25l-24.15-29.4a21.65,21.65,0,0,1-4.69-16.88l4.55-31Z" transform="translate(-73.04 -146.38)"/><path d="M985,392.28s-44.41-19-90.71,25.38a7.72,7.72,0,0,0,3.28,13l36.65,10.24a21.61,21.61,0,0,0,17.33-2.52L978,421.72Z" transform="translate(-73.04 -146.38)"/><path class="cls-72" d="M1064.39,438s35.28,33,13.37,93.24a7.73,7.73,0,0,1-13.23,2.25l-24.15-29.4a21.64,21.64,0,0,1-4.69-16.88l4.55-31Z" transform="translate(-73.04 -146.38)"/><path class="cls-73" d="M987.74,388S943.33,369,897,413.38a7.72,7.72,0,0,0,3.28,13L937,436.62a21.61,21.61,0,0,0,17.33-2.51l26.52-16.67Z" transform="translate(-73.04 -146.38)"/><path class="cls-74" d="M1012.78,294.47c40.68-49.45,117.11-39.91,116.56-39.87.09,0,39.37,65.57,10.53,122.73-26.15,51.86-91.08,93.77-103.59,101.5-1.34.84-3.54,2-4.5.75-18.69-24.43-42-38.8-69-45-1.5-.35-1.26-2.8-1.05-4.31C963.68,415.91,975.81,339.4,1012.78,294.47Z" transform="translate(-73.04 -146.38)"/><path class="cls-62" d="M1048,360.3c22.79-27.46,47.29-19.32,69.51-43.47,8.12-8.82,16.61-22.68,20-45.58,9.72,23.13,22.28,66.61,2.37,106.08-26.15,51.86-91.08,93.77-103.59,101.5-1.34.84-3.54,2-4.5.75A123.6,123.6,0,0,0,1000,450a81.94,81.94,0,0,0,19.58-19.83C1037.57,404.16,1027.25,385.33,1048,360.3Z" transform="translate(-73.04 -146.38)"/><ellipse class="cls-75" cx="1065.28" cy="352.83" rx="46.5" ry="51.63" transform="translate(114.85 906.1) rotate(-56.9)"/><ellipse class="cls-76" cx="997.07" cy="457.14" rx="12.69" ry="42.94" transform="matrix(0.55, -0.84, 0.84, 0.55, -3.47, 896.3)"/><path class="cls-77" d="M992.89,447l15.44,10.06a24.08,24.08,0,0,1,10.48,24.78L1017,491a4.82,4.82,0,0,1-7.37,3.12l-51.19-33.38a4.82,4.82,0,0,1-.12-8L966,447.4A24.07,24.07,0,0,1,992.89,447Z" transform="translate(-73.04 -146.38)"/><ellipse class="cls-78" cx="985.39" cy="475.35" rx="11.97" ry="35.44" transform="translate(-24.03 894.78) rotate(-56.89)"/><path d="M962.83,460.64c-2.74,4.21,5.13,14.2,17.59,22.33s24.79,11.29,27.53,7.09-5.13-14.21-17.59-22.34S965.58,456.43,962.83,460.64Z" transform="translate(-73.04 -146.38)"/><g class="cls-79"><path class="cls-80" d="M1048,360.3c15.82-19.06,32.46-21,48.59-28.43,10,12.93,11.85,30.23,3.21,43.48-11.19,17.18-35.73,21-54.8,8.58a45.43,45.43,0,0,1-7.54-6.13A64.3,64.3,0,0,1,1048,360.3Z" transform="translate(-73.04 -146.38)"/></g><ellipse class="cls-81" cx="1065.29" cy="352.44" rx="43.29" ry="48.07" transform="translate(115.18 905.93) rotate(-56.89)"/><ellipse class="cls-82" cx="1065.28" cy="352.83" rx="37.13" ry="41.22" transform="translate(114.85 906.1) rotate(-56.89)"/><path class="cls-83" d="M1048,360.3c18.6-22.41,38.33-21.11,57-33,12.08,16.11,14.14,37.39,3.48,53.73-14,21.51-44.76,26.33-68.64,10.75a55.88,55.88,0,0,1-5.54-4.1A64.86,64.86,0,0,1,1048,360.3Z" transform="translate(-73.04 -146.38)"/><path class="cls-84" d="M1033.32,275.81s94.08,21.53,114.63,78.72c0,0,12.48-47-19-100C1129,254.56,1075.12,247.38,1033.32,275.81Z" transform="translate(-73.04 -146.38)"/><rect class="cls-53" x="321.79" y="521.27" width="114.04" height="90.7" transform="matrix(1, 0, 0, 1, -70.23, -148.25)"/><rect class="cls-53" x="405.81" y="374.89" width="114.04" height="89.8"/><path class="cls-85" d="M694.56,920.72c2.53.82,74.66.19,77.39-1.57,1-.66,1.57-11.17,1.84-23.89.05-2.75.1-5.58.13-8.46.2-18.71,0-38.56,0-38.56l-48.25.29L727,887.07l.29,8.46s-27.51,12.59-30.3,14.85S692,919.9,694.56,920.72Z" transform="translate(-73.04 -146.38)"/><path class="cls-53" d="M694.56,920.72c2.53.82,74.66.19,77.39-1.57,1.27-.81,1.78-16.16,2-32.35l-46.93.27.29,8.46s-27.51,12.59-30.3,14.85S692,919.9,694.56,920.72Z" transform="translate(-73.04 -146.38)"/><path class="cls-86" d="M691.05,920.56c2.66.92,79,1.81,81.92,0,1.11-.68,1.89-11.79,2.45-25.24l-49.21-.72s-29.38,12.74-32.38,15.06S688.39,919.64,691.05,920.56Z" transform="translate(-73.04 -146.38)"/><path class="cls-2" d="M699.07,906.32a10.24,10.24,0,0,1,7.61,3.21,9.94,9.94,0,0,1,2.78,6.86c0,.08-.14.08-.15,0a11.88,11.88,0,0,0-10.25-9.91A.08.08,0,0,1,699.07,906.32Z" transform="translate(-73.04 -146.38)"/><path class="cls-2" d="M721.53,895.16c5.12,0,11,1.87,14.17,6.09.12.17-.11.34-.27.26a71.1,71.1,0,0,0-14-5.72A.32.32,0,0,1,721.53,895.16Z" transform="translate(-73.04 -146.38)"/><path class="cls-2" d="M717.55,896.66c5.13,0,11,1.86,14.18,6.09.12.16-.12.33-.27.25a70.46,70.46,0,0,0-14-5.71A.32.32,0,0,1,717.55,896.66Z" transform="translate(-73.04 -146.38)"/><path class="cls-2" d="M713.58,898.15c5.13,0,11,1.87,14.18,6.09.12.17-.12.34-.27.26a71.1,71.1,0,0,0-14-5.72A.32.32,0,0,1,713.58,898.15Z" transform="translate(-73.04 -146.38)"/><path class="cls-2" d="M709.61,899.65c5.12,0,11,1.86,14.17,6.09.13.16-.11.33-.26.25a70.46,70.46,0,0,0-14-5.71A.32.32,0,0,1,709.61,899.65Z" transform="translate(-73.04 -146.38)"/><path class="cls-2" d="M772.84,920.62s2.5-4.3,1.89-12.37c0,0-54.5,8-84.62,7,0,0-.74,3.33.24,4.88S754.91,922,772.84,920.62Z" transform="translate(-73.04 -146.38)"/><path class="cls-2" d="M699.11,906.64s8.25,1.82,8,9.14l2.07-.15S708,906,699.11,906.64Z" transform="translate(-73.04 -146.38)"/><path class="cls-85" d="M824.11,920.5c2.64-.27,68.43-29.84,70.23-32.55.68-1-3.06-10.86-7.93-22.61-1-2.54-2.15-5.16-3.28-7.81-7.33-17.2-15.51-35.29-15.51-35.29L823.55,841.9l16.72,34.75,3.67,7.63s-20.13,22.59-21.78,25.77S821.46,920.76,824.11,920.5Z" transform="translate(-73.04 -146.38)"/><path class="cls-53" d="M824.11,920.5c2.64-.27,68.43-29.84,70.23-32.55.83-1.26-4.88-15.51-11.21-30.42l-42.86,19.12,3.67,7.63s-20.13,22.59-21.78,25.77S821.46,920.76,824.11,920.5Z" transform="translate(-73.04 -146.38)"/><path class="cls-86" d="M820.83,921.76c2.8-.22,73-30.09,75-32.92.75-1.07-3-11.55-7.9-24.09l-45.35,19.12s-21.78,23.47-23.6,26.8S818,922,820.83,921.76Z" transform="translate(-73.04 -146.38)"/><path class="cls-2" d="M822.44,905.5a10.25,10.25,0,0,1,8.26-.12,9.93,9.93,0,0,1,5.31,5.17c0,.07-.1.12-.14.06a11.89,11.89,0,0,0-13.37-5A.08.08,0,1,1,822.44,905.5Z" transform="translate(-73.04 -146.38)"/><path class="cls-2" d="M838.52,886.26c4.69-2.07,10.86-2.73,15.43-.12.17.1,0,.35-.14.33a71.44,71.44,0,0,0-15.12.4A.32.32,0,0,1,838.52,886.26Z" transform="translate(-73.04 -146.38)"/><path class="cls-2" d="M835.48,889.22c4.69-2.07,10.86-2.73,15.43-.12.18.1,0,.35-.14.34a70.82,70.82,0,0,0-15.12.4A.33.33,0,0,1,835.48,889.22Z" transform="translate(-73.04 -146.38)"/><path class="cls-2" d="M832.45,892.19c4.69-2.07,10.86-2.73,15.42-.12.18.1,0,.35-.14.34a70.82,70.82,0,0,0-15.12.39A.32.32,0,0,1,832.45,892.19Z" transform="translate(-73.04 -146.38)"/><path class="cls-2" d="M829.41,895.15c4.69-2.07,10.86-2.73,15.43-.12.18.1,0,.35-.14.34a70.8,70.8,0,0,0-15.12.4A.33.33,0,0,1,829.41,895.15Z" transform="translate(-73.04 -146.38)"/><path class="cls-2" d="M895.74,888.94s.56-4.94-3.24-12.09c0,0-46.68,29.26-74.65,40.48,0,0,.66,3.34,2.18,4.37S879.86,897.38,895.74,888.94Z" transform="translate(-73.04 -146.38)"/><path class="cls-2" d="M822.61,905.78s8.29-1.66,11,5.15l1.83-1S830.47,901.59,822.61,905.78Z" transform="translate(-73.04 -146.38)"/><path class="cls-87" d="M768.46,589.65c-7.93,3.78-35.67,10.93-47.21,3.23-10.34-6.91-11.22-56.46-6.91-72.34,1.52-5.58,23.54,5.1,25.87,9.79,2,4-1.26,41.44.33,42.26C743.24,574,752,575,765.89,577,779,578.78,774.05,587,768.46,589.65Z" transform="translate(-73.04 -146.38)"/><path class="cls-2" d="M740.77,546.72l-29.44-13.93s-5.07,50.44,9.31,61.08c3.31,2.45,25.38,6.52,46.17-2.38,6.43-2.76,16.42-12.26-2.7-15.28s-22.59-4.09-22.94-4.57S740.77,546.72,740.77,546.72Z" transform="translate(-73.04 -146.38)"/><g class="cls-88"><path class="cls-2" d="M726.6,557.68a2.53,2.53,0,0,0,3.49-.31c1.69-1.9.87-5.15,0-7.3s-2.41-4.5-4.93-4.89a2,2,0,0,0-2.22,2.58c.34,1.66,1.22,3.2,1.65,4.85S725,556.49,726.6,557.68Z" transform="translate(-73.04 -146.38)"/><path class="cls-2" d="M729.5,567.83c1.48-.8,1.74-3,1.72-4.44a4.18,4.18,0,0,0-.66-2.28,2.12,2.12,0,0,0-2.9-.77,2.78,2.78,0,0,0-1.07,1.79,6.73,6.73,0,0,0-.12,1.1v.12l0,.09a6.85,6.85,0,0,0-.18,3.33A2.16,2.16,0,0,0,729.5,567.83Z" transform="translate(-73.04 -146.38)"/><path class="cls-2" d="M737.46,564.39a13.57,13.57,0,0,0,.66-8.26c-.43-2.19-1.26-5.8-3.79-6.37a1.32,1.32,0,0,0-1.39.71c-1,1.65,0,4.51.18,6.31.2,2.28,0,4.58.21,6.85A2.19,2.19,0,0,0,737.46,564.39Z" transform="translate(-73.04 -146.38)"/><path class="cls-2" d="M723.48,575.76a3,3,0,0,0,1.16.54,2.58,2.58,0,0,0,1.87-.4,4.2,4.2,0,0,0,1.29-1.57,3.88,3.88,0,0,0,.38-1.87c0-.2-.09-.39-.13-.59l-.28-.55a2.3,2.3,0,0,0-1.2-.88,2.33,2.33,0,0,0-2.47.7,11.77,11.77,0,0,0-1.28,1.63c-.06.21-.13.41-.19.61a1.74,1.74,0,0,0,0,1A2.43,2.43,0,0,0,723.48,575.76Z" transform="translate(-73.04 -146.38)"/><path class="cls-2" d="M731.24,575a2.1,2.1,0,0,0,2.43-.53,5.16,5.16,0,0,0,1.05-2.46,4.45,4.45,0,0,0-.08-2.48,1.63,1.63,0,0,0-2.74-.51,8,8,0,0,0-.93,1.79c-.13.26-.27.51-.41.76a5.91,5.91,0,0,0-.46,1.21A2,2,0,0,0,731.24,575Z" transform="translate(-73.04 -146.38)"/></g><path class="cls-2" d="M712.14,540.34c2.45.77,4.8,1.9,7.16,2.91s4.63,2,6.94,3c4.66,2.08,9.4,4.06,13.91,6.44a.09.09,0,1,1-.07.17c-4.88-1.62-9.61-3.76-14.31-5.82q-3.54-1.56-7-3.2a67.33,67.33,0,0,1-6.68-3.37C712,540.45,712,540.31,712.14,540.34Z" transform="translate(-73.04 -146.38)"/><path class="cls-89" d="M766.81,591.49c-20.79,8.89-42.87,4.83-46.17,2.37-6.66-4.93-9.15-18.42-9.9-31.49L741,569.2a14.57,14.57,0,0,0,.17,2.44c.35.48,3.82,1.55,22.94,4.57S773.24,588.73,766.81,591.49Z" transform="translate(-73.04 -146.38)"/><path class="cls-90" d="M790.14,659.66s-12.53,124-12.83,125.58c0,.21-.13,2.59-.25,6.49-.68,21.34-2.34,87.91-2.34,87.91H723.56s3.34-78.84,5.25-97.24c2.45-23.46,17.84-122.74,17.84-122.74Z" transform="translate(-73.04 -146.38)"/><path d="M790.14,659.66s-12.53,124-12.83,125.58c0,.21-.13,2.59-.25,6.49L752.94,659.66Z" transform="translate(-73.04 -146.38)"/><path class="cls-90" d="M746.65,659.66s3.37,17.91,15.87,27c0,0,27.55,92.22,31.14,102.79,6.17,18.22,39.33,79.95,39.33,79.95l51.19-22s-39-68.77-43.26-74.07c-2.8-3.52-23.52-78.26-23.56-80.2-.44-22-7.8-33.63-7.8-33.63Z" transform="translate(-73.04 -146.38)"/><path d="M788.07,666.15a17,17,0,0,0,6.26,9A21.06,21.06,0,0,0,805.7,679c.69.06.74,1.1,0,1.1-8.34,0-16.77-5.28-18-13.93C787.7,666,788,666,788.07,666.15Z" transform="translate(-73.04 -146.38)"/><path d="M753.34,663.62c.45,1.91,1,3.8,1.51,5.69s.84,3.6,1.4,5.36a9.2,9.2,0,0,0,2.72,4.41c.74.63,1.54,1.17,2.32,1.74.42.3.87.59,1.31.9-.07-.25-.13-.51-.18-.77-.17-.72-.32-1.45-.48-2.17-.35-1.61-.68-3.23-1-4.84-.64-3.18-1.23-6.39-2.05-9.52a.1.1,0,0,1,.2-.06c.94,3.1,2,6.16,2.8,9.29.41,1.54,2,9.14,2.05,9.68s.16,1.12.2,1.68a6.21,6.21,0,0,1,.08,1.72c0,.14-.19.13-.26,0h0a6.64,6.64,0,0,1-.57-1.64c-.16-.54-.31-1.09-.44-1.64l-.12-.61c-.77-.42-1.5-1-2.23-1.48s-1.58-1-2.33-1.58a8.65,8.65,0,0,1-2.95-4.18,31.74,31.74,0,0,1-1.15-5.46c-.34-2.17-.62-4.35-1-6.5C753.12,663.55,753.31,663.49,753.34,663.62Z" transform="translate(-73.04 -146.38)"/><path d="M806.24,661.76a40.82,40.82,0,0,1,5.17,10.87,41.29,41.29,0,0,1,1.91,11.94,36.27,36.27,0,0,1-.44,6.06c-.08.5-.14,1-.26,1.49l-.15.75a1.9,1.9,0,0,0-.09.63c.12.93.37,1.94.58,2.9.93,3.91,2,7.79,3,11.67,4.17,15.53,8.39,31,12.83,46.49l3.34,11.58c.57,1.92,1.15,3.85,1.76,5.75.31,1,.62,1.92,1,2.79s.85,1.77,1.34,2.65c3.79,7.06,7.88,14,11.84,21,0,0,20.17,33.89,24.32,41.71.2.36.1.59-.27.11-3.61-4.7-16.75-27.46-24.94-41.3-4.1-6.92-8.15-13.86-12-20.94-.49-.87-.94-1.81-1.39-2.73s-.71-1.93-1-2.89c-.63-1.92-1.21-3.85-1.8-5.78-1.15-3.85-2.29-7.71-3.39-11.58-4.32-15.49-8.59-31-12.51-46.6-1-3.9-1.94-7.81-2.81-11.74-.21-1-.44-2-.56-3a2.7,2.7,0,0,1,.12-.85l.16-.73c.12-.48.19-1,.28-1.47a40.73,40.73,0,0,0,.54-5.94A42.75,42.75,0,0,0,806.24,661.76Z" transform="translate(-73.04 -146.38)"/><path class="cls-2" d="M813.71,666.67l-71.21.48c0,1.39,3.61-55.8,21.87-89.56,1.24-2.3,12.42-4.84,17.38-.32C803.5,597.05,813.72,667.57,813.71,666.67Z" transform="translate(-73.04 -146.38)"/><g class="cls-88"><path class="cls-2" d="M763.6,650.34c-1.84-1.53-4.55-1.14-5.35,1.33-.91,2.81.92,5.55,3.36,6.88a9.31,9.31,0,0,0,8.32.34c2.5-1.14,1.82-5-.66-5.71a18.24,18.24,0,0,1-3.53-.88C764.85,651.86,764.35,651,763.6,650.34Z" transform="translate(-73.04 -146.38)"/><path class="cls-2" d="M760.48,641c-1.47,4.23,4.76,8.8,8.49,6.92a2.32,2.32,0,0,0,.55-3.6c-.9-.94-1.73-1.18-2.53-2a4,4,0,0,1-.71-1,6.27,6.27,0,0,0-1.69-1.94C763.05,638.29,761,639.48,760.48,641Z" transform="translate(-73.04 -146.38)"/><path class="cls-2" d="M749.74,639.91c-1.61,1.62-.91,4.47.09,6.25a5.57,5.57,0,0,0,4.71,3.07,1.88,1.88,0,0,0,1.36-3.14,5.9,5.9,0,0,1-1.51-2.46c-.43-1.42-.61-3.22-2-4A2.22,2.22,0,0,0,749.74,639.91Z" transform="translate(-73.04 -146.38)"/><path class="cls-2" d="M776.5,648a2.12,2.12,0,0,0-2.1,2.07,2.49,2.49,0,0,0,2.07,2.42,3.83,3.83,0,0,0,2.38-.27,1.74,1.74,0,0,0,.82-.93,1.88,1.88,0,0,0,.12-1.26,2,2,0,0,0-1.75-1.46,2.27,2.27,0,0,0-.28-.21A2.43,2.43,0,0,0,776.5,648Z" transform="translate(-73.04 -146.38)"/><path class="cls-2" d="M754.77,629.88c-1.66,2.18-.33,6.52,2,7.76a2,2,0,0,0,3.07-1.7,8.35,8.35,0,0,0-.13-1.35c-.07-.49-.16-.8-.17-1.08a10.82,10.82,0,0,0-.25-3A2.51,2.51,0,0,0,754.77,629.88Z" transform="translate(-73.04 -146.38)"/><path class="cls-2" d="M748.66,652.61c-2.25,3.41,2.7,8.24,6.11,7.94,1.14-.1,2.4-1.42,1.54-2.59-.69-.93-1.55-1.73-2.17-2.71-.76-1.2-1.08-2.66-2.44-3.38A2.26,2.26,0,0,0,748.66,652.61Z" transform="translate(-73.04 -146.38)"/></g><g class="cls-88"><path class="cls-2" d="M801.07,646.13c-.21,1.3-.12,2.43-1,3.53s-1.88,1.84-2.45,3.14a1.68,1.68,0,0,0,1.81,2.25,8,8,0,0,0,6-9A2.23,2.23,0,0,0,801.07,646.13Z" transform="translate(-73.04 -146.38)"/><path class="cls-2" d="M795.87,635.59c-.46,1.62-.14,3.36-.48,5a39.26,39.26,0,0,1-1.17,4.54c-.35,1.07.79,2.57,2,1.88a8.57,8.57,0,0,0,4.11-4.76c.66-1.88,1.26-5,.2-6.79S796.54,633.25,795.87,635.59Z" transform="translate(-73.04 -146.38)"/><path class="cls-2" d="M791.22,651.82a10.65,10.65,0,0,1-3.19,3.32,2.44,2.44,0,1,0,2.5,4.15,8.78,8.78,0,0,0,4.28-6.09C795.14,651.21,792.33,650.25,791.22,651.82Z" transform="translate(-73.04 -146.38)"/></g><g class="cls-88"><path class="cls-2" d="M773,600.79a2.53,2.53,0,0,0,2.74-2.18c.35-2.52-2.13-4.77-4-6.09s-4.49-2.42-6.81-1.35a2,2,0,0,0-.42,3.38c1.21,1.19,2.78,2,4.06,3.13S770.94,600.7,773,600.79Z" transform="translate(-73.04 -146.38)"/><path class="cls-2" d="M781,607.65c.79-1.49-.18-3.42-1-4.66a4.23,4.23,0,0,0-1.82-1.53,2.12,2.12,0,0,0-2.84,1,2.78,2.78,0,0,0,.11,2.08,7,7,0,0,0,.5,1,.64.64,0,0,1,.06.1l0,.09a7,7,0,0,0,1.69,2.87A2.17,2.17,0,0,0,781,607.65Z" transform="translate(-73.04 -146.38)"/><path class="cls-2" d="M785.72,600.38a13.51,13.51,0,0,0-4-7.25c-1.56-1.59-4.25-4.13-6.68-3.21a1.31,1.31,0,0,0-.75,1.36c.06,1.94,2.51,3.74,3.63,5.16,1.43,1.79,2.52,3.82,4,5.59A2.19,2.19,0,0,0,785.72,600.38Z" transform="translate(-73.04 -146.38)"/><path class="cls-2" d="M780.36,617.58a3,3,0,0,0,1.26-.19A2.57,2.57,0,0,0,783,616a4.07,4.07,0,0,0,.21-2,3.94,3.94,0,0,0-.72-1.77l-.43-.42-.54-.31a2.38,2.38,0,0,0-1.49-.06,2.34,2.34,0,0,0-1.67,1.95,12,12,0,0,0-.16,2.07l.18.61a1.88,1.88,0,0,0,.55.78A2.43,2.43,0,0,0,780.36,617.58Z" transform="translate(-73.04 -146.38)"/><path class="cls-2" d="M786.42,612.67a2.1,2.1,0,0,0,1.73-1.79,5.08,5.08,0,0,0-.49-2.62,4.46,4.46,0,0,0-1.44-2,1.63,1.63,0,0,0-2.56,1.1,8,8,0,0,0,.21,2c0,.29.06.58.08.87a6.06,6.06,0,0,0,.29,1.26A2,2,0,0,0,786.42,612.67Z" transform="translate(-73.04 -146.38)"/></g><path class="cls-85" d="M770.67,587.69c2.8-.36,7.68-6.57,9.17-11.35.11-.33-1-3.35-2.1-7.08-.68-2.26-1.38-4.81-1.86-7.17l-14.11,6.57a38.52,38.52,0,0,1,3.25,8.8,4.89,4.89,0,0,1,.1,1,1,1,0,0,0,0,.16C765.19,580.51,766.27,588.25,770.67,587.69Z" transform="translate(-73.04 -146.38)"/><path class="cls-91" d="M765.12,578.45v.17a11.88,11.88,0,0,0,1.55-.23c8.56-1.91,8.58-12.92,8.42-15.92l-13.32,6.19a38.57,38.57,0,0,1,3.25,8.79A7.2,7.2,0,0,1,765.12,578.45Z" transform="translate(-73.04 -146.38)"/><path class="cls-85" d="M777.13,546.17c1.78,5.32-.63,20.88-4.35,24.44-5.39,5.16-14.42,5.88-18.86-.65-4.3-6.33-.8-26.56,3.38-29.81C763.44,535.36,774.5,538.32,777.13,546.17Z" transform="translate(-73.04 -146.38)"/><path class="cls-2" d="M763.2,555.92s.07.06.06.11c-.24,1-.33,2.25.54,2.78,0,0,0,.07,0,.06C762.66,558.48,762.81,556.86,763.2,555.92Z" transform="translate(-73.04 -146.38)"/><path class="cls-2" d="M764.34,555c1.7.2,1.18,3.58-.4,3.4S762.91,554.84,764.34,555Z" transform="translate(-73.04 -146.38)"/><path class="cls-2" d="M757.34,554.82c0-.05-.09,0-.1.08-.13,1.05-.45,2.23-1.45,2.44,0,0,0,.06,0,.06C757,557.41,757.38,555.83,757.34,554.82Z" transform="translate(-73.04 -146.38)"/><path class="cls-2" d="M756.57,553.58c-1.67-.39-2.32,3-.78,3.33S758,553.9,756.57,553.58Z" transform="translate(-73.04 -146.38)"/><path class="cls-2" d="M762.65,566.28c-.28.2-.57.48-.93.45a2.67,2.67,0,0,1-1-.41,0,0,0,0,0,0,0,1.35,1.35,0,0,0,1.18.74,1.07,1.07,0,0,0,.92-.76C762.76,566.28,762.69,566.25,762.65,566.28Z" transform="translate(-73.04 -146.38)"/><path class="cls-85" d="M774.16,558.88s3.47-5,5.75-3.8-.3,8.51-3,9.53a2.71,2.71,0,0,1-3.64-1.44Z" transform="translate(-73.04 -146.38)"/><path class="cls-92" d="M779.12,556.47a0,0,0,0,1,0,.07c-1.87.77-2.84,2.52-3.52,4.32a1.5,1.5,0,0,1,2.24-.43s0,.12-.05.1a1.67,1.67,0,0,0-1.83.6,8,8,0,0,0-.87,1.49c-.09.17-.39.08-.33-.11l0,0C774.73,560.08,776.56,556.73,779.12,556.47Z" transform="translate(-73.04 -146.38)"/><path class="cls-93" d="M768.34,551.69a4.19,4.19,0,0,0-2.87-1,4.17,4.17,0,0,1-2.86-1s0,1.91.95,1.91S766.43,550.73,768.34,551.69Z" transform="translate(-73.04 -146.38)"/><path class="cls-94" d="M774.44,560.9s-.11-.54-2.41,2.12c-1,1.19-2.29,3.1-3.81,2.63-1.71-.52-4-2.15-6.5-1.49-4.44,1.15-8.81-3.14-9.67-.55-.68,2,2.05,7.72,3.68,10.22a3.89,3.89,0,0,0,3.39,1.74c2.42-.09,6.27-.35,8.21-1.1,3-1.14,6.66-2.29,8.14-5.73S774.44,565.48,774.44,560.9Z" transform="translate(-73.04 -146.38)"/><path class="cls-85" d="M755.21,568.37a1.36,1.36,0,0,1,1.37-1.46h2.85c2.06,0,5.89.57,6,1,.22,1.07.22,5.2-8,3.14A3.05,3.05,0,0,1,755.21,568.37Z" transform="translate(-73.04 -146.38)"/><path class="cls-2" d="M757.06,566.62a8.08,8.08,0,0,0,6.52.4S760,570.57,757.06,566.62Z" transform="translate(-73.04 -146.38)"/><path class="cls-92" d="M758.6,558s-2.45,3.68-1.64,4.5,5.32,0,5.32,0,1.22-.82-2-.41-2.86-.41-2.86-.41A9.46,9.46,0,0,1,758.6,558Z" transform="translate(-73.04 -146.38)"/><path class="cls-95" d="M774.44,560.9s-.77-.73-4.12,4-2,5.46-4,8.17c-1.47,2-.67,1.4-5.77,2.4a22.15,22.15,0,0,0,13.31-4.44s2.8-2.78,2-4.78S774.44,563.61,774.44,560.9Z" transform="translate(-73.04 -146.38)"/><path class="cls-93" d="M762.67,550.45s0,1.48,1.15,1.22a21,21,0,0,1,2.42-.4S763.8,551.52,762.67,550.45Z" transform="translate(-73.04 -146.38)"/><path class="cls-93" d="M753.36,551.68a4.15,4.15,0,0,1,2.86-1,4.17,4.17,0,0,0,2.86-1s0,1.91-1,1.91S755.27,550.72,753.36,551.68Z" transform="translate(-73.04 -146.38)"/><path class="cls-93" d="M759,550.44s0,1.48-1.14,1.22a21,21,0,0,0-2.43-.4S757.9,551.52,759,550.44Z" transform="translate(-73.04 -146.38)"/><path class="cls-90" d="M745.69,641.58S764.5,623,779,599.84c0,0-.32,19.77-34.5,49.4Z" transform="translate(-73.04 -146.38)"/><path class="cls-90" d="M756.84,596.09s11.14-8,20.07-8c0,0-9,1.91-25.16,11.56Z" transform="translate(-73.04 -146.38)"/><path class="cls-90" d="M732,612.35s10.37,2.54,10.37,9.24a14.53,14.53,0,0,0-4.39-12.27S735,612,732,612.35Z" transform="translate(-73.04 -146.38)"/><polyline points="700.52 621.4 695.07 733.26 701.64 732.98 704.5 636.91"/><path class="cls-85" d="M779.38,595.22c-4.44,9.52-24.83,45.73-38.63,47.18-16.72,1.76-38-2-47.26-6.49-5.19-2.53,8.31-27.95,13.27-26.27,7.81,2.67,23,4,26,4.21s24.14-15.8,35.9-24.58C779.29,581.36,782,589.61,779.38,595.22Z" transform="translate(-73.04 -146.38)"/><path class="cls-2" d="M713.1,609.75l-11.37,31.5s29.7,6.24,41.61,1.78,27.61-27.9,35.09-41.56,3.54-25.18-15.63-9.93S734.37,612.65,733,612.93,713.1,609.75,713.1,609.75Z" transform="translate(-73.04 -146.38)"/><g class="cls-88"><path class="cls-2" d="M740.71,635.73c-1.2.54-2.1,1.23-3.47,1.14s-2.58-.54-4-.31a1.69,1.69,0,0,0-.88,2.76,8,8,0,0,0,10.82,0A2.23,2.23,0,0,0,740.71,635.73Z" transform="translate(-73.04 -146.38)"/><path class="cls-2" d="M746.63,625.58c-1.61.51-2.87,1.73-4.46,2.37a40.65,40.65,0,0,1-4.43,1.53c-1.08.29-1.71,2.08-.48,2.67a8.6,8.6,0,0,0,6.23.82c1.93-.5,4.85-1.71,5.78-3.58S749,624.84,746.63,625.58Z" transform="translate(-73.04 -146.38)"/><path class="cls-2" d="M730.52,630.64a10.42,10.42,0,0,1-4.52-.83,2.44,2.44,0,1,0-2.08,4.38,8.8,8.8,0,0,0,7.44.21C733.2,633.58,732.45,630.7,730.52,630.64Z" transform="translate(-73.04 -146.38)"/></g><g class="cls-88"><path class="cls-2" d="M773,600.79a2.53,2.53,0,0,0,2.74-2.18c.35-2.52-2.13-4.77-4-6.09s-4.49-2.42-6.81-1.35a2,2,0,0,0-.42,3.38c1.21,1.19,2.78,2,4.06,3.13S770.94,600.7,773,600.79Z" transform="translate(-73.04 -146.38)"/><path class="cls-2" d="M778.37,601.58q-1.05,1.95-2.33,4.13s0,0,0,0,0-.07,0-.09,0-.06-.06-.1a10.15,10.15,0,0,1-.51-1,2.82,2.82,0,0,1-.1-2.08,2.12,2.12,0,0,1,2.84-1Z" transform="translate(-73.04 -146.38)"/><path class="cls-2" d="M781.65,593.08a27.51,27.51,0,0,1-2,5.89c-.57-.86-1.15-1.72-1.79-2.53-1.12-1.42-3.56-3.22-3.63-5.16a1.28,1.28,0,0,1,.76-1.35C777.42,589,780.07,591.49,781.65,593.08Z" transform="translate(-73.04 -146.38)"/></g><path class="cls-2" d="M708.47,641.27c.59-2.5,1.54-4.93,2.37-7.35s1.67-4.78,2.52-7.15c1.72-4.8,3.34-9.68,5.38-14.36a.09.09,0,0,1,.18.06c-1.26,5-3,9.86-4.74,14.71q-1.29,3.65-2.67,7.26a68.32,68.32,0,0,1-2.86,6.91C708.6,641.46,708.45,641.37,708.47,641.27Z" transform="translate(-73.04 -146.38)"/><path class="cls-2" d="M713,609.44c3,.3,14.7,2.61,17.65,2.9a6.22,6.22,0,0,0,3.8-.78c1.28-.72,22.52-15.48,24.87-17.25.1-.08.22.07.12.14-2.46,1.76-19,14.26-21.49,16a28,28,0,0,1-3.53,2.28,5.59,5.59,0,0,1-3.71.42c-2.79-.55-13.68-2.62-17.5-3.32-.08,0-.63,1.39-.7,1.38l-.16,0A6.58,6.58,0,0,1,713,609.44Z" transform="translate(-73.04 -146.38)"/><path class="cls-96" d="M976.16,505.19c-2.36,2.54-5,5.57-7.41,8.47s-4.9,5.93-7.27,9c-4.75,6.07-9.36,12.27-13.67,18.65a249.24,249.24,0,0,0-22.52,39.83c-11.9,27.58-17.12,58.95-9.53,88.13a107.1,107.1,0,0,0,20.55,40.09c9.56,12,21.73,22,34.87,30.43a226.73,226.73,0,0,0,42.48,20.66,359.37,359.37,0,0,0,45.78,13.42,361.67,361.67,0,0,1-46.83-10.27,232.26,232.26,0,0,1-44.79-18.07c-14.2-7.82-27.78-17.38-39-29.63A118.68,118.68,0,0,1,903,673.09a133.41,133.41,0,0,1-6.37-50,173.3,173.3,0,0,1,3.28-25,202.69,202.69,0,0,1,6.77-24.28,270.21,270.21,0,0,1,21.42-45c4.14-7.15,8.58-14.09,13.2-20.91,2.3-3.43,4.67-6.8,7.11-10.14s4.84-6.57,7.67-10.09Z" transform="translate(-73.04 -146.38)"/><path class="cls-97" d="M935.9,582.14c-2.69,9.37-5.09,18.66-7.09,28-.93,4.68-1.9,9.34-2.55,14s-1.29,9.37-1.56,14.06a109.31,109.31,0,0,0,1.3,27.95,77.59,77.59,0,0,0,3.89,13.48,79.41,79.41,0,0,0,6.62,12.72A50.23,50.23,0,0,1,927,681.12a61,61,0,0,1-6-13.71,83.05,83.05,0,0,1-2.88-29.64,124.28,124.28,0,0,1,5.73-29A117.22,117.22,0,0,1,935.9,582.14Z" transform="translate(-73.04 -146.38)"/><path class="cls-98" d="M936.4,503.86c-5.9,9-11.26,18.08-16.2,27.41A270.75,270.75,0,0,0,907,559.9c-2.11,4.81-3.63,9.83-5.43,14.76-1.49,5-3.18,10-4.39,15.13-2.87,10.16-4.44,20.57-6.38,31.18a123.79,123.79,0,0,1,1.31-32.26l.63-4c.2-1.34.6-2.63.89-4l1.92-7.9c1.67-5.15,3.2-10.37,5.28-15.38s4.31-9.94,6.7-14.8l3.92-7.11c1.35-2.34,2.82-4.61,4.26-6.89A124.55,124.55,0,0,1,936.4,503.86Z" transform="translate(-73.04 -146.38)"/><path class="cls-81" d="M943.53,677.14l1.09,1.58a11.28,11.28,0,0,0,4.9,4l1.77.75-1.58,1.09a11.25,11.25,0,0,0-4,4.9l-.75,1.77-1.08-1.59a11.32,11.32,0,0,0-4.91-4l-1.76-.75,1.58-1.08a11.25,11.25,0,0,0,4-4.91Z" transform="translate(-73.04 -146.38)"/><path class="cls-53" d="M965.64,561.79l2,2.9a20.6,20.6,0,0,0,9,7.35l3.23,1.37-2.9,2a20.55,20.55,0,0,0-7.34,9l-1.38,3.24-2-2.9a20.6,20.6,0,0,0-9-7.35L954,576l2.9-2a20.7,20.7,0,0,0,7.34-9Z" transform="translate(-73.04 -146.38)"/><path class="cls-53" d="M992.15,601.89l2.67,3.91a27.84,27.84,0,0,0,12.1,9.9l4.37,1.85-3.91,2.68a27.82,27.82,0,0,0-9.91,12.1l-1.84,4.36L993,632.78a27.73,27.73,0,0,0-12.1-9.9L976.49,621l3.91-2.68a27.8,27.8,0,0,0,9.9-12.1Z" transform="translate(-73.04 -146.38)"/><rect class="cls-53" x="323.42" y="671.98" width="114.04" height="90.7" transform="translate(-76.36 -144.61) rotate(-0.27)"/><rect class="cls-53" x="480.47" y="670.48" width="114.04" height="89.8" transform="translate(-79.87 -141.2) rotate(-0.55)"/><rect class="cls-57" x="323.28" y="777.57" width="114.37" height="6.89" transform="translate(-89.34 -138.23) rotate(-1.2)"/><rect class="cls-57" x="323.34" y="791.24" width="114.37" height="6.89" transform="translate(-89.62 -138.22) rotate(-1.2)"/><rect class="cls-57" x="481.24" y="774.45" width="114.37" height="6.89" transform="translate(-87.64 -136.07) rotate(-1.08)"/><rect class="cls-57" x="481.27" y="788.11" width="114.37" height="6.89" transform="translate(-87.89 -136.07) rotate(-1.08)"/><polygon class="cls-99" points="248.31 466.07 292.54 403.03 340.53 466.07 248.31 466.07"/><polyline class="cls-100" points="362.17 466.07 310.4 466.07 335.23 430.68"/><circle class="cls-101" cx="325.13" cy="399.1" r="9.85"/><polygon class="cls-102" points="406.52 465.06 450.75 402.01 498.75 465.06 406.52 465.06"/><polyline class="cls-103" points="520.39 465.06 468.61 465.06 493.44 429.66"/><circle class="cls-104" cx="483.35" cy="398.09" r="9.85"/><polygon class="cls-105" points="250.7 617.24 294.23 553.71 342.92 616.23 250.7 617.24"/><polyline class="cls-106" points="364.56 615.99 312.79 616.56 337.23 580.89"/><circle class="cls-107" cx="326.78" cy="549.43" r="9.85"/><polygon class="cls-108" points="407.42 614.13 451.65 551.08 499.64 614.13 407.42 614.13"/><polyline class="cls-109" points="521.29 614.13 469.51 614.13 494.34 578.73"/><circle class="cls-110" cx="484.24" cy="547.15" r="9.85"/><rect class="cls-53" x="554.09" y="375.36" width="114.04" height="89.8"/><polygon class="cls-111" points="554.8 465.54 599.03 402.49 647.02 465.54 554.8 465.54"/><polyline class="cls-112" points="668.03 465.68 616.25 465.68 641.08 430.29"/><circle class="cls-113" cx="631.62" cy="398.57" r="9.85"/><path class="cls-85" d="M690.17,609.18c1.84-.07,1.81-1-.84-3s-14.8-7.28-12.57-11.36,19.24,3.73,23.42,7.27,9.69,10.73,9.69,10.73C706.25,612,697.28,610.77,690.17,609.18Z" transform="translate(-73.04 -146.38)"/><path class="cls-85" d="M701.18,638.61c-10.38-2.59-23.33-5.6-31.56-14.08a5.88,5.88,0,0,1-1.71-3.43c-3.75-3.74-3.12-6.63-3.12-6.63-2.43-4.55-1.37-7.43-1.37-7.43s-4.36-4.43-2.12-7.51c2.51-3.47,8.14,3.44,13.56,5.34,12.43,4.36,31.3,7.09,35,8Z" transform="translate(-73.04 -146.38)"/><path class="cls-85" d="M684.67,618.59A84,84,0,0,1,674,614.16,85.47,85.47,0,0,1,663.57,607a.1.1,0,0,0-.14.15,44.75,44.75,0,0,0,21.18,11.58C684.8,618.8,684.85,618.66,684.67,618.59Z" transform="translate(-73.04 -146.38)"/><path class="cls-85" d="M683.13,626.47c-3.46-1.51-9.52-4.22-18.25-12.1,0,0-.08,0-.06,0a40.23,40.23,0,0,0,18.24,12.22C683.28,626.71,683.36,626.57,683.13,626.47Z" transform="translate(-73.04 -146.38)"/><path class="cls-85" d="M682.22,630.69c-5.78-2.8-9.07-5.3-14.27-9.59,0,0-.08,0-.05,0,5.39,5.5,8,6.88,14.25,9.75C682.37,631,682.45,630.8,682.22,630.69Z" transform="translate(-73.04 -146.38)"/><path class="cls-91" d="M662.47,605.91s8.43,7.87,19.59,7.87c0,0-8.7,1.5-18.86-5.39" transform="translate(-73.04 -146.38)"/><path class="cls-91" d="M664.51,613.92s6.39,6.55,15.32,4.32c0,0-5.55,4.48-15.05-2.78" transform="translate(-73.04 -146.38)"/><path class="cls-91" d="M667.36,620.51s3.54,5.54,12.47,3.31C679.83,623.82,671.62,628.36,667.36,620.51Z" transform="translate(-73.04 -146.38)"/><path class="cls-85" d="M742.54,543.3c.85-4.82,4.49-11.52,4-15.12a4.19,4.19,0,0,0-3.41-3.64s3-2.69,2-5.87c-.53-1.64-3.61-2.24-3.61-2.24s2.31-2.26,1.22-5c-.87-2.21-3.83-2.48-3.83-2.48s1.2-3.2-.4-5.17c-3.26-4-22.93,1.42-24,9.5-.49,3.77,4.25,2.18,4.25,2.18s-6.26,3.92-5.25,8,7,1.65,7,1.65-6,3.85-4.55,8c1.54,4.29,7.14.83,7.14.83s-3.55,4.17-1.7,7.07c3.06,4.79,9.53-4.07,14.13-4.24l4.35,6.47Z" transform="translate(-73.04 -146.38)"/><path class="cls-85" d="M744.77,536c-.4,4.63,6.24,8.39,6.48,12.88.34,6.07-7.66,2.23-11.38-5.7l-1.81-6.66Z" transform="translate(-73.04 -146.38)"/><path class="cls-85" d="M738.39,508.69c.07,0,.07-.11,0-.11a35.41,35.41,0,0,0-19.93,6.79c-.18.14,0,.49.2.37A72.43,72.43,0,0,1,738.39,508.69Z" transform="translate(-73.04 -146.38)"/><path class="cls-85" d="M741.52,516.37a.07.07,0,0,0,0-.14c-7.11.24-15.51,3.11-21.27,8.75-.2.19-.18.56.06.36C724.4,521.88,735,517.57,741.52,516.37Z" transform="translate(-73.04 -146.38)"/><path class="cls-85" d="M722.8,534.45c5.74-5.19,12.56-8,20-9.91.1,0,.05-.16,0-.16-3.89-.07-8.5,1.64-12,3.26a20.37,20.37,0,0,0-8.17,6.61C722.54,534.36,722.68,534.56,722.8,534.45Z" transform="translate(-73.04 -146.38)"/><path class="cls-91" d="M740,509.19s-8.86.81-13.33,4.16c0,0,2.51-4.18,12.41-5.44" transform="translate(-73.04 -146.38)"/><path class="cls-91" d="M742.68,516.79s-9.29,2.14-12.64,5.48a24.4,24.4,0,0,1,11.94-6.5" transform="translate(-73.04 -146.38)"/><path class="cls-91" d="M744.23,524.93s-6.38.69-10.84,4c0,0,3.11-3.93,10.48-5.31" transform="translate(-73.04 -146.38)"/><path class="cls-91" d="M745.48,534s-6.51,3.93-9.86,2.81l.55.92s5.26,1.5,8.49-.82Z" transform="translate(-73.04 -146.38)"/><path class="cls-90" d="M761.32,583.78l-4.39,10.89s-5.61,2.28-15.78,2.22l.11-10.66S754.65,588.73,761.32,583.78Z" transform="translate(-73.04 -146.38)"/></g></g></svg>