<svg id="Layer_1" data-name="Layer 1" xmlns="http://www.w3.org/2000/svg" xmlns:xlink="http://www.w3.org/1999/xlink" viewBox="0 0 526.06 584.6"><defs><style>.cls-1{fill:none;}.cls-2{fill:url(#linear-gradient);}.cls-3{clip-path:url(#clip-path);}</style><linearGradient id="linear-gradient" x1="308" y1="416.6" x2="558.2" y2="416.6" gradientTransform="matrix(1, 0, 0, -1, -32.14, 541.7)" gradientUnits="userSpaceOnUse"><stop offset="0" stop-color="#6e0ef3"/><stop offset="0.01" stop-color="#028f2b"/><stop offset="0.66" stop-color="#06c83e"/><stop offset="1" stop-color="#08e146"/></linearGradient><clipPath id="clip-path" transform="translate(-84.54 -87.4)"><rect class="cls-1" x="82.18" y="672" width="700" height="700"/></clipPath><symbol id="e" data-name="e" viewBox="0 0 11.38 15.69"><path d="M11.37,11.14a6.79,6.79,0,0,1-1.29.44,5.44,5.44,0,0,1-1.27.15,3.55,3.55,0,0,1-2.9-1.21,5.23,5.23,0,0,1-1-3.46V0H0V15.31H4.89V12.8A6.17,6.17,0,0,0,7.05,15a5.81,5.81,0,0,0,2.93.71l.54,0,.84-.08Z"/></symbol></defs><title>celunk_zold</title><circle class="cls-2" cx="400.96" cy="125.1" r="125.1"/><path d="M235.08,556.4H163.4a7.66,7.66,0,0,1-7.84-7.84V385a7.66,7.66,0,0,1,7.84-7.84h71.12a7.66,7.66,0,0,1,7.84,7.84V548.56c.56,4.48-3.36,7.84-7.28,7.84ZM171.8,540.16h54.88V392.88H171.8Z" transform="translate(-84.54 -87.4)"/><path d="M372.84,556.4H301.16a7.66,7.66,0,0,1-7.84-7.84V328.48a7.66,7.66,0,0,1,7.84-7.84h71.12a7.66,7.66,0,0,1,7.84,7.84V548.56c.56,4.48-2.8,7.84-7.28,7.84Zm-63.28-16.24h54.88V336.32H309.56Z" transform="translate(-84.54 -87.4)"/><path d="M510.6,556.4H438.92a7.66,7.66,0,0,1-7.84-7.84v-275a7.66,7.66,0,0,1,7.84-7.84H510.6a7.66,7.66,0,0,1,7.84,7.84v275a7.66,7.66,0,0,1-7.84,7.84Zm-63.28-16.24H502.2V282H447.32Z" transform="translate(-84.54 -87.4)"/><path d="M199.24,336.32A31.36,31.36,0,1,1,230.6,305,31.31,31.31,0,0,1,199.24,336.32Zm0-46.48A15.12,15.12,0,1,0,214.36,305,15.06,15.06,0,0,0,199.24,289.84Z" transform="translate(-84.54 -87.4)"/><path d="M337,288.16a31.36,31.36,0,1,1,31.36-31.36A31.31,31.31,0,0,1,337,288.16Zm0-46.48a15.12,15.12,0,1,0,15.12,15.12A15.06,15.06,0,0,0,337,241.68Z" transform="translate(-84.54 -87.4)"/><path d="M474.76,238.32A31.36,31.36,0,1,1,506.12,207,31.31,31.31,0,0,1,474.76,238.32Zm0-46.48A15.12,15.12,0,1,0,489.88,207,15.06,15.06,0,0,0,474.76,191.84Z" transform="translate(-84.54 -87.4)"/><path d="M221.08,305.52c-3.36,0-6.16-2.24-7.84-5.6a8.1,8.1,0,0,1,5-10.64l93.52-34.16a8.32,8.32,0,1,1,5.6,15.68L223.88,305c-1.12,0-1.68.56-2.8.56Z" transform="translate(-84.54 -87.4)"/><path d="M358.28,255.68c-3.36,0-6.16-2.24-7.84-5.6a8.1,8.1,0,0,1,5-10.64l94.08-34.16a8.32,8.32,0,1,1,5.6,15.68l-94.08,34.16a5,5,0,0,1-2.8.56Z" transform="translate(-84.54 -87.4)"/><g class="cls-3"><use width="11.37" height="15.69" transform="matrix(1, 0, 0, -1, 0, 584.6)" xlink:href="#e"/></g></svg>