<svg id="Layer_1" data-name="Layer 1" xmlns="http://www.w3.org/2000/svg" xmlns:xlink="http://www.w3.org/1999/xlink" viewBox="0 0 509.29 514.83"><defs><style>.cls-1{fill:url(#linear-gradient);}.cls-2{fill:#fff;}</style><linearGradient id="linear-gradient" x1="259.1" y1="125.1" x2="509.29" y2="125.1" gradientUnits="userSpaceOnUse"><stop offset="0" stop-color="#6e0ef3"/><stop offset="0.01" stop-color="#028f2b"/><stop offset="0.66" stop-color="#06c83e"/><stop offset="1" stop-color="#08e146"/></linearGradient></defs><title>igenyfelmeres</title><circle class="cls-1" cx="384.19" cy="125.1" r="125.1"/><path class="cls-2" d="M454.77,273.89a42.12,42.12,0,1,0,42.19-42h0a42.11,42.11,0,0,0-42.19,42Zm69.14,0A27,27,0,1,1,496.81,247h0A27.1,27.1,0,0,1,523.91,273.89Z" transform="translate(-110 -47)"/><path class="cls-2" d="M510.85,334A43.27,43.27,0,0,0,493,331.78a42.72,42.72,0,0,0-37.74,36.83,41.67,41.67,0,0,0-.61,6.87v40.61H424a22.65,22.65,0,0,0-22.65,22.64V533.6a27.64,27.64,0,0,0,24.08,28.23h2.34a26.64,26.64,0,0,0,26.79-26.49v-.15h0V484.92h61.52a22.64,22.64,0,0,0,22.64-22.64V373.75A42.27,42.27,0,0,0,510.85,334Zm13.06,128.31a7.55,7.55,0,0,1-7.55,7.55H447.3a8,8,0,0,0-7.55,7.54v57.29a11.79,11.79,0,0,1-3.77,8.6,11.44,11.44,0,0,1-9,3,12.74,12.74,0,0,1-10.57-13V439a7.55,7.55,0,0,1,7.55-7.55h37.73a8,8,0,0,0,7.55-7.55V375.48a30,30,0,0,1,0-4.45,27.63,27.63,0,0,1,24.08-24.15,29,29,0,0,1,12.3,1.36,27.09,27.09,0,0,1,18,25.51Z" transform="translate(-110 -47)"/><path class="cls-2" d="M152.12,316A42.12,42.12,0,1,0,110,273.89,42.12,42.12,0,0,0,152.12,316Zm0-69.06a27,27,0,1,1-27,27h0A27.09,27.09,0,0,1,152.12,247Z" transform="translate(-110 -47)"/><path class="cls-2" d="M225,416.09H194.23V375.48a43.33,43.33,0,0,0-38.34-43.7A41.69,41.69,0,0,0,123.66,343,42.3,42.3,0,0,0,110,374.05v88.3A22.65,22.65,0,0,0,132.64,485h61.51v50a26.65,26.65,0,0,0,26.5,26.79h2.94a27.77,27.77,0,0,0,24.38-28V439a22.64,22.64,0,0,0-22.64-22.64Zm7.55,117.51a12.69,12.69,0,0,1-10.26,13.14,11.62,11.62,0,0,1-12.68-10.42,6.12,6.12,0,0,1,0-1.21V477.68a8,8,0,0,0-7.55-7.55H132.94a7.55,7.55,0,0,1-7.54-7.55V373.75a27.09,27.09,0,0,1,8.75-19.93,26.81,26.81,0,0,1,18.27-7.09h2.49a28.15,28.15,0,0,1,24.53,28.68v47.85a8,8,0,0,0,7.54,7.55h37.74a7.55,7.55,0,0,1,7.55,7.54Z" transform="translate(-110 -47)"/><path class="cls-2" d="M216.65,403.33H424V388.24H380.5V346.73a49.06,49.06,0,0,0-98.12,0v41.51H216.65Zm80.83-56.6a34,34,0,1,1,67.93,0v41.51H297.48Z" transform="translate(-110 -47)"/><path class="cls-2" d="M331.44,282.57a41.51,41.51,0,1,0-41.51-41.51A41.51,41.51,0,0,0,331.44,282.57Zm0-67.92A26.42,26.42,0,1,1,305,241.06,26.41,26.41,0,0,1,331.44,214.65Z" transform="translate(-110 -47)"/><path class="cls-2" d="M305,410.88a22.65,22.65,0,0,0-22.65,22.64V539.19a22.65,22.65,0,0,0,45.29,0V433.52A22.64,22.64,0,0,0,305,410.88Zm7.54,128.31a7.55,7.55,0,1,1-15.09,0V433.52a7.55,7.55,0,0,1,15.09,0Z" transform="translate(-110 -47)"/><path class="cls-2" d="M357.86,410.88a22.64,22.64,0,0,0-22.64,22.64V539.19a22.64,22.64,0,0,0,45.28,0V433.52A22.64,22.64,0,0,0,357.86,410.88Zm7.55,128.31a7.55,7.55,0,0,1-15.1,0V433.52a7.55,7.55,0,0,1,15.1,0Z" transform="translate(-110 -47)"/><path class="cls-2" d="M426.32,192.53h58.26L513.19,221A7.49,7.49,0,0,0,526,215.7V154.27A38.34,38.34,0,0,0,487.75,116H426.32a38.27,38.27,0,1,0,0,76.53Zm0-61.43h61.36a23.09,23.09,0,0,1,23.17,23v43.33L493,179.63a7.55,7.55,0,0,0-5.36-2.19H426.32a23.17,23.17,0,1,1,0-46.34Z" transform="translate(-110 -47)"/><rect class="cls-2" x="308.62" y="99.72" width="76.76" height="15.1"/><path class="cls-2" d="M120.72,223.17a7.42,7.42,0,0,0,2.87.61,7.51,7.51,0,0,0,5.28-2.27l28.83-28.45H216a38.83,38.83,0,0,0,0-76.53H154.61a38.26,38.26,0,0,0-38.27,38.26v61.44A7.53,7.53,0,0,0,120.72,223.17Zm10.71-68.38a23.11,23.11,0,0,1,23-23.17H216A23.18,23.18,0,0,1,216,178H154.61a7.5,7.5,0,0,0-5.36,2.18L131.43,198Z" transform="translate(-110 -47)"/><rect class="cls-2" x="36.91" y="100.25" width="76.76" height="15.1"/></svg>