<svg id="Layer_1" data-name="Layer 1" xmlns="http://www.w3.org/2000/svg" xmlns:xlink="http://www.w3.org/1999/xlink" viewBox="0 0 673.56 620.25"><defs><style>.cls-1{fill:url(#linear-gradient);}.cls-2{fill:#fff;}</style><linearGradient id="linear-gradient" x1="413.1" y1="125.1" x2="663.29" y2="125.1" gradientUnits="userSpaceOnUse"><stop offset="0" stop-color="#6e0ef3"/><stop offset="1" stop-color="#9753f5"/></linearGradient></defs><title>webfejlesztesikon</title><circle class="cls-1" cx="538.19" cy="125.1" r="125.1"/><path class="cls-2" d="M29.27,653.86H660.63a21.05,21.05,0,0,0,13.2-37.29l-63.75-52.8a12.75,12.75,0,0,0-2.58-1.72,11.49,11.49,0,0,0,0-3.1V528.13a156.58,156.58,0,0,1-21,8V559H102.93V296.2h21V527.6A10.56,10.56,0,0,0,145,529.25a6.51,6.51,0,0,0,0-1.65V212.05h399.7v5.41a161.53,161.53,0,0,1,21,2V138.39a31.62,31.62,0,0,0-31.61-31.55H155.53A31.62,31.62,0,0,0,124,138.39V275.15h-21A21,21,0,0,0,81.88,296.2h0V562.45a27.43,27.43,0,0,0-2.58,1.71L15.61,617a21.07,21.07,0,0,0-2.77,29.64,20.79,20.79,0,0,0,16,7.65ZM145,138.39a10.49,10.49,0,0,1,10.49-10.49H534.18a10.57,10.57,0,0,1,10.56,10.49v52.8H145ZM93,580.2H596.68L660.44,633H29.27Z" transform="translate(-8 -34)"/><path class="cls-2" d="M513.19,149H492.13a10.56,10.56,0,0,0,0,21.06h21.06a10.56,10.56,0,0,0,0-21.06Z" transform="translate(-8 -34)"/><path class="cls-2" d="M450,149H429a10.56,10.56,0,1,0-1.65,21H450a10.56,10.56,0,1,0,1.71-21.05Z" transform="translate(-8 -34)"/><path class="cls-2" d="M176.59,254.16h63.09a10.56,10.56,0,0,0,0-21.06H176.59a10.56,10.56,0,0,0-1.65,21.06Z" transform="translate(-8 -34)"/><path class="cls-2" d="M176.59,296.2H365.88a10.56,10.56,0,1,0,1.71-21.05h-191a10.56,10.56,0,1,0-1.9,21l.25,0Z" transform="translate(-8 -34)"/><path class="cls-2" d="M176.59,338.31h84.15a10.56,10.56,0,0,0,0-21.06H176.59a10.56,10.56,0,0,0-1.65,21.06A6.51,6.51,0,0,0,176.59,338.31Z" transform="translate(-8 -34)"/><path class="cls-2" d="M176.59,380.35H365.88a10.56,10.56,0,1,0,1.71-21.05h-191a10.56,10.56,0,0,0-1.65,21.05Z" transform="translate(-8 -34)"/><path class="cls-2" d="M176.59,464.5H313.34a10.56,10.56,0,0,0,0-21.05H176.59a10.56,10.56,0,0,0-1.65,21.05Z" transform="translate(-8 -34)"/><path class="cls-2" d="M176.59,506.54H418.48a10.56,10.56,0,1,0,1.71-21.05,7,7,0,0,0-1.71,0H176.59a10.56,10.56,0,1,0-1.9,21l.25,0A6.51,6.51,0,0,0,176.59,506.54Z" transform="translate(-8 -34)"/><path class="cls-2" d="M176.59,400.94a10.56,10.56,0,0,0-1.9,21l.25,0H382a190.74,190.74,0,0,1-4-21.06Z" transform="translate(-8 -34)"/><path class="cls-2" d="M539.46,238.32a142.07,142.07,0,1,0,.06,0Zm0,263a121.14,121.14,0,1,1,.06,0Z" transform="translate(-8 -34)"/><path class="cls-2" d="M594.24,351.9a10.5,10.5,0,0,0-14.85,14.85L593,380.35,579.39,394a10.5,10.5,0,0,0,14.85,14.85l21.32-21.06a10.63,10.63,0,0,0,0-14.91h0Z" transform="translate(-8 -34)"/><path class="cls-2" d="M499.59,351.9a10.42,10.42,0,0,0-14.74,0l0,0h0l-21.06,21a10.71,10.71,0,0,0,0,14.85h0l21.06,21a10.52,10.52,0,1,0,14.91-14.85l-13.59-13.6,13.59-13.59a10.43,10.43,0,0,0,.11-14.75l-.11-.1Z" transform="translate(-8 -34)"/><path class="cls-2" d="M553.32,338.84a10.49,10.49,0,0,0-13.2,6.6l-21.06,63.09a10.56,10.56,0,0,0,19.8,6.6L559.92,352A10.49,10.49,0,0,0,553.32,338.84Z" transform="translate(-8 -34)"/></svg>