<svg id="Layer_1" data-name="Layer 1" xmlns="http://www.w3.org/2000/svg" xmlns:xlink="http://www.w3.org/1999/xlink" viewBox="0 0 516.29 604.66"><defs><style>.cls-1{fill:url(#linear-gradient);}.cls-2{fill:#fff;}</style><linearGradient id="linear-gradient" x1="266.1" y1="125.1" x2="516.29" y2="125.1" gradientUnits="userSpaceOnUse"><stop offset="0" stop-color="#6e0ef3"/><stop offset="0.01" stop-color="#028f2b"/><stop offset="0.66" stop-color="#06c83e"/><stop offset="1" stop-color="#08e146"/></linearGradient></defs><title>webshopikon</title><circle class="cls-1" cx="391.19" cy="125.1" r="125.1"/><path class="cls-2" d="M520.88,125H207.77a41.26,41.26,0,0,0-41.19,41.12V372h17V166.12a24.7,24.7,0,0,1,24.7-24.7H521.44a24.77,24.77,0,0,1,24,24.7v263.5a24.7,24.7,0,0,1-24.7,24.7H315v16.49H520.88A41.19,41.19,0,0,0,562,429.62V166.12A41.26,41.26,0,0,0,520.88,125Z" transform="translate(-68 -15)"/><rect class="cls-2" x="131.77" y="142.91" width="16.49" height="16.49"/><rect class="cls-2" x="164.68" y="142.91" width="16.49" height="16.49"/><rect class="cls-2" x="197.66" y="142.91" width="16.49" height="16.49"/><rect class="cls-2" x="131.77" y="175.89" width="329.32" height="16.49"/><path class="cls-2" d="M199.77,314.4a8.21,8.21,0,0,0,8.21,8.21h82.31a8.22,8.22,0,0,0,8.28-8.14h0V232a8.21,8.21,0,0,0-8.21-8.21H208a8.21,8.21,0,0,0-8.21,8.21h0Zm16.42-74.11H282v65.83H216.19Z" transform="translate(-68 -15)"/><path class="cls-2" d="M413.8,232a8.22,8.22,0,0,0-8.21-8.21H323.27a8.22,8.22,0,0,0-8.28,8.14h0V314.4a8.22,8.22,0,0,0,8.21,8.21h82.39a8.22,8.22,0,0,0,8.21-8.21h0Zm-16.43,74.11H331.48V240.29h65.89Z" transform="translate(-68 -15)"/><path class="cls-2" d="M529.09,232a8.22,8.22,0,0,0-8.21-8.21H438.5a8.21,8.21,0,0,0-8.21,8.21h0V314.4a8.21,8.21,0,0,0,8.21,8.21h82.38a8.22,8.22,0,0,0,8.21-8.21h0ZM512.6,306.12H446.78V240.29H512.6Z" transform="translate(-68 -15)"/><path class="cls-2" d="M199.77,372h16.42V355.52h82.38V347a8.2,8.2,0,0,0-8.21-8.21H208a8.2,8.2,0,0,0-8.21,8.21h0Z" transform="translate(-68 -15)"/><path class="cls-2" d="M405.59,339.1h-8.22v82.31H331.48V437.9h74.11a8.22,8.22,0,0,0,8.21-8.21h0V347a8.21,8.21,0,0,0-8.21-8.21h0Z" transform="translate(-68 -15)"/><path class="cls-2" d="M520.88,339.1H438.5a8.2,8.2,0,0,0-8.21,7.93h0v82.59a8.14,8.14,0,0,0,8,8.28h82.59a8.22,8.22,0,0,0,8.21-8.21h0V347a8.21,8.21,0,0,0-8.21-8.21h0Zm-8.28,82.31H446.78V355.52H512.6Z" transform="translate(-68 -15)"/><path class="cls-2" d="M69.79,391.56a8.4,8.4,0,0,0-1.6,7l32.91,148.2a8,8,0,0,0,8.08,6.19h180.9a8.42,8.42,0,1,1,1.53,16.77h0a5.6,5.6,0,0,1-1.53,0h-189a24.7,24.7,0,1,0,24.71,25.26,25.57,25.57,0,0,0-1.54-8.21H242.56a25.55,25.55,0,0,0-1.53,8.21,24.7,24.7,0,1,0,49.4,0v0h0a23.67,23.67,0,0,0-1.46-8.49h1.46a24.7,24.7,0,1,0,0-49.4H284.1l30.47-137.21L328.49,372h4.66a24.7,24.7,0,1,0,0-16.49h-9.39a8.42,8.42,0,0,0-7.45,4.59L302.4,388.5H76.26A8.37,8.37,0,0,0,69.79,391.56Zm31.31,211a8.21,8.21,0,1,1,8.22-8.21h0a8.21,8.21,0,0,1-8.22,8.21Zm164.63,0a8.2,8.2,0,0,1-8.07-8.34V594a8.22,8.22,0,0,1,16.42.62h0a8.14,8.14,0,0,1-8.41,7.87h.06Zm90.45-247a8.25,8.25,0,1,1-8.21,8.21h0a8.21,8.21,0,0,1,8.14-8.28h0ZM183.77,536.42h-33.4l-1.81-33h35.21Zm0-49.4h-36.6l-1.88-33h38.34ZM257,404.92h39.52l-7,33h-34.1Zm-2.78,49.4h31.38l-7.38,33H252.37Zm-2.71,49.4h23.1l-7,33h-18Zm-51.7-98.8h40.49l-1.87,33H199.77Zm0,49.4h37.92l-1.81,33H199.77Zm0,49.4H235l-1.67,33H199.77Zm-16.14-98.8v33H144.38l-1.53-33ZM133.39,536.7h-17.6l-7.38-33h23.17Zm-2.71-49.4H104.79l-7-33h31.11Zm-4.6-82.38,1.88,33H94.15l-7.66-33Z" transform="translate(-68 -15)"/></svg>