<svg id="Layer_1" data-name="Layer 1" xmlns="http://www.w3.org/2000/svg" xmlns:xlink="http://www.w3.org/1999/xlink" viewBox="0 0 522.35 586.48"><defs><style>.cls-1{fill:url(#linear-gradient);}</style><linearGradient id="linear-gradient" x1="318" y1="460.6" x2="568.2" y2="460.6" gradientTransform="matrix(1, 0, 0, -1, -45.85, 585.7)" gradientUnits="userSpaceOnUse"><stop offset="0" stop-color="#6e0ef3"/><stop offset="0.01" stop-color="#f99c00"/><stop offset="0.27" stop-color="#fbab24"/><stop offset="0.77" stop-color="#fec564"/><stop offset="1" stop-color="#ffcf7d"/></linearGradient></defs><title>celunk_sarga</title><circle class="cls-1" cx="397.25" cy="125.1" r="125.1"/><path d="M370.78,267.75,352,210.1l-18.77,57.65h-60.7l49.14,35.63-18.78,57.69L352,325.5l49.12,35.61-18.79-57.68,49.15-35.68Zm-3,47.55L352,303.84,336.19,315.3l6.06-18.6-15.77-11.45h19.45L352,266.61l6.08,18.64h19.45L361.78,296.7Z" transform="translate(-98.25 -43.4)"/><path d="M521.08,248.69a54,54,0,0,1,.46-18.84,50.43,50.43,0,0,0-2.81-32.1A50.7,50.7,0,0,0,492,179.07a52.83,52.83,0,0,1-16.26-8.81,52.7,52.7,0,0,1-8.8-16.26,50.77,50.77,0,0,0-18.69-26.73,50.31,50.31,0,0,0-32.15-2.8,53.61,53.61,0,0,1-18.82.45A51.53,51.53,0,0,1,382,115.5a51.12,51.12,0,0,0-30-14,51.17,51.17,0,0,0-30,14A51.83,51.83,0,0,1,306.69,125a54.09,54.09,0,0,1-18.82-.46,50.49,50.49,0,0,0-32.12,2.76A50.76,50.76,0,0,0,237.07,154a52.62,52.62,0,0,1-8.81,16.26A52.83,52.83,0,0,1,212,179.07a50.64,50.64,0,0,0-26.72,18.68,50.35,50.35,0,0,0-2.82,32.14,53.67,53.67,0,0,1,.46,18.83,52.21,52.21,0,0,1-9.47,15.35A51.12,51.12,0,0,0,159.5,294,51.12,51.12,0,0,0,173.45,324a52.05,52.05,0,0,1,9.47,15.36,53.67,53.67,0,0,1-.46,18.83,50.46,50.46,0,0,0,2.81,32.11A50.7,50.7,0,0,0,212,408.93a52.88,52.88,0,0,1,16.27,8.81A52.77,52.77,0,0,1,237.06,434l1.19,2.84v193L352,592l113.75,37.91v-193c.4-.94.8-1.89,1.18-2.81h0a52.83,52.83,0,0,1,8.81-16.26A53,53,0,0,1,492,408.93a50.69,50.69,0,0,0,26.72-18.68,50.36,50.36,0,0,0,2.82-32.14,53.91,53.91,0,0,1-.46-18.83,52.21,52.21,0,0,1,9.47-15.35,51.15,51.15,0,0,0,14-29.93,51.14,51.14,0,0,0-14-30,52.09,52.09,0,0,1-9.47-15.35ZM360.75,576.44V512.75h-17.5v63.69l-87.5,29.17V521.5H317V504H255.75V460.75a50.46,50.46,0,0,0,32.11,2.78,54.16,54.16,0,0,1,18.83-.45A51.59,51.59,0,0,1,322,472.54a51.18,51.18,0,0,0,30,14,51.18,51.18,0,0,0,30-14,51.59,51.59,0,0,1,15.34-9.46,53.67,53.67,0,0,1,18.83.45,50.26,50.26,0,0,0,32.11-2.79V539H387v17.5h61.25v49.11ZM516.67,313.3a64,64,0,0,0-12.49,21.49,66.37,66.37,0,0,0,0,25.59,38.12,38.12,0,0,1-.6,21.12,38.32,38.32,0,0,1-18.26,11.26,65.24,65.24,0,0,0-21.95,12.61,65.32,65.32,0,0,0-12.61,21.93,38.21,38.21,0,0,1-11.26,18.28,38.16,38.16,0,0,1-21.13.6,66.32,66.32,0,0,0-25.58,0,64.17,64.17,0,0,0-21.49,12.49A38.46,38.46,0,0,1,352,469a38.42,38.42,0,0,1-19.3-10.33,64,64,0,0,0-21.49-12.5,41.21,41.21,0,0,0-10.66-1.28,116.58,116.58,0,0,0-14.93,1.29,38.21,38.21,0,0,1-21.12-.6,38.28,38.28,0,0,1-11.25-18.27,65.1,65.1,0,0,0-12.61-21.94,65.13,65.13,0,0,0-21.93-12.6,38.33,38.33,0,0,1-18.29-11.27,38.12,38.12,0,0,1-.61-21.12,66,66,0,0,0,0-25.6,63.84,63.84,0,0,0-12.49-21.49A38.53,38.53,0,0,1,177,294a38.42,38.42,0,0,1,10.33-19.3,64,64,0,0,0,12.49-21.5,65.93,65.93,0,0,0,0-25.58,38.21,38.21,0,0,1,.6-21.12,38.27,38.27,0,0,1,18.27-11.26,65.27,65.27,0,0,0,21.94-12.61,65.1,65.1,0,0,0,12.61-21.94,38.22,38.22,0,0,1,11.26-18.27,37.91,37.91,0,0,1,21.14-.6,66.32,66.32,0,0,0,25.58,0,64,64,0,0,0,21.49-12.5A38.41,38.41,0,0,1,352,119a38.42,38.42,0,0,1,19.3,10.33,64.24,64.24,0,0,0,21.5,12.5,66.37,66.37,0,0,0,25.59,0,38.08,38.08,0,0,1,21.11.58,38.39,38.39,0,0,1,11.26,18.27,65.29,65.29,0,0,0,12.6,21.95,65.24,65.24,0,0,0,21.94,12.6,38.38,38.38,0,0,1,18.29,11.27,38,38,0,0,1,.6,21.12,66.37,66.37,0,0,0,0,25.59,63.81,63.81,0,0,0,12.5,21.5A38.47,38.47,0,0,1,527,294a38.42,38.42,0,0,1-10.33,19.3Z" transform="translate(-98.25 -43.4)"/><path d="M352,154A140.17,140.17,0,1,0,451,195.06,140,140,0,0,0,352,154Zm45.39,253.75a122.83,122.83,0,1,1,55.95-45.08,122.47,122.47,0,0,1-55.95,45.08Z" transform="translate(-98.25 -43.4)"/><path d="M150.75,416.5h-17.5a35,35,0,0,1-35,35V469a35,35,0,0,1,35,35h17.5a35,35,0,0,1,35-35V451.5a35,35,0,0,1-35-35ZM142,475l-.08-.1a53,53,0,0,0-14.58-14.58l-.1-.08A52.92,52.92,0,0,0,142,445.49a52.92,52.92,0,0,0,14.76,14.76A52.92,52.92,0,0,0,142,475Z" transform="translate(-98.25 -43.4)"/><path d="M570.75,110.25h-17.5a35,35,0,0,1-35,35v17.5a35,35,0,0,1,35,35h17.5a35,35,0,0,1,35-35v-17.5a35,35,0,0,1-35-35ZM562,168.76l-.08-.1a53,53,0,0,0-14.58-14.58l-.1-.08A52.92,52.92,0,0,0,562,139.24,52.92,52.92,0,0,0,576.76,154,52.92,52.92,0,0,0,562,168.76Z" transform="translate(-98.25 -43.4)"/></svg>