<svg id="Layer_1" data-name="Layer 1" xmlns="http://www.w3.org/2000/svg" xmlns:xlink="http://www.w3.org/1999/xlink" viewBox="0 0 831.5 554.75"><defs><style>.cls-1{fill:none;}.cls-2{fill:url(#linear-gradient);}.cls-3,.cls-5{fill:#fff;}.cls-3{stroke:#fff;stroke-miterlimit:10;}.cls-4{fill:url(#linear-gradient-2);}.cls-6{clip-path:url(#clip-path);}.cls-7{clip-path:url(#clip-path-2);}.cls-8{clip-path:url(#clip-path-3);}</style><linearGradient id="linear-gradient" x1="322" y1="443.6" x2="572.2" y2="443.6" gradientTransform="matrix(1, 0, 0, -1, 38.08, 584.1)" gradientUnits="userSpaceOnUse"><stop offset="0" stop-color="#6e0ef3"/><stop offset="0" stop-color="#6114cc"/><stop offset="0" stop-color="#6e20da"/><stop offset="1" stop-color="#966ef3"/></linearGradient><linearGradient id="linear-gradient-2" x1="792.87" y1="583.83" x2="793.42" y2="583.83" gradientTransform="matrix(1, 0, 0, -1, 38.08, 584.1)" gradientUnits="userSpaceOnUse"><stop offset="0" stop-color="#ffcb72"/><stop offset="1" stop-color="#ffa000"/><stop offset="1" stop-color="#020202"/></linearGradient><clipPath id="clip-path" transform="translate(-14.32 -45)"><rect class="cls-1" x="844.79" y="46.46" width="1.54" height="1.54"/></clipPath><clipPath id="clip-path-2" transform="translate(-14.32 -45)"><rect class="cls-1" x="844.8" y="46.41" width="0.06" height="0.06"/></clipPath><clipPath id="clip-path-3" transform="translate(-14.32 -45)"><rect class="cls-1" x="845.46" y="46.46" width="1.54" height="1.54"/></clipPath><symbol id="a_2" data-name="a 2" viewBox="0 0 25.68 25.12"><path d="M25.68,12.47v2.19H7.8a5.63,5.63,0,0,0,1.93,4A7.22,7.22,0,0,0,14.4,20a18.25,18.25,0,0,0,4.93-.71,25.23,25.23,0,0,0,5.21-2.16V23a31.14,31.14,0,0,1-5.43,1.55,28.13,28.13,0,0,1-5.42.53q-6.49,0-10.1-3.3T0,12.57Q0,6.71,3.53,3.36T13.26,0a12.17,12.17,0,0,1,9,3.4,12.27,12.27,0,0,1,3.39,9.06ZM17.82,9.94a4.83,4.83,0,0,0-1.28-3.51,4.33,4.33,0,0,0-3.32-1.35A5.18,5.18,0,0,0,9.61,6.33,5.83,5.83,0,0,0,7.89,9.94Z"/></symbol><symbol id="b_2" data-name="b 2" viewBox="0 0 26.25 33.23"><path d="M0,0H7.66V18.09l8.79-8.78h8.89L13.66,20.23l12.59,13H17l-9.34-10v10H0Z"/></symbol></defs><title>celunk_lila</title><circle class="cls-2" cx="485.18" cy="140.5" r="125.1"/><path d="M539.06,195.69H449.27V179.44l17.33-43.28a9,9,0,0,0-8.35-12.31H422.33a9,9,0,0,0-8.35,5.66l-.63,1.62-.62-1.62a9,9,0,0,0-8.35-5.66H368.46a9,9,0,0,0-8.35,12.31l17.33,43.28v16.25H287.65a26.94,26.94,0,0,0-26.94,26.93v18H161.94A26.94,26.94,0,0,0,135,267.52V474A26.94,26.94,0,0,0,161.94,501H269.69v44.89h-18a9,9,0,1,0,0,18H377.44a9,9,0,0,0,0-18h-18V501H467.23A26.94,26.94,0,0,0,494.17,474V411.19h44.89A26.94,26.94,0,0,0,566,384.25V222.62a26.94,26.94,0,0,0-26.94-26.93Zm-143.66,9v-18h35.91v26.94H395.4Zm33-62.86H445l-10.77,26.94h-5.75l-5.39-13.47Zm-30.17,0,10.78,26.94H392.52l-10.77-26.94ZM341.52,545.88H287.65V501h53.87ZM476.21,474a9,9,0,0,1-9,9H161.94a9,9,0,0,1-9-9V447.1H476.21Zm0-44.89H153V267.52a9,9,0,0,1,9-9h98.77V384.25a26.94,26.94,0,0,0,26.94,26.94H476.21ZM548,384.25a9,9,0,0,1-9,9H287.65a9,9,0,0,1-9-9V222.63a9,9,0,0,1,9-9h89.79v9a8.88,8.88,0,0,0,9,9h53.87a9,9,0,0,0,9-9v-9h89.79a9,9,0,0,1,9,9Zm-18-125.71a9,9,0,0,1-9,9H431.31a9,9,0,0,1,0-18H521.1a9,9,0,0,1,9,9ZM404.37,366.29a9,9,0,1,1-17.95,0,35.92,35.92,0,0,0-71.84,0,9,9,0,1,1-18,0,53.88,53.88,0,0,1,107.75,0ZM350.5,303.44a35.92,35.92,0,1,0-25.4-10.52A36,36,0,0,0,350.5,303.44Zm0-53.88a18,18,0,1,1-12.7,5.26A18,18,0,0,1,350.5,249.56Zm179.58,44.9a9,9,0,0,1-9,9H431.31a9,9,0,0,1,0-18H521.1a9,9,0,0,1,9,9Zm0,35.92a9,9,0,0,1-9,9H467.23a9,9,0,1,1,0-18H521.1a9,9,0,0,1,9,9ZM296.62,465.06a9,9,0,0,1,9-9h18a9,9,0,0,1,0,18h-18A9,9,0,0,1,296.62,465.06ZM404.37,590.77a9,9,0,0,1-9,9H233.77a9,9,0,1,1,0-18H395.4a9,9,0,0,1,9,9Zm53.88,0a9,9,0,0,1-9,9h-18a9,9,0,1,1,0-18h18a9,9,0,0,1,9,9Z" transform="translate(-14.32 -45)"/><path class="cls-3" d="M66.59,411.58H31.35a16.52,16.52,0,0,1-16.53-16.45V360.05a16.54,16.54,0,0,1,16.53-16.53H66.59a16.54,16.54,0,0,1,16.54,16.53h0v35.08A16.52,16.52,0,0,1,66.59,411.58Zm-35-56.52a5,5,0,0,0-5,5h0v35.08a5,5,0,0,0,5,5h35a5.06,5.06,0,0,0,5.07-5V360.05a5.06,5.06,0,0,0-5.07-5Z" transform="translate(-14.32 -45)"/><circle class="cls-4" cx="831.22" cy="0.27" r="0.27"/><path class="cls-5" d="M844.66,45.31v.19h0v-.19a0,0,0,0,1,0,0h.77a0,0,0,0,1,0,0h0a.08.08,0,0,0-.08-.08h-.77A.08.08,0,0,0,844.66,45.31Z" transform="translate(-14.32 -45)"/><path class="cls-5" d="M844.62,46.39h.88a.08.08,0,0,0,.08-.08v-.08h0v.08a0,0,0,0,1,0,0s0,0,0,0v-.06l0,0h-.76v-.38h0v.38h-.1l0,0v.06A.09.09,0,0,0,844.62,46.39Zm0-.12h.85v0a.06.06,0,0,0,0,0h-.82a0,0,0,0,1,0,0h0Z" transform="translate(-14.32 -45)"/><path class="cls-5" d="M844.56,45.81H845s0,0,0,0h0v-.23s0,0,0,0h-.39a0,0,0,0,0,0,0h0v.23a0,0,0,0,0,0,0Zm0-.23h.35v.19h-.35Z" transform="translate(-14.32 -45)"/><path class="cls-5" d="M844.66,45.62l0,0v0l0,0,0,0,0,0,0,0Z" transform="translate(-14.32 -45)"/><path class="cls-5" d="M844.84,45.62l0,0,0,0,0,0,0,0,0,0h0a0,0,0,0,0,0,0Z" transform="translate(-14.32 -45)"/><path class="cls-5" d="M844.72,45.73l0-.12h0l0,.12Z" transform="translate(-14.32 -45)"/><path class="cls-5" d="M845.68,45.35H845l0,0v.38l0,0h.66a0,0,0,0,0,0,0h0v-.38a0,0,0,0,0,0,0Zm0,.38H845v0l.17-.11.17.11s0,0,0,0l.14-.07.12.07Zm0-.09-.11-.06h0l-.14.07-.16-.11h0l-.16.1v-.25h.62Z" transform="translate(-14.32 -45)"/><path class="cls-5" d="M845.46,45.56a.07.07,0,0,0,0-.14.07.07,0,0,0-.07.07.08.08,0,0,0,0,0Zm0-.1s0,0,0,0,0,0,0,0a0,0,0,0,1,0,0,0,0,0,0,1,0,0Z" transform="translate(-14.32 -45)"/><path class="cls-5" d="M844.73,45.87v.23l0,0h.48l0,0h0v-.23l0,0h-.48Zm0,0h.44v.19h-.44Z" transform="translate(-14.32 -45)"/><path class="cls-5" d="M844.81,45.93h.08v0h-.08Z" transform="translate(-14.32 -45)"/><path class="cls-5" d="M844.93,45.93h.17v0h-.17Z" transform="translate(-14.32 -45)"/><path class="cls-5" d="M845.14,45.93h0v0h0Z" transform="translate(-14.32 -45)"/><path class="cls-5" d="M844.81,46H845v0h-.23Z" transform="translate(-14.32 -45)"/><path class="cls-5" d="M845.08,46h.1v0h-.1Z" transform="translate(-14.32 -45)"/><path class="cls-5" d="M844.73,45.31h0v0h0Z" transform="translate(-14.32 -45)"/><path class="cls-5" d="M844.81,45.31h0v0h0Z" transform="translate(-14.32 -45)"/><path class="cls-5" d="M844.89,45.31h0v0h0Z" transform="translate(-14.32 -45)"/><path class="cls-5" d="M844.73,45.39H845v0h-.23Z" transform="translate(-14.32 -45)"/><path class="cls-5" d="M845.68,45.93h-.39v.24h.41v-.24Zm0,.23h-.33V46h.33Z" transform="translate(-14.32 -45)"/><path class="cls-5" d="M845.37,46h0v0h0Z" transform="translate(-14.32 -45)"/><path class="cls-5" d="M845.37,46.08h0v0h0Z" transform="translate(-14.32 -45)"/><path class="cls-5" d="M845.45,46h.17v0h-.17Z" transform="translate(-14.32 -45)"/><path class="cls-5" d="M845.45,46.08h.17v0h-.17Z" transform="translate(-14.32 -45)"/><path class="cls-5" d="M845.54,45.81h0v.08h0Z" transform="translate(-14.32 -45)"/><g class="cls-6"><g class="cls-7"><use width="25.68" height="25.12" transform="translate(830.47 1.41) scale(0)" xlink:href="#a_2"/></g></g><g class="cls-8"><use width="26.25" height="33.23" transform="translate(831.14 1.39) scale(0)" xlink:href="#b_2"/></g></svg>