<svg id="Layer_1" data-name="Layer 1" xmlns="http://www.w3.org/2000/svg" xmlns:xlink="http://www.w3.org/1999/xlink" viewBox="0 0 530.88 601.56"><defs><style>.cls-1{fill:url(#linear-gradient);}</style><linearGradient id="linear-gradient" x1="248" y1="471.6" x2="498.2" y2="471.6" gradientTransform="matrix(1, 0, 0, -1, -35.16, 596.7)" gradientUnits="userSpaceOnUse"><stop offset="0" stop-color="#6e0ef3"/><stop offset="0" stop-color="#1356dd"/><stop offset="1" stop-color="#5bccf8"/></linearGradient></defs><title>celunk_kek</title><circle class="cls-1" cx="337.94" cy="125.1" r="125.1"/><path d="M143.56,621.08H166a32.49,32.49,0,0,1,32.48-32.48,29.27,29.27,0,0,1,11.76,2.24l9.52,3.92,4.48-9.52h0A30.83,30.83,0,0,1,251.08,569a29.67,29.67,0,0,1,29.68,28l1.12,15.12,14-5,7.84-1.12h0a23.52,23.52,0,0,1,23.52,23.52v1.12h22.4v-1.68h0A45.92,45.92,0,0,0,303.72,583h-2.8a52.08,52.08,0,0,0-49.84-36.4,51,51,0,0,0-41.44,20.72l-11.2-1.12a41.87,41.87,0,0,0-14.56,2.24,52.64,52.64,0,0,0-49.28-35.28,51.51,51.51,0,0,0-47,28.56l20.16,10.08h0a29.67,29.67,0,0,1,26.88-16.24,29.12,29.12,0,0,1,28.56,23,56.56,56.56,0,0,0-19.6,42.56Z" transform="translate(-87.56 -32.4)"/><path d="M566.36,586.36a29.69,29.69,0,0,1,29.68,28l22.4-1.12h0A52.08,52.08,0,0,0,566.36,564a53.22,53.22,0,0,0-35.28,13.44,59.92,59.92,0,0,0-51.52-28.56A61.61,61.61,0,0,0,422.44,588a62.18,62.18,0,0,0-49.84,37.52l20.72,8.4h0a39.22,39.22,0,0,1,36.4-24.08H439.8l1.68-9h0a38.64,38.64,0,0,1,76.72,8.4,35.75,35.75,0,0,1-1.68,11.2l21.28,7.28a48.14,48.14,0,0,0,2.8-17.92,43,43,0,0,0-.56-8.4,29.11,29.11,0,0,1,26.32-15.12Z" transform="translate(-87.56 -32.4)"/><path d="M353.56,328.2a44.25,44.25,0,1,0-31.28-13A44.26,44.26,0,0,0,353.56,328.2Zm0-66.08a21.85,21.85,0,1,1-15.44,6.4,21.85,21.85,0,0,1,15.44-6.4Z" transform="translate(-87.56 -32.4)"/><path d="M475.08,438.52l7.28-8.4a82.31,82.31,0,0,0-5-117,94.65,94.65,0,0,0-34.16-20.72c-2.24-66.08-29.68-127.68-81.76-179.2l-7.84-7.84-7.84,7.84C293.64,164.68,266.2,226.28,264,292.36h0a88.57,88.57,0,0,0-33.6,20.72,82.33,82.33,0,0,0-5.6,117l7.28,8.4,48.72-43.68a263.92,263.92,0,0,0,29.68,58.8C318.84,466,339,471,355.8,471h.56c9,0,29.68-1.68,38.64-14a294.29,294.29,0,0,0,31.36-62.16Zm6.72-66.64a60,60,0,0,1-9,34.16l-37-33H437l-2.8-3.36c1.68-5.6,2.8-10.64,3.92-16.24h0a276.45,276.45,0,0,0,4.48-37,118.21,118.21,0,0,1,19.6,14,61.62,61.62,0,0,1,19.6,41.44ZM353.56,137.24a276.64,276.64,0,0,1,30.24,38.64,75.56,75.56,0,0,1-60.48,0A278.14,278.14,0,0,1,353.56,137.24Zm-41.44,58.24a98.48,98.48,0,0,0,41.44,9,96.85,96.85,0,0,0,41.44-9,235.16,235.16,0,0,1,21.28,153.44c-1.12,3.92-1.67,7.84-2.8,12.32h0a113.14,113.14,0,0,1-119.84,0c-.55-3.92-1.68-7.84-2.23-11.76h0a226.84,226.84,0,0,1,20.72-154Zm-67.19,134.4a118.13,118.13,0,0,1,19.59-14,222.92,222.92,0,0,0,5,38.08,73.15,73.15,0,0,0,3.37,15.12l-2.24,3.36h.56l-37,33h0a61.58,61.58,0,0,1,10.64-75.6Zm131.6,114.24a41.46,41.46,0,0,1-24.08,4.48c-13.44-1.12-21.84-5-23.52-7.28a251.36,251.36,0,0,1-25.76-50.4,131,131,0,0,0,100.8,0,281.07,281.07,0,0,1-27.45,53.2Z" transform="translate(-87.56 -32.4)"/><path d="M342.36,501.24h22.4v59h-22.4Z" transform="translate(-87.56 -32.4)"/><path d="M394.44,485.56h22.4v48.55h-22.4Z" transform="translate(-87.56 -32.4)"/><path d="M290.28,485.56h22.4v48.55h-22.4Z" transform="translate(-87.56 -32.4)"/></svg>