<svg id="Layer_1" data-name="Layer 1" xmlns="http://www.w3.org/2000/svg" xmlns:xlink="http://www.w3.org/1999/xlink" viewBox="0 0 563.15 637.5"><defs><style>.cls-1{fill:url(#linear-gradient);}.cls-2{fill:#fff;stroke:#fff;stroke-miterlimit:10;}</style><linearGradient id="linear-gradient" x1="279.74" y1="125.1" x2="529.94" y2="125.1" gradientUnits="userSpaceOnUse"><stop offset="0" stop-color="#6e0ef3"/><stop offset="0" stop-color="#1356dd"/><stop offset="1" stop-color="#5b8ff8"/></linearGradient></defs><title>logoesarculattervezesikon</title><circle class="cls-1" cx="404.84" cy="125.1" r="125.1"/><rect class="cls-2" x="253.74" y="111.5" width="127.4" height="11.54"/><rect class="cls-2" x="60.07" y="111.5" width="126.78" height="11.54"/><path class="cls-2" d="M123,243.37l-11.39-1.87c6.71-40.7,24.88-71.5,54-91.53a141.7,141.7,0,0,1,79-23.39h.47v11.77h-.47a130,130,0,0,0-72.43,21.44C145.69,177.33,129.55,205.87,123,243.37Z" transform="translate(-54.35 -15)"/><path class="cls-2" d="M89.39,166.81a35.25,35.25,0,1,1,.47,0h-.47Zm0-58.56a23.39,23.39,0,1,0,23.39,23.39A23.4,23.4,0,0,0,89.39,108.25Z" transform="translate(-54.35 -15)"/><path class="cls-2" d="M464.81,166.81a35,35,0,1,1,35-35h0A35,35,0,0,1,464.81,166.81Zm0-58.56a23.39,23.39,0,1,0,23.39,23.39A23.39,23.39,0,0,0,464.81,108.25Z" transform="translate(-54.35 -15)"/><path class="cls-2" d="M132.67,304.73H97.35a16.36,16.36,0,0,1-16.53-16.21v-.16h0V253.27a16.68,16.68,0,0,1,16.53-16.45h35.32a16.53,16.53,0,0,1,16.52,16.45v35.09a16.36,16.36,0,0,1-16.37,16.37Zm-35-56.52a5,5,0,0,0-5,5v35.08a5,5,0,0,0,5,5h35a5.06,5.06,0,0,0,5.06-5V253.2a5.06,5.06,0,0,0-5.06-5Z" transform="translate(-54.35 -15)"/><path class="cls-2" d="M292,168.6H256.87a16.52,16.52,0,0,1-16.45-16.53V116.83a16.52,16.52,0,0,1,16.45-16.53H292a16.53,16.53,0,0,1,16.92,16.13h0v35.4a16.52,16.52,0,0,1-16.29,16.76H292Zm-35.08-56.53a5,5,0,0,0-5,5v35a5,5,0,0,0,5,5H292a5,5,0,0,0,5-5V116.83a5,5,0,0,0-5-5Z" transform="translate(-54.35 -15)"/><path class="cls-2" d="M450.23,309.88H415.14a16.37,16.37,0,0,1-16.45-16.3v-.23h0V258.26A16.38,16.38,0,0,1,415,241.81h35.24a16.54,16.54,0,0,1,16.53,16.45v35.09A16.53,16.53,0,0,1,450.23,309.88Zm-35.09-56.53a5,5,0,0,0-5,5v35a5,5,0,0,0,5,5h35.09a5,5,0,0,0,5-5h0V258.26a5,5,0,0,0-5-5Z" transform="translate(-54.35 -15)"/><path class="cls-2" d="M600.47,448.58H565.23a16.52,16.52,0,0,1-16.53-16.45V397.05a16.53,16.53,0,0,1,16.53-16.53h35.24A16.53,16.53,0,0,1,617,397.05h0v35.08A16.52,16.52,0,0,1,600.47,448.58Zm-35-56.52a5,5,0,0,0-5,5h0v35.08a5,5,0,0,0,5,5h35a5.07,5.07,0,0,0,5.07-5V397.05a5.07,5.07,0,0,0-5.07-5Z" transform="translate(-54.35 -15)"/><path class="cls-2" d="M425.82,243.06c-6.31-37.42-22.69-65.34-48.73-83.11a138.33,138.33,0,0,0-69.31-21.6l1.09-11.77c41.25,2.41,112.82,20.5,128.49,114.53Z" transform="translate(-54.35 -15)"/><path class="cls-2" d="M558.37,420.59a150.58,150.58,0,0,1-81.56-22.92c-28.06-19.26-43.89-50.21-47.24-92.16l11.85-.93c5.22,67.13,44.83,102.29,117.65,104.47Z" transform="translate(-54.35 -15)"/><path class="cls-2" d="M351,543.78H199a5.69,5.69,0,0,1-5.54-4.44L154,372.72a5.55,5.55,0,0,1,1.87-5.69A290.76,290.76,0,0,0,252,212.26a21,21,0,0,1,42,0A294,294,0,0,0,390,367a5.94,5.94,0,0,1,1.87,5.53l-35.32,167A5.69,5.69,0,0,1,351,543.78ZM203.62,532.55h142.6l33.84-159a318.59,318.59,0,0,1-79-105.49A240.84,240.84,0,0,1,282.6,214h0c0-1.17-1.56-11.07-9.59-11.07s-9.51,10.68-9.51,11.15h0a240,240,0,0,1-18.33,54A314.3,314.3,0,0,1,166,373.58Z" transform="translate(-54.35 -15)"/><path class="cls-2" d="M273,425.89a27.53,27.53,0,1,1,.15,0Zm0-43.74a16.14,16.14,0,1,0,16.06,16.22h0A16.14,16.14,0,0,0,273,382.31Z" transform="translate(-54.35 -15)"/><rect class="cls-2" x="212.73" y="182.06" width="11.54" height="181.43"/><path class="cls-2" d="M334.6,652H215.31a22.06,22.06,0,0,1-22.06-22.06h0V538.32a5.69,5.69,0,0,1,6.24-5.08l.15,0a5.76,5.76,0,0,1,5.07,5.06V630a10.45,10.45,0,0,0,10.37,10.53H334.6A10.61,10.61,0,0,0,345.21,630V538.32a5.68,5.68,0,0,1,6.23-5.08l.16,0a5.76,5.76,0,0,1,5.07,5.06V630A22.07,22.07,0,0,1,334.6,652Z" transform="translate(-54.35 -15)"/><path class="cls-2" d="M351,579.57H199a5.69,5.69,0,0,1-5.09-6.24c0-.05,0-.1,0-.16a5.76,5.76,0,0,1,5.07-5.06H351a5.77,5.77,0,0,1,1.33,11.46A3.72,3.72,0,0,1,351,579.57Z" transform="translate(-54.35 -15)"/><path class="cls-2" d="M351,615.28H199a5.77,5.77,0,0,1,0-11.54H351a5.77,5.77,0,0,1,0,11.54Z" transform="translate(-54.35 -15)"/></svg>