<svg id="Layer_1" data-name="Layer 1" xmlns="http://www.w3.org/2000/svg" xmlns:xlink="http://www.w3.org/1999/xlink" viewBox="0 0 479.21 516"><defs><style>.cls-1{fill:url(#linear-gradient);}.cls-2{fill:#fffdfd;}</style><linearGradient id="linear-gradient" x1="229.02" y1="125.1" x2="479.21" y2="125.1" gradientUnits="userSpaceOnUse"><stop offset="0" stop-color="#6e0ef3"/><stop offset="0" stop-color="#6114cc"/><stop offset="0.31" stop-color="#6e20da"/><stop offset="0.92" stop-color="#8434f3"/></linearGradient></defs><title>megvalositas</title><circle class="cls-1" cx="354.12" cy="125.1" r="125.1"/><path class="cls-2" d="M528.24,212.89H505.41V152H185.74v60.89H162.91a22.42,22.42,0,0,0-22.83,22.83v205.5a22.43,22.43,0,0,0,22.83,22.84H293.06L287,517.33h-9.9a37.69,37.69,0,0,0-38,38.06V563H452.13v-7.61a37.69,37.69,0,0,0-38.06-38.06h-9.89l-6.09-53.27H528.24a22.43,22.43,0,0,0,22.83-22.84V235.72a22.42,22.42,0,0,0-22.83-22.83Zm0,15.22a7.2,7.2,0,0,1,7.62,7.61V418.39H505.41V228.11Zm-105,78.4H415.6v15.22h7.61v7.61H408v15.22h15.22v7.61H415.6v15.22h7.61V375H408v15.22h15.22v7.61H415.6v15.22h7.61v5.33H400.38v-118h22.83Zm-38-21.32V418.38H372.22V324.77l-26.64-42.62-26.64,42.62v93.61H294.58l2.29-77.63A30,30,0,0,0,306,322.48c1.52-16.74-7.61-28.92-16-41.1a75.48,75.48,0,0,1-8.38-12.93l-5.32-9.14-6.85,7.61c-.76.76-19,21.31-25.12,42.63-3,9.13-.76,19,5.33,27.4.76,1.52,2.28,2.28,3,3.8l.76,77.63H201V197.66H490.19V418.38H438.43V285.19ZM357,340H334.16V329.34l11.42-18.27L357,329.34Zm-22.83,15.23H357v63.17H334.16ZM290.78,321c-.76,7.61-8.37,13.7-16.75,13.7a16.31,16.31,0,0,1-13.7-6.85,14.78,14.78,0,0,1-2.28-13.7c3-10.66,10.66-21.31,16-28.93,1.53,1.53,2.29,3.05,3.81,4.57C284.69,301.18,291.54,310.31,290.78,321ZM274,349.89a21.07,21.07,0,0,0,6.85-.76l-1.52,69.26h-9.89l-2.29-69.26A21.13,21.13,0,0,0,274,349.89ZM490.19,167.22v15.22H201V167.22ZM162.91,228.11h22.83V418.39H155.3V235.72A7.19,7.19,0,0,1,162.91,228.11ZM435.39,547.78H255.77a22.15,22.15,0,0,1,21.31-15.22h137A22.17,22.17,0,0,1,435.39,547.78ZM389,517.33H302.19l6.09-53.27h73.83Zm139.28-68.5H162.91a7.19,7.19,0,0,1-7.61-7.61v-7.61H535.85v7.61A7.19,7.19,0,0,1,528.24,448.83Z" transform="translate(-140.08 -47)"/></svg>