<svg id="Layer_1" data-name="Layer 1" xmlns="http://www.w3.org/2000/svg" xmlns:xlink="http://www.w3.org/1999/xlink" viewBox="0 0 483.11 511"><defs><style>.cls-1{fill:url(#linear-gradient);}.cls-2{fill:#fff;}</style><linearGradient id="linear-gradient" x1="232.92" y1="125.1" x2="483.11" y2="125.1" gradientUnits="userSpaceOnUse"><stop offset="0" stop-color="#6e0ef3"/><stop offset="0.01" stop-color="#f99c00"/><stop offset="0.27" stop-color="#fbab24"/><stop offset="0.77" stop-color="#fec564"/><stop offset="1" stop-color="#ffcf7d"/></linearGradient></defs><title>tervekelkeszitese</title><circle class="cls-1" cx="358.02" cy="125.1" r="125.1"/><path class="cls-2" d="M522.53,399.33H505l20.33-19.92a107.37,107.37,0,0,0-50.22-180.09V175.67h13.55V135H448v40.67h13.55v21.14A109.53,109.53,0,0,0,449,196a107,107,0,0,0-76,31.45l-26.7,26.77L319.6,227.45a107.45,107.45,0,0,0-152,152l25.28,25.21-50,28.6,59.3,33.89h53.27L346.31,558l90.89-90.89h85.33a33.89,33.89,0,0,0,0-67.78Zm-61-250.77h13.56v13.55H461.53Zm-244,264.33h244v40.66h-244Zm257.56,0h13.55v40.66H475.09ZM149.75,303.43A93.88,93.88,0,0,1,310,237.07l36.33,36.26,36.33-36.26A93,93,0,0,1,449,209.56a95.56,95.56,0,0,1,12.54.94V324.78a54.22,54.22,0,0,1-105.39,17.69,20.34,20.34,0,0,0-6.1-37.62,67.78,67.78,0,0,0-132.51,19.93v20.33H204v40.67h40.66V345.11H231.09V324.78a54.22,54.22,0,0,1,105.39-17.69,20.33,20.33,0,0,0,6.1,37.61,67.78,67.78,0,0,0,132.51-19.92V213.35a93.75,93.75,0,0,1,40.26,156.43l-29.49,29.55H206.75l-29.48-29.55A93.09,93.09,0,0,1,149.75,303.43ZM346.31,318a6.78,6.78,0,1,1-6.78,6.78A6.78,6.78,0,0,1,346.31,318ZM231.09,358.67v13.55H217.53V358.67Zm-61,74.55L204,413.9v38.64ZM346.31,538.89l-71.78-71.78H418.09Zm176.22-85.34H502.2V412.89h20.33a20.33,20.33,0,1,1,0,40.66Z" transform="translate(-136.18 -47)"/><rect class="cls-2" x="244.02" y="271" width="13.56" height="13.56"/><rect class="cls-2" x="271.13" y="271" width="13.56" height="13.56"/><rect class="cls-2" x="298.24" y="271" width="13.56" height="13.56"/><rect class="cls-2" x="162.69" y="271" width="13.56" height="13.56"/><rect class="cls-2" x="135.58" y="271" width="13.56" height="13.56"/><rect class="cls-2" x="108.47" y="271" width="13.56" height="13.56"/></svg>