<svg id="Layer_1" data-name="Layer 1" xmlns="http://www.w3.org/2000/svg" xmlns:xlink="http://www.w3.org/1999/xlink" viewBox="0 0 582.5 663.88"><defs><style>.cls-1{fill:none;}.cls-2{fill:url(#linear-gradient);}.cls-3{fill:#fff;}.cls-4{clip-path:url(#clip-path);}.cls-5{clip-path:url(#clip-path-2);}</style><linearGradient id="linear-gradient" x1="333.5" y1="124.5" x2="582.5" y2="124.5" gradientUnits="userSpaceOnUse"><stop offset="0" stop-color="#ffcb72"/><stop offset="1" stop-color="#ffa000"/><stop offset="1" stop-color="#020202"/></linearGradient><clipPath id="clip-path" transform="translate(-88.5 -28)"><rect class="cls-1" x="203.79" y="691.25" width="700" height="700"/></clipPath><clipPath id="clip-path-2" transform="translate(-88.5 -28)"><rect class="cls-1" x="505.96" y="691.25" width="700" height="700"/></clipPath><symbol id="a" data-name="a" viewBox="0 0 25.69 25.13"><path d="M25.69,12.66V10.47H7.8a5.67,5.67,0,0,1,1.93-4,7.28,7.28,0,0,1,4.68-1.35,18.3,18.3,0,0,1,4.93.71A24.92,24.92,0,0,1,24.55,8V2.08A32.3,32.3,0,0,0,19.12.53,28.52,28.52,0,0,0,13.7,0Q7.2,0,3.59,3.3T0,12.56q0,5.86,3.53,9.21t9.74,3.35a12.19,12.19,0,0,0,9-3.4,12.28,12.28,0,0,0,3.39-9.06Zm-7.86,2.53a4.86,4.86,0,0,1-1.28,3.51,4.35,4.35,0,0,1-3.32,1.35A5.22,5.22,0,0,1,9.61,18.8a5.84,5.84,0,0,1-1.72-3.61Z"/></symbol><symbol id="b" data-name="b" viewBox="0 0 26.25 33.23"><path d="M0,33.23H7.66V15.14l8.79,8.78h8.89L13.66,13,26.25,0H17L7.66,10V0H0Z"/></symbol></defs><title>webdesignicon</title><circle class="cls-2" cx="458" cy="124.5" r="124.5"/><path class="cls-3" d="M141,168.5V256h17.5V168.5A17.51,17.51,0,0,1,176,151H526a17.5,17.5,0,0,1,17.5,17.5H561a35,35,0,0,0-35-35H176a35,35,0,0,0-35,35Z" transform="translate(-88.5 -28)"/><path class="cls-3" d="M123.5,658.5H526a35,35,0,0,0,35-35v-35H543.5v35a17.5,17.5,0,1,1-35,0V597.25a8.74,8.74,0,0,0-8.75-8.75H158.5v-175H141v175H97.25a8.75,8.75,0,0,0-8.75,8.75V623.5a35,35,0,0,0,35,35ZM106,606H491v17.5a34.73,34.73,0,0,0,4.7,17.5H123.5A17.48,17.48,0,0,1,106,623.5Z" transform="translate(-88.5 -28)"/><path class="cls-3" d="M97.25,396h175a8.74,8.74,0,0,0,8.75-8.75v-105a8.74,8.74,0,0,0-8.75-8.75h-175a8.75,8.75,0,0,0-8.75,8.75v105A8.74,8.74,0,0,0,97.25,396ZM106,291H263.5v87.5H106Z" transform="translate(-88.5 -28)"/><path class="cls-3" d="M143.56,311.06l-17.5,17.5a8.76,8.76,0,0,0,0,12.37l17.5,17.5,12.37-12.37-11.31-11.31,11.31-11.31Z" transform="translate(-88.5 -28)"/><path class="cls-3" d="M225.94,311.06l-12.37,12.37,11.31,11.32-11.31,11.31,12.37,12.37,17.5-17.5h0a8.76,8.76,0,0,0,0-12.37Z" transform="translate(-88.5 -28)"/><path class="cls-3" d="M167.7,358.23l17.51-52.5,16.6,5.54-17.51,52.5Z" transform="translate(-88.5 -28)"/><path class="cls-3" d="M604.75,186H307.25a8.75,8.75,0,0,0-8.75,8.75v175a8.74,8.74,0,0,0,8.75,8.75h297.5a8.74,8.74,0,0,0,8.75-8.75v-175a8.74,8.74,0,0,0-8.75-8.75ZM596,361H316V339.7l78.57-47.14,76.61,49.54a8.73,8.73,0,0,0,8.75.42l63.34-32.81L596,339.82Zm0-41.33-48.12-27.52h0a8.73,8.73,0,0,0-8.37-.18l-63.06,32.66L399.54,274.9h0a8.76,8.76,0,0,0-9.26-.15L316,319.3V203.5H596Z" transform="translate(-88.5 -28)"/><path class="cls-3" d="M504.12,282.25a30.61,30.61,0,1,0-21.66-9A30.67,30.67,0,0,0,504.12,282.25Zm0-43.75A13.12,13.12,0,1,1,491,251.63a13.12,13.12,0,0,1,13.13-13.13Z" transform="translate(-88.5 -28)"/><path class="cls-3" d="M176,422.25v105a8.74,8.74,0,0,0,8.75,8.75H403.5a8.74,8.74,0,0,0,8.75-8.75v-105a8.74,8.74,0,0,0-8.75-8.75H184.75A8.75,8.75,0,0,0,176,422.25ZM193.5,431H394.75v87.5H193.5Z" transform="translate(-88.5 -28)"/><path class="cls-3" d="M211,448.5h35V466H211Z" transform="translate(-88.5 -28)"/><path class="cls-3" d="M263.5,448.5h78.75V466H263.5Z" transform="translate(-88.5 -28)"/><path class="cls-3" d="M359.75,448.5h17.5V466h-17.5Z" transform="translate(-88.5 -28)"/><path class="cls-3" d="M211,483.5H316V501H211Z" transform="translate(-88.5 -28)"/><path class="cls-3" d="M333.5,483.5h43.75V501H333.5Z" transform="translate(-88.5 -28)"/><path class="cls-3" d="M176,168.5h17.5V186H176Z" transform="translate(-88.5 -28)"/><path class="cls-3" d="M211,168.5h17.5V186H211Z" transform="translate(-88.5 -28)"/><path class="cls-3" d="M246,168.5h17.5V186H246Z" transform="translate(-88.5 -28)"/><path class="cls-3" d="M176,203.5H281V221H176Z" transform="translate(-88.5 -28)"/><path class="cls-3" d="M604.75,448.5H438.5a8.75,8.75,0,0,0-8.75,8.75v105A8.74,8.74,0,0,0,438.5,571H604.75a8.74,8.74,0,0,0,8.75-8.75v-105a8.74,8.74,0,0,0-8.75-8.75ZM596,553.5H447.25V466H596Z" transform="translate(-88.5 -28)"/><path class="cls-3" d="M464.75,483.5h17.5V501h-17.5Z" transform="translate(-88.5 -28)"/><path class="cls-3" d="M464.75,518.5h17.5V536h-17.5Z" transform="translate(-88.5 -28)"/><path class="cls-3" d="M499.75,483.5H578.5V501H499.75Z" transform="translate(-88.5 -28)"/><path class="cls-3" d="M499.75,518.5H578.5V536H499.75Z" transform="translate(-88.5 -28)"/><path class="cls-3" d="M543.5,396H561v35H543.5Z" transform="translate(-88.5 -28)"/><g class="cls-4"><use width="25.69" height="25.12" transform="matrix(1, 0, 0, -1, 117.17, 663.88)" xlink:href="#a"/></g><g class="cls-5"><use width="26.25" height="33.23" transform="matrix(1, 0, 0, -1, 421.13, 663.25)" xlink:href="#b"/></g></svg>