<svg id="Layer_1" data-name="Layer 1" xmlns="http://www.w3.org/2000/svg" xmlns:xlink="http://www.w3.org/1999/xlink" viewBox="0 0 1124.54 718.91"><defs><style>.cls-1,.cls-66{fill:#1a2e35;}.cls-2{fill:#e7f3ff;}.cls-3{fill:#2b454e;}.cls-4{fill:#a8a8a8;}.cls-5{fill:#ffbf9d;}.cls-6{fill:#c16358;}.cls-7{fill:#dd9373;}.cls-8{fill:url(#linear-gradient);}.cls-9{fill:url(#linear-gradient-2);}.cls-10{fill:url(#linear-gradient-3);}.cls-11{fill:url(#linear-gradient-4);}.cls-12{fill:url(#linear-gradient-5);}.cls-13{fill:url(#linear-gradient-6);}.cls-14{fill:url(#linear-gradient-7);}.cls-15{fill:url(#linear-gradient-8);}.cls-16{fill:url(#linear-gradient-9);}.cls-17{fill:url(#linear-gradient-10);}.cls-18{fill:url(#linear-gradient-11);}.cls-19{fill:url(#linear-gradient-12);}.cls-20{fill:url(#linear-gradient-13);}.cls-21{fill:url(#linear-gradient-14);}.cls-22{fill:url(#linear-gradient-15);}.cls-23{fill:url(#linear-gradient-16);}.cls-24{fill:url(#linear-gradient-17);}.cls-25{fill:url(#linear-gradient-18);}.cls-26{fill:url(#linear-gradient-19);}.cls-27{fill:url(#linear-gradient-20);}.cls-28{fill:#cce3ff;}.cls-29{fill:url(#linear-gradient-21);}.cls-30{fill:url(#linear-gradient-22);}.cls-31{fill:url(#linear-gradient-23);}.cls-32{fill:url(#linear-gradient-24);}.cls-33{fill:url(#linear-gradient-25);}.cls-34{fill:url(#linear-gradient-26);}.cls-35{fill:url(#linear-gradient-27);}.cls-36{fill:url(#linear-gradient-28);}.cls-37{fill:url(#linear-gradient-29);}.cls-38{fill:#6d89cf;}.cls-39{fill:url(#linear-gradient-30);}.cls-40{fill:url(#linear-gradient-31);}.cls-41{fill:url(#linear-gradient-32);}.cls-42{fill:url(#linear-gradient-33);}.cls-43{fill:url(#linear-gradient-34);}.cls-44{fill:url(#linear-gradient-35);}.cls-45{fill:url(#linear-gradient-36);}.cls-46{fill:url(#linear-gradient-37);}.cls-47{fill:url(#linear-gradient-38);}.cls-48{fill:url(#linear-gradient-39);}.cls-49{fill:url(#linear-gradient-40);}.cls-50{fill:url(#linear-gradient-41);}.cls-51{fill:url(#linear-gradient-42);}.cls-52{fill:url(#linear-gradient-43);}.cls-53{fill:url(#linear-gradient-44);}.cls-54{fill:url(#linear-gradient-45);}.cls-55{fill:url(#linear-gradient-46);}.cls-56{fill:url(#linear-gradient-47);}.cls-57{fill:#d1945d;}.cls-58{fill:#c18859;}.cls-59{fill:#fff;}.cls-60{fill:#333;}.cls-61{fill:#16282d;}.cls-62{fill:#203391;}.cls-63{fill:#89705d;}.cls-64{fill:url(#linear-gradient-48);}.cls-65{fill:url(#linear-gradient-49);}.cls-66,.cls-88{opacity:0.1;}.cls-67{fill:#a7a9ac;}.cls-68{fill:#173756;}.cls-69{fill:#5f88db;}.cls-70{fill:#6e9ce5;}.cls-71,.cls-72,.cls-73,.cls-74,.cls-75,.cls-76,.cls-77,.cls-90{fill:none;stroke:#fff;stroke-miterlimit:10;}.cls-71,.cls-72,.cls-73,.cls-74,.cls-75,.cls-76,.cls-77{stroke-width:1.02px;}.cls-72{stroke-dasharray:3.5 3.5;}.cls-73{stroke-dasharray:3.56 3.56;}.cls-74{stroke-dasharray:3.5 3.5;}.cls-75{stroke-dasharray:3.56 3.56;}.cls-76{stroke-dasharray:3.5 3.5;}.cls-77{stroke-dasharray:3.56 3.56;}.cls-78{fill:#0c253a;}.cls-79{fill:#122d44;}.cls-80{fill:#c0e5c0;}.cls-81{fill:#91b3fa;}.cls-82{fill:#e6e7e8;}.cls-83{fill:#d1d3d4;}.cls-84{fill:#bcbec0;}.cls-85{fill:#3662c1;}.cls-86{fill:#e3c8fc;}.cls-87{fill:#4d4d4d;}.cls-89{fill:#c17e67;}.cls-90{stroke-width:3px;}.cls-91{fill:url(#linear-gradient-50);}</style><linearGradient id="linear-gradient" x1="1069.27" y1="724.57" x2="1176.52" y2="724.57" gradientUnits="userSpaceOnUse"><stop offset="0.04" stop-color="#6b24d6"/><stop offset="0.22" stop-color="#5c28cc" stop-opacity="0.96"/><stop offset="0.57" stop-color="#3634b2" stop-opacity="0.86"/><stop offset="0.98" stop-color="#00448e" stop-opacity="0.72"/></linearGradient><linearGradient id="linear-gradient-2" x1="1136" y1="695.78" x2="1150.48" y2="695.78" xlink:href="#linear-gradient"/><linearGradient id="linear-gradient-3" x1="1118.27" y1="721.64" x2="1131.38" y2="721.64" xlink:href="#linear-gradient"/><linearGradient id="linear-gradient-4" x1="1090.85" y1="749.8" x2="1104.64" y2="749.8" xlink:href="#linear-gradient"/><linearGradient id="linear-gradient-5" x1="1076.8" y1="767.3" x2="1086.24" y2="767.3" xlink:href="#linear-gradient"/><linearGradient id="linear-gradient-6" x1="1091.11" y1="774.31" x2="1124.34" y2="774.31" xlink:href="#linear-gradient"/><linearGradient id="linear-gradient-7" x1="1113.56" y1="752.36" x2="1148.86" y2="752.36" xlink:href="#linear-gradient"/><linearGradient id="linear-gradient-8" x1="1135.48" y1="724.81" x2="1170.2" y2="724.81" xlink:href="#linear-gradient"/><linearGradient id="linear-gradient-9" x1="1153.47" y1="695.16" x2="1189.49" y2="695.16" xlink:href="#linear-gradient"/><linearGradient id="linear-gradient-10" x1="1161.85" y1="665.86" x2="1180.67" y2="665.86" xlink:href="#linear-gradient"/><linearGradient id="linear-gradient-11" x1="1136.31" y1="849.34" x2="1175.74" y2="849.34" xlink:href="#linear-gradient"/><linearGradient id="linear-gradient-12" x1="1174.6" y1="795.44" x2="1238.34" y2="795.44" xlink:href="#linear-gradient"/><linearGradient id="linear-gradient-13" x1="1150.71" y1="763.28" x2="1189.1" y2="763.28" xlink:href="#linear-gradient"/><linearGradient id="linear-gradient-14" x1="1098.12" y1="844.42" x2="1162.64" y2="844.42" xlink:href="#linear-gradient"/><linearGradient id="linear-gradient-15" x1="1103.28" y1="820.74" x2="1215.73" y2="820.74" xlink:href="#linear-gradient"/><linearGradient id="linear-gradient-16" x1="1128.81" y1="791.99" x2="1177.66" y2="791.99" xlink:href="#linear-gradient"/><linearGradient id="linear-gradient-17" x1="1078.08" y1="829.77" x2="1101.12" y2="829.77" xlink:href="#linear-gradient"/><linearGradient id="linear-gradient-18" x1="1090.21" y1="850.65" x2="1129.49" y2="850.65" xlink:href="#linear-gradient"/><linearGradient id="linear-gradient-19" x1="1060.76" y1="858.43" x2="1091.36" y2="858.43" xlink:href="#linear-gradient"/><linearGradient id="linear-gradient-20" x1="1072.4" y1="860.64" x2="1119.14" y2="860.64" xlink:href="#linear-gradient"/><linearGradient id="linear-gradient-21" x1="541.35" y1="807.23" x2="700.65" y2="807.23" gradientTransform="translate(1242 1614.46) rotate(-180)" gradientUnits="userSpaceOnUse"><stop offset="0" stop-color="#8caef6"/><stop offset="1" stop-color="#5b82d3"/></linearGradient><linearGradient id="linear-gradient-22" x1="448.51" y1="794.96" x2="563.8" y2="794.96" gradientUnits="userSpaceOnUse"><stop offset="0.04" stop-color="#6b24d6"/><stop offset="0.3" stop-color="#6633cb"/><stop offset="0.81" stop-color="#5a5cad"/><stop offset="0.98" stop-color="#556ba2"/></linearGradient><linearGradient id="linear-gradient-23" x1="438.74" y1="847.08" x2="514.13" y2="847.08" xlink:href="#linear-gradient-22"/><linearGradient id="linear-gradient-24" x1="321.16" y1="778.9" x2="418.25" y2="778.9" xlink:href="#linear-gradient-22"/><linearGradient id="linear-gradient-25" x1="381.18" y1="816.02" x2="453.85" y2="816.02" xlink:href="#linear-gradient-22"/><linearGradient id="linear-gradient-26" x1="403.05" y1="883.22" x2="517.82" y2="883.22" xlink:href="#linear-gradient-22"/><linearGradient id="linear-gradient-27" x1="410.05" y1="883.22" x2="474.56" y2="883.22" xlink:href="#linear-gradient-22"/><linearGradient id="linear-gradient-28" x1="411.46" y1="912.98" x2="507.03" y2="912.98" xlink:href="#linear-gradient-22"/><linearGradient id="linear-gradient-29" x1="401.84" y1="854.06" x2="519.8" y2="854.06" xlink:href="#linear-gradient-22"/><linearGradient id="linear-gradient-30" x1="831.52" y1="622.9" x2="1010.7" y2="443.72" gradientUnits="userSpaceOnUse"><stop offset="0.04" stop-color="#476fc1"/><stop offset="0.52" stop-color="#5679c5"/><stop offset="0.98" stop-color="#6985c9"/></linearGradient><linearGradient id="linear-gradient-31" x1="671.61" y1="533.31" x2="889.76" y2="533.31" gradientUnits="userSpaceOnUse"><stop offset="0" stop-color="#6681c3"/><stop offset="1" stop-color="#3a68cc"/></linearGradient><linearGradient id="linear-gradient-32" x1="196.74" y1="758.41" x2="247.54" y2="758.41" xlink:href="#linear-gradient"/><linearGradient id="linear-gradient-33" x1="212.63" y1="680.17" x2="266.01" y2="680.17" xlink:href="#linear-gradient-22"/><linearGradient id="linear-gradient-34" x1="166.98" y1="671.03" x2="210.68" y2="671.03" xlink:href="#linear-gradient-22"/><linearGradient id="linear-gradient-35" x1="167.55" y1="774.59" x2="226.98" y2="774.59" xlink:href="#linear-gradient"/><linearGradient id="linear-gradient-36" x1="170.92" y1="731.57" x2="246.31" y2="731.57" xlink:href="#linear-gradient"/><linearGradient id="linear-gradient-37" x1="185.89" y1="707.56" x2="198.26" y2="707.56" xlink:href="#linear-gradient"/><linearGradient id="linear-gradient-38" x1="119.81" y1="826.8" x2="149.7" y2="826.8" xlink:href="#linear-gradient"/><linearGradient id="linear-gradient-39" x1="135.83" y1="779.49" x2="157.44" y2="779.49" xlink:href="#linear-gradient"/><linearGradient id="linear-gradient-40" x1="159.55" y1="788.64" x2="195.19" y2="788.64" xlink:href="#linear-gradient"/><linearGradient id="linear-gradient-41" x1="133.8" y1="841.67" x2="155" y2="841.67" xlink:href="#linear-gradient-22"/><linearGradient id="linear-gradient-42" x1="145.2" y1="814.93" x2="155" y2="814.93" xlink:href="#linear-gradient"/><linearGradient id="linear-gradient-43" x1="154.52" y1="807.91" x2="181.6" y2="807.91" xlink:href="#linear-gradient"/><linearGradient id="linear-gradient-44" x1="20.59" y1="643.76" x2="60.29" y2="643.76" xlink:href="#linear-gradient-30"/><linearGradient id="linear-gradient-45" x1="16.33" y1="624.42" x2="63.73" y2="624.42" xlink:href="#linear-gradient-22"/><linearGradient id="linear-gradient-46" x1="17.12" y1="656.09" x2="63.73" y2="656.09" xlink:href="#linear-gradient"/><linearGradient id="linear-gradient-47" x1="18.82" y1="662.28" x2="61.51" y2="662.28" xlink:href="#linear-gradient-22"/><linearGradient id="linear-gradient-48" x1="329.2" y1="681.59" x2="387.51" y2="623.28" xlink:href="#linear-gradient-30"/><linearGradient id="linear-gradient-49" x1="112.62" y1="652.43" x2="326.55" y2="652.43" xlink:href="#linear-gradient-31"/><linearGradient id="linear-gradient-50" x1="-6682.26" y1="2745.39" x2="-6815.61" y2="2876.58" gradientTransform="matrix(-1, 0.01, -0.01, -1, -6122.65, 3429.34)" xlink:href="#linear-gradient-30"/></defs><title>fooldalbanner</title><path class="cls-1" d="M5947.9,1524.67" transform="translate(-113.8 -241.98)"/><path class="cls-2" d="M995.21,884.54c21.18-10.88,59.67-31.22,64.94-62.15,5.19-30.5-27.24-40-30.7-74.08-4.66-45.93,51.37-57.23,66.12-110.69,14.91-54-25.85-102-39-117.49-41.11-48.45-82.29-47.61-168.85-98.77-111.54-65.93-11-110.68-93.26-148.64S504.92,230.18,414.29,269c-55.84,23.89-32.66,44.29-133.42,135.38-73.26,66.23-107,74.91-125.16,121.76C151,538.19,128,597.92,169.88,643.58c36.93,40.21,89.71,31.9,108.63,67.27,19.75,36.92-29.42,61.57-20.07,103.87,10.37,46.95,83.83,74.93,134.6,93.66C628.29,995.16,891.78,937.66,995.21,884.54Z" transform="translate(-113.8 -241.98)"/><path class="cls-1" d="M503.36,414.89c-3.24,1.52-6.15,3.46-5.5,5l0,.05c.76,1.49,4.11.5,7.36-1Z" transform="translate(-113.8 -241.98)"/><path class="cls-3" d="M517.14,388.32c-3.39,1.58-12.51,19.89-14.82,27.06a3.68,3.68,0,0,0,1.83,4c6.89,2.78,26.93,7.55,30.33,6,2.3-1.08,9.42-7.44,17.14-13.33,10-7.74,151.28-78.23,152.43-79.83s-.31-5.85-1.36-8.09-3.41-6.15-5.37-6.3S550.74,381,538.36,383.7C528.89,385.85,519.45,387.24,517.14,388.32Z" transform="translate(-113.8 -241.98)"/><path class="cls-4" d="M517.12,388.32a2.6,2.6,0,0,0-.92.75,97.25,97.25,0,0,0,7,21.33,64.62,64.62,0,0,0,9.67,15.23,3.37,3.37,0,0,0,1.61-.25,10.28,10.28,0,0,0,1.44-.86c-3.82-4.08-12.59-15.33-17-36.77A8.73,8.73,0,0,0,517.12,388.32Z" transform="translate(-113.8 -241.98)"/><rect class="cls-1" x="560.74" y="362.74" width="8.42" height="51.58" rx="0.73" transform="translate(338.71 822.92) rotate(-115.08)"/><rect class="cls-4" x="556.03" y="375.18" width="4.92" height="32.75" rx="0.43" transform="translate(326.69 821.36) rotate(-115.07)"/><rect class="cls-1" x="553.37" y="391.16" width="1.44" height="4.91" transform="translate(-228.42 30.07) rotate(-25.09)"/><path class="cls-5" d="M613.35,354.61c-4.09-.48-9.83-3.06-12.85-2.5a3.41,3.41,0,0,0-3,2.78s-2.35-2.23-5-1.31c-1.37.48-1.79,2.89-1.79,2.89a4.4,4.4,0,0,0-4.28-.75,3.76,3.76,0,0,0-2,3.07s-2.73-.82-4.35.5c-3.29,2.69,1.76,17.76,8.6,18.27,3.19.24,1.74-3.38,1.74-3.38s3.46,4.71,6.88,3.77,1.22-5.53,1.22-5.53,3.39,4.54,6.84,3.24.53-5.59.53-5.59,3.6,2.61,6,1.06c4-2.56-3.67-7.25-3.92-10.82l5.35-3.63Z" transform="translate(-113.8 -241.98)"/><path class="cls-6" d="M607.16,353.14c3.92.14,6.92-5.16,10.7-5.52,5.12-.49,2.07,5.87-4.52,9.06l-5.58,1.66Z" transform="translate(-113.8 -241.98)"/><path class="cls-7" d="M584.37,359.15s-.1,0-.09,0a25.8,25.8,0,0,0,6.21,15.23c.12.13.42,0,.31-.17A52.62,52.62,0,0,1,584.37,359.15Z" transform="translate(-113.8 -241.98)"/><path class="cls-7" d="M590.66,356.41c0-.06-.12,0-.12,0a24.38,24.38,0,0,0,7.91,16.2c.17.15.48.12.3-.06C595.73,369.51,591.83,361.4,590.66,356.41Z" transform="translate(-113.8 -241.98)"/><path class="cls-1" d="M606.37,370.28c-4.51-4.27-7.07-9.46-8.85-15.16,0-.08-.13,0-.13,0,0,3,1.59,6.54,3.05,9.18a15.92,15.92,0,0,0,5.77,6.1C606.31,370.49,606.47,370.37,606.37,370.28Z" transform="translate(-113.8 -241.98)"/><path class="cls-8" d="M1176.52,657.84a8.91,8.91,0,0,0-.89,1.52c-.6,1.13-1.37,2.62-2.33,4.46s-2.21,4.33-3.72,7-3.11,5.85-5.11,9.21c-3.84,6.8-8.71,14.72-14.41,23.32s-12.4,17.76-19.84,27.06-15,17.72-22.16,25.2-13.86,13.88-19.67,19.09c-2.85,2.67-5.57,4.93-7.9,7s-4.38,3.76-6.07,5.14l-3.85,3.24a7.9,7.9,0,0,0-1.29,1.2,10.65,10.65,0,0,0,1.45-1l4-3c1.74-1.33,3.85-3,6.22-5s5.14-4.21,8-6.85c5.91-5.13,12.68-11.55,19.92-18.94s14.8-15.93,22.31-25.22,14.09-18.6,19.83-27.21,10.46-16.66,14.21-23.53c2-3.4,3.51-6.57,5-9.33s2.61-5.16,3.53-7.15l2.11-4.57A9.13,9.13,0,0,0,1176.52,657.84Z" transform="translate(-113.8 -241.98)"/><path class="cls-9" d="M1147.56,705.39a29.23,29.23,0,0,0,2.1-19.6c-.55-2.23-1.61-4.65-3.78-5.39-2.89-1-5.76,1.63-7.23,4.3a21.56,21.56,0,0,0-2.16,14.9c1.11,5,3,8.74,7.18,11.77" transform="translate(-113.8 -241.98)"/><path class="cls-10" d="M1125.12,736.16c3.93-6.91,7.22-19,6-26.85a9.28,9.28,0,0,0-1.13-3.57,3.82,3.82,0,0,0-3-1.93c-1.8,0-3.18,1.56-4.14,3.09a31,31,0,0,0,.19,32.58" transform="translate(-113.8 -241.98)"/><path class="cls-11" d="M1101.6,761.79a45,45,0,0,0,2.46-23.42c-.3-1.84-.83-3.83-2.37-4.88-2.34-1.59-5.62,0-7.41,2.13-3.7,4.49-3.8,10.91-3.07,16.68.8,6.21,4.79,14.47,4.79,14.47" transform="translate(-113.8 -241.98)"/><path class="cls-12" d="M1084.57,778.08c1.54-6.16,2.29-12.64,1-18.87a9.08,9.08,0,0,0-1.49-3.82,3.83,3.83,0,0,0-3.6-1.58c-2.18.44-3.07,3-3.35,5.25-1,7.61-.07,15,3.54,21.78" transform="translate(-113.8 -241.98)"/><path class="cls-13" d="M1095.18,770.75a139.62,139.62,0,0,1,25.45-.47c1.32.1,2.87.36,3.48,1.53a2.67,2.67,0,0,1-.51,2.86,6.76,6.76,0,0,1-2.57,1.65c-9.39,4-21.11,2.82-29.92-2.31" transform="translate(-113.8 -241.98)"/><path class="cls-14" d="M1116.25,748.48l22-2.37a17.09,17.09,0,0,1,6.26.11,5.75,5.75,0,0,1,4.31,4.14,5.67,5.67,0,0,1-2.58,5.37,14.89,14.89,0,0,1-5.88,2.08,41.66,41.66,0,0,1-14.88.59c-4.92-.87-8.88-2.17-11.89-6.15" transform="translate(-113.8 -241.98)"/><path class="cls-15" d="M1139,722.5a48.8,48.8,0,0,1,24.89-5.22,8.19,8.19,0,0,1,4.12,1c2.39,1.58,2.68,5.16,1.43,7.73a11.61,11.61,0,0,1-7.42,5.72,24.63,24.63,0,0,1-9.57.35,56.42,56.42,0,0,1-17-4.92" transform="translate(-113.8 -241.98)"/><path class="cls-16" d="M1155.75,696.86c7.9-6.11,17.35-8.38,27.22-9.91,2.09-.32,4.59-.37,5.86,1.31a4.07,4.07,0,0,1,.32,3.85,9.64,9.64,0,0,1-2.37,3.21,30.61,30.61,0,0,1-33.31,5.58" transform="translate(-113.8 -241.98)"/><path class="cls-17" d="M1163.09,683.14a81,81,0,0,0,11.09-10.57,27.35,27.35,0,0,0,6.37-13.73,11.86,11.86,0,0,0-.79-6.46,6.44,6.44,0,0,0-5-3.78,6.8,6.8,0,0,0-5.37,2.42,17.39,17.39,0,0,0-3,5.29c-3.63,9-6.15,20.48-3.28,26.83" transform="translate(-113.8 -241.98)"/><path class="cls-18" d="M1158.28,832c6.88,3.85,11.83,10.47,15,17.67,1.73,3.87,3.09,8.19,2,12.29s-5.36,7.6-9.41,6.37c-2.41-.73-4.11-2.86-5.48-5-3.3-5.12-6.13-11.34-11.87-13.38-3.28-1.16-7.19-.78-9.88-3s-3.06-6.27-1.56-9.32,4.51-5.12,7.71-6.27A15.11,15.11,0,0,1,1158.28,832Z" transform="translate(-113.8 -241.98)"/><path class="cls-19" d="M1175.26,801.52c-2.73,7,3.55,12.77,8.8,13.93s10.66-.47,15.78-2.08c11.71-3.67,23.92-7.65,32.54-16.38a20,20,0,0,0,5.65-9.28c.83-3.58,0-7.69-2.73-10.13-3.24-2.89-8.11-2.8-12.41-2.21a86.2,86.2,0,0,0-35.57,13.32c-5,3.27-9.81,7.31-12.06,12.83" transform="translate(-113.8 -241.98)"/><path class="cls-20" d="M1161.45,796.55c7.17.83,14.37-2.87,19-8.42s7-12.69,8-19.83a65.24,65.24,0,0,0-1.3-25.2,23.06,23.06,0,0,0-4-9.07c-2.09-2.59-5.35-4.44-8.66-4.1-4.9.5-8.1,5.25-10.39,9.61a164.7,164.7,0,0,0-10.25,23.9c-2.24,6.61-4.07,13.7-2.55,20.51s5.5,12.3,11.18,12.69" transform="translate(-113.8 -241.98)"/><path class="cls-21" d="M1098.13,852.21a13.67,13.67,0,0,0,2.53-1.21l6.73-3.57a111,111,0,0,1,10.23-4.72,85.67,85.67,0,0,1,13.19-3.87,48.11,48.11,0,0,1,13.61-1,25.24,25.24,0,0,1,10.56,3.18,23.73,23.73,0,0,1,5.8,4.73,13.35,13.35,0,0,0,1.86,2.09,12.66,12.66,0,0,0-1.52-2.37,21.73,21.73,0,0,0-5.73-5.15,25,25,0,0,0-10.86-3.53,47.33,47.33,0,0,0-14,.89,80.42,80.42,0,0,0-13.35,4,92.55,92.55,0,0,0-10.22,5c-2.82,1.57-5,2.94-6.57,3.9A13.56,13.56,0,0,0,1098.13,852.21Z" transform="translate(-113.8 -241.98)"/><path class="cls-22" d="M1103.28,849.43a5.85,5.85,0,0,0,1.12-.65l3.07-2c2.67-1.77,6.53-4.33,11.4-7.34,9.7-6.08,20.51-12,36-20,14.61-7.51,31.79-16,43.5-20.66,2.65-1.1,5.06-2,7.2-2.82s4-1.52,5.46-2l3.47-1.26a6.38,6.38,0,0,0,1.19-.51,5,5,0,0,0-1.26.29l-3.54,1.06c-1.54.45-3.39,1.09-5.54,1.85s-4.6,1.61-7.27,2.66a419.6,419.6,0,0,0-40.83,18.48c-15.56,8-29.25,16-38.86,22.3-4.82,3.11-8.62,5.78-11.21,7.67l-3,2.22A5.91,5.91,0,0,0,1103.28,849.43Z" transform="translate(-113.8 -241.98)"/><path class="cls-23" d="M1128.81,832.63a25.49,25.49,0,0,0,3.2-2.15c2-1.49,4.78-3.74,8-6.75a138.53,138.53,0,0,0,10.82-11.22,126.43,126.43,0,0,0,11.5-15.24c7.53-11.31,12.1-22.94,13.95-31.64a47.83,47.83,0,0,0,1-5.92c.1-.87.25-1.68.29-2.44s0-1.43,0-2.07a23.86,23.86,0,0,0-.06-3.85c-.31,0,0,5.52-2,14.1s-6.66,20-14.12,31.19a142.64,142.64,0,0,1-11.35,15.18,154,154,0,0,1-10.56,11.32c-3.18,3.06-5.89,5.4-7.78,7A25.39,25.39,0,0,0,1128.81,832.63Z" transform="translate(-113.8 -241.98)"/><path class="cls-24" d="M1087,848.49c-4,1.83-7.69-1.72-8.53-4.79s0-6.34.75-9.43c1.82-7.06,3.8-14.43,8.72-19.81a12,12,0,0,1,5.33-3.64,6.26,6.26,0,0,1,6.1,1.31c1.81,1.84,1.9,4.73,1.69,7.3a51.34,51.34,0,0,1-6.81,21.51c-1.79,3.06-4,6-7.25,7.55" transform="translate(-113.8 -241.98)"/><path class="cls-25" d="M1090.35,856.53c-.71-4.23,1.27-8.62,4.42-11.53a23.43,23.43,0,0,1,11.52-5.34,38.58,38.58,0,0,1,15,0,13.61,13.61,0,0,1,5.5,2.1,6.08,6.08,0,0,1,2.7,5c-.15,2.92-2.87,5-5.38,6.46a98.46,98.46,0,0,1-13.87,6.81c-3.85,1.53-8,2.84-12.09,2.15s-7.47-2.89-7.87-6.25" transform="translate(-113.8 -241.98)"/><path class="cls-26" d="M1060.76,892.66a3.12,3.12,0,0,1,.35-.68c.3-.5.67-1.12,1.12-1.89,1-1.63,2.37-4,4-7,3.31-5.94,6.52-12.53,10.79-22,4-8.9,8.51-19.35,10.93-26.45.57-1.6,1-3.06,1.45-4.35s.78-2.39,1-3.3l.64-2.1a3,3,0,0,1,.27-.72,3.75,3.75,0,0,1-.14.76c-.13.56-.31,1.26-.52,2.13s-.54,2-.92,3.34-.82,2.78-1.36,4.4a248,248,0,0,1-9.72,24.79c-4.27,9.47-8.62,17.84-12,23.73-1.7,3-3.16,5.3-4.2,6.89l-1.23,1.82A3.57,3.57,0,0,1,1060.76,892.66Z" transform="translate(-113.8 -241.98)"/><path class="cls-27" d="M1072.41,876.37a14.11,14.11,0,0,1,1.17-2c.82-1.22,2.08-2.95,3.76-5a82.28,82.28,0,0,1,6.33-6.76,74,74,0,0,1,8.69-7.29,56.87,56.87,0,0,1,18.34-9.25,27.4,27.4,0,0,1,3.48-.76c.52-.09,1-.2,1.44-.25l1.23-.09a15.18,15.18,0,0,1,2.29-.08c0,.19-3.28.18-8.31,1.65a60,60,0,0,0-18.07,9.33,84.27,84.27,0,0,0-8.66,7.19c-2.54,2.36-4.66,4.66-6.39,6.62s-3,3.65-3.91,4.83A16.68,16.68,0,0,1,1072.41,876.37Z" transform="translate(-113.8 -241.98)"/><ellipse class="cls-28" cx="520" cy="683.41" rx="520" ry="35.5"/><rect class="cls-29" x="541.35" y="695.9" width="159.29" height="222.65" transform="translate(1128.2 1372.48) rotate(180)"/><path class="cls-30" d="M560.2,754.07c7.62,16.74,1.4,26.74-2.8,28.56s-32.36,6.06-31,9.58,21.27,6.26,31.3,1.24c0,0-6.94,30.74-22.51,31.79s-21.86-7.66-31.47-6.82-16.12,4.51-11,6.29,20.94-2.58,29.67,2.69,15.59,8.24,1.84,13.5-39.59,7.62-46.5-2.49l-.85-1.27a5.82,5.82,0,0,0,.85,1.27,12.78,12.78,0,0,0-2.71,4.2c-1.29-.9,2.93-4.51,1.68-5.5a8.47,8.47,0,0,0-5.86-8.81S441,817.47,450.32,794.57c0,0,8.13-14.44,18.53-19.53,0,0-.75,32,5.21,31.75s-1.73-35.69-1.73-35.69,26.55-18.59,38-19.35c0,0-12.91,33.22-7.2,31.53s20.77-35.62,20.77-35.62S552.59,737.33,560.2,754.07Z" transform="translate(-113.8 -241.98)"/><path class="cls-31" d="M438.75,906.41a6.61,6.61,0,0,0,.7-1.26l1.79-3.7c1.55-3.21,3.81-7.85,6.77-13.49,5.87-11.32,12.86-23.17,23.23-39.63,9.77-15.46,21.45-33.31,30-44.43,1.92-2.55,3.7-4.81,5.3-6.77s2.94-3.69,4.1-5l2.61-3.17a6.34,6.34,0,0,0,.85-1.17,6.47,6.47,0,0,0-1,1l-2.8,3c-1.22,1.31-2.63,3-4.27,4.91s-3.49,4.16-5.46,6.67a466.26,466.26,0,0,0-28.7,40.83c-10.4,16.49-19,31.93-24.65,43.38-2.87,5.71-5,10.42-6.42,13.7-.64,1.54-1.16,2.8-1.58,3.8A6,6,0,0,0,438.75,906.41Z" transform="translate(-113.8 -241.98)"/><path class="cls-32" d="M321.21,767.5c1.24,14.35,9.34,18.78,12.9,18.41s24.41-8.32,24.86-5.4S346.86,793,338.08,793.39c0,0,16.57,18.3,27.59,13s12-13.63,18.85-16.76,12.74-3.12,9.9.08S379.14,796,375.21,803s-7.47,11.63,3.94,9.92,29.94-10,30.77-19.59c0-.41.06-.8.09-1.19a4.78,4.78,0,0,1-.09,1.19,10.26,10.26,0,0,1,3.47,1.83c.53-1.11-3.74-1.95-3.27-3.1a6.63,6.63,0,0,1,.61-8.27s16.22-18.89,1-30.91c0,0-11.1-6.73-20.16-6.2,0,0,12.81,21.53,8.66,23.67s-12.54-25-12.54-25-25.27-2.47-33.4,1.43c0,0,21.59,17.7,17,18.75s-27.88-16.32-27.88-16.32S320,753.15,321.21,767.5Z" transform="translate(-113.8 -241.98)"/><path class="cls-33" d="M453.84,854.31a27.92,27.92,0,0,0-1.35-4.07c-1-2.58-2.59-6.25-4.84-10.66a151.54,151.54,0,0,0-8.82-15,138.23,138.23,0,0,0-12.92-16.88c-9.88-11.45-21-19.84-29.77-24.41a52.57,52.57,0,0,0-6.06-2.82c-.91-.37-1.74-.77-2.54-1l-2.21-.66a28.8,28.8,0,0,0-4.15-1.09c-.11.33,5.92,1.67,14.53,6.41s19.44,13.1,29.24,24.45a157.08,157.08,0,0,1,12.9,16.7,169.31,169.31,0,0,1,9,14.72c2.33,4.32,4,7.92,5.18,10.42A25.47,25.47,0,0,0,453.84,854.31Z" transform="translate(-113.8 -241.98)"/><path class="cls-34" d="M460.44,911.92a57.39,57.39,0,0,0,57.38-57.39H403.05A57.4,57.4,0,0,0,460.44,911.92Z" transform="translate(-113.8 -241.98)"/><path class="cls-35" d="M474.56,911.48a57.42,57.42,0,0,1-64.51-57H424.3A57.4,57.4,0,0,0,474.56,911.48Z" transform="translate(-113.8 -241.98)"/><path class="cls-36" d="M501.21,910.07H417.28a5.83,5.83,0,0,0-5.82,5.82H507A5.83,5.83,0,0,0,501.21,910.07Z" transform="translate(-113.8 -241.98)"/><path class="cls-37" d="M518.92,853.18H402.72a.88.88,0,1,0,0,1.76h116.2a.88.88,0,0,0,0-1.76Z" transform="translate(-113.8 -241.98)"/><polygon class="cls-38" points="392.51 627.74 392.51 655.6 326.55 627.74 392.51 627.74"/><rect class="cls-39" x="885.2" y="390.04" width="71.83" height="286.53"/><rect class="cls-40" x="671.61" y="390.04" width="218.15" height="286.53"/><path class="cls-41" d="M213.82,743.07c8.77-.21,17.26,3.35,24.42,8.43,3.85,2.73,7.6,6.1,8.92,10.63s-.84,10.32-5.42,11.43c-2.73.66-5.56-.42-8.07-1.67-6.06-3-12.31-7.41-19-6.12-3.8.74-7.35,3.32-11.17,2.73s-6.47-4.28-6.77-8,1.43-7.47,3.85-10.38A16.8,16.8,0,0,1,213.82,743.07Z" transform="translate(-113.8 -241.98)"/><path class="cls-42" d="M212.85,704.21c1.31,8.22,10.64,10.25,16.32,8.4s10-6.49,14-10.93c9.15-10.15,18.6-20.87,21.93-34.13,1-4,1.4-8.2.17-12.1s-4.33-7.38-8.34-8.17c-4.75-.93-9.37,1.91-13.16,4.91a96,96,0,0,0-26.58,32.9c-2.93,6-5.27,12.56-4.31,19.12" transform="translate(-113.8 -241.98)"/><path class="cls-43" d="M196.79,707.27c7.35-3.26,12.16-10.89,13.46-18.83s-.51-16.1-3.56-23.54a72.63,72.63,0,0,0-15.51-23.43c-2.61-2.64-5.5-5.13-9-6.43s-7.65-1.23-10.63,1c-4.42,3.25-4.8,9.62-4.53,15.1a183.93,183.93,0,0,0,3.69,28.72c1.59,7.6,3.84,15.44,9.16,21.12s12.23,8.68,17.9,5.84" transform="translate(-113.8 -241.98)"/><path class="cls-44" d="M167.56,796.49a15.87,15.87,0,0,0,1.74-2.6l4.44-7.23a120.06,120.06,0,0,1,7.14-10.31,94,94,0,0,1,10.45-11.18,53.82,53.82,0,0,1,12.51-8.63,27.93,27.93,0,0,1,11.93-2.93,26.27,26.27,0,0,1,8.24,1.26,15,15,0,0,0,3,1,14.25,14.25,0,0,0-2.8-1.42,24.12,24.12,0,0,0-8.4-1.69,27.74,27.74,0,0,0-12.42,2.76,52.15,52.15,0,0,0-12.87,8.75,89.46,89.46,0,0,0-10.54,11.41,104.76,104.76,0,0,0-7,10.56c-1.82,3.11-3.18,5.67-4.1,7.46A14.36,14.36,0,0,0,167.56,796.49Z" transform="translate(-113.8 -241.98)"/><path class="cls-45" d="M170.93,790.9a6.61,6.61,0,0,0,.7-1.26l1.79-3.7c1.55-3.21,3.81-7.84,6.77-13.49,5.87-11.32,12.86-23.17,23.23-39.62,9.77-15.47,21.45-33.31,30-44.44,1.92-2.54,3.7-4.81,5.3-6.77s2.94-3.69,4.1-5l2.61-3.17a6.34,6.34,0,0,0,.85-1.17,7.12,7.12,0,0,0-1,1l-2.8,3c-1.22,1.31-2.63,3-4.27,4.92s-3.49,4.15-5.46,6.67A464.38,464.38,0,0,0,204,728.66c-10.4,16.49-19,31.93-24.65,43.38-2.87,5.71-5,10.42-6.42,13.7-.64,1.54-1.16,2.8-1.58,3.8A6,6,0,0,0,170.93,790.9Z" transform="translate(-113.8 -241.98)"/><path class="cls-46" d="M185.9,760.34a26.3,26.3,0,0,0,1.85-3.87c1.07-2.55,2.47-6.3,3.91-11a149.75,149.75,0,0,0,4-16.89,137,137,0,0,0,2.41-21.12c.82-15.11-1.37-28.85-4.52-38.23a51.45,51.45,0,0,0-2.41-6.24c-.39-.9-.71-1.76-1.1-2.5l-1.14-2a27.59,27.59,0,0,0-2.23-3.66c-.31.16,3.11,5.31,6,14.68s4.92,22.92,4.1,37.9a158.43,158.43,0,0,1-2.29,21,171.7,171.7,0,0,1-3.72,16.84c-1.32,4.73-2.59,8.51-3.51,11.1A27.93,27.93,0,0,0,185.9,760.34Z" transform="translate(-113.8 -241.98)"/><path class="cls-47" d="M144.14,819.72c-4.64-2.39-10.09-2.7-15.24-1.85-2.76.45-5.65,1.28-7.53,3.36s-2.24,5.73-.08,7.51A7.18,7.18,0,0,0,126,830c4-.05,8.5-.76,11.72,1.67,1.83,1.38,3.06,3.68,5.25,4.36a5.19,5.19,0,0,0,5.71-2.54,8.88,8.88,0,0,0,.65-6.55A10,10,0,0,0,144.14,819.72Z" transform="translate(-113.8 -241.98)"/><path class="cls-48" d="M154.76,799.22c-2.83,4-8.34,2.71-10.9.24s-3.63-6.06-4.61-9.47c-2.25-7.81-4.51-16-2.84-23.94a13.28,13.28,0,0,1,3.05-6.5,7,7,0,0,1,6.59-2.2c2.77.74,4.5,3.46,5.75,6a57,57,0,0,1,5.64,24.48c0,4-.46,8.08-2.68,11.34" transform="translate(-113.8 -241.98)"/><path class="cls-49" d="M162.54,805c-3.07-3.66-3.66-9-2.29-13.56s4.46-8.47,8-11.64a43.15,43.15,0,0,1,14.38-8.49,15.32,15.32,0,0,1,6.46-1.1,6.79,6.79,0,0,1,5.43,3.29c1.51,2.88.06,6.38-1.51,9.24a109.25,109.25,0,0,1-9.44,14.38c-2.83,3.65-6.07,7.25-10.39,8.9s-8.79,1.45-11.08-1.54" transform="translate(-113.8 -241.98)"/><path class="cls-50" d="M155,860.29a9,9,0,0,1-.25-1.84c-.13-1.34-.3-3-.49-5s-.55-4.63-1.13-7.37a57,57,0,0,0-2.68-8.69,32,32,0,0,0-4.44-7.86,16.5,16.5,0,0,0-5.61-4.67,16,16,0,0,0-4.72-1.47,9.12,9.12,0,0,1-1.83-.26,8.07,8.07,0,0,1,1.86,0,14.35,14.35,0,0,1,4.93,1.28,16.55,16.55,0,0,1,5.92,4.71,31.24,31.24,0,0,1,4.6,8,53.62,53.62,0,0,1,2.65,8.83,62.5,62.5,0,0,1,1,7.46c.16,2.13.22,3.86.25,5A8.51,8.51,0,0,1,155,860.29Z" transform="translate(-113.8 -241.98)"/><path class="cls-51" d="M154.61,856.42a2.94,2.94,0,0,1-.05-.85v-2.44c0-2.12,0-5.19-.11-9-.18-7.57-.83-15.72-2.09-27.21-1.2-10.8-2.8-23.37-4.49-31.54q-.54-2.79-1.07-5c-.32-1.46-.6-2.73-.87-3.75l-.57-2.38a2.91,2.91,0,0,1-.15-.84,4.26,4.26,0,0,1,.29.8c.19.62.43,1.39.71,2.34s.64,2.27,1,3.73.78,3.13,1.18,5a276.5,276.5,0,0,1,4.71,29.27c1.26,11.51,1.83,22,1.88,29.58,0,3.79,0,6.87-.13,9-.06,1-.11,1.79-.15,2.44A4,4,0,0,1,154.61,856.42Z" transform="translate(-113.8 -241.98)"/><path class="cls-52" d="M154.56,836.21a14.68,14.68,0,0,1,0-2.55c.1-1.64.32-4,.78-6.91a92.2,92.2,0,0,1,2.25-10.06,82.88,82.88,0,0,1,4.21-11.91,63.22,63.22,0,0,1,12.36-19.25,30.14,30.14,0,0,1,2.91-2.7c.44-.38.84-.76,1.24-1.05l1.13-.78a18.57,18.57,0,0,1,2.14-1.38c.13.17-3,2-7,6.28a66.8,66.8,0,0,0-12.05,19.18,94.6,94.6,0,0,0-4.24,11.8c-1.1,3.7-1.83,7.1-2.39,10s-.83,5.22-1,6.84A16.88,16.88,0,0,1,154.56,836.21Z" transform="translate(-113.8 -241.98)"/><polygon class="cls-53" points="60.29 629.89 58.27 657.64 22.61 657.64 20.59 629.89 60.29 629.89"/><rect class="cls-54" x="16.33" y="618.95" width="47.4" height="10.94"/><polygon class="cls-55" points="63.73 654.58 63.73 657.61 61.51 657.61 17.12 657.61 17.12 654.58 63.73 654.58"/><polygon class="cls-56" points="59.32 664.94 61.51 659.61 18.82 659.61 21.36 664.94 59.32 664.94"/><path class="cls-57" d="M612.85,314.94s-31.62,46.12-4,67.71,65.35-.94,65.35-.94,7.91-16.75-5.89-41.17S612.85,314.94,612.85,314.94Z" transform="translate(-113.8 -241.98)"/><path class="cls-58" d="M613.32,339.55s-11.21,18.72-5.19,27.37,57-11.52,57-11.52,2.24-14.67-12.74-25.48S613.32,339.55,613.32,339.55Z" transform="translate(-113.8 -241.98)"/><path class="cls-5" d="M663.92,696.24c2.25.55,64.91-4.52,67.17-6.23.87-.64.66-9.81.1-20.88-.13-2.39-.27-4.86-.42-7.36-1-16.27-2.44-33.51-2.44-33.51l-41.92,3.27L690,665l.78,7.34s-23.12,12.67-25.4,14.8S661.68,695.68,663.92,696.24Z" transform="translate(-113.8 -241.98)"/><path class="cls-59" d="M663.92,696.24c2.25.55,64.91-4.52,67.17-6.23,1-.78.53-14.15-.32-28.24L690,665l.78,7.34s-23.12,12.67-25.4,14.8S661.68,695.68,663.92,696.24Z" transform="translate(-113.8 -241.98)"/><path class="cls-60" d="M663.92,696.24c2.25.55,65.35-5.42,67.62-7.13.86-.64.21-8.91-.35-20l-40.41,3.16s-23.12,12.67-25.4,14.8S661.68,695.68,663.92,696.24Z" transform="translate(-113.8 -241.98)"/><path class="cls-1" d="M664.62,693.66c10.48-1.11,52.86-4.59,63.31-4.89.08,0,.09.05,0,.06-10.36,1.33-52.77,4.47-63.3,5C664.41,693.84,664.4,693.68,664.62,693.66Z" transform="translate(-113.8 -241.98)"/><path class="cls-59" d="M669.22,684.51a8.47,8.47,0,0,1,6.49,2.06,8.24,8.24,0,0,1,2.81,5.42c0,.06-.12.07-.13,0a9.77,9.77,0,0,0-9.16-7.35A.07.07,0,0,1,669.22,684.51Z" transform="translate(-113.8 -241.98)"/><path class="cls-59" d="M686.79,673.66c4.2-.4,9.2.69,12.09,3.92.11.12-.07.28-.2.23a58.83,58.83,0,0,0-11.92-3.63A.26.26,0,0,1,686.79,673.66Z" transform="translate(-113.8 -241.98)"/><path class="cls-59" d="M683.65,675.19c4.2-.4,9.19.69,12.08,3.92.12.12-.06.28-.19.22a58.8,58.8,0,0,0-11.92-3.62A.26.26,0,0,1,683.65,675.19Z" transform="translate(-113.8 -241.98)"/><path class="cls-59" d="M680.51,676.72c4.2-.4,9.19.69,12.08,3.91.11.13-.07.29-.2.23a58.27,58.27,0,0,0-11.91-3.62A.26.26,0,0,1,680.51,676.72Z" transform="translate(-113.8 -241.98)"/><path class="cls-59" d="M677.36,678.25c4.2-.4,9.2.69,12.09,3.91.11.13-.07.28-.2.23a58.18,58.18,0,0,0-11.92-3.62A.26.26,0,0,1,677.36,678.25Z" transform="translate(-113.8 -241.98)"/><path class="cls-1" d="M728.44,676.7" transform="translate(-113.8 -241.98)"/><path class="cls-1" d="M714.15,675.9" transform="translate(-113.8 -241.98)"/><path class="cls-59" d="M731.65,689.77s1.53-3,.42-9.53c0,0-44.79,11-69.56,12.44,0,0-.43,4.12.49,5.32S717.06,692.24,731.65,689.77Z" transform="translate(-113.8 -241.98)"/><path class="cls-59" d="M669.29,684.78s6.9.86,7.25,6.88l1.68-.28S676.52,683.55,669.29,684.78Z" transform="translate(-113.8 -241.98)"/><path class="cls-5" d="M567.33,693.55c2.22.67,65-1.35,67.39-2.94.89-.6,1.13-9.77,1.11-20.85,0-2.4,0-4.87-.06-7.38-.2-16.3-.8-33.59-.8-33.59l-42,1.23,2,33.55.42,7.37s-23.71,11.53-26.1,13.55S565.11,692.89,567.33,693.55Z" transform="translate(-113.8 -241.98)"/><path class="cls-59" d="M567.33,693.55c2.22.67,65-1.35,67.39-2.94,1.08-.74,1.21-14.12,1-28.23l-40.87,1.19.42,7.37s-23.71,11.53-26.1,13.55S565.11,692.89,567.33,693.55Z" transform="translate(-113.8 -241.98)"/><path class="cls-60" d="M567.33,693.55c2.22.67,65.53-2.23,67.88-3.82.89-.6.64-8.89.62-20l-40.51,1.18s-23.71,11.53-26.1,13.55S565.11,692.89,567.33,693.55Z" transform="translate(-113.8 -241.98)"/><path class="cls-1" d="M568.15,691c10.52-.6,53-2,63.47-1.8.08,0,.09.06,0,.06-10.42.82-52.93,1.89-63.47,1.91C567.93,691.18,567.93,691,568.15,691Z" transform="translate(-113.8 -241.98)"/><path class="cls-59" d="M573.19,682.1a8.47,8.47,0,0,1,6.38,2.37,8.2,8.2,0,0,1,2.54,5.55c0,.06-.12.07-.13,0a9.78,9.78,0,0,0-8.78-7.79A.07.07,0,0,1,573.19,682.1Z" transform="translate(-113.8 -241.98)"/><path class="cls-59" d="M591.27,672.12c4.21-.2,9.15,1.13,11.88,4.5.1.13-.09.28-.21.22a58.18,58.18,0,0,0-11.73-4.2A.27.27,0,0,1,591.27,672.12Z" transform="translate(-113.8 -241.98)"/><path class="cls-59" d="M588.05,673.49c4.22-.19,9.15,1.14,11.88,4.5.11.13-.08.28-.21.22A58.49,58.49,0,0,0,588,674,.26.26,0,0,1,588.05,673.49Z" transform="translate(-113.8 -241.98)"/><path class="cls-59" d="M584.84,674.86c4.21-.19,9.15,1.14,11.88,4.5.1.13-.08.28-.21.22a57.71,57.71,0,0,0-11.73-4.19A.27.27,0,0,1,584.84,674.86Z" transform="translate(-113.8 -241.98)"/><path class="cls-59" d="M581.63,676.24c4.21-.2,9.15,1.13,11.88,4.5.1.13-.09.28-.21.22a58.18,58.18,0,0,0-11.73-4.2A.27.27,0,0,1,581.63,676.24Z" transform="translate(-113.8 -241.98)"/><path class="cls-1" d="M632.71,677.18" transform="translate(-113.8 -241.98)"/><path class="cls-1" d="M618.48,675.68" transform="translate(-113.8 -241.98)"/><path class="cls-59" d="M635.29,690.39s1.67-2.88.88-9.5c0,0-45.26,8.77-70.08,9.05,0,0,0,3.82.91,5.06S620.59,692.15,635.29,690.39Z" transform="translate(-113.8 -241.98)"/><path class="cls-59" d="M573.24,682.37s6.86,1.19,6.91,7.23l1.69-.2S580.52,681.5,573.24,682.37Z" transform="translate(-113.8 -241.98)"/><path class="cls-3" d="M656.88,415.43s-13.51,133.62-13.83,135.31c0,.22-.14,2.8-.27,7-.73,23-2.53,94.73-2.53,94.73H585.13s3.6-85,5.66-104.77C593.43,522.4,610,415.43,610,415.43Z" transform="translate(-113.8 -241.98)"/><path class="cls-3" d="M636.48,555.45Q639,512,644.14,468.8c1.94-16.23,4.27-32.41,6.58-48.6,0-.14.25-.13.22,0C646.68,449,643.66,478,641.05,507s-4.41,58-5.6,87c-.67,16.46-1.18,32.93-1.71,49.4a.31.31,0,0,1-.61,0C633.91,614.11,634.75,584.76,636.48,555.45Z" transform="translate(-113.8 -241.98)"/><path class="cls-3" d="M588.61,643.57c1.44-.19,3-.13,4.48-.18,1.65,0,3.31-.07,5-.13q4.8-.18,9.58-.25,9.66-.16,19.32.13l5.31.19c1.88.07,3.77.24,5.66.23.14,0,.14.17,0,.17-3.24,0-6.52.28-9.77.4s-6.38.17-9.57.22c-6.43.09-12.89,0-19.31-.21-1.77-.06-3.55-.09-5.32-.14-.94,0-1.88-.09-2.83-.12s-1.68,0-2.52-.09C588.46,643.78,588.47,643.59,588.61,643.57Z" transform="translate(-113.8 -241.98)"/><path class="cls-1" d="M656.88,415.43s-13.51,133.62-13.83,135.31c0,.22-.14,2.8-.27,7l-26-142.3Z" transform="translate(-113.8 -241.98)"/><path class="cls-3" d="M609.34,414.69s2.41,14.34,10.22,24.15c1.86,2.35,7.6,4.54,10.57,6.7,0,0,15.86,101.88,19.24,113.42,3.75,12.82,29.36,104.63,29.36,104.63l56.84-9.73s-24.88-87.58-31.63-105.81c-1.68-4.55-18-94.43-17.74-96.5,3.31-24.69-8.47-40-8.47-40Z" transform="translate(-113.8 -241.98)"/><path class="cls-3" d="M654.64,416.92a18.43,18.43,0,0,0,6.75,9.69,22.77,22.77,0,0,0,12.24,4.19c.75.06.81,1.19,0,1.19-9,.05-18.07-5.69-19.39-15C654.24,416.77,654.59,416.72,654.64,416.92Z" transform="translate(-113.8 -241.98)"/><path class="cls-3" d="M618.49,438.43a50,50,0,0,1,9.28,4.93c3.09,1.91,5.94,4.14,8.92,6.21.11.08,0,.26-.11.19-3.12-1.8-6.38-3.36-9.47-5.21a59.51,59.51,0,0,1-8.76-5.87C618.25,438.58,618.35,438.38,618.49,438.43Z" transform="translate(-113.8 -241.98)"/><path class="cls-3" d="M617.22,419.7c.48,2.05,1.08,4.09,1.62,6.13s.91,3.88,1.51,5.77a9.92,9.92,0,0,0,2.94,4.76c.79.67,1.65,1.26,2.49,1.87l1.41,1c-.07-.27-.13-.55-.19-.83l-.51-2.34q-.57-2.61-1.08-5.22c-.69-3.42-1.33-6.88-2.21-10.26,0-.13.18-.2.22-.06,1,3.34,2.11,6.64,3,10,.45,1.65,2.13,9.85,2.22,10.43s.16,1.2.21,1.81a7.16,7.16,0,0,1,.09,1.85c0,.15-.22.13-.28,0h0a7.13,7.13,0,0,1-.61-1.77c-.18-.58-.34-1.17-.47-1.77-.05-.21-.09-.43-.13-.65-.84-.46-1.62-1.08-2.41-1.59s-1.7-1.1-2.51-1.71a9.29,9.29,0,0,1-3.17-4.5,33.54,33.54,0,0,1-1.25-5.89c-.37-2.33-.67-4.68-1.1-7C617,419.62,617.19,419.55,617.22,419.7Z" transform="translate(-113.8 -241.98)"/><path class="cls-3" d="M680.2,653.42c1.38-.46,2.93-.7,4.36-1,1.62-.37,3.24-.69,4.86-1.06q4.67-1.08,9.36-2.05,9.45-2,19-3.49L723,645c1.86-.29,3.75-.47,5.6-.83.14,0,.17.14,0,.16-3.18.6-6.35,1.5-9.51,2.22s-6.24,1.37-9.37,2c-6.3,1.3-12.65,2.45-19,3.42-1.75.27-3.49.58-5.24.86-.94.15-1.87.27-2.81.41s-1.64.34-2.48.39A.11.11,0,0,1,680.2,653.42Z" transform="translate(-113.8 -241.98)"/><path class="cls-1" d="M611.51,387.54l-4.69,38.68s62.84-.56,78.41-2c0,0-14.42-71.77-31.62-89.58-8.61-8.91-18.44-8-24.56-1.48-1.55,1.65-19.91,27.14-21.68,36.75C605.83,378.38,611.51,387.54,611.51,387.54Z" transform="translate(-113.8 -241.98)"/><path class="cls-5" d="M643.16,356.53c-.53,11.41-7.55,55.49-20.84,62.66-16.1,8.69-39,13.73-50.25,13-6.27-.4-3.2-31.57,2.48-31.92,9-.55,24.83-5.52,28-6.55s17.18-27.05,25.38-40.75C635.28,340.65,643.46,349.81,643.16,356.53Z" transform="translate(-113.8 -241.98)"/><path class="cls-5" d="M579.21,431.53c-16.74,2.93-34.53-3.33-37.29-5-2.36-1.45-3.57-2.22-3.57-2.22-4.28-2.51-4.85-5.4-4.85-5.4s-5.81-1.46-5.51-5.11c.32-4.1,8.41-1.26,13.82-2.42,12.38-2.66,29.25-9.9,32.74-11Z" transform="translate(-113.8 -241.98)"/><path class="cls-7" d="M556.74,417.68a56.94,56.94,0,0,1-23.13,1.1.1.1,0,1,0,0,.19,43.1,43.1,0,0,0,23.24-1C557,417.94,556.93,417.64,556.74,417.68Z" transform="translate(-113.8 -241.98)"/><path class="cls-7" d="M559.43,424.92c-3.6.5-9.93,1.32-21-.77a0,0,0,0,0,0,.07,38.81,38.81,0,0,0,21.11,1.07C559.69,425.24,559.67,424.89,559.43,424.92Z" transform="translate(-113.8 -241.98)"/><path class="cls-5" d="M556.53,407.2c1.48-1,1-1.77-2.18-2s-15.8,1.45-16-3,17.68-6.6,22.88-5.79,13.34,3.94,13.34,3.94C571.16,401.44,563.17,404.92,556.53,407.2Z" transform="translate(-113.8 -241.98)"/><path class="cls-1" d="M581,397.77l1.58,36.4s32.48-6,42.61-15.42,16.29-39.49,18.13-56.35-6.86-26.79-19.84-3.52-19.88,33-21.12,33.84S581,397.77,581,397.77Z" transform="translate(-113.8 -241.98)"/><path class="cls-1" d="M636.51,395.66c.42-1.78,1.94-7.74,2.27-9.16.67-2.87,1.32-5.76,1.94-8.65,1.24-5.83,2.36-11.7,4-17.44,0-.07.12,0,.11,0-.35,3.8-.95,7.59-1.67,11.36l.29-.57a53.93,53.93,0,0,0,2.36-4.91c.05-.13.24,0,.19.09-.72,1.65-1.26,3.37-1.93,5-.32.81-.64,1.61-1,2.39-.15.29-.3.61-.47.93-.25,1.16-.5,2.32-.76,3.47-.68,2.93-1.4,5.85-2.26,8.74-.41,1.4-2.39,7.34-2.83,8.74C636.65,395.87,636.47,395.8,636.51,395.66Z" transform="translate(-113.8 -241.98)"/><path class="cls-1" d="M589.37,431.4a83.49,83.49,0,0,1-.66-8.38c-.16-2.74-.3-5.49-.43-8.23-.25-5.55-.63-11.12-.52-16.67a.1.1,0,0,1,.2,0c.8,5.54,1,11.18,1.32,16.77q.21,4.2.32,8.41a73.5,73.5,0,0,1,0,8.13C589.57,431.54,589.39,431.52,589.37,431.4Z" transform="translate(-113.8 -241.98)"/><polygon class="cls-1" points="523.7 286.48 519.81 410.12 526.89 410.71 530.19 294.98 523.7 286.48"/><path class="cls-1" d="M592.91,635.7s34,7.43,43.53-8.49v9.55S618.39,650.56,592.91,635.7Z" transform="translate(-113.8 -241.98)"/><path class="cls-1" d="M670.42,425.59s19.11,171.89,56.27,229.22l-7.2,2s-31.26-62.29-55.44-231.34" transform="translate(-113.8 -241.98)"/><path class="cls-61" d="M613.09,424.89s19.11-2.6,29.72-32.33c0,0,2.48,22.42-22.65,33.51Z" transform="translate(-113.8 -241.98)"/><path class="cls-61" d="M609.55,382.42s13.09-21.71,20.52-29.14c0,0-17,32.91-27.6,40.34A110.78,110.78,0,0,1,609.55,382.42Z" transform="translate(-113.8 -241.98)"/><path class="cls-57" d="M630.59,287.12s14.73-2.8,18.24,11.23S668.3,341.6,668.3,341.6l-17.37-15.19" transform="translate(-113.8 -241.98)"/><path class="cls-57" d="M632.69,287.83s-9.12-2.81-14,1.4-9.33,14.36-6.77,31.74" transform="translate(-113.8 -241.98)"/><path class="cls-57" d="M616.61,298.06s-3.56,22.74-14.79,36.07-6.39,26.4-6.39,26.4l.84-.86s-4.27-12.21,6.26-24.84S616,302.18,616,302.18" transform="translate(-113.8 -241.98)"/><path class="cls-5" d="M634.2,340.12c2.9-.37,7.95-6.79,9.49-11.73.11-.34-1-3.46-2.18-7.32-.7-2.35-1.42-5-1.91-7.42l-14.6,6.8a39.64,39.64,0,0,1,3.37,9.09,6.22,6.22,0,0,1,.09,1c0,.05,0,.11,0,.18C628.54,332.7,629.66,340.7,634.2,340.12Z" transform="translate(-113.8 -241.98)"/><path class="cls-7" d="M628.46,330.57a.81.81,0,0,1,0,.17,11.2,11.2,0,0,0,1.6-.23c8.85-2,8.87-13.37,8.71-16.47L625,320.45a39.64,39.64,0,0,1,3.37,9.09A6.24,6.24,0,0,1,628.46,330.57Z" transform="translate(-113.8 -241.98)"/><path class="cls-5" d="M640.89,297.18c1.84,5.5-.65,21.6-4.5,25.28-5.57,5.33-14.92,6.08-19.51-.67-4.44-6.55-.82-27.47,3.49-30.83C626.73,286,638.17,289.06,640.89,297.18Z" transform="translate(-113.8 -241.98)"/><path class="cls-1" d="M626.48,307.26s.07.07.06.12c-.24,1.07-.34,2.33.56,2.88,0,0,0,.07,0,.06C625.93,309.92,626.07,308.24,626.48,307.26Z" transform="translate(-113.8 -241.98)"/><path class="cls-1" d="M627.66,306.33c1.76.2,1.21,3.7-.41,3.51S626.18,306.16,627.66,306.33Z" transform="translate(-113.8 -241.98)"/><path class="cls-1" d="M620.42,306.13c0-.05-.1,0-.1.08-.14,1.09-.47,2.31-1.51,2.52,0,0,0,.06,0,.06C620,308.81,620.46,307.18,620.42,306.13Z" transform="translate(-113.8 -241.98)"/><path class="cls-1" d="M619.62,304.84c-1.72-.4-2.4,3.08-.8,3.45S621.07,305.18,619.62,304.84Z" transform="translate(-113.8 -241.98)"/><path class="cls-5" d="M637.82,310.33c-.11,0,3.25-5.32,5.95-3.93,2.38,1.23-.31,8.8-3.07,9.85a2.8,2.8,0,0,1-3.77-1.48Z" transform="translate(-113.8 -241.98)"/><path class="cls-7" d="M643,307.84s0,.05,0,.07c-1.93.8-2.93,2.6-3.63,4.47a1.54,1.54,0,0,1,2.31-.44c.05,0,0,.11,0,.1a1.75,1.75,0,0,0-1.9.62,8.12,8.12,0,0,0-.89,1.54c-.09.17-.41.08-.34-.12v0C638.41,311.57,640.3,308.1,643,307.84Z" transform="translate(-113.8 -241.98)"/><path class="cls-5" d="M617.83,319.83a1.48,1.48,0,0,1,1.49-1.59h3.1c2.24,0,6.4.62,6.5,1.08.24,1.17.24,5.66-8.75,3.41A3.3,3.3,0,0,1,617.83,319.83Z" transform="translate(-113.8 -241.98)"/><path class="cls-1" d="M621,318.33a6.54,6.54,0,0,0,5.92.42S623.64,322.42,621,318.33Z" transform="translate(-113.8 -241.98)"/><path class="cls-57" d="M640.87,306.93l-3.27,3.35s1.93-14.1-7.71-17.19a7,7,0,0,1-2.81-1.76h0a16.44,16.44,0,0,1-4.81,3.4,12.77,12.77,0,0,0-6.89,8.31c-2.24,8.82-5.74,17.23-1.23,31.13l-11.28,17.72-5.18,4.38s2-15.82,8.34-25.65c3.19-5,6.69-22.26,7.43-29.77a16.15,16.15,0,0,1,4.91-10.2,13.77,13.77,0,0,1,12.22-3.53s17.54,0,17.54,17.54,21.23,38,21.23,38-11.51-12-19.11-14.86c0,0-6.07.29-6.9-.9s-2.94-10.31-2.94-10.31a10.8,10.8,0,0,0,4.27-8.5s-.14-2.51-2.34-1.9A3.41,3.41,0,0,0,640.87,306.93Z" transform="translate(-113.8 -241.98)"/><path class="cls-62" d="M617.26,296.25" transform="translate(-113.8 -241.98)"/><path class="cls-58" d="M627.6,326.66a22,22,0,0,1,.94,5s-14.87,11-18,13.74c0,0,8.25-13.39,5-26.72C615.57,318.7,616.9,326.9,627.6,326.66Z" transform="translate(-113.8 -241.98)"/><path class="cls-63" d="M626.55,303.35a1.49,1.49,0,0,0-.68,2s4.1-1.37,6.16.69l1.37.68A7.74,7.74,0,0,0,630,304,12,12,0,0,0,626.55,303.35Z" transform="translate(-113.8 -241.98)"/><path class="cls-63" d="M621.79,302.68a1.2,1.2,0,0,1-.07,1.73s-2.69-2.18-4.8-1.22l-1.21.13a6.17,6.17,0,0,1,3.32-1.09A9.87,9.87,0,0,1,621.79,302.68Z" transform="translate(-113.8 -241.98)"/><path class="cls-63" d="M622.87,308.87s-2.1,2.81-2.1,4.92,3.5,1.4,3.5,1.4-3.5,0-2.8-2.11Z" transform="translate(-113.8 -241.98)"/><path class="cls-57" d="M627.08,291.33a42.12,42.12,0,0,0,7.72,7c4.21,2.81,2.85,11.5,2.85,11.5l1.16-14.78Z" transform="translate(-113.8 -241.98)"/><path class="cls-58" d="M644.68,308.87s-5,11.91,7.69,21.05a43.13,43.13,0,0,1-8.56-1.61l-3.59-11.91S643.81,315,644.68,308.87Z" transform="translate(-113.8 -241.98)"/><path class="cls-1" d="M628.42,306.64c.25.16.5.46.8.49s.62-.26.86-.55c0,0,0,0,0,0,0,.56-.22,1.12-.82,1.2s-.92-.43-1.06-1C628.23,306.72,628.32,306.57,628.42,306.64Z" transform="translate(-113.8 -241.98)"/><path class="cls-1" d="M618.9,305.16c-.25.17-.5.46-.8.49s-.63-.26-.86-.55c0,0,0,0,0,0,0,.55.22,1.12.82,1.2s.92-.43,1.06-1C619.09,305.25,619,305.09,618.9,305.16Z" transform="translate(-113.8 -241.98)"/><rect class="cls-64" x="324.2" y="628.28" width="68.31" height="48.31"/><rect class="cls-65" x="112.62" y="628.28" width="213.93" height="48.31"/><path class="cls-1" d="M468.8,481.89l-3.22,23.79S452,535.35,431.91,535.11c-4.61-.06-27.06-11.36-39.6-33.37-3.88-6.82-6.36-22.06,12.75-11.82s22.94,11.64,23.57,11.45S468.8,481.89,468.8,481.89Z" transform="translate(-113.8 -241.98)"/><path class="cls-66" d="M391.45,501.74c12.54,22,35,33.32,39.61,33.36,9.29.11,20.63-10.25,30.15-21.41l-20.41-12.8c-1,1.25-12.91.44-13,.49-.63.18-4.46-1.22-23.57-11.45S387.58,494.92,391.45,501.74Z" transform="translate(-113.8 -241.98)"/><path class="cls-61" d="M421.91,518.52s23.5,12.09,37-2.09c0,0-13,18.36-27.59,18.36,0,0-9.61-1.23-16.36-7.89S421.91,518.52,421.91,518.52Z" transform="translate(-113.8 -241.98)"/><path class="cls-67" d="M450,515.34,507.36,531a5.81,5.81,0,0,1,3-.6l-.1,1.38-37.08,11.61-63.29-22.71Z" transform="translate(-113.8 -241.98)"/><path class="cls-67" d="M410,519.33l-.1,1.38s4,.15,4.47-.12S410,519.33,410,519.33Z" transform="translate(-113.8 -241.98)"/><path class="cls-68" d="M450.28,514.44l60,16a.49.49,0,0,0,.53-.28l17.92-39.1a.32.32,0,0,0-.17-.48l-60-16a.5.5,0,0,0-.53.29L450.11,514A.32.32,0,0,0,450.28,514.44Z" transform="translate(-113.8 -241.98)"/><polygon class="cls-69" points="339.15 270.78 395.81 285.87 412.13 250.27 355.47 235.18 339.15 270.78"/><path class="cls-70" d="M509.61,527.85l13.28-29c-6.22-.29-12.46-.39-18.66-.41-15.24-.07-30.61.26-45.71,2.14L453,512.76Z" transform="translate(-113.8 -241.98)"/><polyline class="cls-71" points="400.21 264.56 399.6 265.87 398.2 265.49"/><line class="cls-72" x1="394.81" y1="264.59" x2="389.74" y2="263.23"/><polyline class="cls-71" points="388.05 262.78 386.65 262.41 387.26 261.09"/><line class="cls-73" x1="388.76" y1="257.87" x2="391.02" y2="253.02"/><polyline class="cls-71" points="391.77 251.41 392.38 250.1 393.78 250.47"/><line class="cls-74" x1="397.16" y1="251.38" x2="402.24" y2="252.73"/><polyline class="cls-71" points="403.93 253.19 405.33 253.56 404.72 254.87"/><line class="cls-75" x1="403.22" y1="258.1" x2="400.96" y2="262.94"/><polyline class="cls-71" points="359.65 270.54 359.04 271.85 357.64 271.48"/><line class="cls-76" x1="354.26" y1="270.57" x2="349.18" y2="269.22"/><polyline class="cls-71" points="347.49 268.76 346.09 268.39 346.7 267.08"/><line class="cls-77" x1="348.21" y1="263.85" x2="350.46" y2="259.01"/><polyline class="cls-71" points="351.21 257.39 351.83 256.08 353.23 256.45"/><line class="cls-74" x1="356.61" y1="257.36" x2="361.68" y2="258.72"/><polyline class="cls-71" points="363.38 259.17 364.77 259.54 364.16 260.85"/><line class="cls-77" x1="362.66" y1="264.08" x2="360.4" y2="268.92"/><polygon class="cls-68" points="392.68 281.08 379.79 277.54 385.6 265.27 398.5 268.81 392.68 281.08"/><polygon class="cls-78" points="392.65 279.78 381.02 276.58 381.16 276.28 392.8 279.47 392.65 279.78"/><polygon class="cls-59" points="389.81 278.85 381.17 276.48 381.21 276.39 389.85 278.76 389.81 278.85"/><path class="cls-79" d="M506.16,515.59a3.85,3.85,0,0,1-4.33,2,2.53,2.53,0,0,1-1.64-3.66,3.87,3.87,0,0,1,4.34-2A2.52,2.52,0,0,1,506.16,515.59Z" transform="translate(-113.8 -241.98)"/><polygon class="cls-59" points="388.49 272.51 389.14 271.14 390.06 272.17 390.99 273.2 389.41 273.54 387.84 273.88 388.49 272.51"/><polygon class="cls-80" points="375.93 276.68 362.77 273.07 368.7 260.56 381.86 264.17 375.93 276.68"/><path class="cls-59" d="M481.44,511.19l5,1.36a.75.75,0,0,0,.85-.4l1-2.09a.5.5,0,0,0-.32-.72L483,508a.76.76,0,0,0-.85.4l-1,2.09A.5.5,0,0,0,481.44,511.19Z" transform="translate(-113.8 -241.98)"/><polygon class="cls-59" points="368.79 269.11 368.03 271.09 367.51 268.78 368.79 269.11"/><path class="cls-70" d="M490,511.65l-5-1.36a.5.5,0,0,1-.32-.72l1-2.09a.77.77,0,0,1,.85-.4l5,1.36a.5.5,0,0,1,.32.72l-1,2.09A.76.76,0,0,1,490,511.65Z" transform="translate(-113.8 -241.98)"/><polygon class="cls-70" points="375.41 269.04 374.34 270.93 376.67 269.41 375.41 269.04"/><polyline class="cls-71" points="383.37 259.93 382.75 261.24 381.36 260.87"/><line class="cls-74" x1="377.97" y1="259.96" x2="372.9" y2="258.61"/><polyline class="cls-71" points="371.2 258.16 369.81 257.78 370.42 256.47"/><line class="cls-73" x1="371.92" y1="253.24" x2="374.18" y2="248.4"/><polyline class="cls-71" points="374.93 246.79 375.54 245.47 376.94 245.85"/><line class="cls-74" x1="380.32" y1="246.75" x2="385.4" y2="248.11"/><polyline class="cls-71" points="387.09 248.56 388.49 248.94 387.88 250.25"/><line class="cls-73" x1="386.37" y1="253.48" x2="384.12" y2="258.32"/><polygon class="cls-81" points="380.33 257.6 367.38 254.14 373.12 241.83 386.07 245.29 380.33 257.6"/><polygon class="cls-59" points="369.95 251.83 380.13 254.62 380.38 250.36 375.88 250.92 374.02 248.22 369.95 251.83"/><ellipse class="cls-59" cx="495.11" cy="489.88" rx="1.76" ry="1.47" transform="translate(-282.71 37.67) rotate(-27.13)"/><polygon class="cls-82" points="396.52 288.45 359.44 300.07 296.15 277.35 336.31 271.98 396.52 288.45"/><path class="cls-83" d="M504.12,530.37l-53.63-15.59h0c-1.66.07-22.05,3.38-20.66,3.14l53.6,17.71Z" transform="translate(-113.8 -241.98)"/><polygon class="cls-68" points="354.58 279.66 356.69 279.18 359.91 280.12 357.89 280.65 354.58 279.66"/><polygon class="cls-68" points="349.86 278.26 351.98 277.8 355.96 278.96 353.86 279.45 349.86 278.26"/><polygon class="cls-68" points="375.68 285.92 377.91 285.37 382.08 286.58 379.8 287.14 375.68 285.92"/><polygon class="cls-68" points="358.58 280.85 360.6 280.32 363.83 281.26 361.78 281.8 358.58 280.85"/><polygon class="cls-68" points="371.07 284.55 373.26 284.01 377.2 285.16 374.97 285.71 371.07 284.55"/><polygon class="cls-68" points="345.46 276.96 347.63 276.54 351.24 277.59 349.12 278.04 345.46 276.96"/><polygon class="cls-68" points="366.52 283.2 368.67 282.67 372.55 283.8 370.36 284.35 366.52 283.2"/><polygon class="cls-68" points="362.46 282 364.52 281.46 367.96 282.46 365.81 283 362.46 282"/><polygon class="cls-68" points="337.29 274.54 340.12 274.34 346.86 276.31 344.69 276.73 337.29 274.54"/><polygon class="cls-68" points="387.32 288.11 384.59 288.56 380.51 287.35 382.79 286.79 387.32 288.11"/><polygon class="cls-68" points="376.14 288.44 380.39 289.75 377.99 290.35 373.79 289.02 376.14 288.44"/><polygon class="cls-68" points="324.81 278.32 320.35 276.9 323.12 276.45 327.34 277.82 324.81 278.32"/><polygon class="cls-68" points="328.14 277.67 323.98 276.31 326.15 275.96 330.18 277.27 328.14 277.67"/><polygon class="cls-68" points="368.38 287.81 372.58 289.14 370.06 289.77 365.91 288.43 368.38 287.81"/><polygon class="cls-68" points="371.47 286.58 367.64 285.4 369.61 284.91 373.49 286.08 371.47 286.58"/><polygon class="cls-68" points="378.99 287.73 383.29 289.02 381.13 289.56 376.88 288.25 378.99 287.73"/><polygon class="cls-68" points="376.2 288.04 372.16 286.79 374.19 286.29 378.29 287.52 376.2 288.04"/><polygon class="cls-68" points="366.96 285.19 363.19 284.03 365.09 283.56 368.91 284.7 366.96 285.19"/><polygon class="cls-68" points="338.64 277.91 334.8 276.7 336.95 276.35 340.7 277.51 338.64 277.91"/><polygon class="cls-68" points="334.16 276.43 330.32 275.22 332.61 274.91 336.37 276.07 334.16 276.43"/><polygon class="cls-68" points="345.99 278.72 342.28 277.58 344.04 277.24 347.73 278.35 345.99 278.72"/><polygon class="cls-68" points="330.98 277.11 327.01 275.82 329.27 275.45 333.16 276.69 330.98 277.11"/><polygon class="cls-68" points="354.84 281.45 351.41 280.4 353.19 279.99 356.57 281 354.84 281.45"/><polygon class="cls-68" points="337.83 276.21 339.64 275.92 343.28 277.01 341.53 277.35 337.83 276.21"/><polygon class="cls-68" points="333.67 274.79 335.33 274.54 338.96 275.63 337.36 275.93 333.67 274.79"/><polygon class="cls-68" points="362.5 283.82 359.31 282.83 361.11 282.36 364.39 283.35 362.5 283.82"/><polygon class="cls-68" points="350.7 280.18 346.71 278.95 348.47 278.57 352.48 279.77 350.7 280.18"/><polygon class="cls-68" points="358.64 282.63 355.51 281.66 357.25 281.2 360.43 282.16 358.64 282.63"/><polygon class="cls-68" points="339.53 280.3 337.63 280.74 333.52 279.41 335.48 278.98 339.53 280.3"/><polygon class="cls-68" points="364.67 286.14 366.9 285.59 370.72 286.76 368.44 287.33 364.67 286.14"/><polygon class="cls-68" points="363.72 286.34 367.7 287.6 365.24 288.21 361.31 286.94 363.72 286.34"/><polygon class="cls-68" points="356.53 283.57 358.59 283.02 361.76 284 359.6 284.54 356.53 283.57"/><polygon class="cls-68" points="371.41 286.98 375.45 288.22 373.11 288.8 369.12 287.55 371.41 286.98"/><polygon class="cls-68" points="360.28 284.75 362.44 284.21 366.21 285.37 363.99 285.92 360.28 284.75"/><polygon class="cls-68" points="339.38 278.15 341.45 277.74 345.2 278.89 343.15 279.34 339.38 278.15"/><polygon class="cls-68" points="352.78 282.38 354.78 281.85 357.92 282.82 355.87 283.36 352.78 282.38"/><polygon class="cls-68" points="343.86 279.56 345.92 279.12 349.94 280.36 347.88 280.83 343.86 279.56"/><polygon class="cls-68" points="348.58 281.05 350.64 280.57 354.11 281.64 352.12 282.17 348.58 281.05"/><polygon class="cls-68" points="355.52 285.48 353.68 285.94 350.01 284.75 351.86 284.29 355.52 285.48"/><polygon class="cls-68" points="343.91 281.72 342.11 282.19 338.31 280.96 340.22 280.52 343.91 281.72"/><polygon class="cls-68" points="347.62 282.92 345.82 283.39 342.77 282.4 344.57 281.93 347.62 282.92"/><polygon class="cls-68" points="330.91 277.5 334.77 278.75 332.82 279.18 328.87 277.9 330.91 277.5"/><polygon class="cls-68" points="364.51 288.39 362.66 288.85 358.73 287.58 360.58 287.12 364.51 288.39"/><polygon class="cls-68" points="328.07 278.06 332.05 279.35 329.68 279.86 325.55 278.55 328.07 278.06"/><polygon class="cls-68" points="365.18 288.61 369.33 289.95 367.49 290.41 363.33 289.07 365.18 288.61"/><polygon class="cls-68" points="359.91 286.9 358.06 287.36 354.35 286.15 356.19 285.7 359.91 286.9"/><polygon class="cls-68" points="336.25 278.82 338.42 278.35 342.45 279.62 340.28 280.12 336.25 278.82"/><polygon class="cls-68" points="351.19 284.07 349.34 284.53 346.47 283.6 348.27 283.13 351.19 284.07"/><polygon class="cls-68" points="348.62 284.71 346.59 285.22 343.76 284.32 345.76 283.79 348.62 284.71"/><polygon class="cls-68" points="361.93 289.03 360.08 289.49 356.1 288.23 358 287.76 361.93 289.03"/><polygon class="cls-68" points="345.11 283.58 343.1 284.11 340.01 283.13 342.06 282.59 345.11 283.58"/><polygon class="cls-68" points="366.76 290.6 364.98 291.04 360.75 289.7 362.6 289.25 366.76 290.6"/><polygon class="cls-68" points="340.97 280.35 343.15 279.84 346.73 280.97 344.62 281.53 340.97 280.35"/><polygon class="cls-68" points="357.33 287.54 355.42 288.01 351.65 286.82 353.62 286.33 357.33 287.54"/><polygon class="cls-68" points="341.4 282.38 339.35 282.92 335.33 281.65 337.56 281.13 341.4 282.38"/><polygon class="cls-68" points="352.95 286.12 350.98 286.61 347.27 285.43 349.28 284.93 352.95 286.12"/><polygon class="cls-68" points="363.04 286.13 360.64 286.72 356.92 285.51 359.27 284.93 363.04 286.13"/><polygon class="cls-68" points="348.98 282.94 351.15 282.37 354.19 283.33 351.92 283.89 348.98 282.94"/><polygon class="cls-68" points="345.27 281.74 347.39 281.18 350.49 282.16 348.32 282.73 345.27 281.74"/><polygon class="cls-68" points="336.88 280.91 334.64 281.43 330.39 280.08 332.75 279.57 336.88 280.91"/><polygon class="cls-68" points="352.59 284.11 354.87 283.55 358.59 284.72 356.25 285.3 352.59 284.11"/><polygon class="cls-68" points="335.54 278.59 331.71 277.35 333.9 276.92 337.7 278.12 335.54 278.59"/><polygon class="cls-84" points="347.57 287.37 332.5 282.45 319.76 284.64 336.29 290.26 347.57 287.37"/><polygon class="cls-68" points="365.53 291.24 369.89 290.15 371.93 290.75 375.31 289.98 377.37 290.58 369.64 292.56 365.53 291.24"/><path class="cls-80" d="M508.19,494l16.42,4.51a1.9,1.9,0,0,0,2.08-.94l4-7.69a1.14,1.14,0,0,0-.72-1.7l-16.42-4.5a1.88,1.88,0,0,0-2.08.93l-4,7.69A1.14,1.14,0,0,0,508.19,494Z" transform="translate(-113.8 -241.98)"/><polygon class="cls-59" points="398.26 242.12 399.21 240.02 416.41 245.32 413.47 250.37 398.26 242.12"/><path class="cls-85" d="M524.14,498.35l-16.42-4.51a1.28,1.28,0,0,1-.86-1.74l3.1-7.92a1.66,1.66,0,0,1,1.93-1l16.42,4.51a1.28,1.28,0,0,1,.87,1.74l-3.11,7.92A1.66,1.66,0,0,1,524.14,498.35Z" transform="translate(-113.8 -241.98)"/><path class="cls-80" d="M522,486.27l.31-.68a.54.54,0,0,1,.61-.29l4.44,1.22-.52,1.15Z" transform="translate(-113.8 -241.98)"/><path class="cls-59" d="M474.63,519.79s-6.07,4.73-7.63,5.66c0,0,9.33,1.31,17.7-1.65s11.47-6.91,13.56-9.68c0,0-9,.55-11,.56a12.83,12.83,0,0,1-5.54,7.18A25,25,0,0,1,474.63,519.79Z" transform="translate(-113.8 -241.98)"/><path class="cls-86" d="M467,525.45s9.33,1.31,17.7-1.65a34.2,34.2,0,0,0,6.46-3,23,23,0,0,1-9.41,1.07,25,25,0,0,1-7.12-2.07S468.56,524.52,467,525.45Z" transform="translate(-113.8 -241.98)"/><polygon class="cls-81" points="349.85 249.5 334.96 245.42 341.4 231.18 356.29 235.26 349.85 249.5"/><path class="cls-59" d="M462.33,479.49a2.11,2.11,0,0,1,2.21.18l-1.77.82a.79.79,0,0,0-.46,1,.76.76,0,0,0,1,.3l1.77-.82a2.19,2.19,0,0,1-1.31,1.82,2.13,2.13,0,0,1-2.21-.18l-5.77,2.69a.77.77,0,0,1-1.05-.29.79.79,0,0,1,.46-1l5.78-2.7A2.19,2.19,0,0,1,462.33,479.49Z" transform="translate(-113.8 -241.98)"/><path class="cls-59" d="M459.77,481.56l-1.22-2.47s1.13-.54,1.83-.09a.22.22,0,0,0,.2,0c.09-.05.13-.1,0-.25s-1.11-1.08-3.28.17a.79.79,0,0,1-1.15.54l-.77.36.65,1.37.79-.38a.58.58,0,0,1,.44-.63.52.52,0,0,1,.69.26l.69,1.66Z" transform="translate(-113.8 -241.98)"/><path class="cls-59" d="M462,486.08l-1.27-2.58-1.28.56,1.06,2.6s.53.52,1,.24S462,486.23,462,486.08Z" transform="translate(-113.8 -241.98)"/><path class="cls-80" d="M420.61,512.61l18.1,5a2.07,2.07,0,0,0,2.28-1l4.37-8.48a1.25,1.25,0,0,0-.79-1.87l-18.1-5a2.09,2.09,0,0,0-2.29,1l-4.37,8.48A1.27,1.27,0,0,0,420.61,512.61Z" transform="translate(-113.8 -241.98)"/><polygon class="cls-59" points="311.07 259.74 312.12 257.43 331.08 263.27 327.83 268.83 311.07 259.74"/><path class="cls-85" d="M438.19,517.43l-18.1-5a1.42,1.42,0,0,1-1-1.92l3.43-8.74a1.82,1.82,0,0,1,2.12-1.08l18.1,5a1.41,1.41,0,0,1,1,1.92l-3.42,8.74A1.84,1.84,0,0,1,438.19,517.43Z" transform="translate(-113.8 -241.98)"/><path class="cls-80" d="M435.83,504.11l.34-.74a.58.58,0,0,1,.68-.32l4.89,1.34-.57,1.27Z" transform="translate(-113.8 -241.98)"/><path class="cls-59" d="M432.45,512.14l-4.71-1.3a.19.19,0,0,1-.15-.17.25.25,0,0,1,.1-.22l4.12-3.26a.31.31,0,0,1,.26-.06.19.19,0,0,1,.15.17l.6,4.55a.26.26,0,0,1-.11.23A.3.3,0,0,1,432.45,512.14Zm-4.09-1.64,3.89,1.07-.49-3.75Z" transform="translate(-113.8 -241.98)"/><path class="cls-59" d="M430.33,510.52a.23.23,0,0,1,.27-.14c.12,0,.15.13.1.24a.23.23,0,0,1-.27.14A.16.16,0,0,1,430.33,510.52Zm.27-.42.63-1.49.31.08-.72,1.47Z" transform="translate(-113.8 -241.98)"/><path class="cls-80" d="M471.26,471l13.89,3.81a1.61,1.61,0,0,0,1.76-.79l3.35-6.51a1,1,0,0,0-.61-1.44l-13.89-3.81A1.61,1.61,0,0,0,474,463l-3.35,6.51A1,1,0,0,0,471.26,471Z" transform="translate(-113.8 -241.98)"/><polygon class="cls-59" points="360.73 220.63 361.54 218.86 376.09 223.34 373.6 227.61 360.73 220.63"/><path class="cls-85" d="M484.76,474.67l-13.9-3.81a1.08,1.08,0,0,1-.73-1.47l2.63-6.71a1.4,1.4,0,0,1,1.63-.82l13.89,3.81a1.09,1.09,0,0,1,.74,1.47l-2.63,6.71A1.4,1.4,0,0,1,484.76,474.67Z" transform="translate(-113.8 -241.98)"/><path class="cls-59" d="M481.76,471.11l-6.53-1.8a.36.36,0,0,1-.24-.52l1.74-3.66a.53.53,0,0,1,.61-.28l6.54,1.79a.37.37,0,0,1,.23.52l-1.74,3.66A.55.55,0,0,1,481.76,471.11Zm-6.05-2.34,6.13,1.69,1.55-3.28-6.13-1.68Z" transform="translate(-113.8 -241.98)"/><path class="cls-59" d="M479.22,468.42a.31.31,0,0,1-.15-.1l-2.32-2.9a.31.31,0,0,1,.1-.43.35.35,0,0,1,.48,0l2.2,2.75,4.22-1a.29.29,0,0,1,.38.21.36.36,0,0,1-.29.38l-4.44,1.05Z" transform="translate(-113.8 -241.98)"/><path class="cls-80" d="M483,464.45l.26-.57a.45.45,0,0,1,.51-.25l3.76,1-.44,1Z" transform="translate(-113.8 -241.98)"/><path class="cls-5" d="M468.65,868.84c-2.83.92-83.63.21-86.7-1.76-1.16-.74-1.75-12.52-2.05-26.76-.06-3.08-.11-6.26-.14-9.48-.23-21,0-43.19,0-43.19l54.05.32-1.51,43.17-.32,9.48s30.81,14.11,33.94,16.63S471.48,867.92,468.65,868.84Z" transform="translate(-113.8 -241.98)"/><path class="cls-59" d="M468.65,868.84c-2.83.92-83.63.21-86.7-1.76-1.41-.91-2-18.1-2.19-36.24l52.56.3-.32,9.48s30.81,14.11,33.94,16.63S471.48,867.92,468.65,868.84Z" transform="translate(-113.8 -241.98)"/><path class="cls-87" d="M472.58,868.66c-3,1-88.48,2-91.76,0-1.25-.76-2.12-13.21-2.75-28.27l55.13-.81s32.9,14.27,36.27,16.87S475.56,867.63,472.58,868.66Z" transform="translate(-113.8 -241.98)"/><path class="cls-1" d="M463.61,852.7a11.53,11.53,0,0,0-8.54,3.6A11.13,11.13,0,0,0,452,864c0,.09.16.09.17,0a13.31,13.31,0,0,1,11.48-11.11A.09.09,0,0,0,463.61,852.7Z" transform="translate(-113.8 -241.98)"/><path class="cls-1" d="M438.44,840.21c-5.73,0-12.36,2.09-15.87,6.82-.14.19.13.38.29.29a79.31,79.31,0,0,1,15.69-6.41A.36.36,0,0,0,438.44,840.21Z" transform="translate(-113.8 -241.98)"/><path class="cls-1" d="M442.89,841.88c-5.73,0-12.36,2.09-15.87,6.83-.14.18.12.37.29.28a79.64,79.64,0,0,1,15.69-6.4A.36.36,0,0,0,442.89,841.88Z" transform="translate(-113.8 -241.98)"/><path class="cls-1" d="M447.34,843.56c-5.74,0-12.36,2.09-15.87,6.82-.14.19.12.38.29.29a79.07,79.07,0,0,1,15.69-6.41A.36.36,0,0,0,447.34,843.56Z" transform="translate(-113.8 -241.98)"/><path class="cls-1" d="M451.79,845.23c-5.74,0-12.36,2.09-15.87,6.83-.14.18.12.37.29.28a79.64,79.64,0,0,1,15.69-6.4A.36.36,0,0,0,451.79,845.23Z" transform="translate(-113.8 -241.98)"/><path class="cls-1" d="M381,868.72s-2.79-4.81-2.11-13.85c0,0,61,9,94.79,7.9,0,0,.82,3.73-.27,5.46S401.05,870.24,381,868.72Z" transform="translate(-113.8 -241.98)"/><path class="cls-1" d="M463.55,853.07s-9.24,2-8.95,10.24l-2.32-.18S453.61,852.32,463.55,853.07Z" transform="translate(-113.8 -241.98)"/><path class="cls-5" d="M323.53,868.59c-3-.3-76.66-33.42-78.67-36.46-.77-1.15,3.43-12.17,8.88-25.33,1.18-2.85,2.41-5.78,3.68-8.74,8.21-19.28,17.37-39.54,17.37-39.54l49.37,22-18.74,38.93-4.1,8.55s22.54,25.3,24.39,28.87S326.5,868.88,323.53,868.59Z" transform="translate(-113.8 -241.98)"/><path class="cls-59" d="M323.53,868.59c-3-.3-76.66-33.42-78.67-36.46-.93-1.41,5.46-17.38,12.56-34.07l48,21.41-4.1,8.55s22.54,25.3,24.39,28.87S326.5,868.88,323.53,868.59Z" transform="translate(-113.8 -241.98)"/><path class="cls-87" d="M327.21,870c-3.14-.25-81.84-33.71-84-36.88-.84-1.2,3.37-13,8.85-27l50.8,21.43s24.4,26.29,26.43,30S330.35,870.26,327.21,870Z" transform="translate(-113.8 -241.98)"/><path class="cls-1" d="M325.4,851.79a11.49,11.49,0,0,0-9.26-.14,11.16,11.16,0,0,0-5.94,5.79c0,.08.11.14.16.07a13.31,13.31,0,0,1,15-5.56C325.44,852,325.51,851.83,325.4,851.79Z" transform="translate(-113.8 -241.98)"/><path class="cls-1" d="M307.39,830.23c-5.25-2.32-12.17-3.06-17.28-.13-.2.11,0,.39.15.38a78.68,78.68,0,0,1,16.94.44A.36.36,0,0,0,307.39,830.23Z" transform="translate(-113.8 -241.98)"/><path class="cls-1" d="M310.79,833.55c-5.25-2.31-12.17-3-17.28-.13-.2.11,0,.39.15.38a79.33,79.33,0,0,1,16.94.44A.36.36,0,0,0,310.79,833.55Z" transform="translate(-113.8 -241.98)"/><path class="cls-1" d="M314.19,836.88c-5.25-2.32-12.17-3.06-17.28-.14-.2.11,0,.39.15.38a79.33,79.33,0,0,1,16.94.44A.36.36,0,0,0,314.19,836.88Z" transform="translate(-113.8 -241.98)"/><path class="cls-1" d="M317.59,840.2c-5.25-2.32-12.17-3.06-17.28-.14-.2.12,0,.4.15.38a79.33,79.33,0,0,1,16.94.45A.36.36,0,0,0,317.59,840.2Z" transform="translate(-113.8 -241.98)"/><path class="cls-1" d="M243.29,833.24s-.63-5.54,3.63-13.54c0,0,52.29,32.78,83.62,45.34,0,0-.74,3.74-2.44,4.89S261.07,842.69,243.29,833.24Z" transform="translate(-113.8 -241.98)"/><path class="cls-1" d="M325.21,852.1s-9.28-1.86-12.32,5.77l-2.05-1.09S316.4,847.41,325.21,852.1Z" transform="translate(-113.8 -241.98)"/><path class="cls-61" d="M361.58,576.39s14,138.92,14.37,140.68c.05.23.15,2.91.28,7.27.76,23.91,2.63,98.48,2.63,98.48h57.31s-3.74-88.32-5.89-108.92c-2.74-26.29-20-137.51-20-137.51Z" transform="translate(-113.8 -241.98)"/><path d="M361.58,576.39s14,138.92,14.37,140.68c.05.23.15,2.91.28,7.27l27-148Z" transform="translate(-113.8 -241.98)"/><path class="cls-61" d="M410.3,576.39s-3.78,20.07-17.78,30.28c0,0-30.87,103.3-34.88,115.14-6.91,20.42-44.06,89.56-44.06,89.56l-57.35-24.62s43.74-77,48.47-83c3.13-3.94,26.35-87.67,26.39-89.84.49-24.6,8.74-37.68,8.74-37.68Z" transform="translate(-113.8 -241.98)"/><path d="M363.9,583.66a19.1,19.1,0,0,1-7,10.07c-3.71,2.83-8.16,4-12.73,4.37-.78.06-.84,1.23,0,1.23,9.35,0,18.79-5.92,20.16-15.61C364.32,583.5,364,583.45,363.9,583.66Z" transform="translate(-113.8 -241.98)"/><path d="M401.49,600.31a52.24,52.24,0,0,0-9.66,5.12c-3.2,2-6.17,4.31-9.26,6.46a.11.11,0,0,0,.11.2c3.25-1.87,6.63-3.49,9.84-5.42a61.4,61.4,0,0,0,9.11-6.11A.15.15,0,0,0,401.49,600.31Z" transform="translate(-113.8 -241.98)"/><path d="M402.8,580.83c-.5,2.14-1.12,4.25-1.68,6.38s-.95,4-1.57,6a10.33,10.33,0,0,1-3.05,4.94c-.83.7-1.73,1.31-2.6,2-.47.34-1,.66-1.46,1,.07-.28.13-.57.2-.86.18-.81.36-1.63.53-2.44q.58-2.7,1.12-5.42c.72-3.56,1.38-7.15,2.29-10.67a.11.11,0,0,0-.22-.06c-1.05,3.47-2.19,6.9-3.13,10.41-.46,1.72-2.21,10.24-2.3,10.84s-.17,1.26-.22,1.88a7,7,0,0,0-.09,1.93c0,.16.21.14.29,0h0a8,8,0,0,0,.64-1.84c.18-.61.35-1.22.49-1.84,0-.22.09-.45.13-.68.87-.48,1.69-1.12,2.5-1.66s1.78-1.14,2.61-1.78a9.59,9.59,0,0,0,3.3-4.67,35.45,35.45,0,0,0,1.3-6.12c.38-2.43.69-4.87,1.14-7.28C403.05,580.75,402.84,580.68,402.8,580.83Z" transform="translate(-113.8 -241.98)"/><path d="M343.55,578.75a45.62,45.62,0,0,0-5.8,12.18,46.2,46.2,0,0,0-2.14,13.37,41.56,41.56,0,0,0,.49,6.78c.1.56.17,1.13.3,1.68l.17.84a2.45,2.45,0,0,1,.1.71c-.14,1-.41,2.16-.66,3.25-1,4.37-2.18,8.72-3.34,13.07C328,648,323.27,665.4,318.29,682.7l-3.74,13c-.64,2.15-1.28,4.31-2,6.44-.34,1.06-.69,2.15-1.09,3.13s-.94,2-1.49,3c-4.25,7.91-8.83,15.68-13.26,23.51,0,0-22.6,38-27.25,46.72-.22.41-.11.67.3.13,4-5.27,18.77-30.76,27.94-46.27,4.6-7.75,9.13-15.52,13.46-23.45.55-1,1.05-2,1.56-3.06s.8-2.16,1.16-3.24c.7-2.15,1.36-4.31,2-6.47,1.29-4.31,2.57-8.64,3.79-13,4.85-17.36,9.64-34.73,14-52.21,1.08-4.37,2.17-8.74,3.14-13.15a34.36,34.36,0,0,0,.62-3.38,3.05,3.05,0,0,0-.12-1l-.19-.82c-.13-.54-.2-1.09-.31-1.64a46.44,46.44,0,0,1-.6-6.66A47.68,47.68,0,0,1,343.55,578.75Z" transform="translate(-113.8 -241.98)"/><path class="cls-1" d="M335.18,584.24l79.76.54c0,1.57-4-62.51-24.49-100.32-1.39-2.58-13.91-5.42-19.47-.36C346.61,506.26,335.17,585.26,335.18,584.24Z" transform="translate(-113.8 -241.98)"/><g class="cls-88"><path class="cls-1" d="M391.31,566c2.07-1.72,5.09-1.28,6,1.48,1,3.15-1,6.23-3.76,7.71a10.38,10.38,0,0,1-9.32.38c-2.79-1.27-2-5.65.74-6.39a22,22,0,0,0,4-1C389.91,567.66,390.47,566.66,391.31,566Z" transform="translate(-113.8 -241.98)"/><path class="cls-1" d="M394.81,555.54c1.65,4.73-5.34,9.85-9.51,7.75a2.59,2.59,0,0,1-.61-4c1-1.06,1.93-1.32,2.83-2.28a4.62,4.62,0,0,0,.79-1.07,7,7,0,0,1,1.89-2.18C391.93,552.46,394.2,553.79,394.81,555.54Z" transform="translate(-113.8 -241.98)"/><path class="cls-1" d="M406.84,554.27c1.81,1.82,1,5-.1,7a6.25,6.25,0,0,1-5.28,3.45,2.1,2.1,0,0,1-1.52-3.52,6.63,6.63,0,0,0,1.69-2.76c.48-1.59.68-3.6,2.29-4.48A2.47,2.47,0,0,1,406.84,554.27Z" transform="translate(-113.8 -241.98)"/><path class="cls-1" d="M376.86,563.3a2.39,2.39,0,0,1,2.36,2.32,2.8,2.8,0,0,1-2.32,2.71,4.3,4.3,0,0,1-2.67-.3,2,2,0,0,1-.92-1,2.08,2.08,0,0,1-.13-1.41,2.24,2.24,0,0,1,1.95-1.64,2.22,2.22,0,0,1,.32-.24A2.68,2.68,0,0,1,376.86,563.3Z" transform="translate(-113.8 -241.98)"/><path class="cls-1" d="M401.2,543c1.87,2.44.38,7.3-2.21,8.69a2.28,2.28,0,0,1-3.44-1.91,8.31,8.31,0,0,1,.15-1.51c.07-.54.17-.89.19-1.21a11.77,11.77,0,0,1,.27-3.31A2.81,2.81,0,0,1,401.2,543Z" transform="translate(-113.8 -241.98)"/><path class="cls-1" d="M408,568.5c2.53,3.82-3,9.23-6.84,8.9-1.27-.11-2.68-1.6-1.72-2.91.77-1,1.73-1.93,2.43-3,.86-1.35,1.21-3,2.73-3.79A2.53,2.53,0,0,1,408,568.5Z" transform="translate(-113.8 -241.98)"/></g><g class="cls-88"><path class="cls-1" d="M349.33,561.24c.24,1.45.15,2.72,1.08,4s2.1,2.07,2.74,3.52a1.89,1.89,0,0,1-2,2.52c-4.32-1-7.63-5.67-6.72-10.09A2.5,2.5,0,0,1,349.33,561.24Z" transform="translate(-113.8 -241.98)"/><path class="cls-1" d="M355.16,549.44c.52,1.81.16,3.75.54,5.63a44,44,0,0,0,1.31,5.08c.39,1.2-.89,2.89-2.2,2.11a9.6,9.6,0,0,1-4.61-5.33c-.74-2.11-1.41-5.59-.23-7.61C351.06,547.46,354.42,546.81,355.16,549.44Z" transform="translate(-113.8 -241.98)"/><path class="cls-1" d="M360.38,567.62a11.82,11.82,0,0,0,3.57,3.71,2.76,2.76,0,0,1,1.24,3.92c-.93,1.54-2.64,1.58-4.05.73a9.9,9.9,0,0,1-4.79-6.82C356,566.93,359.13,565.85,360.38,567.62Z" transform="translate(-113.8 -241.98)"/></g><g class="cls-88"><path class="cls-1" d="M380.83,510.45a2.84,2.84,0,0,1-3.07-2.44c-.39-2.83,2.38-5.35,4.52-6.83s5-2.71,7.63-1.51a2.24,2.24,0,0,1,.47,3.79c-1.35,1.33-3.12,2.22-4.54,3.51S383.09,510.35,380.83,510.45Z" transform="translate(-113.8 -241.98)"/><path class="cls-1" d="M371.83,518.13c-.89-1.67.2-3.83,1.15-5.21a4.59,4.59,0,0,1,2-1.72,2.37,2.37,0,0,1,3.18,1.08,3.13,3.13,0,0,1-.12,2.33,6.7,6.7,0,0,1-.56,1.1.72.72,0,0,1-.07.11.69.69,0,0,1,0,.1,7.81,7.81,0,0,1-1.89,3.22A2.43,2.43,0,0,1,371.83,518.13Z" transform="translate(-113.8 -241.98)"/><path class="cls-1" d="M366.54,510a15.1,15.1,0,0,1,4.5-8.12c1.76-1.78,4.77-4.63,7.49-3.59a1.46,1.46,0,0,1,.85,1.52c-.08,2.17-2.82,4.18-4.08,5.77-1.59,2-2.82,4.29-4.44,6.27A2.45,2.45,0,0,1,366.54,510Z" transform="translate(-113.8 -241.98)"/><path class="cls-1" d="M372.54,529.26a3.43,3.43,0,0,1-1.42-.21,2.93,2.93,0,0,1-1.5-1.54,4.68,4.68,0,0,1-.23-2.26,4.26,4.26,0,0,1,.81-2l.48-.48.6-.34a2.65,2.65,0,0,1,1.67-.07,2.61,2.61,0,0,1,1.87,2.19,12.78,12.78,0,0,1,.18,2.31l-.2.69a2,2,0,0,1-.62.87A2.72,2.72,0,0,1,372.54,529.26Z" transform="translate(-113.8 -241.98)"/><path class="cls-1" d="M365.75,523.76a2.33,2.33,0,0,1-1.93-2,5.64,5.64,0,0,1,.54-2.94,4.87,4.87,0,0,1,1.61-2.27,1.82,1.82,0,0,1,2.87,1.22,8.57,8.57,0,0,1-.24,2.25c0,.32-.06.64-.08,1a6.88,6.88,0,0,1-.33,1.41A2.28,2.28,0,0,1,365.75,523.76Z" transform="translate(-113.8 -241.98)"/></g><path class="cls-5" d="M382.77,496.74c-3.28-.42-9-7.68-10.73-13.26-.12-.38,1.14-3.91,2.46-8.28.8-2.64,1.62-5.61,2.17-8.38l16.49,7.68a45.32,45.32,0,0,0-3.8,10.28,6.78,6.78,0,0,0-.11,1.16,1.34,1.34,0,0,1,0,.19C389.16,488.35,387.9,497.39,382.77,496.74Z" transform="translate(-113.8 -241.98)"/><path class="cls-7" d="M389.25,485.94a1.15,1.15,0,0,0,0,.2,13,13,0,0,1-1.81-.27c-10-2.24-10-15.1-9.83-18.6l15.56,7.23a45.37,45.37,0,0,0-3.8,10.27A8.22,8.22,0,0,0,389.25,485.94Z" transform="translate(-113.8 -241.98)"/><path class="cls-5" d="M375.21,448.22c-2.08,6.21.73,24.4,5.08,28.56,6.3,6,16.86,6.87,22-.76,5-7.39.94-31-3.94-34.84C391.21,435.58,378.29,439,375.21,448.22Z" transform="translate(-113.8 -241.98)"/><path class="cls-1" d="M391.49,459.61s-.08.08-.07.13c.28,1.21.39,2.64-.63,3.26,0,0,0,.07,0,.06C392.12,462.61,392,460.71,391.49,459.61Z" transform="translate(-113.8 -241.98)"/><path class="cls-1" d="M390.16,458.55c-2,.23-1.37,4.19.47,4S391.83,458.36,390.16,458.55Z" transform="translate(-113.8 -241.98)"/><path class="cls-1" d="M398.34,458.32c0-.05.11.05.11.1.15,1.23.53,2.61,1.7,2.85,0,0,.05.07,0,.07C398.77,461.36,398.29,459.51,398.34,458.32Z" transform="translate(-113.8 -241.98)"/><path class="cls-1" d="M399.24,456.87c1.95-.45,2.71,3.48.91,3.9S397.61,457.25,399.24,456.87Z" transform="translate(-113.8 -241.98)"/><path class="cls-1" d="M392.13,471.24c.34.24.69.59,1.14.56a3.33,3.33,0,0,0,1.27-.51,0,0,0,0,1,.06,0,1.67,1.67,0,0,1-1.45.91,1.33,1.33,0,0,1-1.13-.94C392,471.24,392.08,471.2,392.13,471.24Z" transform="translate(-113.8 -241.98)"/><path class="cls-5" d="M378.68,463.08s-4.05-5.89-6.72-4.45.35,9.95,3.46,11.14a3.17,3.17,0,0,0,4.26-1.68Z" transform="translate(-113.8 -241.98)"/><path class="cls-89" d="M372.88,460.26c-.05,0-.06.06,0,.08,2.18.9,3.31,2.94,4.11,5.05a1.75,1.75,0,0,0-2.62-.5c-.06,0,0,.13.06.12a1.94,1.94,0,0,1,2.14.69,10.13,10.13,0,0,1,1,1.75c.1.19.45.09.38-.14,0,0,0,0,0-.05C378,464.48,375.88,460.56,372.88,460.26Z" transform="translate(-113.8 -241.98)"/><path class="cls-63" d="M385.49,454.67a4.85,4.85,0,0,1,3.34-1.12,4.89,4.89,0,0,0,3.35-1.12s0,2.24-1.12,2.24S387.72,453.55,385.49,454.67Z" transform="translate(-113.8 -241.98)"/><path class="cls-57" d="M378.36,465.43s.12-.62,2.81,2.48c1.22,1.4,2.68,3.62,4.46,3.07,2-.61,4.61-2.5,7.59-1.73,5.19,1.33,10.29-3.67,11.3-.65.79,2.38-2.39,9-4.3,11.94a4.53,4.53,0,0,1-4,2c-2.83-.11-7.33-.41-9.59-1.29-3.46-1.33-7.78-2.67-9.52-6.69S378.36,470.79,378.36,465.43Z" transform="translate(-113.8 -241.98)"/><path class="cls-5" d="M401.27,473.81a1.68,1.68,0,0,0-1.69-1.8h-3.5c-2.54,0-7.24.7-7.34,1.23-.27,1.31-.27,6.38,9.88,3.85A3.76,3.76,0,0,0,401.27,473.81Z" transform="translate(-113.8 -241.98)"/><path class="cls-1" d="M398.67,472.12a9.48,9.48,0,0,1-7.63.47S395.21,476.73,398.67,472.12Z" transform="translate(-113.8 -241.98)"/><path class="cls-89" d="M396.87,462.05s2.86,4.29,1.91,5.25-6.21,0-6.21,0-1.43-1,2.39-.48,3.34-.48,3.34-.48A11.07,11.07,0,0,0,396.87,462.05Z" transform="translate(-113.8 -241.98)"/><path class="cls-58" d="M378.36,465.43s.9-.85,4.81,4.73,2.33,6.37,4.7,9.54c1.72,2.29.79,1.64,6.74,2.8a25.83,25.83,0,0,1-15.55-5.18s-3.27-3.25-2.38-5.59S378.36,468.6,378.36,465.43Z" transform="translate(-113.8 -241.98)"/><path class="cls-63" d="M392.11,453.22s0,1.73-1.34,1.42a25.1,25.1,0,0,0-2.84-.46S390.79,454.48,392.11,453.22Z" transform="translate(-113.8 -241.98)"/><path class="cls-63" d="M403,454.66a4.85,4.85,0,0,0-3.34-1.12,4.86,4.86,0,0,1-3.35-1.12s0,2.24,1.11,2.24S400.76,453.54,403,454.66Z" transform="translate(-113.8 -241.98)"/><path class="cls-63" d="M396.37,453.21s0,1.73,1.34,1.42a25.1,25.1,0,0,1,2.84-.46S397.68,454.47,396.37,453.21Z" transform="translate(-113.8 -241.98)"/><path class="cls-61" d="M419.31,522.82l-3.77,5s-15.07-13-17.34-16.29c0,0,1.5-8.27,0-12.55,0,0,12.8,16,24.14,19.87Z" transform="translate(-113.8 -241.98)"/><path class="cls-61" d="M425.46,536.9s-12-.11-13.81,7.15A16.26,16.26,0,0,1,419.81,532S422.26,535.72,425.46,536.9Z" transform="translate(-113.8 -241.98)"/><polyline points="266.35 455.54 272.46 580.84 265.1 580.53 261.9 472.9"/><path class="cls-5" d="M377.9,506.34c2.5,11.5,15.86,56.09,30.59,61.08,17.83,6,42,7.19,53.24,4.54,6.3-1.48-2.74-28.79-8.56-28.17-9.2,1-25.61-5.12-29-5.62S401.73,515,391,502.47C381.41,491.22,376.43,499.57,377.9,506.34Z" transform="translate(-113.8 -241.98)"/><path class="cls-1" d="M446.74,538.55l4.67,37.22S416.27,573,404.36,565.2s-22.2-35-27-51.8,3.85-24.4,19.53-7c18.37,20.39,25.87,30.08,27.27,30.71S446.74,538.55,446.74,538.55Z" transform="translate(-113.8 -241.98)"/><g class="cls-88"><path class="cls-1" d="M409.47,559.85c1.16.92,1.94,1.92,3.46,2.2s2.95.12,4.39.76a1.89,1.89,0,0,1,.19,3.24c-3.86,2.18-9.46.93-11.76-3A2.5,2.5,0,0,1,409.47,559.85Z" transform="translate(-113.8 -241.98)"/><path class="cls-1" d="M405.86,547.19c1.6,1,2.64,2.68,4.18,3.81a43.62,43.62,0,0,0,4.39,2.88c1.09.63,1.28,2.74-.22,3a9.6,9.6,0,0,1-7-.84c-2-1.07-4.79-3.19-5.28-5.49C401.5,548.49,403.54,545.75,405.86,547.19Z" transform="translate(-113.8 -241.98)"/><path class="cls-1" d="M421.94,557.15a11.78,11.78,0,0,0,5.14.35,2.74,2.74,0,0,1,3.55,2.07c.35,1.76-.89,2.95-2.5,3.26A9.85,9.85,0,0,1,420,561C418.22,559.59,419.83,556.68,421.94,557.15Z" transform="translate(-113.8 -241.98)"/></g><g class="cls-88"><path class="cls-1" d="M384.15,513a2.83,2.83,0,0,1-2.36-3.13c.31-2.83,3.63-4.59,6.06-5.5s5.55-1.37,7.77.43a2.25,2.25,0,0,1-.48,3.79c-1.64,1-3.57,1.38-5.27,2.27S386.37,513.45,384.15,513Z" transform="translate(-113.8 -241.98)"/><path class="cls-1" d="M378.06,512.35c.4,1.6.87,3.32,1.39,5.12,0,0,0,0,0,0a.28.28,0,0,0,.07-.09l.1-.08c.3-.32.56-.59.82-.92a3.21,3.21,0,0,0,.69-2.23,2.38,2.38,0,0,0-2.81-1.84A1,1,0,0,0,378.06,512.35Z" transform="translate(-113.8 -241.98)"/><path class="cls-1" d="M376.86,502.22a30.6,30.6,0,0,0,.5,6.93c.86-.78,1.73-1.55,2.64-2.25,1.62-1.23,4.77-2.51,5.38-4.59a1.46,1.46,0,0,0-.45-1.68C382.58,499,379,500.93,376.86,502.22Z" transform="translate(-113.8 -241.98)"/></g><path class="cls-1" d="M446.92,538.23c-3.3-.4-16.7-.77-20-1.18a6.88,6.88,0,0,1-4-1.79c-1.22-1.1-20.8-22.47-22.93-25-.09-.11-.26,0-.17.13,2.27,2.52,17.2,20.25,19.54,22.8a30.7,30.7,0,0,0,3.3,3.35,6.23,6.23,0,0,0,3.95,1.38c3.19.08,15.6.51,19.94.69.09,0,.35,1.67.43,1.68h.17A6.84,6.84,0,0,0,446.92,538.23Z" transform="translate(-113.8 -241.98)"/><path class="cls-5" d="M470.4,542.19c-2-.35-1.86-1.42,1.37-3.17s17.49-5.92,15.61-10.78-21.92,1.34-27.07,4.66S448,543.41,448,543.41C452.12,543,462.27,542.92,470.4,542.19Z" transform="translate(-113.8 -241.98)"/><path class="cls-5" d="M448,543.41l5.9,29.86c11.91-1.36,26.73-2.81,37.1-11a6.79,6.79,0,0,0,2.26-3.09c.06-.15.09-.28.12-.36v0l0-.07h0l.63-.49v0a0,0,0,0,1,0,0,10,10,0,0,0,3.62-5.26,4.16,4.16,0,0,0,.13-1.11c.14-.2.27-.39.39-.58a12.65,12.65,0,0,0,2.27-6,6.71,6.71,0,0,0,0-1.42.33.33,0,0,0,0-.08,13.45,13.45,0,0,0,1.22-1.12c1.49-1.53,3.63-4.35,2.23-6.92-2.28-4.22-9.55,2.63-15.84,4a154.53,154.53,0,0,1-18.16,2.42h0c-6.3.54-12.25.82-16.48,1l-.41,0-.49,0h-.39l-.53,0-.34,0h-.5l-1.12.07-.63,0-.55,0Z" transform="translate(-113.8 -241.98)"/><path class="cls-5" d="M475.18,553.64a51.68,51.68,0,0,0,19.55-6,42.56,42.56,0,0,0,5.66-3.72.18.18,0,0,0,.05-.07.33.33,0,0,0,0-.08.1.1,0,0,0-.15,0c-3,1.65-5.87,3.34-8.91,4.79-1.22.58-2.47,1.12-3.74,1.61a96.19,96.19,0,0,1-12.48,3.37C474.92,553.49,475,553.66,475.18,553.64Z" transform="translate(-113.8 -241.98)"/><path class="cls-5" d="M475.7,562.43c4.06-1.18,11.19-3.3,22-10.78,0,0,.09,0,.06.06a45.09,45.09,0,0,1-22,10.91C475.49,562.67,475.43,562.5,475.7,562.43Z" transform="translate(-113.8 -241.98)"/><path class="cls-5" d="M476.09,567.24c6.83-2.26,10.85-4.56,17.25-8.57,0,0,.08,0,.05.06-6.79,5.33-9.86,6.49-17.25,8.76C475.88,567.57,475.82,567.33,476.09,567.24Z" transform="translate(-113.8 -241.98)"/><path class="cls-7" d="M478.74,548.48s5.07,1.57,12.62,0c1.08-.22,2.2-.52,3.37-.88a39.35,39.35,0,0,0,5.73-2.34v0a6.71,6.71,0,0,0,0-1.42.33.33,0,0,0,0-.08,13.45,13.45,0,0,0,1.22-1.12S491.13,550.1,478.74,548.48Z" transform="translate(-113.8 -241.98)"/><path class="cls-7" d="M480.56,553.76s3.67,3.85,11.32,1.64h0a24.83,24.83,0,0,0,2.47-.88,29,29,0,0,0,3.32-1.64,4.16,4.16,0,0,0,.13-1.11c.14-.2.27-.39.39-.58C498.2,551.19,490.15,557.54,480.56,553.76Z" transform="translate(-113.8 -241.98)"/><path class="cls-7" d="M479.76,560a11.85,11.85,0,0,0,1.21.73,8,8,0,0,0,.72.36,11.23,11.23,0,0,0,5.78,1.15,7,7,0,0,0,1.6-.32,8.89,8.89,0,0,0,4.17-2.74c.06-.15.09-.28.12-.36a11.42,11.42,0,0,1-.93.68l-.1.07a11.3,11.3,0,0,1-2,1,13.27,13.27,0,0,1-7.94.3c-.32-.07-.67-.17-1-.27C480.88,560.38,480.32,560.19,479.76,560Z" transform="translate(-113.8 -241.98)"/><path class="cls-61" d="M394.6,506s-12.48-8.94-22.48-8.94c0,0,10.13,2.14,28.19,12.95Z" transform="translate(-113.8 -241.98)"/><path class="cls-61" d="M413.09,570.7a179.92,179.92,0,0,1-37.48-42.4s.54,17.79,38.82,51Z" transform="translate(-113.8 -241.98)"/><path class="cls-61" d="M420.76,533.22s-8.26,1.63-8.91,9.52c0,0,3.33-6.28,15.9-5.61A61.45,61.45,0,0,1,420.76,533.22Z" transform="translate(-113.8 -241.98)"/><path class="cls-90" d="M292.45,392.87c49.42,37.57,115.86,63.47,205.29,26.81" transform="translate(-113.8 -241.98)"/><polygon class="cls-91" points="630.92 675.9 629.48 453.88 585.2 454.02 586.18 676.19 630.92 675.9"/></svg>