<svg id="Layer_1" data-name="Layer 1" xmlns="http://www.w3.org/2000/svg" xmlns:xlink="http://www.w3.org/1999/xlink" viewBox="0 0 1063.76 802.83"><defs><style>.cls-1,.cls-75{fill:#1a2e35;}.cls-2{fill:#f2f2f2;}.cls-3{fill:#c0e5c0;}.cls-4{fill:#8ab887;}.cls-5{fill:url(#linear-gradient);}.cls-6{fill:url(#linear-gradient-2);}.cls-7{fill:url(#linear-gradient-3);}.cls-8{fill:url(#linear-gradient-4);}.cls-9{fill:url(#linear-gradient-5);}.cls-10{fill:url(#linear-gradient-6);}.cls-11{fill:url(#linear-gradient-7);}.cls-12{fill:url(#linear-gradient-8);}.cls-13{fill:url(#linear-gradient-9);}.cls-14{fill:url(#linear-gradient-10);}.cls-15{fill:url(#linear-gradient-11);}.cls-16{fill:url(#linear-gradient-12);}.cls-17{fill:url(#linear-gradient-13);}.cls-18{fill:url(#linear-gradient-14);}.cls-19{fill:url(#linear-gradient-15);}.cls-20{fill:url(#linear-gradient-16);}.cls-21{fill:url(#linear-gradient-17);}.cls-22{fill:url(#linear-gradient-18);}.cls-23{fill:url(#linear-gradient-19);}.cls-24{fill:url(#linear-gradient-20);}.cls-25{fill:url(#linear-gradient-21);}.cls-26{fill:url(#linear-gradient-22);}.cls-27{fill:url(#linear-gradient-23);}.cls-28{fill:url(#linear-gradient-24);}.cls-29{fill:url(#linear-gradient-25);}.cls-30{fill:url(#linear-gradient-26);}.cls-31{fill:url(#linear-gradient-27);}.cls-32{fill:url(#linear-gradient-28);}.cls-33{fill:url(#linear-gradient-29);}.cls-34{fill:url(#linear-gradient-30);}.cls-35{fill:url(#linear-gradient-31);}.cls-36{fill:url(#linear-gradient-32);}.cls-37{fill:url(#linear-gradient-33);}.cls-38{fill:url(#linear-gradient-34);}.cls-39{fill:url(#linear-gradient-35);}.cls-40{fill:url(#linear-gradient-36);}.cls-41{fill:url(#linear-gradient-37);}.cls-42{fill:url(#linear-gradient-38);}.cls-43{fill:url(#linear-gradient-39);}.cls-44{fill:url(#linear-gradient-40);}.cls-45{fill:url(#linear-gradient-41);}.cls-46{fill:url(#linear-gradient-42);}.cls-47{fill:url(#linear-gradient-43);}.cls-48{fill:url(#linear-gradient-44);}.cls-49{fill:url(#linear-gradient-45);}.cls-50{fill:url(#linear-gradient-46);}.cls-51{fill:#e7f3ff;}.cls-52{fill:#cce3ff;}.cls-53{fill:#2b444e;}.cls-54{fill:#666;}.cls-55,.cls-74,.cls-75{opacity:0.1;}.cls-56{fill:#385b64;}.cls-57{fill:#ffbf9d;}.cls-58{fill:#fff;}.cls-59{fill:#333;}.cls-60{fill:#d1945d;}.cls-61{fill:#dd9373;}.cls-62{fill:#203391;}.cls-63{fill:#c18859;}.cls-64{fill:#89705d;}.cls-65{fill:url(#linear-gradient-47);}.cls-66{fill:url(#linear-gradient-48);}.cls-67{fill:#2b454e;}.cls-68{fill:url(#linear-gradient-49);}.cls-69{fill:#00448e;opacity:0.72;}.cls-70{fill:url(#linear-gradient-50);}.cls-71{fill:url(#linear-gradient-51);}.cls-72{fill:#4d4d4d;}.cls-73{fill:#ffaba1;}.cls-76{fill:#16282d;}.cls-77{fill:#c17e67;}.cls-78{fill:url(#linear-gradient-52);}.cls-79{fill:none;stroke:#fff;stroke-miterlimit:10;stroke-width:2px;}</style><linearGradient id="linear-gradient" x1="999.41" y1="594.78" x2="1063.25" y2="594.78" gradientUnits="userSpaceOnUse"><stop offset="0.04" stop-color="#6b24d6"/><stop offset="0.22" stop-color="#5c28cc" stop-opacity="0.96"/><stop offset="0.57" stop-color="#3634b2" stop-opacity="0.86"/><stop offset="0.98" stop-color="#00448e" stop-opacity="0.72"/></linearGradient><linearGradient id="linear-gradient-2" x1="1032.93" y1="556.6" x2="1050.44" y2="556.6" xlink:href="#linear-gradient"/><linearGradient id="linear-gradient-3" x1="1023.94" y1="590.86" x2="1038.64" y2="590.86" xlink:href="#linear-gradient"/><linearGradient id="linear-gradient-4" x1="1004.37" y1="630.4" x2="1022.61" y2="630.4" xlink:href="#linear-gradient"/><linearGradient id="linear-gradient-5" x1="995.61" y1="655.01" x2="1010.65" y2="655.01" xlink:href="#linear-gradient"/><linearGradient id="linear-gradient-6" x1="1016.04" y1="651.21" x2="1050.67" y2="651.21" xlink:href="#linear-gradient"/><linearGradient id="linear-gradient-7" x1="1031.66" y1="619.78" x2="1068.64" y2="619.78" xlink:href="#linear-gradient"/><linearGradient id="linear-gradient-8" x1="1045.51" y1="582.38" x2="1080.89" y2="582.38" xlink:href="#linear-gradient"/><linearGradient id="linear-gradient-9" x1="1054.79" y1="545.31" x2="1089.08" y2="545.31" xlink:href="#linear-gradient"/><linearGradient id="linear-gradient-10" x1="1051.91" y1="516.09" x2="1068.38" y2="516.09" xlink:href="#linear-gradient"/><linearGradient id="linear-gradient-11" x1="1087.74" y1="712.33" x2="1136.92" y2="712.33" xlink:href="#linear-gradient"/><linearGradient id="linear-gradient-12" x1="1114.6" y1="638.26" x2="1175.63" y2="638.26" xlink:href="#linear-gradient"/><linearGradient id="linear-gradient-13" x1="1078.08" y1="618.54" x2="1117.37" y2="618.54" xlink:href="#linear-gradient"/><linearGradient id="linear-gradient-14" x1="1052.09" y1="721.04" x2="1118.34" y2="721.04" xlink:href="#linear-gradient"/><linearGradient id="linear-gradient-15" x1="1056.49" y1="682.47" x2="1153.68" y2="682.47" xlink:href="#linear-gradient"/><linearGradient id="linear-gradient-16" x1="1077.17" y1="654.56" x2="1103.17" y2="654.56" xlink:href="#linear-gradient"/><linearGradient id="linear-gradient-17" x1="1025.07" y1="717.42" x2="1044.92" y2="717.42" xlink:href="#linear-gradient"/><linearGradient id="linear-gradient-18" x1="1043.99" y1="732.46" x2="1083.29" y2="732.46" xlink:href="#linear-gradient"/><linearGradient id="linear-gradient-19" x1="1027.63" y1="752.7" x2="1035.56" y2="752.7" xlink:href="#linear-gradient"/><linearGradient id="linear-gradient-20" x1="1033.9" y1="747.82" x2="1071.52" y2="747.82" xlink:href="#linear-gradient"/><linearGradient id="linear-gradient-21" x1="223.81" y1="340.35" x2="255.3" y2="340.35" xlink:href="#linear-gradient"/><linearGradient id="linear-gradient-22" x1="127.14" y1="320.7" x2="192.35" y2="320.7" xlink:href="#linear-gradient"/><linearGradient id="linear-gradient-23" x1="111.87" y1="370.71" x2="186.01" y2="370.71" xlink:href="#linear-gradient"/><linearGradient id="linear-gradient-24" x1="233.46" y1="365.64" x2="275.8" y2="365.64" xlink:href="#linear-gradient"/><linearGradient id="linear-gradient-25" x1="152.01" y1="352.93" x2="268.31" y2="352.93" xlink:href="#linear-gradient"/><linearGradient id="linear-gradient-26" x1="132.74" y1="369.41" x2="238.23" y2="369.41" xlink:href="#linear-gradient"/><linearGradient id="linear-gradient-27" x1="235.8" y1="416.36" x2="280.57" y2="416.36" xlink:href="#linear-gradient"/><linearGradient id="linear-gradient-28" x1="248.15" y1="385.83" x2="284.4" y2="385.83" xlink:href="#linear-gradient"/><linearGradient id="linear-gradient-29" x1="252.08" y1="413.75" x2="335.31" y2="413.75" xlink:href="#linear-gradient"/><linearGradient id="linear-gradient-30" x1="220.69" y1="305.29" x2="395.59" y2="305.29" xlink:href="#linear-gradient"/><linearGradient id="linear-gradient-31" x1="252.43" y1="290.84" x2="286.35" y2="290.84" xlink:href="#linear-gradient"/><linearGradient id="linear-gradient-32" x1="283.05" y1="303.48" x2="322.62" y2="303.48" xlink:href="#linear-gradient"/><linearGradient id="linear-gradient-33" x1="322.24" y1="324.01" x2="359.88" y2="324.01" xlink:href="#linear-gradient"/><linearGradient id="linear-gradient-34" x1="356.19" y1="305.66" x2="370.35" y2="305.66" xlink:href="#linear-gradient"/><linearGradient id="linear-gradient-35" x1="323.54" y1="286.79" x2="342.43" y2="286.79" xlink:href="#linear-gradient"/><linearGradient id="linear-gradient-36" x1="286.36" y1="271.35" x2="306.68" y2="271.35" xlink:href="#linear-gradient"/><linearGradient id="linear-gradient-37" x1="247.45" y1="260.04" x2="272.65" y2="260.04" xlink:href="#linear-gradient"/><linearGradient id="linear-gradient-38" x1="209.69" y1="269.36" x2="250.31" y2="269.36" xlink:href="#linear-gradient"/><linearGradient id="linear-gradient-39" x1="331.08" y1="251.67" x2="393.89" y2="251.67" xlink:href="#linear-gradient"/><linearGradient id="linear-gradient-40" x1="332.6" y1="214.26" x2="362.26" y2="214.26" xlink:href="#linear-gradient"/><linearGradient id="linear-gradient-41" x1="344.71" y1="247.12" x2="376.62" y2="247.12" xlink:href="#linear-gradient"/><linearGradient id="linear-gradient-42" x1="355.56" y1="289.28" x2="386.47" y2="289.28" xlink:href="#linear-gradient"/><linearGradient id="linear-gradient-43" x1="381.15" y1="259.46" x2="405.67" y2="259.46" xlink:href="#linear-gradient"/><linearGradient id="linear-gradient-44" x1="370.05" y1="223.13" x2="393" y2="223.13" xlink:href="#linear-gradient"/><linearGradient id="linear-gradient-45" x1="355.47" y1="188.4" x2="373.21" y2="188.4" xlink:href="#linear-gradient"/><linearGradient id="linear-gradient-46" x1="320.07" y1="172.3" x2="347.05" y2="172.3" xlink:href="#linear-gradient"/><linearGradient id="linear-gradient-47" x1="380.62" y1="528.29" x2="628.71" y2="528.29" gradientUnits="userSpaceOnUse"><stop offset="0" stop-color="#4e4e4c"/><stop offset="1" stop-color="#405078"/></linearGradient><linearGradient id="linear-gradient-48" x1="505.36" y1="424.92" x2="505.36" y2="616.01" gradientUnits="userSpaceOnUse"><stop offset="0" stop-color="#6681c3"/><stop offset="1" stop-color="#3c4b71"/></linearGradient><linearGradient id="linear-gradient-49" x1="514.76" y1="802.45" x2="764.24" y2="802.45" gradientTransform="matrix(1.01, 0, 0, 1, 13.46, -0.05)" xlink:href="#linear-gradient-47"/><linearGradient id="linear-gradient-50" x1="414.43" y1="683.21" x2="544.08" y2="907.76" gradientUnits="userSpaceOnUse"><stop offset="0" stop-color="#8caef6"/><stop offset="1" stop-color="#5b82d3"/></linearGradient><linearGradient id="linear-gradient-51" x1="652.26" y1="706.88" x2="652.26" y2="898.61" xlink:href="#linear-gradient-48"/><linearGradient id="linear-gradient-52" x1="720.88" y1="289.84" x2="846.43" y2="507.31" xlink:href="#linear-gradient-50"/></defs><title>kapcsolat</title><path class="cls-1" d="M5937.9,1524.67" transform="translate(-111.87 -155.33)"/><path class="cls-2" d="M890.76,837.73c16.51-10.88,46.5-31.23,50.61-62.16,4-30.5-21.23-40-23.92-74.07-3.63-45.94,40-57.24,51.52-110.69,11.62-54-20.14-102-30.36-117.5-32-48.44-64.12-47.6-131.57-98.76-86.92-65.94-8.59-110.68-72.67-148.64s-225.64-42.55-296.26-3.77c-43.51,23.89-25.45,44.29-104,135.38-57.09,66.23-83.42,74.91-97.53,121.75-3.64,12.1-21.64,71.83,11,117.5,28.77,40.21,69.9,31.89,84.65,67.26,15.39,36.92-22.93,61.58-15.65,103.88,8.09,47,65.33,74.93,104.89,93.66C604.86,948.34,810.17,890.85,890.76,837.73Z" transform="translate(-111.87 -155.33)"/><path class="cls-3" d="M299.81,421.56c-2.54,4.56-3,10-2.32,15.18.37,2.78,1.11,5.68,3.13,7.63s5.66,2.41,7.51.3a7.19,7.19,0,0,0,1.35-4.7c.07-4-.5-8.52,2-11.66,1.44-1.8,3.77-2.95,4.52-5.12a5.2,5.2,0,0,0-2.36-5.79,8.9,8.9,0,0,0-6.53-.84A10,10,0,0,0,299.81,421.56Z" transform="translate(-111.87 -155.33)"/><path class="cls-3" d="M340.68,412a8.11,8.11,0,0,1-1.84.2l-5,.34a73.2,73.2,0,0,0-7.39.9,58.34,58.34,0,0,0-8.77,2.41,32.31,32.31,0,0,0-8,4.2,16.61,16.61,0,0,0-4.83,5.47,15.76,15.76,0,0,0-1.61,4.67,9.61,9.61,0,0,1-.32,1.83,7.64,7.64,0,0,1,0-1.87,14.43,14.43,0,0,1,1.44-4.88,16.39,16.39,0,0,1,4.88-5.77,31.16,31.16,0,0,1,8.16-4.36,52.89,52.89,0,0,1,8.91-2.38,62.48,62.48,0,0,1,7.48-.76c2.14-.09,3.86-.1,5.06-.09A9,9,0,0,1,340.68,412Z" transform="translate(-111.87 -155.33)"/><path class="cls-4" d="M314.67,409.6a17.42,17.42,0,0,1-2.55-.1,69,69,0,0,1-6.88-1,91,91,0,0,1-10-2.55,83.68,83.68,0,0,1-11.77-4.57,63.51,63.51,0,0,1-18.86-12.94,32.31,32.31,0,0,1-2.61-3c-.37-.46-.73-.86-1-1.28l-.74-1.15a17.09,17.09,0,0,1-1.31-2.18c.17-.12,1.94,3.1,6.06,7.22a66.81,66.81,0,0,0,18.8,12.63,93.24,93.24,0,0,0,11.67,4.59,101.12,101.12,0,0,0,9.88,2.69c2.86.62,5.19,1,6.81,1.23A15.33,15.33,0,0,1,314.67,409.6Z" transform="translate(-111.87 -155.33)"/><path class="cls-3" d="M1024.58,756.27c-4.08-3.26-9.37-4.63-14.58-4.81-2.8-.09-5.79.16-8,1.82s-3.31,5.18-1.55,7.36a7.26,7.26,0,0,0,4.42,2.11c4,.74,8.49.92,11.17,3.93,1.53,1.72,2.27,4.21,4.29,5.31a5.19,5.19,0,0,0,6.1-1.37,8.88,8.88,0,0,0,1.92-6.29A10,10,0,0,0,1024.58,756.27Z" transform="translate(-111.87 -155.33)"/><path class="cls-3" d="M1027.22,798.17a9.94,9.94,0,0,1,.11-1.86c.14-1.34.31-3,.51-5s.37-4.64.34-7.44a56.39,56.39,0,0,0-.93-9,32,32,0,0,0-2.8-8.59,16.66,16.66,0,0,0-4.59-5.67,15.58,15.58,0,0,0-4.35-2.37,9.16,9.16,0,0,1-1.74-.62,8.65,8.65,0,0,1,1.83.34,14.17,14.17,0,0,1,4.58,2.22,16.36,16.36,0,0,1,4.88,5.78,30.93,30.93,0,0,1,2.94,8.76,52.48,52.48,0,0,1,.87,9.19,59.13,59.13,0,0,1-.5,7.5c-.26,2.12-.54,3.83-.74,5A8,8,0,0,1,1027.22,798.17Z" transform="translate(-111.87 -155.33)"/><path class="cls-5" d="M1063.23,505a9.81,9.81,0,0,0-.38,1.92q-.31,2.11-.82,5.55c-.32,2.41-.73,5.36-1.32,8.76s-1.13,7.3-2,11.56c-1.54,8.56-3.76,18.67-6.59,29.81s-6.54,23.22-10.94,35.72-9.32,24.16-14.06,34.63-9.48,19.68-13.68,27.29c-2,3.85-4,7.22-5.75,10.23s-3.22,5.56-4.49,7.63l-2.87,4.82a10.49,10.49,0,0,0-.92,1.73,10.07,10.07,0,0,0,1.16-1.58q1.18-1.77,3.1-4.67c1.35-2,3-4.54,4.72-7.52s3.86-6.32,5.94-10.15c4.33-7.56,9.1-16.79,14-27.22s9.72-22.17,14.21-34.71,8-24.71,10.86-35.88,4.9-21.35,6.32-30c.8-4.28,1.28-8.2,1.78-11.62s.85-6.39,1.09-8.81.41-4.16.54-5.58A10.32,10.32,0,0,0,1063.23,505Z" transform="translate(-111.87 -155.33)"/><path class="cls-6" d="M1050.22,565.56a32.59,32.59,0,0,0-5-21.37c-1.39-2.14-3.41-4.3-6-4.28-3.39,0-5.45,3.82-6,7.17a24,24,0,0,0,3.2,16.46c3,4.86,6.39,8.08,11.86,9.74" transform="translate(-111.87 -155.33)"/><path class="cls-7" d="M1037.91,606.15c1.6-8.7.62-22.62-3.53-30.43a10.33,10.33,0,0,0-2.49-3.34,4.26,4.26,0,0,0-3.92-.91c-1.9.63-2.77,2.81-3.22,4.76a34.48,34.48,0,0,0,12.14,34.19" transform="translate(-111.87 -155.33)"/><path class="cls-8" d="M1022.58,641.73a50,50,0,0,0-6-25.53c-1-1.82-2.28-3.73-4.29-4.26-3-.82-5.92,2-7,5-2.24,6.07,0,12.86,2.9,18.65,3.11,6.25,10.34,13.46,10.34,13.46" transform="translate(-111.87 -155.33)"/><path class="cls-9" d="M1010.65,665.1c-.64-7-2.23-14.13-5.82-20.22a10,10,0,0,0-3-3.47,4.24,4.24,0,0,0-4.36-.34c-2.13,1.26-2.11,4.32-1.6,6.74,1.75,8.37,5.43,15.81,11.72,21.6" transform="translate(-111.87 -155.33)"/><path class="cls-10" d="M1019.12,653.5a154.21,154.21,0,0,1,26.59-9.82c1.42-.38,3.14-.68,4.21.33a2.94,2.94,0,0,1,.51,3.19,7.48,7.48,0,0,1-2.1,2.68c-8.4,7.64-21.15,10.7-32.29,8.55" transform="translate(-111.87 -155.33)"/><path class="cls-11" d="M1033.11,622.36l22.22-10.54a18.71,18.71,0,0,1,6.63-2.19c2.33-.16,4.89.74,6,2.77s.61,4.69-.75,6.59a16.34,16.34,0,0,1-5.42,4.35c-4.81,2.78-9.94,5.18-15.43,6.07s-10.13,1-14.75-2.1" transform="translate(-111.87 -155.33)"/><path class="cls-12" d="M1047.54,586.68a54.42,54.42,0,0,1,24.25-14.62,9.3,9.3,0,0,1,4.72-.41c3.09.79,4.7,4.44,4.33,7.6a12.89,12.89,0,0,1-5.7,8.73,27,27,0,0,1-9.94,3.88,62.6,62.6,0,0,1-19.69,1.07" transform="translate(-111.87 -155.33)"/><path class="cls-13" d="M1055.7,553.6c6.07-9.33,15.17-15.18,25-20.41,2.07-1.1,4.69-2.07,6.64-.77a4.5,4.5,0,0,1,1.75,3.92,10.55,10.55,0,0,1-1.32,4.25,34.07,34.07,0,0,1-33,18.09" transform="translate(-111.87 -155.33)"/><path class="cls-14" d="M1058.39,536.47c2.91-4.89,5.84-9.82,7.78-15.17s2.88-11.21,1.66-16.78a13.07,13.07,0,0,0-3.19-6.5,7.17,7.17,0,0,0-6.68-2.13,7.56,7.56,0,0,0-4.77,4.52,19.23,19.23,0,0,0-1.19,6.66c-.51,10.81,1,23.78,6.39,29.4" transform="translate(-111.87 -155.33)"/><path class="cls-15" d="M1107.93,694.77c8.65,1.52,16.28,6.67,22.3,13.05,3.24,3.43,6.26,7.48,6.66,12.18s-2.85,10-7.56,10.14c-2.8.12-5.37-1.5-7.58-3.22-5.35-4.17-10.62-9.68-17.4-9.71-3.87,0-7.85,1.81-11.48.48s-5.51-5.46-5.06-9.22,2.87-7,5.81-9.43A16.8,16.8,0,0,1,1107.93,694.77Z" transform="translate(-111.87 -155.33)"/><path class="cls-16" d="M1114.61,656.48c-.33,8.31,8.41,12.13,14.35,11.43s11-4.4,15.84-8c11-8.16,22.34-16.82,28.2-29.16,1.76-3.69,3-7.77,2.54-11.83s-2.81-8.09-6.58-9.65c-4.47-1.85-9.56,0-13.87,2.23a96.15,96.15,0,0,0-32.51,27.05c-4,5.27-7.63,11.28-8,17.91" transform="translate(-111.87 -155.33)"/><path class="cls-17" d="M1098.26,656.33c7.85-1.76,14.06-8.3,16.89-15.82s2.65-15.9,1.12-23.79a72.85,72.85,0,0,0-10.61-26c-2-3.1-4.39-6.1-7.54-8.06s-7.26-2.71-10.62-1.14c-5,2.33-6.59,8.49-7.4,13.92a183.73,183.73,0,0,0-2,28.89c.07,7.77.74,15.9,4.84,22.5s10.3,10.92,16.41,9.24" transform="translate(-111.87 -155.33)"/><path class="cls-18" d="M1052.09,738.08a14.1,14.1,0,0,0,2.22-2.2l5.78-6.23a122.29,122.29,0,0,1,9-8.71,95.56,95.56,0,0,1,12.45-8.91,53.6,53.6,0,0,1,14-6,28,28,0,0,1,12.27-.53,26.16,26.16,0,0,1,7.83,2.85,15.13,15.13,0,0,0,2.72,1.51,14.48,14.48,0,0,0-2.46-1.94,24.37,24.37,0,0,0-7.91-3.31,28,28,0,0,0-12.72.27,52.47,52.47,0,0,0-14.34,6.06,88.75,88.75,0,0,0-12.57,9.12,104.85,104.85,0,0,0-8.91,9c-2.39,2.69-4.23,4.94-5.48,6.51A14.55,14.55,0,0,0,1052.09,738.08Z" transform="translate(-111.87 -155.33)"/><path class="cls-19" d="M1056.5,733.26a7,7,0,0,0,.93-1.09c.65-.87,1.47-1.95,2.48-3.28,2.15-2.84,5.28-6.95,9.29-11.9,8-10,17.15-20.2,30.55-34.3,12.6-13.26,27.56-28.46,38.16-37.69,2.38-2.12,4.57-4,6.52-5.6s3.6-3,5-4.14l3.18-2.59a5.87,5.87,0,0,0,1.06-1,6.29,6.29,0,0,0-1.21.77l-3.34,2.41c-1.45,1-3.17,2.4-5.15,4s-4.24,3.39-6.66,5.47a463.87,463.87,0,0,0-36.15,34.4c-13.43,14.13-24.87,27.59-32.68,37.71-3.93,5-7,9.23-9,12.17l-2.29,3.42A5.58,5.58,0,0,0,1056.5,733.26Z" transform="translate(-111.87 -155.33)"/><path class="cls-20" d="M1077.17,706.23a27.16,27.16,0,0,0,2.58-3.43c1.54-2.29,3.65-5.69,6-10A149.71,149.71,0,0,0,1093,677a137.66,137.66,0,0,0,6.51-20.24c3.77-14.65,4.32-28.56,3.06-38.38a53.39,53.39,0,0,0-1.13-6.59c-.22-1-.36-1.86-.6-2.67s-.49-1.51-.72-2.19a27.78,27.78,0,0,0-1.47-4c-.33.1,2,5.82,3,15.58s.32,23.44-3.41,38a158.87,158.87,0,0,1-6.36,20.12,172.54,172.54,0,0,1-7,15.79c-2.22,4.38-4.2,7.83-5.61,10.19A27.46,27.46,0,0,0,1077.17,706.23Z" transform="translate(-111.87 -155.33)"/><path class="cls-21" d="M1039,738.25c-3.57,3.41-8.71,1-10.73-1.91s-2.38-6.64-2.67-10.19c-.67-8.09-1.29-16.56,1.91-24a13.3,13.3,0,0,1,4.27-5.79,7,7,0,0,1,6.89-.85c2.58,1.26,3.73,4.27,4.45,7a57,57,0,0,1,.73,25.12c-.76,3.87-2,7.83-4.85,10.59" transform="translate(-111.87 -155.33)"/><path class="cls-22" d="M1045.5,745.47c-2.3-4.19-1.83-9.52.41-13.74s6-7.43,10.16-9.85a43.4,43.4,0,0,1,15.76-5.5,15.42,15.42,0,0,1,6.56.19,6.82,6.82,0,0,1,4.68,4.29c.91,3.12-1.2,6.27-3.29,8.76a110,110,0,0,1-12.08,12.25c-3.49,3-7.38,5.92-11.93,6.69s-8.91-.3-10.57-3.68" transform="translate(-111.87 -155.33)"/><path class="cls-23" d="M1027.64,794.31a4.37,4.37,0,0,1,.12-.85c.13-.62.29-1.42.49-2.39.42-2.07,1-5.08,1.65-8.81,1.3-7.46,2.26-15.58,3.28-27.09.94-10.83,1.84-23.47,1.79-31.81,0-1.9,0-3.61-.07-5.11s-.06-2.8-.13-3.86-.06-1.8-.09-2.44a3.45,3.45,0,0,1,0-.85,4.14,4.14,0,0,1,.13.84c.06.64.14,1.44.24,2.43s.18,2.36.25,3.86.16,3.22.18,5.12a274,274,0,0,1-1.12,29.63c-1,11.53-2.51,21.92-4,29.37-.7,3.73-1.38,6.73-1.9,8.79-.25,1-.46,1.74-.62,2.36A3.09,3.09,0,0,1,1027.64,794.31Z" transform="translate(-111.87 -155.33)"/><path class="cls-24" d="M1033.91,772.91a17.17,17.17,0,0,1,.52-2.5c.41-1.59,1.1-3.86,2.12-6.62a90.59,90.59,0,0,1,4.17-9.43,83.53,83.53,0,0,1,6.47-10.85,63.35,63.35,0,0,1,15.89-16.45,31.48,31.48,0,0,1,3.38-2.08c.51-.28,1-.57,1.43-.79l1.25-.54a16.2,16.2,0,0,1,2.38-.92c.09.18-3.38,1.39-8.13,4.77a67.07,67.07,0,0,0-15.58,16.44,92.54,92.54,0,0,0-6.46,10.74,100.65,100.65,0,0,0-4.3,9.31c-1.08,2.71-1.84,5-2.34,6.5A17.18,17.18,0,0,1,1033.91,772.91Z" transform="translate(-111.87 -155.33)"/><path class="cls-3" d="M376.89,330.7c-7.07.15-14.25,1.25-20.57,4.42a10,10,0,0,0-3.66,2.73,4.26,4.26,0,0,0-.63,4.33c1.1,2.21,4.16,2.4,6.61,2.06,8.47-1.18,16.14-4.35,22.35-10.23" transform="translate(-111.87 -155.33)"/><path class="cls-3" d="M391.91,320.94c-4.91-5.09-10.58-9.62-17.2-12.12a9.87,9.87,0,0,0-4.49-.84,4.23,4.23,0,0,0-3.61,2.47c-.87,2.31,1.06,4.69,3,6.26,6.6,5.42,14.13,8.91,22.66,9.49" transform="translate(-111.87 -155.33)"/><path class="cls-3" d="M391.25,306.6a154.69,154.69,0,0,1,14.57-24.32c.88-1.19,2-2.5,3.5-2.38a3,3,0,0,1,2.39,2.17,7.5,7.5,0,0,1,.05,3.4c-1.77,11.22-9.79,21.59-19.83,26.89" transform="translate(-111.87 -155.33)"/><path class="cls-25" d="M223.81,348.08c.07-8.78,3.88-17.15,9.17-24.16,2.85-3.76,6.34-7.4,10.9-8.58s10.3,1.15,11.26,5.76c.58,2.75-.58,5.55-1.92,8-3.22,6-7.78,12.07-6.68,18.77.62,3.82,3.09,7.44,2.38,11.24s-4.47,6.34-8.25,6.52-7.42-1.66-10.26-4.16A16.84,16.84,0,0,1,223.81,348.08Z" transform="translate(-111.87 -155.33)"/><path class="cls-26" d="M183,347.86c8.25-1.05,10.57-10.31,8.88-16.05s-6.17-10.16-10.49-14.29c-9.87-9.46-20.3-19.24-33.45-23-3.93-1.12-8.15-1.65-12.09-.54s-7.5,4.11-8.41,8.09c-1.08,4.72,1.62,9.42,4.5,13.3A95.85,95.85,0,0,0,164,343c5.87,3.11,12.39,5.66,19,4.89" transform="translate(-111.87 -155.33)"/><path class="cls-27" d="M185.51,364c-3-7.45-10.51-12.49-18.4-14s-16.12,0-23.64,2.85a72.6,72.6,0,0,0-23.9,14.78c-2.72,2.53-5.29,5.34-6.7,8.78s-1.46,7.6.65,10.65c3.11,4.51,9.46,5.09,15,5a184.59,184.59,0,0,0,28.82-2.81c7.65-1.37,15.55-3.38,21.39-8.52s9-12,6.38-17.71" transform="translate(-111.87 -155.33)"/><path class="cls-28" d="M275.8,396a15.13,15.13,0,0,0-2.54-1.82l-7.1-4.66A121.88,121.88,0,0,1,256.07,382a95.78,95.78,0,0,1-10.85-10.79A53.51,53.51,0,0,1,237,358.46a27.84,27.84,0,0,1-2.56-12,26.49,26.49,0,0,1,1.51-8.19,15.73,15.73,0,0,0,1-2.94,13.94,13.94,0,0,0-1.5,2.76,24,24,0,0,0-2,8.34,27.83,27.83,0,0,0,2.38,12.5,52.65,52.65,0,0,0,8.35,13.14,88.79,88.79,0,0,0,11.08,10.87,105.56,105.56,0,0,0,10.35,7.3c3.05,1.91,5.57,3.35,7.33,4.32A13.77,13.77,0,0,0,275.8,396Z" transform="translate(-111.87 -155.33)"/><path class="cls-29" d="M268.31,392.41a6,6,0,0,0-1.23-.74l-3.64-1.9c-3.16-1.65-7.73-4-13.28-7.18-11.14-6.21-22.77-13.56-38.9-24.43-15.16-10.23-32.64-22.46-43.5-31.37-2.49-2-4.69-3.85-6.61-5.51s-3.59-3-4.91-4.24l-3.09-2.71a5.84,5.84,0,0,0-1.14-.88,6.11,6.11,0,0,0,1,1.07l2.93,2.88c1.27,1.27,2.89,2.73,4.78,4.42s4,3.62,6.5,5.67a469.25,469.25,0,0,0,39.93,29.93c16.17,10.89,31.34,19.94,42.61,26,5.62,3,10.26,5.32,13.5,6.83L267,391.9A5.59,5.59,0,0,0,268.31,392.41Z" transform="translate(-111.87 -155.33)"/><path class="cls-30" d="M238.23,376.51a28.18,28.18,0,0,0-3.81-2c-2.52-1.14-6.22-2.66-10.91-4.24a151.36,151.36,0,0,0-16.76-4.53,136.89,136.89,0,0,0-21-3c-15.07-1.28-28.87.48-38.35,3.35a52.49,52.49,0,0,0-6.31,2.22c-.91.37-1.78.66-2.54,1l-2,1.08a27.22,27.22,0,0,0-3.73,2.12c.16.31,5.41-2.95,14.87-5.57s23.06-4.22,38-2.95a158.08,158.08,0,0,1,20.89,2.93,171,171,0,0,1,16.72,4.24c4.7,1.46,8.43,2.84,11,3.84A26.76,26.76,0,0,0,238.23,376.51Z" transform="translate(-111.87 -155.33)"/><path class="cls-31" d="M278.14,408.82c4,3,2.45,8.43-.1,10.9s-6.16,3.45-9.6,4.33c-7.87,2-16.12,4-24,2.11a13.29,13.29,0,0,1-6.41-3.25,7,7,0,0,1-2-6.65c.82-2.76,3.59-4.4,6.21-5.57a57.28,57.28,0,0,1,24.65-4.89c3.94.11,8.06.7,11.25,3" transform="translate(-111.87 -155.33)"/><path class="cls-32" d="M282.18,401.22c-3.74,3-9.09,3.39-13.62,1.88s-8.33-4.72-11.39-8.38a43.22,43.22,0,0,1-8.05-14.63,15.55,15.55,0,0,1-.9-6.5,6.8,6.8,0,0,1,3.45-5.32c2.93-1.42,6.39.13,9.19,1.79A109.31,109.31,0,0,1,275,379.94c3.56,2.94,7.06,6.29,8.57,10.65s1.19,8.83-1.87,11" transform="translate(-111.87 -155.33)"/><path class="cls-33" d="M335.31,410.72a3.13,3.13,0,0,1-.85,0l-2.44-.08c-2.12-.08-5.19-.17-9-.17-7.57,0-15.74.36-27.26,1.27-10.83.86-23.44,2.08-31.67,3.52-1.86.3-3.55.61-5,.91s-2.75.53-3.78.77l-2.39.49a4,4,0,0,1-.85.13,3.28,3.28,0,0,1,.81-.28l2.36-.63c1-.29,2.29-.57,3.76-.89s3.15-.69,5-1a275.37,275.37,0,0,1,29.4-3.82c11.54-.91,22-1.16,29.62-1,3.8.07,6.87.25,9,.41l2.44.22A4.14,4.14,0,0,1,335.31,410.72Z" transform="translate(-111.87 -155.33)"/><path class="cls-34" d="M220.69,267.35a9.51,9.51,0,0,0,1.89.52l5.48,1.18c2.38.49,5.29,1.1,8.65,1.92s7.2,1.62,11.4,2.78c8.43,2.12,18.37,5,29.28,8.6s22.73,8.1,34.9,13.34,23.48,10.94,33.6,16.38,19,10.8,26.29,15.5c3.71,2.28,6.93,4.53,9.82,6.43s5.33,3.6,7.31,5l4.61,3.19a10.32,10.32,0,0,0,1.66,1,10.09,10.09,0,0,0-1.49-1.27l-4.45-3.4c-1.94-1.49-4.33-3.26-7.19-5.22s-6-4.29-9.71-6.62c-7.26-4.83-16.14-10.21-26.21-15.82s-21.47-11.2-33.66-16.53-24.12-9.66-35.06-13.28-21-6.33-29.46-8.33c-4.22-1.1-8.09-1.84-11.47-2.57s-6.31-1.29-8.72-1.69l-5.53-.92A10.84,10.84,0,0,0,220.69,267.35Z" transform="translate(-111.87 -155.33)"/><path class="cls-35" d="M278.78,283a32.6,32.6,0,0,0-21.67,3.52c-2.23,1.24-4.52,3.1-4.67,5.65-.2,3.39,3.44,5.7,6.74,6.5a24,24,0,0,0,16.64-2.08c5.05-2.66,8.5-5.83,10.53-11.17" transform="translate(-111.87 -155.33)"/><path class="cls-36" d="M318.43,298c-8.57-2.19-22.52-2.16-30.6,1.45a10.65,10.65,0,0,0-3.5,2.26,4.29,4.29,0,0,0-1.18,3.85c.51,1.94,2.62,2.95,4.54,3.54a34.51,34.51,0,0,0,34.93-9.79" transform="translate(-111.87 -155.33)"/><path class="cls-37" d="M352.89,315.7A50.06,50.06,0,0,0,327,320c-1.88.86-3.87,2-4.54,4-1,3,1.6,6.05,4.47,7.34,5.91,2.65,12.83.86,18.81-1.63,6.44-2.68,14.13-9.4,14.13-9.4" transform="translate(-111.87 -155.33)"/><path class="cls-38" d="M364.4,320a155.13,155.13,0,0,1-8-27.2c-.28-1.45-.46-3.18.62-4.18a3,3,0,0,1,3.22-.29,7.43,7.43,0,0,1,2.53,2.27c7.05,8.9,9.24,21.83,6.33,32.81" transform="translate(-111.87 -155.33)"/><path class="cls-39" d="M334.28,303.88q-4.51-11.44-9-22.89a18.65,18.65,0,0,1-1.73-6.76c0-2.34,1.06-4.83,3.17-5.85s4.72-.29,6.53,1.2a16.49,16.49,0,0,1,4,5.7c2.44,5,4.49,10.28,5,15.81s.28,10.17-3.1,14.58" transform="translate(-111.87 -155.33)"/><path class="cls-40" d="M299.66,287.06a54.38,54.38,0,0,1-12.93-25.19,9.19,9.19,0,0,1-.1-4.74c1-3,4.75-4.38,7.88-3.8a12.89,12.89,0,0,1,8.32,6.28,27,27,0,0,1,3.2,10.18,62.72,62.72,0,0,1-.27,19.72" transform="translate(-111.87 -155.33)"/><path class="cls-41" d="M267.21,276.67c-8.89-6.69-14.11-16.17-18.66-26.32-1-2.14-1.75-4.82-.32-6.67a4.54,4.54,0,0,1,4-1.49,10.51,10.51,0,0,1,4.15,1.61,34.06,34.06,0,0,1,15.81,34.12" transform="translate(-111.87 -155.33)"/><path class="cls-42" d="M250.31,272.83c-4.69-3.24-9.41-6.5-14.61-8.81s-11-3.62-16.63-2.79a13.08,13.08,0,0,0-6.7,2.75,7.16,7.16,0,0,0-2.58,6.52,7.58,7.58,0,0,0,4.18,5.06,19.42,19.42,0,0,0,6.57,1.64c10.75,1.24,23.8.58,29.77-4.37" transform="translate(-111.87 -155.33)"/><path class="cls-43" d="M331.08,161.67a10.52,10.52,0,0,0,.91,1.74q1.08,1.83,2.84,4.83c1.26,2.08,2.78,4.63,4.45,7.66s3.7,6.39,5.69,10.26c4.16,7.63,8.77,16.91,13.53,27.36s9.45,22.2,13.85,34.7,7.87,24.67,10.74,35.8,4.93,21.28,6.42,29.84c.85,4.27,1.37,8.17,1.93,11.58s1,6.35,1.28,8.77.58,4.13.78,5.54a9.48,9.48,0,0,0,.37,1.93,10,10,0,0,0-.08-2c-.13-1.42-.31-3.27-.52-5.58s-.53-5.39-1-8.82-.94-7.34-1.72-11.63c-1.37-8.61-3.43-18.79-6.14-30s-6.32-23.37-10.67-35.95-9.25-24.28-14-34.78-9.56-19.71-13.84-27.3c-2.06-3.84-4.14-7.2-5.89-10.18s-3.34-5.51-4.67-7.55l-3.07-4.69A10.07,10.07,0,0,0,331.08,161.67Z" transform="translate(-111.87 -155.33)"/><path class="cls-44" d="M358.91,217.07a32.51,32.51,0,0,0-17.28-13.55c-2.42-.8-5.34-1.22-7.31.4-2.63,2.15-1.86,6.39-.21,9.36a23.94,23.94,0,0,0,12.8,10.82c5.39,1.91,10,2.3,15.35.17" transform="translate(-111.87 -155.33)"/><path class="cls-45" d="M374.74,256.41c-4.2-7.79-13.69-18-21.82-21.51a10.37,10.37,0,0,0-4-1,4.31,4.31,0,0,0-3.63,1.74c-1.08,1.69-.4,3.93.48,5.73a34.5,34.5,0,0,0,30.88,19" transform="translate(-111.87 -155.33)"/><path class="cls-46" d="M385.08,293.75a50.14,50.14,0,0,0-20.67-16.14c-1.92-.8-4.12-1.48-6-.64-2.87,1.27-3.36,5.28-2.36,8.26,2.06,6.14,8.06,10,14,12.73,6.34,2.92,16.49,4,16.49,4" transform="translate(-111.87 -155.33)"/><path class="cls-47" d="M381.15,272.06q5.36-11.07,10.72-22.14a18.82,18.82,0,0,1,3.79-5.86c1.72-1.58,4.28-2.49,6.46-1.63s3.41,3.27,3.54,5.61a16.4,16.4,0,0,1-1.5,6.78c-2,5.18-4.51,10.27-8.22,14.4s-7.29,7.1-12.82,7.6" transform="translate(-111.87 -155.33)"/><path class="cls-48" d="M370.05,235.2a54.32,54.32,0,0,1,9.75-26.58,9,9,0,0,1,3.42-3.28c2.9-1.32,6.44.51,8.13,3.21a12.91,12.91,0,0,1,1,10.38,27.37,27.37,0,0,1-5.31,9.25,63.13,63.13,0,0,1-14.69,13.17" transform="translate(-111.87 -155.33)"/><path class="cls-49" d="M355.68,204.3c-1.11-11.07,2.33-21.33,6.7-31.56.93-2.16,2.36-4.55,4.7-4.75a4.48,4.48,0,0,1,3.82,1.95,10.51,10.51,0,0,1,1.63,4.14,34,34,0,0,1-14.37,34.75" transform="translate(-111.87 -155.33)"/><path class="cls-50" d="M347.05,189.27c-.79-5.64-1.59-11.31-3.43-16.71s-4.78-10.53-9.22-14.11a13.13,13.13,0,0,0-6.56-3.06,7.15,7.15,0,0,0-6.54,2.52,7.54,7.54,0,0,0-.88,6.5,19.09,19.09,0,0,0,3.23,5.94c6.38,8.75,15.71,17.89,23.4,18.92" transform="translate(-111.87 -155.33)"/><path class="cls-51" d="M890.76,837.73c16.51-10.88,46.5-31.23,50.61-62.16,4-30.5-21.23-40-23.92-74.07-3.63-45.94,40-57.24,51.52-110.69,11.62-54-20.14-102-30.36-117.5-32-48.44-64.12-47.6-131.57-98.76-86.92-65.94-8.59-110.68-72.67-148.64s-225.64-42.55-296.26-3.77c-43.51,23.89-25.45,44.29-104,135.38-57.09,66.23-83.42,74.91-97.53,121.75-3.64,12.1-21.64,71.83,11,117.5,28.77,40.21,69.9,31.89,84.65,67.26,15.39,36.92-22.93,61.58-15.65,103.88,8.09,47,65.33,74.93,104.89,93.66C604.86,948.34,810.17,890.85,890.76,837.73Z" transform="translate(-111.87 -155.33)"/><ellipse class="cls-52" cx="519.03" cy="730.33" rx="466.5" ry="72.5"/><polygon class="cls-53" points="257.93 524.66 316.58 731 308.93 731 250.32 525.13 257.93 524.66"/><polygon class="cls-53" points="169.38 524.66 228.03 731 220.38 731 161.77 525.13 169.38 524.66"/><polygon class="cls-54" points="170.87 557.09 178.15 555.52 168.67 522.36 166.07 540.24 170.87 557.09"/><polygon class="cls-55" points="259.13 555.67 266.4 554.09 256.92 520.93 254.33 538.82 259.13 555.67"/><polygon class="cls-56" points="168.9 524.95 164.71 548.64 121.49 743.68 112.43 743.45 144.31 549.8 147.68 524.95 168.9 524.95"/><path class="cls-56" d="M332.82,900.17h-8.93L343.77,702.8c.27-2.69,1-5.88,1.4-8.55l3-19.07,20.4,5.28-4,23.63Z" transform="translate(-111.87 -155.33)"/><polygon class="cls-55" points="143.16 559.25 162.16 560.17 169.08 524.95 148.13 524.44 143.16 559.25"/><polygon class="cls-55" points="251.15 557.93 231.15 556.94 236.18 519.81 256.43 524.53 251.15 557.93"/><rect class="cls-56" x="134.23" y="500.83" width="129.86" height="24.32"/><rect class="cls-56" x="126.71" y="681.19" width="101.88" height="7.3"/><rect class="cls-56" x="133.08" y="627.02" width="101.88" height="7.3"/><rect class="cls-56" x="144.56" y="570.53" width="101.88" height="7.3"/><path class="cls-57" d="M324.05,767.32c-3.4.52-95.42-15.77-98.54-18.63-1.18-1.08.43-14.74,2.85-31.2.52-3.55,1.08-7.21,1.67-10.93,3.8-24.16,25.37-43.39,25.37-43.39l44.6,4.41L289.92,717l-2.2,10.85s32.41,22.13,35.49,25.64S327.46,766.81,324.05,767.32Z" transform="translate(-111.87 -155.33)"/><path class="cls-58" d="M324.05,767.32c-3.4.52-95.42-15.77-98.54-18.63-1.44-1.32,1.25-21.22,4.52-42.13L289.92,717l-2.2,10.85s32.41,22.13,35.49,25.64S327.46,766.81,324.05,767.32Z" transform="translate(-111.87 -155.33)"/><path class="cls-59" d="M324.05,767.32c-3.4.52-96-17.18-99.07-20-1.19-1.07,1-13.33,3.38-29.79l59.36,10.34s32.41,22.13,35.49,25.64S327.46,766.81,324.05,767.32Z" transform="translate(-111.87 -155.33)"/><path class="cls-1" d="M323.39,763.37c-15.36-3.11-77.6-14.2-93-16.1-.13,0-.15.07,0,.09,15.15,3.43,77.48,14,93,16.27C323.67,763.68,323.72,763.44,323.39,763.37Z" transform="translate(-111.87 -155.33)"/><path class="cls-58" d="M317.88,749.08a12.51,12.51,0,0,0-9.9,2.17,12.33,12.33,0,0,0-4.92,7.7c0,.09.16.12.19,0,2-5.93,8.4-10.31,14.6-9.7A.1.1,0,0,0,317.88,749.08Z" transform="translate(-111.87 -155.33)"/><path class="cls-58" d="M293.43,730.43c-6.16-1.18-13.71-.25-18.45,4.17-.18.17.06.43.26.37a85.69,85.69,0,0,1,18.16-3.75A.4.4,0,0,0,293.43,730.43Z" transform="translate(-111.87 -155.33)"/><path class="cls-58" d="M297.86,733.15c-6.16-1.18-13.71-.25-18.45,4.17-.18.17.06.43.26.37a85.94,85.94,0,0,1,18.16-3.75A.4.4,0,0,0,297.86,733.15Z" transform="translate(-111.87 -155.33)"/><path class="cls-58" d="M302.29,735.87c-6.16-1.18-13.7-.25-18.44,4.17-.19.17.06.43.26.37a85.72,85.72,0,0,1,18.15-3.75A.4.4,0,0,0,302.29,735.87Z" transform="translate(-111.87 -155.33)"/><path class="cls-58" d="M306.73,738.59c-6.16-1.18-13.71-.25-18.45,4.17-.18.17.06.43.26.36a87.21,87.21,0,0,1,18.16-3.75A.4.4,0,0,0,306.73,738.59Z" transform="translate(-111.87 -155.33)"/><path class="cls-1" d="M231.35,729.17" transform="translate(-111.87 -155.33)"/><path class="cls-1" d="M252.61,730" transform="translate(-111.87 -155.33)"/><path class="cls-58" d="M224.72,748.25s-1.84-4.64.75-14.3c0,0,64.72,22.6,101.18,28.27,0,0,.24,3.17-1.29,4.83S246,754,224.72,748.25Z" transform="translate(-111.87 -155.33)"/><path class="cls-58" d="M317.75,749.47s-10.34.32-11.71,9.27l-2.45-.66S307.23,746.63,317.75,749.47Z" transform="translate(-111.87 -155.33)"/><path class="cls-57" d="M385,834.09c-3.25,1.13-96.7,2.13-100.28-.1-1.37-.84-2.31-14.57-3-31.18-.15-3.59-.28-7.3-.38-11.06C280.61,767.31,281,745,281,745l61.91-4.49-.78,50.41L342,802s35.95,15.76,39.62,18.64S388.24,833,385,834.09Z" transform="translate(-111.87 -155.33)"/><path class="cls-58" d="M385,834.09c-3.25,1.13-96.7,2.13-100.28-.1-1.66-1-2.7-21.08-3.35-42.24l60.78-.83L342,802s35.95,15.76,39.62,18.64S388.24,833,385,834.09Z" transform="translate(-111.87 -155.33)"/><path class="cls-59" d="M385,834.09c-3.25,1.13-97.48.85-101.07-1.38-1.36-.84-1.52-13.29-2.18-29.9L342,802s35.95,15.76,39.62,18.64S388.24,833,385,834.09Z" transform="translate(-111.87 -155.33)"/><path class="cls-1" d="M383.6,830.33c-15.66-.22-78.88.38-94.39,1.36-.12,0-.12.1,0,.1,15.53.56,78.74-.55,94.4-1.2C383.94,830.57,383.93,830.33,383.6,830.33Z" transform="translate(-111.87 -155.33)"/><path class="cls-58" d="M375.55,817.3a12.55,12.55,0,0,0-9.33,4,12.37,12.37,0,0,0-3.42,8.48c0,.09.18.09.19,0,.83-6.2,6.35-11.69,12.56-12.24A.1.1,0,0,0,375.55,817.3Z" transform="translate(-111.87 -155.33)"/><path class="cls-58" d="M348.06,803.49c-6.27,0-13.51,2.29-17.35,7.51-.15.2.13.41.32.31a86.89,86.89,0,0,1,17.15-7A.4.4,0,0,0,348.06,803.49Z" transform="translate(-111.87 -155.33)"/><path class="cls-58" d="M352.93,805.35c-6.28,0-13.52,2.29-17.36,7.5-.15.2.13.42.32.32a86.32,86.32,0,0,1,17.15-7A.39.39,0,0,0,352.93,805.35Z" transform="translate(-111.87 -155.33)"/><path class="cls-58" d="M357.78,807.2c-6.27,0-13.51,2.29-17.35,7.5-.15.21.13.42.32.32a86.29,86.29,0,0,1,17.15-7A.4.4,0,0,0,357.78,807.2Z" transform="translate(-111.87 -155.33)"/><path class="cls-58" d="M362.64,809.05c-6.27,0-13.51,2.29-17.35,7.51-.15.2.13.41.32.31a86.29,86.29,0,0,1,17.15-7A.4.4,0,0,0,362.64,809.05Z" transform="translate(-111.87 -155.33)"/><path class="cls-1" d="M286.82,813.73" transform="translate(-111.87 -155.33)"/><path class="cls-1" d="M307.87,810.58" transform="translate(-111.87 -155.33)"/><path class="cls-58" d="M283.84,833.7s-2.67-4.21-1.91-14.18c0,0,67.79,10.24,104.66,9.07,0,0,1.61,5.5.41,7.41S305.78,835.4,283.84,833.7Z" transform="translate(-111.87 -155.33)"/><path class="cls-58" d="M375.49,817.7s-10.11,2.23-9.8,11.28l-2.53-.19S364.62,816.87,375.49,817.7Z" transform="translate(-111.87 -155.33)"/><path class="cls-60" d="M253.4,444.17s-14.22,14.71-10.11,27.35c0,0,68.11,13.65,86.11,5.65s-25-26-25-26l-30-22Z" transform="translate(-111.87 -155.33)"/><path class="cls-60" d="M304.64,372s-20-3.81-24.74,15.23-26.65,57.1-26.65,57.1l23.79-19" transform="translate(-111.87 -155.33)"/><path class="cls-60" d="M301.79,372.91s12.37-3.8,19,1.91,12.66,19.47,9.19,43" transform="translate(-111.87 -155.33)"/><path class="cls-60" d="M323.61,386.79s4.82,30.85,20.05,48.93,8.68,35.8,8.68,35.8l-1.14-1.16s5.78-16.56-8.49-33.69-18.32-44.29-18.32-44.29" transform="translate(-111.87 -155.33)"/><polygon class="cls-60" points="172.79 237.56 159.47 281.34 219.42 293.71 220.37 270.87 217.52 251.84 212.76 228.05 202.29 222.34 195.63 219.48 173.74 231.85 172.79 237.56"/><path class="cls-57" d="M299.74,443.85c-3.93-.51-10.78-9.22-12.88-15.92-.14-.46,1.37-4.69,3-9.93.95-3.18,1.94-6.75,2.6-10.06l19.8,9.22a53.74,53.74,0,0,0-4.56,12.33,7.66,7.66,0,0,0-.13,1.39c0,.07,0,.15,0,.23C307.42,433.78,305.9,444.64,299.74,443.85Z" transform="translate(-111.87 -155.33)"/><path class="cls-61" d="M307.52,430.89a1.75,1.75,0,0,0,0,.23,13.2,13.2,0,0,1-2.18-.32c-12-2.68-12-18.12-11.8-22.33l18.68,8.69a53.74,53.74,0,0,0-4.56,12.33A10.21,10.21,0,0,0,307.52,430.89Z" transform="translate(-111.87 -155.33)"/><path class="cls-57" d="M290.67,385.6c-2.5,7.46.88,29.3,6.1,34.29,7.56,7.23,20.24,8.25,26.46-.91,6-8.88,1.12-37.26-4.73-41.82C309.87,370.44,294.36,374.59,290.67,385.6Z" transform="translate(-111.87 -155.33)"/><path class="cls-1" d="M310.22,399.28s-.1.09-.09.15c.33,1.45.47,3.17-.76,3.91,0,0,0,.1,0,.08C311,402.88,310.77,400.6,310.22,399.28Z" transform="translate(-111.87 -155.33)"/><path class="cls-1" d="M308.62,398c-2.39.28-1.65,5,.56,4.77S310.62,397.77,308.62,398Z" transform="translate(-111.87 -155.33)"/><path class="cls-1" d="M318.44,397.73c0-.05.13.06.13.12.19,1.47.64,3.14,2.05,3.42,0,0,.05.08,0,.08C319,401.37,318.38,399.16,318.44,397.73Z" transform="translate(-111.87 -155.33)"/><path class="cls-1" d="M319.52,396c2.34-.54,3.25,4.18,1.09,4.68S317.56,396.45,319.52,396Z" transform="translate(-111.87 -155.33)"/><path class="cls-57" d="M294.83,403.44c.15-.05-4.4-7.23-8.06-5.34-3.24,1.68.42,11.95,4.15,13.37a3.81,3.81,0,0,0,5.12-2Z" transform="translate(-111.87 -155.33)"/><path class="cls-61" d="M287.88,400.06c-.06,0-.07.07,0,.1,2.62,1.08,4,3.52,4.93,6a2.1,2.1,0,0,0-3.14-.59c-.07,0,0,.15.07.14a2.33,2.33,0,0,1,2.57.83,11.27,11.27,0,0,1,1.22,2.1c.12.23.55.11.46-.16a.14.14,0,0,1,0-.06C294,405.12,291.47,400.42,287.88,400.06Z" transform="translate(-111.87 -155.33)"/><path class="cls-57" d="M322,416.33a2,2,0,0,0-2-2.16h-4.21c-3,0-8.68.83-8.81,1.47-.32,1.57-.32,7.66,11.86,4.62A4.49,4.49,0,0,0,322,416.33Z" transform="translate(-111.87 -155.33)"/><path class="cls-1" d="M317.7,414.29s-3.91,2.51-8,.57C309.68,414.86,314.06,419.83,317.7,414.29Z" transform="translate(-111.87 -155.33)"/><path class="cls-60" d="M290.7,398.83l4.43,4.53s-2.61-19.12,10.45-23.31a9.53,9.53,0,0,0,3.82-2.38h0a22.14,22.14,0,0,0,6.52,4.6,17.38,17.38,0,0,1,9.36,11.28c3,12,6.82,33.73.71,52.58l16.25,13.69,7,5.92S346.51,444.29,338,431c-4.33-6.73-9.07-30.2-10.08-40.38a21.82,21.82,0,0,0-6.65-13.84A18.67,18.67,0,0,0,304.64,372s-23.79,0-23.79,23.79S253,444.47,253,444.47s19.64-12.46,30-16.31c0,0,3.3-.64,4.43-2.25s4-14,4-14a14.64,14.64,0,0,1-5.79-11.54s.19-3.39,3.17-2.56A4.56,4.56,0,0,1,290.7,398.83Z" transform="translate(-111.87 -155.33)"/><path class="cls-62" d="M322.72,384.33" transform="translate(-111.87 -155.33)"/><path class="cls-63" d="M308.69,425.58a30,30,0,0,0-1.27,6.82s20.17,14.92,24.4,18.64c0,0-11.19-18.17-6.81-36.25C325,414.79,323.21,425.91,308.69,425.58Z" transform="translate(-111.87 -155.33)"/><path class="cls-64" d="M310.12,394a2,2,0,0,1,.92,2.78s-5.56-1.86-8.35.93l-1.85.93a10.41,10.41,0,0,1,4.64-3.72A16.35,16.35,0,0,1,310.12,394Z" transform="translate(-111.87 -155.33)"/><path class="cls-64" d="M316.58,393.07a1.63,1.63,0,0,0,.09,2.34s3.65-3,6.51-1.66l1.65.18a8.39,8.39,0,0,0-4.51-1.48A12.84,12.84,0,0,0,316.58,393.07Z" transform="translate(-111.87 -155.33)"/><path class="cls-64" d="M315.11,401.46s2.86,3.81,2.86,6.66-4.76,1.91-4.76,1.91,4.76,0,3.8-2.86Z" transform="translate(-111.87 -155.33)"/><path class="cls-60" d="M309.4,377.67a57.08,57.08,0,0,1-10.47,9.52c-5.71,3.8-3.87,15.6-3.87,15.6l-1.57-20.06Z" transform="translate(-111.87 -155.33)"/><path class="cls-63" d="M285.53,401.46s1.66,20.58-15.58,33c0,0,10.91-4.81,16.75-6.6l4.88-16.15S286.7,409.83,285.53,401.46Z" transform="translate(-111.87 -155.33)"/><path class="cls-1" d="M307.58,398.43c-.34.22-.67.62-1.08.66s-.85-.35-1.17-.74c0,0-.06,0-.06,0,0,.76.29,1.53,1.1,1.63s1.26-.58,1.44-1.34C307.84,398.54,307.72,398.33,307.58,398.43Z" transform="translate(-111.87 -155.33)"/><path class="cls-1" d="M320.5,396.43c.34.22.67.62,1.09.66s.84-.35,1.16-.74c0,0,.06,0,.06,0,0,.76-.29,1.53-1.1,1.63s-1.26-.58-1.44-1.34C320.24,396.54,320.36,396.33,320.5,396.43Z" transform="translate(-111.87 -155.33)"/><path class="cls-65" d="M513.51,622.53v.39l30.66-.27A26.14,26.14,0,0,0,570,596.16L569.63,558a37.75,37.75,0,1,0-.53-61.9l-.33-37.35a26.13,26.13,0,0,0-26.24-26l-136.12,1.18a26.14,26.14,0,0,0-25.79,26.48l1.19,137.39a26.15,26.15,0,0,0,26.25,26l30.67-.27c0-.13,0-.25,0-.39a37.4,37.4,0,1,1,74.8-.64Z" transform="translate(-111.87 -155.33)"/><path class="cls-66" d="M514.21,614.7c0,.14,0,.26,0,.39l30.67-.26a26.16,26.16,0,0,0,25.79-26.49l-.33-38.13a37.74,37.74,0,1,0-.54-61.9L569.47,451a26.14,26.14,0,0,0-26.25-26L407.11,426.1a26.15,26.15,0,0,0-25.79,26.49L382.51,590a26.15,26.15,0,0,0,26.24,26l30.67-.27c0-.13,0-.26,0-.39a37.4,37.4,0,1,1,74.8-.65Z" transform="translate(-111.87 -155.33)"/><path class="cls-67" d="M228.57,698.92l63.14,7.3s67-103,60.26-138.59c-3.71-19.58-70.3-50.34-70.3-50.34l-6.74-13.53H228s-19.15,28.22-5.4,54.73c9.34,18,60.67,31.76,62.56,37.55C287.62,603.68,228.57,698.92,228.57,698.92Z" transform="translate(-111.87 -155.33)"/><path class="cls-1" d="M286.28,689.69c5.58-8.53,35.6-62.78,40.09-71.91,2.25-4.56,4.41-9.16,6.37-13.85a122.34,122.34,0,0,0,5.19-14.27c1.34-4.82,2.58-9.89,1.55-14.69a20.66,20.66,0,0,0-2.85-6.77,33.59,33.59,0,0,0-2.14-3.06c-.81-.95-1.61-1.92-2.49-2.82-7-7.22-15.82-12.58-24.66-17.54s-18.16-9.17-27.4-13.48c-2.31-1.1-4.61-2.2-6.88-3.36-1.14-.59-2.27-1.19-3.37-1.86a7.5,7.5,0,0,1-2.87-2.58c-2.57-4.49-3.62-9.61-4.11-14.66.61,5,1.8,10.13,4.43,14.46a7.24,7.24,0,0,0,2.8,2.38c1.1.62,2.23,1.2,3.37,1.75,2.29,1.11,4.62,2.15,6.94,3.18,9.3,4.17,18.64,8.31,27.66,13.13a140.49,140.49,0,0,1,13.18,7.86A76.18,76.18,0,0,1,333,561.35c.9.92,1.74,1.92,2.58,2.9a33.91,33.91,0,0,1,2.25,3.19,22.05,22.05,0,0,1,3.08,7.22,22.35,22.35,0,0,1,.16,7.86c-.24,1.27-.41,2.56-.71,3.82s-.59,2.51-1,3.74a125.77,125.77,0,0,1-5.31,14.43c-2,4.71-4.2,9.33-6.48,13.89C323.05,627.54,292.07,681.3,286.28,689.69Z" transform="translate(-111.87 -155.33)"/><path class="cls-67" d="M255.22,563.87S281,645.09,281.45,660c.4,12.73-1.23,125-1.23,125l65.23.38s-5.51-114.87-6.53-128.13c-1.9-24.8-23.63-92.88-39.16-153.53H229.43s.61,31.76,15.06,54.73C244.49,558.49,251,561.52,255.22,563.87Z" transform="translate(-111.87 -155.33)"/><path class="cls-1" d="M298,542c2.32,7.76,4.29,15.64,6.37,23.47s4.19,15.78,6.27,23.68c4,15.28,8,30.58,11,46.1a277.79,277.79,0,0,1,5.22,47.24c.35,16.17,0,32.37-.1,48.54s-.25,14.22-.53,30.47q0,3-.15,6.07a.15.15,0,0,1-.3,0c-.44-16.17-.21-14.07-.15-30.25s.26-32.36.13-48.54a291.39,291.39,0,0,0-4.15-47.91C318.83,625.31,315,610,311,594.68q-3.4-13.08-6.82-26.16c-2.28-8.78-4.72-17.53-6.72-26.38A.24.24,0,0,1,298,542Z" transform="translate(-111.87 -155.33)"/><path class="cls-1" d="M333.7,629.32c-2.43-8.43-4.71-16.89-7-25.36L320,578.55l-6.64-25.43q-1.65-6.37-3.4-12.7c-1.18-4.22-2.25-8.47-3.8-12.57,3.5,8.06,5.81,16.56,8.34,24.95s4.71,16.89,7,25.36,4.36,17,6.4,25.51S331.89,620.74,333.7,629.32Z" transform="translate(-111.87 -155.33)"/><path class="cls-1" d="M302,490.15l-2.28,13.61H228s23.26-58.13,46.57-72c11.66-6.94,21.8-3.15,26.4,5.5,1.16,2.19,12,26.15,11.1,36.83C311.23,483.48,302,490.15,302,490.15Z" transform="translate(-111.87 -155.33)"/><path class="cls-1" d="M300.59,498.81l-.34,1.95H229.2c.25-.57.54-1.23.84-1.95Z" transform="translate(-111.87 -155.33)"/><path class="cls-1" d="M301.31,494.46l-.32,2H231.1l.86-2Z" transform="translate(-111.87 -155.33)"/><path class="cls-57" d="M289.76,447.29c7.57,11,39.82,46.2,52.52,45,19.9-1.79,40.79-11.69,52.36-16.79,3.68-1.62-13.05-36.79-19.76-32.87-8.66,5.06-26.56,12.42-31.76,13.24-3.56.56-27.12-12.84-43.56-22.05C285.84,426.2,280.16,433.32,289.76,447.29Z" transform="translate(-111.87 -155.33)"/><path class="cls-57" d="M428.33,437.06c-5.56-1-9.7-2.17-12.35-2.48a9.65,9.65,0,0,0-1.13-.08h0a5.53,5.53,0,0,0-.59,0l.18.21c.95,1.14,5.45,6.81,5.68,11.92,0,.16,0,.32,0,.47a6.45,6.45,0,0,1-.1,1.17.17.17,0,0,1,0,.07,3.58,3.58,0,0,1-.09.45c-.39,1.63-1.25,4.92-2.38,8.49-.07.24-.15.49-.23.74l-.09.26c-.1.34-.22.68-.33,1-.6,1.78-1.26,3.57-1.95,5.2a24.59,24.59,0,0,1-3-.67,11.78,11.78,0,0,1-1.31,2.77,13.19,13.19,0,0,1-9.61,6.14l-6.29,2.77-1.17.52-2,.86-22.62-30.36,5.81-3.78.13-.08c1.26-.78,2.5-1.88,5-4.67,5.9-6.6,24.52-18.91,47.85-10.21C436.67,431.14,438.24,438.87,428.33,437.06Z" transform="translate(-111.87 -155.33)"/><path class="cls-57" d="M434,448.48c-.69,2.84-3.2,3.43-5.22,3.41a12.19,12.19,0,0,1-2.52-.3l-.23-.06h0l0,0c.11.06.5.34,1,.75h0c1.75,1.42,4.92,4.55,3.38,7.7A4.55,4.55,0,0,1,426,462.5a9.28,9.28,0,0,1-2.47-.38l-.15,0,.07.07a6.73,6.73,0,0,1,1.12,1.5h0a4.38,4.38,0,0,1-.24,5c-2.62,3.5-8.05-1.51-13.76-2.08a8.77,8.77,0,0,0-2.84.13c-1.49.33-21.24-34.13-21.24-34.13,4.61-.57,14.4-1.62,22.7.31.72.17,1.49.36,2.3.58,1.05.29,2.16.62,3.31,1h0l1.94.66h0C425.58,438.24,435.25,443.31,434,448.48Z" transform="translate(-111.87 -155.33)"/><path class="cls-57" d="M405.34,442.3c4.42.17,14.36,3.14,20.6,9,.14.14.12.31,0,.22a93,93,0,0,0-20.58-9.15A0,0,0,0,1,405.34,442.3Z" transform="translate(-111.87 -155.33)"/><path class="cls-57" d="M423.55,462.12a.05.05,0,0,1-.08,0l-.05,0c-2.12-1.41-4.21-2.69-6.21-3.83l-.57-.32a91,91,0,0,0-13.22-6.22,0,0,0,0,1,0-.08,43.42,43.42,0,0,1,14.09,5.62c.56.35,1.12.71,1.67,1.09a29.84,29.84,0,0,1,4.27,3.52A.21.21,0,0,1,423.55,462.12Z" transform="translate(-111.87 -155.33)"/><path class="cls-1" d="M333.62,451.79l-13.22,32.6s-21.23-21.55-31.78-36.4-4.62-22.11,11.21-15.5S333.62,451.79,333.62,451.79Z" transform="translate(-111.87 -155.33)"/><path class="cls-60" d="M416.79,435.16c-.15,0-1.05-.23-2.37-.43-2.86-.45-7.69-.89-11,.44a15.25,15.25,0,0,1,8.12-1.66,17.52,17.52,0,0,1,3.88.66l.58.41a9.65,9.65,0,0,0-1.13-.08Z" transform="translate(-111.87 -155.33)"/><path class="cls-60" d="M428.77,451.89a12.19,12.19,0,0,1-2.52-.3l-.28-.22a19.62,19.62,0,0,0-5.63-2.91l-.34-.1a30,30,0,0,0-11.6-1.19,20.6,20.6,0,0,1,6.82-1.12,20.16,20.16,0,0,1,3.45.29c.47.09.95.19,1.43.31A17.8,17.8,0,0,1,428.77,451.89Z" transform="translate(-111.87 -155.33)"/><path class="cls-60" d="M423.47,462.15a6.73,6.73,0,0,1,1.12,1.5,17.91,17.91,0,0,0-7.71-4.33,15.68,15.68,0,0,0-7.45-.16,16.08,16.08,0,0,1,7.21-1.18l.66.06a15.32,15.32,0,0,1,1.9.35,14.5,14.5,0,0,1,6.83,4.1h0a9.28,9.28,0,0,1-2.47-.38A.05.05,0,0,1,423.47,462.15Z" transform="translate(-111.87 -155.33)"/><path class="cls-57" d="M809.27,508.3c2.38-.41,2.18-1.66-1.59-3.7s-20.44-6.93-18.24-12.6,25.6,1.56,31.62,5.44,14.4,12.27,14.4,12.27C830.62,509.22,818.77,509.14,809.27,508.3Z" transform="translate(-111.87 -155.33)"/><path class="cls-68" d="M650.12,707.29c0-.13,0-.26,0-.39L619,707a26.44,26.44,0,0,0-26.33,26.54l.87,57.45c-6.23-4.29-14.53-25.85-22.69-25.82a38,38,0,1,0,.27,76c8.16,0,17.23-11.87,23.43-16.2l-1.38,46.89a26.43,26.43,0,0,0,26.52,26.35l138.25-.5a26.43,26.43,0,0,0,26.33-26.53l-.5-138.35a26.45,26.45,0,0,0-26.52-26.35l-31.15.11c0,.14,0,.26,0,.39a38,38,0,1,1-76,.28Z" transform="translate(-111.87 -155.33)"/><path class="cls-69" d="M587,782c.13,0,.33-15.23.47-15.22V735.89C587.47,721.43,570.6,709,556,709l-33.38.69a38,38,0,1,0-62.33,0H422.67a26.33,26.33,0,0,0-26.44,26.2V873a26.33,26.33,0,0,0,26.44,26.2H561A26.34,26.34,0,0,0,587.47,873l.53-24c-.13,0,1.13-39,1-39-21,0-39.94,15.23-39.94-5.57S566,782,587,782Z" transform="translate(-111.87 -155.33)"/><path class="cls-70" d="M576,769c.13,0,3.44,1.07,3.58,1.08v-35a26.32,26.32,0,0,0-26.44-26.2h-38.4a38,38,0,1,0-62.33,0H414.8a26.32,26.32,0,0,0-26.44,26.2V872.2a26.32,26.32,0,0,0,26.44,26.2H553.15a26.32,26.32,0,0,0,26.44-26.2V841.32c-.13,0,.12-3.05,0-3.05-21,0-38.39-13.8-38.39-34.61S555,769,576,769Z" transform="translate(-111.87 -155.33)"/><path class="cls-71" d="M644,707.65v-.39l-30.88.11A26.32,26.32,0,0,0,587,733.91l.13,38.4a38,38,0,1,0,.23,62.33l.13,37.62a26.34,26.34,0,0,0,26.3,26.35l137.07-.5A26.33,26.33,0,0,0,777,871.57l-.5-138.34a26.34,26.34,0,0,0-26.3-26.35l-30.88.11c0,.13,0,.26,0,.39a37.66,37.66,0,1,1-75.32.27Z" transform="translate(-111.87 -155.33)"/><path class="cls-57" d="M811.32,889.8c3.3,1.07,97.67.25,101.25-2.06,1.37-.86,2-14.62,2.4-31.25.07-3.6.13-7.31.17-11.08.27-24.47,0-50.44,0-50.44l-63.13.37,1.76,50.43.37,11.07s-36,16.48-39.64,19.43S808,888.72,811.32,889.8Z" transform="translate(-111.87 -155.33)"/><path class="cls-58" d="M811.32,889.8c3.3,1.07,97.67.25,101.25-2.06,1.66-1.06,2.32-21.14,2.57-42.33l-61.39.36.37,11.07s-36,16.48-39.64,19.43S808,888.72,811.32,889.8Z" transform="translate(-111.87 -155.33)"/><path class="cls-72" d="M806.72,889.59c3.48,1.21,103.34,2.37,107.18,0,1.46-.89,2.48-15.42,3.21-33l-64.38-.94s-38.44,16.66-42.37,19.7S803.25,888.38,806.72,889.59Z" transform="translate(-111.87 -155.33)"/><path class="cls-1" d="M817.21,871a13.49,13.49,0,0,1,10,4.21,13,13,0,0,1,3.63,9c0,.1-.19.1-.2,0-.88-6.56-6.77-12.38-13.4-13A.11.11,0,0,1,817.21,871Z" transform="translate(-111.87 -155.33)"/><path class="cls-1" d="M846.6,856.36c6.7,0,14.44,2.44,18.54,8,.16.21-.15.44-.35.33a92.74,92.74,0,0,0-18.32-7.48A.42.42,0,0,1,846.6,856.36Z" transform="translate(-111.87 -155.33)"/><path class="cls-1" d="M841.4,858.32c6.7,0,14.44,2.44,18.54,8,.16.21-.15.43-.34.33a92.23,92.23,0,0,0-18.33-7.48A.42.42,0,0,1,841.4,858.32Z" transform="translate(-111.87 -155.33)"/><path class="cls-1" d="M836.2,860.27c6.71,0,14.45,2.44,18.55,8,.15.22-.15.44-.35.33a92.71,92.71,0,0,0-18.32-7.47A.42.42,0,0,1,836.2,860.27Z" transform="translate(-111.87 -155.33)"/><path class="cls-1" d="M831,862.23c6.7,0,14.44,2.44,18.54,8,.16.21-.15.43-.35.33a92.74,92.74,0,0,0-18.32-7.48A.42.42,0,0,1,831,862.23Z" transform="translate(-111.87 -155.33)"/><path class="cls-1" d="M913.73,889.66S917,884,916.2,873.48c0,0-71.3,10.51-110.71,9.23,0,0-1,4.35.32,6.38S890.27,891.43,913.73,889.66Z" transform="translate(-111.87 -155.33)"/><path class="cls-1" d="M817.27,871.38s10.8,2.37,10.46,12l2.7-.2S828.89,870.5,817.27,871.38Z" transform="translate(-111.87 -155.33)"/><path class="cls-57" d="M980.8,889.5c3.46-.34,89.54-39,91.89-42.58.9-1.34-4-14.21-10.37-29.58-1.38-3.32-2.81-6.74-4.3-10.21-9.59-22.51-20.29-46.18-20.29-46.18l-57.66,25.72L1002,832.14l4.8,10s-26.33,29.55-28.49,33.72S977.34,889.85,980.8,889.5Z" transform="translate(-111.87 -155.33)"/><path class="cls-58" d="M980.8,889.5c3.46-.34,89.54-39,91.89-42.58,1.09-1.64-6.38-20.29-14.67-39.79l-56.07,25,4.8,10s-26.33,29.55-28.49,33.72S977.34,889.85,980.8,889.5Z" transform="translate(-111.87 -155.33)"/><path class="cls-72" d="M976.51,891.16c3.67-.29,95.58-39.37,98.14-43.07,1-1.4-3.93-15.12-10.33-31.53l-59.33,25s-28.5,30.7-30.87,35.06S972.84,891.45,976.51,891.16Z" transform="translate(-111.87 -155.33)"/><path class="cls-1" d="M978.62,869.88a13.46,13.46,0,0,1,10.82-.16,13,13,0,0,1,6.94,6.77c0,.09-.13.16-.19.07-3.44-5.65-11.18-8.61-17.49-6.49A.1.1,0,0,1,978.62,869.88Z" transform="translate(-111.87 -155.33)"/><path class="cls-1" d="M999.66,844.71c6.13-2.71,14.21-3.57,20.18-.16.24.13,0,.46-.18.44a92.84,92.84,0,0,0-19.78.52A.42.42,0,0,1,999.66,844.71Z" transform="translate(-111.87 -155.33)"/><path class="cls-1" d="M995.69,848.59c6.13-2.71,14.21-3.57,20.18-.16.23.13,0,.46-.18.44a92.8,92.8,0,0,0-19.78.52A.42.42,0,0,1,995.69,848.59Z" transform="translate(-111.87 -155.33)"/><path class="cls-1" d="M991.72,852.47c6.13-2.71,14.21-3.57,20.18-.16.23.13,0,.46-.18.44a92.8,92.8,0,0,0-19.78.52A.42.42,0,0,1,991.72,852.47Z" transform="translate(-111.87 -155.33)"/><path class="cls-1" d="M987.75,856.35c6.13-2.71,14.2-3.57,20.18-.16.23.13,0,.46-.18.44a92.8,92.8,0,0,0-19.78.52A.42.42,0,0,1,987.75,856.35Z" transform="translate(-111.87 -155.33)"/><path class="cls-1" d="M1074.52,848.22s.73-6.46-4.24-15.81c0,0-61.06,38.28-97.66,53,0,0,.87,4.37,2.85,5.71S1053.75,859.26,1074.52,848.22Z" transform="translate(-111.87 -155.33)"/><path class="cls-1" d="M978.85,870.25s10.84-2.17,14.38,6.74l2.39-1.27S989.13,864.78,978.85,870.25Z" transform="translate(-111.87 -155.33)"/><path class="cls-73" d="M908,456.65c-10.37,4.94-46.67,14.3-61.77,4.22-13.53-9-14.67-73.87-9-94.65,2-7.3,30.79,6.69,33.84,12.82,2.62,5.27-1.65,54.21.44,55.28,3.52,1.81,14.94,3.16,33.15,5.71C921.76,442.43,915.31,453.17,908,456.65Z" transform="translate(-111.87 -155.33)"/><path class="cls-1" d="M871.78,400.48l-38.52-18.23s-6.64,66,12.17,79.91c4.34,3.21,33.21,8.53,60.41-3.11,8.42-3.6,21.49-16-3.52-20s-29.57-5.35-30-6S871.78,400.48,871.78,400.48Z" transform="translate(-111.87 -155.33)"/><g class="cls-74"><path class="cls-1" d="M853.23,414.82a3.32,3.32,0,0,0,4.57-.4c2.21-2.49,1.14-6.74,0-9.56s-3.15-5.89-6.45-6.4c-2.1-.32-3.29,1.51-2.9,3.38.45,2.18,1.59,4.18,2.15,6.35C851.22,410.53,851.1,413.26,853.23,414.82Z" transform="translate(-111.87 -155.33)"/><path class="cls-1" d="M857,428.1c1.94-1.05,2.27-3.85,2.25-5.81a5.46,5.46,0,0,0-.87-3c-.79-1.17-2.52-1.94-3.79-1a3.64,3.64,0,0,0-1.39,2.35,7.55,7.55,0,0,0-.16,1.43,1,1,0,0,0,0,.15s0,.08,0,.13c-.25,1.43-.71,2.93-.24,4.35C853.41,428.6,855.49,428.94,857,428.1Z" transform="translate(-111.87 -155.33)"/><path class="cls-1" d="M867.44,423.6c1.57-3.34,1.55-7.25.86-10.81-.56-2.87-1.65-7.58-5-8.33a1.71,1.71,0,0,0-1.81.93c-1.33,2.16,0,5.89.23,8.25.26,3,0,6,.28,9A2.86,2.86,0,0,0,867.44,423.6Z" transform="translate(-111.87 -155.33)"/><path class="cls-1" d="M849.15,438.47a4,4,0,0,0,1.52.71,3.42,3.42,0,0,0,2.45-.52,5.52,5.52,0,0,0,1.69-2.05,5.19,5.19,0,0,0,.49-2.46c-.06-.25-.11-.51-.16-.77l-.37-.72a3,3,0,0,0-1.58-1.14,3,3,0,0,0-3.23.91,15,15,0,0,0-1.67,2.14l-.25.79a2.34,2.34,0,0,0,0,1.26A3.1,3.1,0,0,0,849.15,438.47Z" transform="translate(-111.87 -155.33)"/><path class="cls-1" d="M859.3,437.51a2.75,2.75,0,0,0,3.18-.7,6.7,6.7,0,0,0,1.38-3.21,5.79,5.79,0,0,0-.11-3.25,2.11,2.11,0,0,0-3.58-.66A10.55,10.55,0,0,0,859,432c-.16.35-.35.67-.54,1a7.43,7.43,0,0,0-.6,1.59A2.68,2.68,0,0,0,859.3,437.51Z" transform="translate(-111.87 -155.33)"/></g><path class="cls-1" d="M834.32,392.13c3.2,1,6.28,2.49,9.36,3.81s6.07,2.63,9.08,4c6.1,2.72,12.3,5.31,18.21,8.42a.12.12,0,0,1-.09.23c-6.39-2.13-12.58-4.92-18.74-7.62q-4.64-2-9.21-4.19a89.27,89.27,0,0,1-8.74-4.4C834.06,392.27,834.19,392.09,834.32,392.13Z" transform="translate(-111.87 -155.33)"/><path class="cls-75" d="M905.84,459.06c-27.19,11.63-56.08,6.31-60.4,3.1-8.72-6.46-12-24.11-13-41.2l39.59,8.94a21.06,21.06,0,0,0,.21,3.19c.46.62,5,2,30,6S914.26,455.44,905.84,459.06Z" transform="translate(-111.87 -155.33)"/><path class="cls-76" d="M936.37,548.24S920,710.49,919.58,712.54c-.06.27-.17,3.4-.33,8.49-.88,27.93-3.06,115-3.06,115H849.26s4.36-103.15,6.87-127.22c3.2-30.69,23.34-160.59,23.34-160.59Z" transform="translate(-111.87 -155.33)"/><path d="M936.37,548.24S920,710.49,919.58,712.54c-.06.27-.17,3.4-.33,8.49L887.7,548.24Z" transform="translate(-111.87 -155.33)"/><path class="cls-76" d="M879.47,548.24s4.41,23.44,20.76,35.36c0,0,36,120.65,40.74,134.48,8.07,23.84,51.46,104.6,51.46,104.6l67-28.75s-51.08-90-56.59-96.9C999.14,692.43,972,594.64,972,592.1c-.57-28.73-10.2-44-10.2-44Z" transform="translate(-111.87 -155.33)"/><path d="M933.65,556.73a22.34,22.34,0,0,0,8.2,11.76c4.33,3.3,9.53,4.68,14.87,5.1.9.07,1,1.43,0,1.44-10.92.06-21.94-6.91-23.54-18.23C933.17,556.55,933.59,556.49,933.65,556.73Z" transform="translate(-111.87 -155.33)"/><path d="M889.76,576.17a60,60,0,0,1,11.27,6c3.75,2.31,7.21,5,10.83,7.53.14.1,0,.33-.14.24-3.79-2.18-7.74-4.08-11.49-6.33a71.32,71.32,0,0,1-10.64-7.13C889.47,576.36,889.59,576.11,889.76,576.17Z" transform="translate(-111.87 -155.33)"/><path d="M888.22,553.42c.59,2.5,1.31,5,2,7.45s1.1,4.71,1.83,7a12.09,12.09,0,0,0,3.57,5.78c1,.81,2,1.52,3,2.26.55.4,1.14.78,1.71,1.19-.09-.33-.16-.67-.24-1-.21-1-.41-1.9-.62-2.85q-.68-3.15-1.31-6.33c-.83-4.15-1.61-8.35-2.67-12.45a.13.13,0,1,1,.25-.08c1.23,4.06,2.57,8.06,3.67,12.16.53,2,2.58,12,2.68,12.67s.2,1.46.26,2.19a9,9,0,0,1,.11,2.25.18.18,0,0,1-.34.05h0a8.42,8.42,0,0,1-.74-2.15c-.22-.7-.41-1.42-.57-2.14-.06-.26-.11-.53-.16-.8-1-.55-2-1.3-2.92-1.93s-2.08-1.33-3.05-2.08a11.32,11.32,0,0,1-3.86-5.46A41.41,41.41,0,0,1,889.3,562c-.44-2.84-.81-5.69-1.34-8.51C887.93,553.33,888.18,553.25,888.22,553.42Z" transform="translate(-111.87 -155.33)"/><path d="M957.43,551a55.45,55.45,0,0,1,9.27,29.83,47.87,47.87,0,0,1-.58,7.93c-.11.65-.19,1.31-.34,2l-.2,1a2.75,2.75,0,0,0-.12.83c.16,1.21.48,2.53.77,3.8,1.2,5.1,2.55,10.19,3.9,15.27,5.46,20.3,11,40.6,16.79,60.81l4.37,15.15c.75,2.52,1.5,5,2.3,7.53.4,1.24.81,2.51,1.28,3.65s1.1,2.31,1.74,3.47c5,9.24,10.31,18.31,15.49,27.46,0,0,26.4,44.34,31.83,54.56.25.48.13.78-.36.15-4.72-6.15-21.92-35.93-32.63-54-5.37-9.05-10.66-18.13-15.72-27.39-.65-1.14-1.23-2.37-1.83-3.57s-.92-2.53-1.34-3.79c-.82-2.51-1.59-5-2.35-7.55q-2.28-7.56-4.44-15.15c-5.66-20.27-11.25-40.56-16.37-61-1.27-5.11-2.54-10.21-3.68-15.37a39.86,39.86,0,0,1-.72-3.94,3.4,3.4,0,0,1,.15-1.12l.21-1c.15-.63.24-1.28.36-1.92a52,52,0,0,0,.7-7.78A55.69,55.69,0,0,0,957.43,551Z" transform="translate(-111.87 -155.33)"/><path class="cls-1" d="M967.21,557.41,874,558c0,1.82,4.72-73,28.61-117.17,1.63-3,16.25-6.33,22.74-.43C953.85,466.33,967.21,558.6,967.21,557.41Z" transform="translate(-111.87 -155.33)"/><g class="cls-74"><path class="cls-1" d="M901.65,536.05c-2.42-2-5.95-1.49-7,1.74-1.19,3.67,1.2,7.27,4.39,9a12.13,12.13,0,0,0,10.88.44c3.27-1.48,2.38-6.59-.86-7.46-1.47-.4-3.24-.46-4.62-1.15C903.28,538,902.63,536.87,901.65,536.05Z" transform="translate(-111.87 -155.33)"/><path class="cls-1" d="M897.56,523.88c-1.93,5.54,6.23,11.51,11.11,9.06a3,3,0,0,0,.71-4.71c-1.17-1.24-2.26-1.54-3.3-2.66a4.82,4.82,0,0,1-.93-1.25,8.17,8.17,0,0,0-2.21-2.55C900.93,520.29,898.27,521.84,897.56,523.88Z" transform="translate(-111.87 -155.33)"/><path class="cls-1" d="M883.5,522.41c-2.1,2.12-1.19,5.84.13,8.17a7.26,7.26,0,0,0,6.16,4,2.46,2.46,0,0,0,1.78-4.11,7.5,7.5,0,0,1-2-3.21c-.56-1.86-.81-4.22-2.68-5.24A2.9,2.9,0,0,0,883.5,522.41Z" transform="translate(-111.87 -155.33)"/><path class="cls-1" d="M918.53,533a2.78,2.78,0,0,0-2.76,2.71,3.26,3.26,0,0,0,2.71,3.16,5,5,0,0,0,3.11-.35,2.35,2.35,0,0,0,1.08-1.22,2.38,2.38,0,0,0,.15-1.64,2.62,2.62,0,0,0-2.28-1.91,2.24,2.24,0,0,0-.37-.28A3.18,3.18,0,0,0,918.53,533Z" transform="translate(-111.87 -155.33)"/><path class="cls-1" d="M890.09,509.28c-2.18,2.85-.43,8.53,2.58,10.16a2.68,2.68,0,0,0,4-2.24,11.29,11.29,0,0,0-.18-1.76c-.09-.63-.2-1-.22-1.41a14.27,14.27,0,0,0-.32-3.87A3.29,3.29,0,0,0,890.09,509.28Z" transform="translate(-111.87 -155.33)"/><path class="cls-1" d="M882.1,539c-3,4.47,3.52,10.78,8,10.39,1.49-.13,3.14-1.86,2-3.39-.89-1.22-2-2.26-2.84-3.55-1-1.56-1.41-3.47-3.18-4.42A3,3,0,0,0,882.1,539Z" transform="translate(-111.87 -155.33)"/></g><g class="cls-74"><path class="cls-1" d="M950.67,530.54c-.27,1.7-.17,3.18-1.25,4.62s-2.46,2.41-3.21,4.1a2.21,2.21,0,0,0,2.38,3c5-1.15,8.91-6.62,7.84-11.79A2.92,2.92,0,0,0,950.67,530.54Z" transform="translate(-111.87 -155.33)"/><path class="cls-1" d="M943.86,516.76c-.6,2.12-.18,4.38-.62,6.58a52.64,52.64,0,0,1-1.53,5.93c-.46,1.4,1,3.37,2.57,2.46a11.28,11.28,0,0,0,5.38-6.22c.86-2.46,1.64-6.52.26-8.89C948.66,514.45,944.73,513.69,943.86,516.76Z" transform="translate(-111.87 -155.33)"/><path class="cls-1" d="M937.77,538a13.59,13.59,0,0,1-4.17,4.33,3.22,3.22,0,0,0-1.45,4.58c1.09,1.8,3.08,1.86,4.73.86a11.51,11.51,0,0,0,5.59-8C942.9,537.19,939.23,535.93,937.77,538Z" transform="translate(-111.87 -155.33)"/></g><g class="cls-74"><path class="cls-1" d="M913.89,471.23a3.32,3.32,0,0,0,3.58-2.86c.46-3.3-2.78-6.25-5.28-8s-5.88-3.16-8.91-1.76c-1.93.88-1.91,3.07-.55,4.42,1.58,1.56,3.64,2.6,5.31,4.09S911.25,471.11,913.89,471.23Z" transform="translate(-111.87 -155.33)"/><path class="cls-1" d="M924.4,480.19c1-1.94-.24-4.47-1.34-6.09a5.52,5.52,0,0,0-2.38-2c-1.31-.54-3.17-.23-3.71,1.26a3.59,3.59,0,0,0,.14,2.73,8.56,8.56,0,0,0,.65,1.28l.08.13a1.17,1.17,0,0,1,0,.11c.59,1.33,1,2.83,2.21,3.77A2.85,2.85,0,0,0,924.4,480.19Z" transform="translate(-111.87 -155.33)"/><path class="cls-1" d="M930.58,470.68c-.54-3.65-2.72-6.89-5.26-9.48-2.05-2.08-5.57-5.4-8.74-4.2a1.73,1.73,0,0,0-1,1.78c.09,2.53,3.29,4.89,4.76,6.74,1.86,2.35,3.29,5,5.19,7.32A2.86,2.86,0,0,0,930.58,470.68Z" transform="translate(-111.87 -155.33)"/><path class="cls-1" d="M923.57,493.19a3.88,3.88,0,0,0,1.65-.25,3.46,3.46,0,0,0,1.76-1.79,5.38,5.38,0,0,0,.27-2.64,5.09,5.09,0,0,0-1-2.32l-.56-.55-.71-.4a3,3,0,0,0-1.94-.08,3.05,3.05,0,0,0-2.19,2.55,15.28,15.28,0,0,0-.21,2.7c.08.27.16.54.23.81a2.43,2.43,0,0,0,.73,1A3.12,3.12,0,0,0,923.57,493.19Z" transform="translate(-111.87 -155.33)"/><path class="cls-1" d="M931.49,486.77a2.77,2.77,0,0,0,2.27-2.34,6.82,6.82,0,0,0-.63-3.44,5.94,5.94,0,0,0-1.89-2.65,2.13,2.13,0,0,0-3.35,1.44,10.62,10.62,0,0,0,.28,2.62c.05.37.07.75.1,1.13a6.81,6.81,0,0,0,.38,1.65A2.65,2.65,0,0,0,931.49,486.77Z" transform="translate(-111.87 -155.33)"/></g><path class="cls-57" d="M911.62,455.21c3.83-.5,10.49-9,12.53-15.49.14-.44-1.33-4.57-2.88-9.66-.92-3.09-1.88-6.56-2.53-9.79l-19.25,9a52.56,52.56,0,0,1,4.43,12,7.16,7.16,0,0,1,.13,1.35,1.93,1.93,0,0,0,0,.23C904.16,445.42,905.63,456,911.62,455.21Z" transform="translate(-111.87 -155.33)"/><path class="cls-61" d="M904.05,442.6a1.48,1.48,0,0,1,0,.23,14.64,14.64,0,0,0,2.11-.32c11.68-2.61,11.71-17.63,11.49-21.72l-18.18,8.45a52.36,52.36,0,0,1,4.44,12A9.45,9.45,0,0,1,904.05,442.6Z" transform="translate(-111.87 -155.33)"/><path class="cls-57" d="M920.45,398.54c2.43,7.26-.86,28.5-5.93,33.36-7.36,7-19.7,8-25.75-.89-5.87-8.63-1.09-36.24,4.61-40.68C901.77,383.78,916.86,387.82,920.45,398.54Z" transform="translate(-111.87 -155.33)"/><path class="cls-1" d="M901.43,411.85c0-.06.1.09.08.14-.32,1.42-.45,3.09.75,3.81,0,0,0,.09,0,.08C900.7,415.35,900.9,413.13,901.43,411.85Z" transform="translate(-111.87 -155.33)"/><path class="cls-1" d="M903,410.61c2.32.27,1.6,4.89-.55,4.64S901,410.38,903,410.61Z" transform="translate(-111.87 -155.33)"/><path class="cls-1" d="M893.43,410.34s-.12.05-.13.11c-.17,1.44-.62,3.06-2,3.33,0,0,0,.08,0,.08C892.93,413.89,893.49,411.73,893.43,410.34Z" transform="translate(-111.87 -155.33)"/><path class="cls-1" d="M892.38,408.65c-2.27-.53-3.16,4.06-1.06,4.55S894.29,409.09,892.38,408.65Z" transform="translate(-111.87 -155.33)"/><path class="cls-1" d="M900.69,425.42c-.39.29-.81.7-1.33.66a3.87,3.87,0,0,1-1.49-.6.05.05,0,0,0-.07.07,2,2,0,0,0,1.7,1.05,1.54,1.54,0,0,0,1.32-1.09C900.85,425.43,900.75,425.38,900.69,425.42Z" transform="translate(-111.87 -155.33)"/><path class="cls-57" d="M916.4,415.89s4.73-6.87,7.85-5.19-.41,11.62-4,13a3.7,3.7,0,0,1-5-2Z" transform="translate(-111.87 -155.33)"/><path class="cls-77" d="M923.17,412.6a.05.05,0,0,1,0,.1c-2.55,1.05-3.88,3.43-4.8,5.89a2,2,0,0,1,3.05-.58c.07.05,0,.15-.07.14a2.28,2.28,0,0,0-2.5.81,11.17,11.17,0,0,0-1.18,2c-.12.23-.54.11-.45-.16,0,0,0,0,0,0C917.17,417.53,919.67,413,923.17,412.6Z" transform="translate(-111.87 -155.33)"/><path class="cls-64" d="M908.45,406.07a5.74,5.74,0,0,0-3.91-1.3,5.71,5.71,0,0,1-3.91-1.3s0,2.6,1.3,2.6S905.84,404.77,908.45,406.07Z" transform="translate(-111.87 -155.33)"/><path class="cls-60" d="M916.77,418.65s-.14-.74-3.28,2.89c-1.42,1.63-3.14,4.23-5.21,3.59-2.33-.72-5.38-2.93-8.87-2-6.06,1.56-12-4.28-13.19-.75-.93,2.78,2.79,10.53,5,13.94a5.29,5.29,0,0,0,4.62,2.38c3.31-.12,8.56-.47,11.21-1.5,4-1.56,9.09-3.13,11.11-7.82S916.77,424.9,916.77,418.65Z" transform="translate(-111.87 -155.33)"/><path class="cls-57" d="M890,428.43a1.94,1.94,0,0,1,2-2.1h4.09c3,0,8.45.81,8.58,1.43.31,1.53.31,7.46-11.54,4.5A4.38,4.38,0,0,1,890,428.43Z" transform="translate(-111.87 -155.33)"/><path class="cls-1" d="M893.05,426.45A11,11,0,0,0,902,427S897.09,431.84,893.05,426.45Z" transform="translate(-111.87 -155.33)"/><path class="cls-77" d="M895.16,414.69s-3.35,5-2.24,6.13,7.25,0,7.25,0,1.68-1.11-2.78-.55-3.91-.56-3.91-.56S893.48,418,895.16,414.69Z" transform="translate(-111.87 -155.33)"/><path class="cls-63" d="M916.77,418.65s-1-1-5.62,5.51-2.71,7.45-5.49,11.15c-2,2.67-.91,1.91-7.86,3.27A30.15,30.15,0,0,0,916,432.53s3.82-3.79,2.78-6.52S916.77,422.35,916.77,418.65Z" transform="translate(-111.87 -155.33)"/><path class="cls-64" d="M900.71,404.38s0,2,1.57,1.67a28.84,28.84,0,0,1,3.31-.55S902.25,405.85,900.71,404.38Z" transform="translate(-111.87 -155.33)"/><path class="cls-64" d="M888,406.06a5.71,5.71,0,0,1,3.91-1.3,5.68,5.68,0,0,0,3.91-1.31s0,2.61-1.3,2.61S890.61,404.76,888,406.06Z" transform="translate(-111.87 -155.33)"/><path class="cls-64" d="M895.73,404.37s0,2-1.56,1.66a30.21,30.21,0,0,0-3.31-.54S894.2,405.84,895.73,404.37Z" transform="translate(-111.87 -155.33)"/><path class="cls-76" d="M865,459v7.3s23.19-1.46,27.63-2.92c0,0,4.43-8.76,8.87-11.68,0,0-23.2,5.84-36.5,1.46Z" transform="translate(-111.87 -155.33)"/><path class="cls-76" d="M861.76,502.11s14-.13,16.13,8.36a19,19,0,0,0-9.53-14.13S865.5,500.73,861.76,502.11Z" transform="translate(-111.87 -155.33)"/><polyline points="802.81 534.37 795.67 680.71 804.27 680.36 808 554.65"/><path class="cls-57" d="M917.31,466.43c-2.92,13.42-18.53,65.5-35.73,71.33-20.83,7-49,8.4-62.18,5.31-7.36-1.74,3.2-33.63,10-32.9,10.74,1.15,29.9-6,33.82-6.57s26.26-27.11,38.75-41.7C913.21,448.76,919,458.52,917.31,466.43Z" transform="translate(-111.87 -155.33)"/><path class="cls-1" d="M836.91,504l-5.46,43.47s41-3.22,54.95-12.34,25.93-40.9,31.5-60.5-4.5-28.5-22.81-8.17c-21.45,23.81-30.21,35.12-31.85,35.86S836.91,504,836.91,504Z" transform="translate(-111.87 -155.33)"/><g class="cls-74"><path class="cls-1" d="M880.43,528.92c-1.35,1.07-2.26,2.24-4,2.57s-3.45.14-5.13.89a2.21,2.21,0,0,0-.23,3.78c4.51,2.54,11.05,1.09,13.74-3.46A2.92,2.92,0,0,0,880.43,528.92Z" transform="translate(-111.87 -155.33)"/><path class="cls-1" d="M884.65,514.13c-1.87,1.17-3.08,3.13-4.89,4.46a52.31,52.31,0,0,1-5.11,3.36c-1.28.73-1.5,3.19.25,3.55a11.25,11.25,0,0,0,8.16-1c2.29-1.24,5.6-3.72,6.17-6.4C889.75,515.65,887.36,512.45,884.65,514.13Z" transform="translate(-111.87 -155.33)"/><path class="cls-1" d="M865.87,525.77a13.7,13.7,0,0,1-6,.4,3.22,3.22,0,0,0-4.15,2.42c-.4,2.06,1,3.44,2.92,3.81a11.52,11.52,0,0,0,9.5-2.14C870.21,528.62,868.33,525.22,865.87,525.77Z" transform="translate(-111.87 -155.33)"/></g><g class="cls-74"><path class="cls-1" d="M910,474.19a3.31,3.31,0,0,0,2.77-3.65c-.37-3.31-4.24-5.37-7.09-6.42s-6.48-1.61-9.07.5c-1.65,1.33-1.09,3.45.56,4.42,1.92,1.12,4.17,1.61,6.16,2.65S907.42,474.73,910,474.19Z" transform="translate(-111.87 -155.33)"/><path class="cls-1" d="M917.12,473.44c-.47,1.87-1,3.88-1.62,6,0,0,0,0,0,0s-.05-.07-.08-.1a1.2,1.2,0,0,0-.11-.1c-.35-.38-.66-.69-1-1.08a3.71,3.71,0,0,1-.81-2.6c.17-1.59,1.89-2.35,3.29-2.15A1.36,1.36,0,0,1,917.12,473.44Z" transform="translate(-111.87 -155.33)"/><path class="cls-1" d="M918.52,461.61a35.32,35.32,0,0,1-.58,8.09c-1-.9-2-1.81-3.09-2.63-1.89-1.43-5.56-2.93-6.27-5.36a1.67,1.67,0,0,1,.52-2C911.84,457.82,916,460.1,918.52,461.61Z" transform="translate(-111.87 -155.33)"/></g><path class="cls-1" d="M836.7,503.67c3.86-.47,19.5-.9,23.36-1.38a8.09,8.09,0,0,0,4.62-2.09C866.1,498.91,889,474,891.46,471c.1-.12.3,0,.2.15-2.65,2.95-20.09,23.66-22.82,26.64a36.46,36.46,0,0,1-3.85,3.91,7.32,7.32,0,0,1-4.62,1.61c-3.72.1-18.22.6-23.29.8-.1,0-.4,2-.5,2h-.2A7.89,7.89,0,0,1,836.7,503.67Z" transform="translate(-111.87 -155.33)"/><path class="cls-69" d="M679.24,426.38h-.38v29.9a25.5,25.5,0,0,0,25.61,25.38h37.18a36.82,36.82,0,1,0,60.37,0h36.43a25.5,25.5,0,0,0,25.61-25.38V323.54a25.49,25.49,0,0,0-25.61-25.37h-134a25.49,25.49,0,0,0-25.61,25.37v29.91h.38a36.47,36.47,0,1,1,0,72.94Z" transform="translate(-111.87 -155.33)"/><path class="cls-78" d="M686.86,427.13h-.38V457a25.49,25.49,0,0,0,25.61,25.37h37.19a36.81,36.81,0,1,0,60.36,0h36.43A25.49,25.49,0,0,0,871.68,457V324.28a25.49,25.49,0,0,0-25.61-25.37h-134a25.49,25.49,0,0,0-25.61,25.37v29.91h.38a36.48,36.48,0,1,1,0,72.95Z" transform="translate(-111.87 -155.33)"/><path class="cls-57" d="M876.69,387.64c1-5.91,5.5-14.13,4.84-18.54a5.13,5.13,0,0,0-4.18-4.46s3.68-3.3,2.42-7.2c-.65-2-4.43-2.74-4.43-2.74s2.83-2.77,1.49-6.17c-1.06-2.71-4.69-3-4.69-3s1.48-3.92-.5-6.34c-4-4.89-28.1,1.74-29.38,11.65-.6,4.62,5.21,2.68,5.21,2.68s-7.67,4.8-6.43,9.81,8.62,2,8.62,2-7.38,4.73-5.57,9.79c1.88,5.26,8.76,1,8.76,1s-4.36,5.11-2.09,8.67c3.75,5.87,11.68-5,17.32-5.2l5.33,7.93Z" transform="translate(-111.87 -155.33)"/><path class="cls-57" d="M879.43,378.71c-.5,5.69,7.64,10.29,7.94,15.8.41,7.44-9.39,2.73-14-7l-2.22-8.17Z" transform="translate(-111.87 -155.33)"/><path class="cls-57" d="M871.6,345.21c.08,0,.08-.14,0-.13-8.46.25-17.68,3.12-24.42,8.31-.23.17,0,.61.24.47A88.5,88.5,0,0,1,871.6,345.21Z" transform="translate(-111.87 -155.33)"/><path class="cls-57" d="M875.44,354.62c.1,0,.07-.18,0-.17-8.71.3-19,3.82-26.08,10.73-.24.23-.22.69.08.44C854.45,361.38,867.49,356.09,875.44,354.62Z" transform="translate(-111.87 -155.33)"/><path class="cls-57" d="M852.49,376.79c7-6.36,15.4-9.83,24.5-12.15.12,0,.07-.2,0-.2-4.76-.08-10.41,2-14.67,4a25.06,25.06,0,0,0-10,8.1C852.16,376.68,852.34,376.92,852.49,376.79Z" transform="translate(-111.87 -155.33)"/><path class="cls-61" d="M873.6,345.82s-10.87,1-16.34,5.1c0,0,3.07-5.12,15.21-6.67" transform="translate(-111.87 -155.33)"/><path class="cls-61" d="M876.86,355.14s-11.39,2.62-15.5,6.72c0,0,6-6.38,14.64-8" transform="translate(-111.87 -155.33)"/><path class="cls-61" d="M878.76,365.12s-7.82.85-13.29,4.95c0,0,3.82-4.82,12.85-6.51" transform="translate(-111.87 -155.33)"/><path class="cls-61" d="M880.29,376.2s-8,4.82-12.09,3.45l.68,1.13s6.44,1.84,10.41-1Z" transform="translate(-111.87 -155.33)"/><path class="cls-57" d="M835.46,509.72l-6.89,34.88c-13.91-1.59-31.22-3.28-43.34-12.89a7.86,7.86,0,0,1-2.63-3.6c-.07-.18-.11-.33-.14-.42s0,0,0-.06a.73.73,0,0,0,0-.08h0l-.73-.58,0,0a.07.07,0,0,0,0,0c-2.94-2.48-3.91-4.77-4.23-6.14a4.65,4.65,0,0,1-.15-1.3c-.16-.23-.32-.45-.46-.67a14.85,14.85,0,0,1-2.65-7,7.26,7.26,0,0,1,0-1.66.65.65,0,0,1,0-.1,16,16,0,0,1-1.43-1.31c-1.74-1.78-4.23-5.08-2.6-8.08,2.66-4.92,11.15,3.08,18.5,4.63a181.9,181.9,0,0,0,21.21,2.83h0c7.36.62,14.31,1,19.25,1.19l.48,0,.57,0,.46,0,.61,0,.4,0,.39,0h.2l1.3.08.74.05.64.05Z" transform="translate(-111.87 -155.33)"/><path class="cls-57" d="M803.69,521.67a60.31,60.31,0,0,1-22.84-7.07,47.93,47.93,0,0,1-6.6-4.34.16.16,0,0,1-.06-.08.65.65,0,0,1,0-.1.12.12,0,0,1,.18,0c3.46,1.93,6.85,3.9,10.4,5.59q2.13,1,4.37,1.88a112.86,112.86,0,0,0,14.58,3.94C804,521.5,803.94,521.69,803.69,521.67Z" transform="translate(-111.87 -155.33)"/><path class="cls-57" d="M803.09,531.93c-4.75-1.38-13.07-3.85-25.74-12.59,0,0-.1,0-.06.07A52.5,52.5,0,0,0,803,532.15C803.32,532.21,803.4,532,803.09,531.93Z" transform="translate(-111.87 -155.33)"/><path class="cls-57" d="M802.63,537.55c-8-2.64-12.68-5.32-20.15-10,0,0-.1,0-.05.07,7.92,6.22,11.51,7.58,20.14,10.23C802.87,537.93,802.94,537.66,802.63,537.55Z" transform="translate(-111.87 -155.33)"/><path class="cls-61" d="M799.53,515.64s-5.92,1.84-14.74,0a40.45,40.45,0,0,1-3.94-1,45.37,45.37,0,0,1-6.69-2.73v0a7.26,7.26,0,0,1,0-1.66.65.65,0,0,1,0-.1,16,16,0,0,1-1.43-1.31S785.06,517.54,799.53,515.64Z" transform="translate(-111.87 -155.33)"/><path class="cls-61" d="M797.4,521.81s-4.28,4.5-13.22,1.91h0a26.48,26.48,0,0,1-2.88-1,35.57,35.57,0,0,1-3.88-1.92,4.65,4.65,0,0,1-.15-1.3c-.16-.23-.32-.45-.46-.67C776.8,518.81,786.2,526.23,797.4,521.81Z" transform="translate(-111.87 -155.33)"/><path class="cls-61" d="M798.34,529.06a14.88,14.88,0,0,1-1.41.86q-.37.21-.84.42a13.18,13.18,0,0,1-6.76,1.34,8.88,8.88,0,0,1-1.86-.37,10.44,10.44,0,0,1-4.87-3.2c-.07-.18-.11-.33-.14-.42.29.23.65.51,1.08.79l.12.08a13,13,0,0,0,2.3,1.13,15.47,15.47,0,0,0,9.27.35c.38-.08.78-.19,1.18-.31C797,529.54,797.68,529.32,798.34,529.06Z" transform="translate(-111.87 -155.33)"/><path class="cls-76" d="M897.8,466.07s14.58-10.44,26.26-10.44c0,0-11.83,2.5-32.93,15.12Z" transform="translate(-111.87 -155.33)"/><path class="cls-76" d="M876.21,541.59A210.18,210.18,0,0,0,920,492.07s-.63,20.78-45.34,59.53Z" transform="translate(-111.87 -155.33)"/><path class="cls-76" d="M867.25,497.81s9.65,1.91,10.4,11.13c0,0-3.88-7.33-18.56-6.55A72.1,72.1,0,0,0,867.25,497.81Z" transform="translate(-111.87 -155.33)"/><path class="cls-1" d="M231.4,551.17s9,14,33,10C264.4,561.17,245.4,560.17,231.4,551.17Z" transform="translate(-111.87 -155.33)"/><path class="cls-1" d="M164.4,532.17" transform="translate(-111.87 -155.33)"/><path class="cls-1" d="M273.05,623.41l6.51,28.65a67.14,67.14,0,0,1,1.65,16.42l-.81,35.74h-6.76s3.49-51-6.87-69.5Z" transform="translate(-111.87 -155.33)"/><path class="cls-58" d="M663.11,828.71a8.55,8.55,0,1,1-8.54,8.55A8.55,8.55,0,0,1,663.11,828.71Zm17.1-25.49A2,2,0,0,1,683,806l-6.47,6.46,6.47,6.47a2,2,0,0,1-2.76,2.76l-7.85-7.85a2,2,0,0,1,0-2.76l7.85-7.84Zm-22.43-11h-1.4a1.28,1.28,0,0,0-1.28,1.29v27.58l2.36,2.32v-4.24a3.2,3.2,0,0,1,.32-1.16Zm-6.55,28.52v-29a3.34,3.34,0,0,1,3.33-3.34h3.22v-3.33a3.34,3.34,0,0,1,3.34-3.33h3.33v-1.38a5.19,5.19,0,0,1,5.18-5.18H698.2a1.92,1.92,0,0,1,1.45.65l16.15,15.64a1.91,1.91,0,0,1,.58,1.38v38.57a5.16,5.16,0,0,1-5.15,5.15h-1.41V838a5.16,5.16,0,0,1-5.16,5.15h-1.51v1.38a5.19,5.19,0,0,1-5.18,5.18H679L674.63,854a1.94,1.94,0,0,1-2.75,0l-3-3v4.35a2,2,0,0,1-2,1.95h-7.5a2,2,0,0,1-1.95-1.95v-4.27l-3,3a1.93,1.93,0,0,1-2.75,0l-5.31-5.32a2,2,0,0,1,0-2.76l3-3h-4.29a2,2,0,0,1-2-2v-7.6a2,2,0,0,1,2-2h4.26l-3-3a2,2,0,0,1,0-2.78l4.87-4.91Zm28.65,25H698a1.29,1.29,0,0,0,1.28-1.28v-1.41h-22.1l2.69,2.69Zm3.17-6.67h21.51a1.3,1.3,0,0,0,1.29-1.27v-1.42h-22.8v2.69Zm-.16-6.56h28.23a1.28,1.28,0,0,0,1.29-1.28V794.84h-11a5.21,5.21,0,0,1-5.19-5.18V779H669.5a1.28,1.28,0,0,0-1.29,1.28v37.54a3.75,3.75,0,0,1,.65,1.35v4.26l3-3a1.94,1.94,0,0,1,2.75,0l5.32,5.32a1.94,1.94,0,0,1,0,2.75l-3,3h4.26C681.92,831.55,682.89,832.58,682.89,832.58Zm-18.55-15.26V785.7h-1.4a1.28,1.28,0,0,0-1.28,1.29v30.33Zm11.21-31.43a2.43,2.43,0,1,0-2.43,2.44A2.43,2.43,0,0,0,675.55,785.89Zm16.24-2.43a2.44,2.44,0,1,0,2.43,2.43A2.43,2.43,0,0,0,691.79,783.46Zm-9.34,0a2.44,2.44,0,1,0,2.44,2.43,2.43,2.43,0,0,0-2.44-2.43Zm19,7.51h8.24l-9.52-9.27v8a1.28,1.28,0,0,0,1.28,1.28Zm-9.63,8.6a2,2,0,0,1,3.77,1l-6.63,24.75a2,2,0,0,1-3.77-1Zm6,6.41a2,2,0,0,1,2.76-2.76l7.85,7.84a2,2,0,0,1,0,2.76l-7.85,7.85a2,2,0,0,1-2.76-2.76l6.47-6.47L697.77,806ZM665,824.69v-3.5h-3.66v3.47c0,1.84-4.41,3.69-5.68,2.4L653,824.42,650.47,827l2.62,2.64c1.31,1.33-.51,5.73-2.36,5.73H647V839h3.58c1.84,0,3.69,4.41,2.41,5.68l-2.64,2.61L653,849.9l2.64-2.62c1.34-1.31,5.73.51,5.73,2.36v3.7H665v-3.58c0-1.84,4.37-3.69,5.64-2.41l2.6,2.64,2.54-2.58-2.6-2.64c-1.3-1.34.51-5.73,2.34-5.73h3.67v-3.66h-3.64c-1.81,0-3.63-4.45-2.37-5.73l2.6-2.64-2.54-2.59-2.6,2.64c-1.27,1.28-5.64-.56-5.64-2.37Zm-1.88,7.92a4.65,4.65,0,1,0,4.65,4.65A4.65,4.65,0,0,0,663.11,832.61Z" transform="translate(-111.87 -155.33)"/><path class="cls-58" d="M766.94,352.31l.51-2.86a29.55,29.55,0,0,0-6.16-.41c-4.58.21-8.26,1.66-10.95,4.33a14.5,14.5,0,0,0-3.91,7.34v0a22.9,22.9,0,0,0-.39,6.71l2.91-.26a19.82,19.82,0,0,1,.35-5.85,11.69,11.69,0,0,1,3.12-5.91c2.16-2.14,5.19-3.31,9-3.48A26.25,26.25,0,0,1,766.94,352.31Z" transform="translate(-111.87 -155.33)"/><path class="cls-58" d="M755.1,385.36c-.88-1.59-1.69-3.19-2.39-4.76L750,381.78c.74,1.64,1.58,3.31,2.5,5Z" transform="translate(-111.87 -155.33)"/><path class="cls-58" d="M746.85,372.59c.3,1.29.68,2.64,1.14,4l2.78-.91c-.43-1.27-.79-2.53-1.07-3.74Z" transform="translate(-111.87 -155.33)"/><path class="cls-58" d="M756.56,393.26c.91,1.34,1.89,2.69,2.91,4l.36.46,2.32-1.77-.35-.45c-1-1.29-1.94-2.59-2.82-3.89Z" transform="translate(-111.87 -155.33)"/><path class="cls-58" d="M768.22,403c-.73-.77-1.46-1.56-2.15-2.35l-.51-.57L763.35,402l.52.6c.72.8,1.46,1.62,2.21,2.41l1,1.07,2.11-2C768.88,403.73,768.54,403.39,768.22,403Z" transform="translate(-111.87 -155.33)"/><path class="cls-58" d="M823.65,397.51,821,398.67a43.79,43.79,0,0,1,3.32,10.67c1,6.21-.09,11.1-3.18,14.16a11.81,11.81,0,0,1-5.89,3.08,21,21,0,0,1-6.52.31c-.59-.06-1.2-.14-1.81-.23l-.46,2.86c.67.11,1.34.19,2,.26.91.08,1.81.13,2.67.13a21.77,21.77,0,0,0,4.77-.5,14.79,14.79,0,0,0,7.33-3.86c3.77-3.74,5.15-9.5,4-16.67A46.86,46.86,0,0,0,823.65,397.51Z" transform="translate(-111.87 -155.33)"/><path class="cls-58" d="M820.35,391.05l-2.54,1.44c.68,1.17,1.32,2.36,1.9,3.52l2.62-1.29C821.72,393.51,821.06,392.27,820.35,391.05Z" transform="translate(-111.87 -155.33)"/><path class="cls-58" d="M817.24,386.07c-1-1.47-2.06-2.94-3.15-4.36l-2.33,1.75c1,1.38,2.08,2.8,3,4.23Z" transform="translate(-111.87 -155.33)"/><path class="cls-58" d="M806.87,373.31l-2.11,2q1.86,1.94,3.62,4l2.22-1.88C809.41,376,808.15,374.63,806.87,373.31Z" transform="translate(-111.87 -155.33)"/><path class="cls-58" d="M803.13,420.57a1.47,1.47,0,0,0-1.8-1,1.45,1.45,0,0,0-1,1.79v0l1.16,4a56,56,0,0,1-9.59-4,82.44,82.44,0,0,1-12.21-7.9,99.45,99.45,0,0,1-8.14-7.06l-2,2.08a103.29,103.29,0,0,0,8.38,7.26,85.31,85.31,0,0,0,12.64,8.18,61.81,61.81,0,0,0,7.9,3.5l-2.4.68a1.45,1.45,0,0,0-1,1.78,1.48,1.48,0,0,0,1.8,1h0l7.18-2a1.45,1.45,0,0,0,1-1.79Z" transform="translate(-111.87 -155.33)"/><path class="cls-58" d="M780.69,350.13A1.47,1.47,0,0,0,779,349h0l-7.31,1.55a1.45,1.45,0,0,0-1.13,1.72l1.42,6.6a1.47,1.47,0,0,0,1.75,1.1,1.45,1.45,0,0,0,1.12-1.7l-.89-4.11a56.55,56.55,0,0,1,7.4,3.23,82.38,82.38,0,0,1,12.07,7.72c1.78,1.36,3.58,2.84,5.34,4.4,1,.86,2,1.77,2.92,2.69.43.4.85.82,1.27,1.23l2.07-2.05-1.3-1.27c-1-.95-2-1.88-3-2.77-1.81-1.6-3.66-3.12-5.5-4.53s-3.59-2.64-5.46-3.86c1-.59,2.11-1.14,3.14-1.65l-1.3-2.6c-1.27.62-2.55,1.3-3.83,2l.86,1.49c-1.93-1.21-3.89-2.34-5.9-3.4-1.76-.92-3.57-1.75-5.41-2.49l2.29-.49a1.45,1.45,0,0,0,1.12-1.72Z" transform="translate(-111.87 -155.33)"/><path class="cls-58" d="M757.86,427.1a11.9,11.9,0,0,1-6-3.1,13,13,0,0,1-3.51-8.92,25.78,25.78,0,0,1,.37-5.48l-2.88-.5a28.34,28.34,0,0,0-.42,6.1c.21,4.54,1.68,8.19,4.37,10.85a14.76,14.76,0,0,0,7.41,3.88h0a23.42,23.42,0,0,0,4.72.49c.69,0,1.37,0,2-.09l-.26-2.89A21,21,0,0,1,757.86,427.1Z" transform="translate(-111.87 -155.33)"/><path class="cls-58" d="M768.56,426.69l.66,2.83c1.31-.31,2.67-.69,4-1.14l-.92-2.75C771.05,426.05,769.78,426.41,768.56,426.69Z" transform="translate(-111.87 -155.33)"/><path class="cls-58" d="M777.31,423.71l1.2,2.65c1.65-.74,3.34-1.57,5-2.48l-1.4-2.55C780.51,422.21,778.89,423,777.31,423.71Z" transform="translate(-111.87 -155.33)"/><path class="cls-58" d="M792.37,414.69c-1.25.95-2.52,1.85-3.78,2.7l1.65,2.4c1.3-.88,2.61-1.81,3.9-2.79l.46-.35-1.78-2.3Z" transform="translate(-111.87 -155.33)"/><path class="cls-58" d="M799.52,412.64c.81-.71,1.63-1.44,2.43-2.19l1.08-1-2-2.09-1,1c-.78.72-1.57,1.43-2.36,2.12L797,411l1.92,2.19Z" transform="translate(-111.87 -155.33)"/><path class="cls-58" d="M823.79,370l2.89.46c.1-.67.19-1.33.25-2a23.09,23.09,0,0,0-.37-7.38,14.57,14.57,0,0,0-3.89-7.26c-3.78-3.74-9.59-5.11-16.82-4a47.62,47.62,0,0,0-11.48,3.5l1.18,2.65a45,45,0,0,1,10.76-3.29c6.27-1,11.21.1,14.29,3.15a11.76,11.76,0,0,1,3.11,5.85,20.54,20.54,0,0,1,.31,6.46C824,368.81,823.88,369.42,823.79,370Z" transform="translate(-111.87 -155.33)"/><path class="cls-58" d="M780.2,365.18c1.39-1,2.82-2.06,4.27-3l-1.64-2.41c-1.49,1-3,2.05-4.4,3.12Z" transform="translate(-111.87 -155.33)"/><path class="cls-58" d="M772,372.13c1.3-1.23,2.65-2.44,4-3.59l-1.9-2.21c-1.41,1.19-2.8,2.43-4.14,3.7Z" transform="translate(-111.87 -155.33)"/><path class="cls-58" d="M826.37,372.53a1.46,1.46,0,0,0-1.8-1l-.08,0-6.73,2.22a1.45,1.45,0,0,0,.93,2.75l3.85-1.27a55.39,55.39,0,0,1-4.1,9.65,80.83,80.83,0,0,1-8,12.1,97.19,97.19,0,0,1-7.12,8.06l2.1,2a101.35,101.35,0,0,0,7.33-8.3A85.28,85.28,0,0,0,821,386.24a61.89,61.89,0,0,0,3.75-8.45l.82,3a1.46,1.46,0,0,0,1.81,1,1.44,1.44,0,0,0,1-1.76Z" transform="translate(-111.87 -155.33)"/><path class="cls-58" d="M748.43,406.09a1.65,1.65,0,0,0,.31,0l6.66-1.41a1.44,1.44,0,0,0,1.12-1.72,1.46,1.46,0,0,0-1.74-1.11l-4.14.87a55.82,55.82,0,0,1,3.26-7.33,81.48,81.48,0,0,1,7.79-12c1.37-1.77,2.87-3.55,4.44-5.29.87-1,1.78-2,2.71-2.9.41-.41.83-.84,1.25-1.25L768,371.89c-.44.43-.87.87-1.28,1.3-1,1-1.9,2-2.8,3-1.61,1.79-3.15,3.63-4.57,5.45A84.67,84.67,0,0,0,751.31,394q-1.39,2.63-2.52,5.37l-.49-2.27a1.46,1.46,0,0,0-2.87.58v0l1.56,7.25A1.47,1.47,0,0,0,748.43,406.09Z" transform="translate(-111.87 -155.33)"/><path class="cls-58" d="M799.42,392.54a11.46,11.46,0,0,0-3.75-8.47,12.74,12.74,0,0,0-9.42-3.35,12.52,12.52,0,0,0-8.2,3.69,11.57,11.57,0,0,0-3.45,8.09A11.85,11.85,0,0,0,781,402.89v6.77a1.38,1.38,0,0,0,1.39,1.38h9.16a1.53,1.53,0,0,0,1.53-1.52v-6.61A12,12,0,0,0,799.42,392.54Zm-21.86,0a8.67,8.67,0,0,1,2.57-6.07,9.61,9.61,0,0,1,6.28-2.82,9.78,9.78,0,0,1,7.24,2.56,8.62,8.62,0,0,1,2.81,6.36,9,9,0,0,1-5.5,8.15,1.41,1.41,0,0,0-.84,1.32v.14H783.9V402a1.43,1.43,0,0,0-.86-1.33A8.82,8.82,0,0,1,777.56,392.51Zm6.34,15.63v-3.09h6.22v3.09Z" transform="translate(-111.87 -155.33)"/><path class="cls-58" d="M785.55,372.12v5.27a1.49,1.49,0,0,0,1.24,1.48,1.46,1.46,0,0,0,1.68-1.44v-5.27a1.49,1.49,0,0,0-1.24-1.48A1.47,1.47,0,0,0,785.55,372.12Z" transform="translate(-111.87 -155.33)"/><path class="cls-58" d="M766.1,390.55a1.46,1.46,0,0,0-1.45,1.66,1.49,1.49,0,0,0,1.49,1.24h5.49a1.49,1.49,0,0,0,1.49-1.24,1.45,1.45,0,0,0-1.44-1.66Z" transform="translate(-111.87 -155.33)"/><path class="cls-58" d="M807.79,390.55h-5.54a1.48,1.48,0,0,0-1.49,1.23,1.46,1.46,0,0,0,1.45,1.67h5.58a1.46,1.46,0,0,0,1.46-1.45h0A1.46,1.46,0,0,0,807.79,390.55Z" transform="translate(-111.87 -155.33)"/><path class="cls-58" d="M776.18,383.13a1.46,1.46,0,0,0,1.47-1.45,1.44,1.44,0,0,0-.46-1.05l-4-3.74a1.48,1.48,0,0,0-2.07.05,1.44,1.44,0,0,0,.05,2.05h0l4,3.74A1.44,1.44,0,0,0,776.18,383.13Z" transform="translate(-111.87 -155.33)"/><path class="cls-58" d="M800.66,376.89l-4,3.74a1.43,1.43,0,0,0-.05,2.05,1.47,1.47,0,0,0,2.07.05l4-3.74a1.44,1.44,0,0,0,.05-2.05,1.48,1.48,0,0,0-2.07-.05Z" transform="translate(-111.87 -155.33)"/><path class="cls-79" d="M483.69,533.14c0-10.59,10.9-15.57,10.9-15.57l-12.46-28h-3.55" transform="translate(-111.87 -155.33)"/><path class="cls-79" d="M474.35,533.14c0-10.59-10.91-15.57-10.91-15.57l12.46-28h2.68" transform="translate(-111.87 -155.33)"/><line class="cls-79" x1="366.71" y1="334.19" x2="366.71" y2="351.33"/><rect class="cls-79" x="349.57" y="377.81" width="34.27" height="10.9"/><circle class="cls-79" cx="367.15" cy="355.14" r="3.12"/><rect class="cls-79" x="386.96" y="343.54" width="6.23" height="6.23"/><rect class="cls-79" x="363.59" y="317.06" width="6.23" height="6.23"/><rect class="cls-79" x="340.23" y="343.54" width="6.23" height="6.23"/><path class="cls-79" d="M475.9,476.36a23.51,23.51,0,0,0-20.25,23.21" transform="translate(-111.87 -155.33)"/><path class="cls-79" d="M502.38,499.57a23.51,23.51,0,0,0-20.25-23.21" transform="translate(-111.87 -155.33)"/><line class="cls-79" x1="369.82" y1="320.18" x2="396.3" y2="320.18"/><rect class="cls-79" x="396.3" y="317.06" width="6.23" height="6.23"/><line class="cls-79" x1="363.59" y1="320.18" x2="337.11" y2="320.18"/><rect class="cls-79" x="330.88" y="317.06" width="6.23" height="6.23"/><path class="cls-58" d="M523.3,763l-9.77,23.32a1.11,1.11,0,0,1-1.41.58,1,1,0,0,1-.46-.41l-5.79-7.29-15.66,13.3a1,1,0,0,1-1.45-.13,1.83,1.83,0,0,0-.13-.16l-4.14-6.92-27.62,24.85a1.07,1.07,0,0,1-1.5-.08.75.75,0,0,1-.2-.29L452,803.64l-14.54,12.55a1.09,1.09,0,0,1-1.45,0l-2.78-2.78a1.06,1.06,0,0,1,0-1.49l19.84-17.11a1.06,1.06,0,0,1,1.5.09c0,.08.12.16.16.25l3.19,6.13,27.59-24.77a1,1,0,0,1,1.45.08.38.38,0,0,1,.16.21l4.14,6.91,10.86-9.23-5.55-7a1.13,1.13,0,0,1,.16-1.49,2.13,2.13,0,0,1,.5-.21l25-4.18a1.09,1.09,0,0,1,1.2.87A.85.85,0,0,1,523.3,763Z" transform="translate(-111.87 -155.33)"/><path class="cls-58" d="M446.81,818.8H452a1,1,0,0,1,1,1v16.73a1,1,0,0,1-1,1h-5.22a1,1,0,0,1-1-1V819.84A1,1,0,0,1,446.81,818.8Z" transform="translate(-111.87 -155.33)"/><path class="cls-58" d="M475.72,802.36h5.18a1.06,1.06,0,0,1,1.07,1.08v33.13a1,1,0,0,1-1,1h-5.22a1.09,1.09,0,0,1-1.08-1.08V803.44A1.07,1.07,0,0,1,475.72,802.36Z" transform="translate(-111.87 -155.33)"/><path class="cls-58" d="M505.29,799.09h5.22a1,1,0,0,1,1,1v36.45a1,1,0,0,1-1,1h-5.22a1,1,0,0,1-1-1V800.12A1,1,0,0,1,505.29,799.09Z" transform="translate(-111.87 -155.33)"/><path class="cls-58" d="M461.76,813.58h5.18a1.09,1.09,0,0,1,1.08,1.08v21.91a1,1,0,0,1-1,1h-5.26a1,1,0,0,1-1-1V814.66A1.09,1.09,0,0,1,461.76,813.58Z" transform="translate(-111.87 -155.33)"/><path class="cls-58" d="M488.85,811.68h5.22a1,1,0,0,1,1,1v23.86a1,1,0,0,1-1,1h-5.22a1,1,0,0,1-1-1V812.71A1,1,0,0,1,488.85,811.68Z" transform="translate(-111.87 -155.33)"/><path class="cls-58" d="M547.7,359.47l1.21,1.77a12.55,12.55,0,0,0,5.46,4.47l2,.83-1.77,1.21a12.55,12.55,0,0,0-4.47,5.46l-.83,2-1.21-1.77A12.46,12.46,0,0,0,542.6,369l-2-.84,1.77-1.21a12.55,12.55,0,0,0,4.47-5.46Z" transform="translate(-111.87 -155.33)"/><path class="cls-58" d="M572.32,231l2.21,3.23a23.09,23.09,0,0,0,10,8.18l3.6,1.52-3.23,2.21a23.09,23.09,0,0,0-8.18,10l-1.52,3.6L573,256.54a23.09,23.09,0,0,0-10-8.18l-3.6-1.52,3.23-2.21a23,23,0,0,0,8.18-10Z" transform="translate(-111.87 -155.33)"/><path class="cls-58" d="M601.84,275.68l3,4.35a30.94,30.94,0,0,0,13.47,11l4.86,2.06-4.35,3a30.94,30.94,0,0,0-11,13.47l-2.06,4.86-3-4.35a30.91,30.91,0,0,0-13.48-11L584.4,297l4.35-3a30.94,30.94,0,0,0,11-13.47Z" transform="translate(-111.87 -155.33)"/><path class="cls-58" d="M634,644.55l1.2,1.77a12.64,12.64,0,0,0,5.47,4.47l2,.83-1.76,1.21a12.55,12.55,0,0,0-4.47,5.46l-.83,2-1.21-1.77a12.61,12.61,0,0,0-5.46-4.47l-2-.83,1.76-1.21a12.42,12.42,0,0,0,4.47-5.46Z" transform="translate(-111.87 -155.33)"/><path class="cls-58" d="M688.11,560.76l3,4.35a31,31,0,0,0,13.48,11l4.86,2.06-4.36,3a30.92,30.92,0,0,0-11,13.47L692,599.51l-3-4.35a31,31,0,0,0-13.48-11l-4.86-2.06,4.36-3a30.92,30.92,0,0,0,11-13.47Z" transform="translate(-111.87 -155.33)"/></svg>