<svg id="Layer_1" data-name="Layer 1" xmlns="http://www.w3.org/2000/svg" xmlns:xlink="http://www.w3.org/1999/xlink" viewBox="0 0 844.5 763.91"><defs><style>.cls-1{fill:#e7f3ff;}.cls-2{fill:#2b444e;}.cls-3{fill:#e1e1e1;}.cls-4,.cls-49{fill:#2164ad;}.cls-5{fill:#dcdcdc;}.cls-6{fill:#16282d;}.cls-7{fill:url(#linear-gradient);}.cls-8{fill:url(#linear-gradient-2);}.cls-9{fill:url(#linear-gradient-3);}.cls-10{fill:url(#linear-gradient-4);}.cls-11{fill:url(#linear-gradient-5);}.cls-12{fill:url(#linear-gradient-6);}.cls-13{fill:url(#linear-gradient-7);}.cls-14{fill:url(#linear-gradient-8);}.cls-15{fill:url(#linear-gradient-9);}.cls-16{fill:url(#linear-gradient-10);}.cls-17{fill:url(#linear-gradient-11);}.cls-18{fill:url(#linear-gradient-12);}.cls-19{fill:url(#linear-gradient-13);}.cls-20{fill:url(#linear-gradient-14);}.cls-21{fill:url(#linear-gradient-15);}.cls-22{fill:url(#linear-gradient-16);}.cls-23{fill:url(#linear-gradient-17);}.cls-24{fill:url(#linear-gradient-18);}.cls-25{fill:url(#linear-gradient-19);}.cls-26{fill:url(#linear-gradient-20);}.cls-27{fill:url(#linear-gradient-21);}.cls-28{fill:url(#linear-gradient-22);}.cls-29{fill:url(#linear-gradient-23);}.cls-30{fill:url(#linear-gradient-24);}.cls-31{fill:url(#linear-gradient-25);}.cls-32{fill:url(#linear-gradient-26);}.cls-33{fill:url(#linear-gradient-27);}.cls-34,.cls-47,.cls-48,.cls-72{fill:none;}.cls-34,.cls-48,.cls-49,.cls-72{stroke:#fff;}.cls-34,.cls-47,.cls-48,.cls-49,.cls-72{stroke-miterlimit:10;}.cls-35{fill:#fff;}.cls-36{fill:#91b3fa;}.cls-37{fill:#f4f8fc;}.cls-38{fill:#c26358;}.cls-39{fill:#1a2e35;}.cls-40{fill:#ffbf9d;}.cls-41{fill:#ffaba1;}.cls-42{fill:#0b0950;}.cls-43{fill:#6f7be4;}.cls-44{fill:#cce3ff;}.cls-45{fill:#203391;}.cls-46{fill:#fa7166;}.cls-47{stroke:#2164ad;}.cls-48{stroke-width:0.75px;}.cls-50{fill:#385b64;}.cls-51{fill:#333;}.cls-52{fill:#d1945d;}.cls-53{fill:url(#linear-gradient-28);}.cls-54{fill:#c18859;}.cls-55{fill:#2b454e;}.cls-56{fill:#1d343a;}.cls-57{fill:#dd9373;}.cls-58{fill:#89705d;}.cls-59{fill:#c17e67;}.cls-60{fill:#385962;}.cls-61,.cls-62{fill:#152428;}.cls-62{opacity:0.74;}.cls-63{fill:url(#linear-gradient-29);}.cls-64{fill:url(#linear-gradient-30);}.cls-65{fill:url(#linear-gradient-31);}.cls-66{fill:url(#linear-gradient-32);}.cls-67{fill:url(#linear-gradient-33);}.cls-68{fill:url(#linear-gradient-34);}.cls-69{fill:url(#linear-gradient-35);}.cls-70{fill:url(#linear-gradient-36);}.cls-71{fill:url(#linear-gradient-37);}.cls-72{stroke-width:3px;}.cls-73{fill:url(#linear-gradient-38);}.cls-74{fill:#375a64;}.cls-75{fill:url(#linear-gradient-39);}.cls-76{fill:url(#linear-gradient-40);}.cls-77{fill:url(#linear-gradient-41);}.cls-78{fill:#3d6a75;}.cls-79{fill:url(#linear-gradient-42);}</style><linearGradient id="linear-gradient" x1="170.14" y1="729.03" x2="295.28" y2="729.03" gradientUnits="userSpaceOnUse"><stop offset="0" stop-color="#2d085d"/><stop offset="1" stop-color="#410f82"/></linearGradient><linearGradient id="linear-gradient-2" x1="290.66" y1="708.38" x2="315.34" y2="708.38" xlink:href="#linear-gradient"/><linearGradient id="linear-gradient-3" x1="188.28" y1="700.61" x2="222.34" y2="700.61" gradientUnits="userSpaceOnUse"><stop offset="0.04" stop-color="#6b24d6"/><stop offset="0.22" stop-color="#5c28cc" stop-opacity="0.96"/><stop offset="0.57" stop-color="#3634b2" stop-opacity="0.86"/><stop offset="0.98" stop-color="#00448e" stop-opacity="0.72"/></linearGradient><linearGradient id="linear-gradient-4" x1="210.7" y1="725.68" x2="249.08" y2="725.68" xlink:href="#linear-gradient-3"/><linearGradient id="linear-gradient-5" x1="237.08" y1="760.82" x2="273.67" y2="760.82" xlink:href="#linear-gradient-3"/><linearGradient id="linear-gradient-6" x1="256.42" y1="782.41" x2="286.08" y2="782.41" xlink:href="#linear-gradient-3"/><linearGradient id="linear-gradient-7" x1="277.87" y1="755.26" x2="289.87" y2="755.26" xlink:href="#linear-gradient-3"/><linearGradient id="linear-gradient-8" x1="257.62" y1="725.22" x2="272.59" y2="725.22" xlink:href="#linear-gradient-3"/><linearGradient id="linear-gradient-9" x1="231.32" y1="696.24" x2="248.4" y2="696.24" xlink:href="#linear-gradient-3"/><linearGradient id="linear-gradient-10" x1="203.27" y1="670.05" x2="218.68" y2="670.05" xlink:href="#linear-gradient-3"/><linearGradient id="linear-gradient-11" x1="159.47" y1="664.68" x2="195.22" y2="664.68" xlink:href="#linear-gradient-3"/><linearGradient id="linear-gradient-12" x1="292.05" y1="668.29" x2="312.82" y2="668.29" xlink:href="#linear-gradient-3"/><linearGradient id="linear-gradient-13" x1="290.48" y1="704.14" x2="310.15" y2="704.14" xlink:href="#linear-gradient-3"/><linearGradient id="linear-gradient-14" x1="280.75" y1="746.78" x2="303.39" y2="746.78" xlink:href="#linear-gradient-3"/><linearGradient id="linear-gradient-15" x1="277.74" y1="773.35" x2="297.13" y2="773.35" xlink:href="#linear-gradient-3"/><linearGradient id="linear-gradient-16" x1="300.85" y1="762.78" x2="331.79" y2="762.78" xlink:href="#linear-gradient-3"/><linearGradient id="linear-gradient-17" x1="308.92" y1="728.21" x2="342.23" y2="728.21" xlink:href="#linear-gradient-3"/><linearGradient id="linear-gradient-18" x1="314.52" y1="689.42" x2="345.83" y2="689.42" xlink:href="#linear-gradient-3"/><linearGradient id="linear-gradient-19" x1="315.41" y1="651.24" x2="344.07" y2="651.24" xlink:href="#linear-gradient-3"/><linearGradient id="linear-gradient-20" x1="300.61" y1="625.38" x2="318.48" y2="625.38" xlink:href="#linear-gradient-3"/><linearGradient id="linear-gradient-21" x1="863.34" y1="688.91" x2="914.15" y2="688.91" xlink:href="#linear-gradient-3"/><linearGradient id="linear-gradient-22" x1="879.24" y1="610.68" x2="932.61" y2="610.68" xlink:href="#linear-gradient-3"/><linearGradient id="linear-gradient-23" x1="833.58" y1="601.53" x2="877.29" y2="601.53" xlink:href="#linear-gradient-3"/><linearGradient id="linear-gradient-24" x1="834.15" y1="705.1" x2="893.58" y2="705.1" xlink:href="#linear-gradient"/><linearGradient id="linear-gradient-25" x1="837.53" y1="662.07" x2="912.92" y2="662.07" xlink:href="#linear-gradient"/><linearGradient id="linear-gradient-26" x1="852.5" y1="638.07" x2="864.87" y2="638.07" xlink:href="#linear-gradient"/><linearGradient id="linear-gradient-27" x1="496.64" y1="250.91" x2="836.64" y2="250.91" gradientUnits="userSpaceOnUse"><stop offset="0.04" stop-color="#91b3fa"/><stop offset="0.31" stop-color="#abc5fb" stop-opacity="0.94"/><stop offset="0.85" stop-color="#edf3fe" stop-opacity="0.77"/><stop offset="0.98" stop-color="#fff" stop-opacity="0.72"/></linearGradient><linearGradient id="linear-gradient-28" x1="526.62" y1="481.99" x2="564.55" y2="481.99" xlink:href="#linear-gradient"/><linearGradient id="linear-gradient-29" x1="786.42" y1="757.3" x2="816.3" y2="757.3" xlink:href="#linear-gradient-3"/><linearGradient id="linear-gradient-30" x1="802.43" y1="709.99" x2="824.04" y2="709.99" xlink:href="#linear-gradient-3"/><linearGradient id="linear-gradient-31" x1="826.16" y1="719.14" x2="861.79" y2="719.14" xlink:href="#linear-gradient-3"/><linearGradient id="linear-gradient-32" x1="800.4" y1="772.18" x2="821.61" y2="772.18" xlink:href="#linear-gradient"/><linearGradient id="linear-gradient-33" x1="811.81" y1="745.44" x2="821.61" y2="745.44" xlink:href="#linear-gradient"/><linearGradient id="linear-gradient-34" x1="821.13" y1="738.42" x2="848.2" y2="738.42" xlink:href="#linear-gradient"/><linearGradient id="linear-gradient-35" x1="649.06" y1="663.36" x2="696.46" y2="663.36" xlink:href="#linear-gradient"/><linearGradient id="linear-gradient-36" x1="649.85" y1="695.03" x2="696.46" y2="695.03" xlink:href="#linear-gradient"/><linearGradient id="linear-gradient-37" x1="651.54" y1="701.21" x2="694.23" y2="701.21" xlink:href="#linear-gradient"/><linearGradient id="linear-gradient-38" x1="340.73" y1="532.18" x2="347.63" y2="532.18" xlink:href="#linear-gradient-3"/><linearGradient id="linear-gradient-39" x1="269.89" y1="805.08" x2="320.41" y2="805.08" gradientTransform="translate(590.31 1610.16) rotate(-180)" xlink:href="#linear-gradient"/><linearGradient id="linear-gradient-40" x1="126.16" y1="713.82" x2="168.86" y2="713.82" xlink:href="#linear-gradient"/><linearGradient id="linear-gradient-41" x1="124.2" y1="707.44" x2="170.82" y2="707.44" xlink:href="#linear-gradient"/><linearGradient id="linear-gradient-42" x1="837.14" y1="261.41" x2="843.64" y2="261.41" xlink:href="#linear-gradient-3"/></defs><title>logoesarculat</title><path class="cls-1" d="M810,776.11c16.5-10.88,46.5-31.23,50.61-62.16,4-30.5-21.23-40-23.93-74.07-3.62-45.94,40-57.24,51.53-110.69,11.61-54-20.15-102-30.36-117.5-32-48.44-64.12-47.6-131.57-98.76C639.4,247,717.73,202.25,653.65,164.29S428,121.74,357.39,160.52c-43.51,23.89-25.45,44.29-104,135.38C196.33,362.13,170,370.81,155.9,417.65c-3.64,12.1-21.64,71.83,11,117.5,28.77,40.21,69.9,31.89,84.64,67.26C267,639.33,228.66,664,235.94,706.29c8.08,47,65.33,74.93,104.89,93.66C524.13,886.72,729.45,829.23,810,776.11Z" transform="translate(-147.68 -133.55)"/><rect class="cls-2" x="359.14" y="590.96" width="86" height="6.33"/><rect class="cls-3" x="441.64" y="117.91" width="47" height="180" rx="11.49"/><path class="cls-4" d="M972.81,222.45h-301A20.52,20.52,0,0,0,651.32,243V533.18A24.76,24.76,0,0,0,676,558h290.6a24.76,24.76,0,0,0,24.7-24.82V241.05A18.56,18.56,0,0,0,972.81,222.45Z" transform="translate(-147.68 -133.55)"/><path class="cls-4" d="M329.06,523.89s2.51,10.23,4.63,20.94,11.37,32.73,12.25,32.92-3.89-23.7-7.23-33.93-7.39-20.37-7.39-20.37Z" transform="translate(-147.68 -133.55)"/><polygon class="cls-5" points="181.21 390.14 182.61 397.27 186.38 396.14 183.79 389.47 181.21 390.14"/><path class="cls-6" d="M328.89,523.69c-2.71-4.83-1.53-11-1.53-11s5.07,4.43,4.11,10.33Z" transform="translate(-147.68 -133.55)"/><path class="cls-7" d="M170.15,657.11a9.84,9.84,0,0,0,1.48,1.28l4.43,3.43c1.95,1.47,4.31,3.27,7,5.46s5.81,4.57,9.1,7.42c6.69,5.54,14.41,12.44,22.71,20.38s17,17.1,25.75,27.08,16.47,20,23.26,29.25,12.48,17.93,17,25.33c2.37,3.65,4.31,7.07,6.09,10s3.26,5.54,4.44,7.67l2.79,4.86a9.79,9.79,0,0,0,1.06,1.65,10.92,10.92,0,0,0-.81-1.79c-.65-1.27-1.49-2.93-2.55-5s-2.5-4.81-4.23-7.8-3.6-6.47-5.92-10.17c-4.46-7.48-10.16-16.17-16.83-25.56s-14.54-19.36-23.25-29.43-17.6-19.1-25.92-27.09-16.19-14.75-23-20.21c-3.33-2.8-6.5-5.15-9.24-7.27s-5.14-3.87-7.14-5.27l-4.6-3.22A10.87,10.87,0,0,0,170.15,657.11Z" transform="translate(-147.68 -133.55)"/><path class="cls-8" d="M311.59,613.63a9.38,9.38,0,0,0,.07,2c.12,1.42.28,3.27.48,5.58s.51,5.39.71,8.84.58,7.36.72,11.71c.46,8.68.62,19,.41,30.52s-1,24.1-2.45,37.28-3.53,25.66-5.74,36.93-4.72,21.33-7.06,29.7c-1.08,4.21-2.28,8-3.25,11.27s-1.87,6.16-2.63,8.47-1.26,4-1.68,5.34a10,10,0,0,0-.5,1.9,10.32,10.32,0,0,0,.77-1.8q.74-2,1.94-5.26c.85-2.29,1.84-5.1,2.87-8.41s2.31-7,3.46-11.23c2.47-8.36,5-18.43,7.38-29.71s4.37-23.81,5.87-37,2.12-25.89,2.35-37.42-.13-21.9-.73-30.6c-.2-4.35-.62-8.27-.92-11.72s-.64-6.41-1-8.83-.56-4.14-.75-5.56A9.7,9.7,0,0,0,311.59,613.63Z" transform="translate(-147.68 -133.55)"/><path class="cls-9" d="M216.55,698.22a32.54,32.54,0,0,0-21.07-6.16c-2.55.16-5.41.85-6.64,3.08-1.64,3,.64,6.63,3.28,8.77a23.92,23.92,0,0,0,15.91,5.3c5.7-.23,10.18-1.6,14.31-5.54" transform="translate(-147.68 -133.55)"/><path class="cls-10" d="M245.85,728.88c-6.79-5.67-19.39-11.65-28.24-11.88a10.67,10.67,0,0,0-4.13.53,4.3,4.3,0,0,0-2.72,3c-.38,2,1.09,3.79,2.57,5.14a34.49,34.49,0,0,0,35.75,6.22" transform="translate(-147.68 -133.55)"/><path class="cls-11" d="M269.32,759.71a50,50,0,0,0-25.19-7.31c-2.07,0-4.37.15-5.82,1.63-2.2,2.25-1.16,6.15.88,8.55,4.19,4.94,11.2,6.31,17.67,6.64,7,.36,16.81-2.4,16.81-2.4" transform="translate(-147.68 -133.55)"/><path class="cls-12" d="M283.81,781.58c-6.45-2.9-13.4-5-20.47-4.87a10,10,0,0,0-4.48.89,4.25,4.25,0,0,0-2.44,3.63c.05,2.47,2.73,4,5.09,4.71,8.15,2.58,16.43,3,24.57.4" transform="translate(-147.68 -133.55)"/><path class="cls-13" d="M277.87,768.51a155.07,155.07,0,0,1,4.5-28c.37-1.43,1-3.07,2.37-3.51a3,3,0,0,1,3,1.13,7.6,7.6,0,0,1,1.3,3.14c2.52,11.07-1.07,23.68-8.43,32.33" transform="translate(-147.68 -133.55)"/><path class="cls-14" d="M257.62,741q.86-12.25,1.73-24.53a18.7,18.7,0,0,1,1.35-6.85c1-2.11,3.05-3.9,5.39-3.91s4.38,1.77,5.37,3.89a16.57,16.57,0,0,1,1.13,6.86c.05,5.56-.38,11.21-2.3,16.42s-4.12,9.3-9.08,11.82" transform="translate(-147.68 -133.55)"/><path class="cls-15" d="M233.63,710.93a54.39,54.39,0,0,1-.82-28.31,9.06,9.06,0,0,1,2-4.31c2.2-2.3,6.17-1.92,8.74,0a12.87,12.87,0,0,1,4.81,9.25,27.26,27.26,0,0,1-1.5,10.57,62.81,62.81,0,0,1-8.74,17.67" transform="translate(-147.68 -133.55)"/><path class="cls-16" d="M208.82,687.57c-5.14-9.87-5.77-20.67-5.5-31.8.06-2.34.5-5.1,2.6-6.15a4.47,4.47,0,0,1,4.27.39,10.61,10.61,0,0,1,3.05,3.24,34.06,34.06,0,0,1-.44,37.6" transform="translate(-147.68 -133.55)"/><path class="cls-17" d="M195.22,676.81c-2.83-4.94-5.68-9.91-9.39-14.23s-8.35-8-13.79-9.69a13.15,13.15,0,0,0-7.24-.41,7.17,7.17,0,0,0-5.13,4.77,7.57,7.57,0,0,0,1.59,6.37,19,19,0,0,0,5.21,4.31c9.17,5.76,21.23,10.78,28.75,8.88" transform="translate(-147.68 -133.55)"/><path class="cls-18" d="M312.82,675.61A32.5,32.5,0,0,0,303.07,656c-1.84-1.77-4.29-3.41-6.77-2.8-3.3.81-4.44,5-4.23,8.36A24,24,0,0,0,299,676.8c4,4,8.08,6.4,13.78,6.76" transform="translate(-147.68 -133.55)"/><path class="cls-19" d="M310.15,717.94c-.43-8.84-4.58-22.16-10.41-28.81a10.42,10.42,0,0,0-3.2-2.68,4.24,4.24,0,0,0-4,0c-1.7,1.06-2,3.37-2,5.37a34.48,34.48,0,0,0,19.66,30.5" transform="translate(-147.68 -133.55)"/><path class="cls-20" d="M303.39,756.09a50,50,0,0,0-11.7-23.47c-1.38-1.55-3.07-3.11-5.15-3.17-3.14-.1-5.3,3.31-5.69,6.43-.79,6.43,3,12.52,7.1,17.5,4.47,5.36,13.16,10.73,13.16,10.73" transform="translate(-147.68 -133.55)"/><path class="cls-21" d="M297.13,781.57c-2.23-6.71-5.4-13.24-10.29-18.35a10.13,10.13,0,0,0-3.69-2.69,4.23,4.23,0,0,0-4.32.67c-1.79,1.71-1.07,4.69,0,6.93,3.63,7.74,8.92,14.14,16.36,18.33" transform="translate(-147.68 -133.55)"/><path class="cls-22" d="M302.72,768.34a153.88,153.88,0,0,1,23.63-15.66c1.3-.7,2.9-1.38,4.18-.64a3,3,0,0,1,1.23,3,7.69,7.69,0,0,1-1.43,3.08c-6.43,9.36-18.14,15.27-29.48,15.73" transform="translate(-147.68 -133.55)"/><path class="cls-23" d="M309.19,734.82l19.22-15.36a18.82,18.82,0,0,1,5.95-3.65c2.23-.69,4.93-.41,6.52,1.31s1.67,4.43.79,6.59a16.58,16.58,0,0,1-4.28,5.48c-4.05,3.8-8.5,7.31-13.63,9.44s-9.63,3.27-14.84,1.34" transform="translate(-147.68 -133.55)"/><path class="cls-24" d="M315.06,696.78A54.32,54.32,0,0,1,335.31,677a9.15,9.15,0,0,1,4.5-1.48c3.19.06,5.59,3.24,6,6.4a12.9,12.9,0,0,1-3.54,9.8,27.11,27.11,0,0,1-8.79,6.06,62.56,62.56,0,0,1-18.92,5.56" transform="translate(-147.68 -133.55)"/><path class="cls-25" d="M315.41,662.71c3.77-10.47,11.29-18.25,19.65-25.6,1.76-1.55,4.09-3.09,6.28-2.27a4.52,4.52,0,0,1,2.61,3.42,10.46,10.46,0,0,1-.31,4.44,34.06,34.06,0,0,1-27.95,25.16" transform="translate(-147.68 -133.55)"/><path class="cls-26" d="M314.1,645.42c1.72-5.43,3.44-10.9,4.1-16.55s.23-11.57-2.23-16.71a13.15,13.15,0,0,0-4.6-5.6,7.2,7.2,0,0,0-7-.54,7.54,7.54,0,0,0-3.6,5.49,19.26,19.26,0,0,0,.36,6.76c2,10.64,6.47,22.91,13,27.15" transform="translate(-147.68 -133.55)"/><path class="cls-27" d="M880.42,673.57c8.78-.2,17.27,3.35,24.43,8.43,3.85,2.73,7.6,6.11,8.92,10.63s-.84,10.33-5.43,11.44c-2.73.66-5.56-.42-8.07-1.68-6.06-3-12.3-7.41-19-6.11-3.8.74-7.34,3.32-11.16,2.73s-6.48-4.28-6.77-8.06,1.43-7.47,3.84-10.38A16.82,16.82,0,0,1,880.42,673.57Z" transform="translate(-147.68 -133.55)"/><path class="cls-28" d="M879.46,634.72c1.31,8.21,10.63,10.25,16.32,8.39s10-6.48,14-10.93c9.15-10.15,18.61-20.87,21.94-34.12,1-4,1.4-8.21.17-12.11s-4.34-7.37-8.35-8.16c-4.74-.94-9.36,1.9-13.16,4.9a96,96,0,0,0-26.57,32.9c-2.93,6-5.28,12.56-4.31,19.13" transform="translate(-147.68 -133.55)"/><path class="cls-29" d="M863.4,637.77c7.35-3.26,12.16-10.89,13.46-18.82s-.51-16.11-3.57-23.54A72.91,72.91,0,0,0,857.79,572c-2.61-2.64-5.5-5.13-9-6.43s-7.64-1.23-10.63,1c-4.41,3.26-4.8,9.62-4.53,15.1a185.13,185.13,0,0,0,3.69,28.72c1.6,7.61,3.85,15.44,9.16,21.12s12.24,8.68,17.9,5.84" transform="translate(-147.68 -133.55)"/><path class="cls-30" d="M834.16,727a14.48,14.48,0,0,0,1.75-2.59l4.44-7.24a123.69,123.69,0,0,1,7.13-10.31,95.73,95.73,0,0,1,10.46-11.18A53.61,53.61,0,0,1,870.45,687a27.73,27.73,0,0,1,11.93-2.92,26.54,26.54,0,0,1,8.23,1.25,15.14,15.14,0,0,0,3,1,14.25,14.25,0,0,0-2.8-1.42,24.17,24.17,0,0,0-8.4-1.69A27.94,27.94,0,0,0,870,686a52.89,52.89,0,0,0-12.87,8.75,89.35,89.35,0,0,0-10.53,11.41,103.31,103.31,0,0,0-7,10.56c-1.81,3.11-3.17,5.68-4.1,7.46A15.16,15.16,0,0,0,834.16,727Z" transform="translate(-147.68 -133.55)"/><path class="cls-31" d="M837.53,721.4a6.13,6.13,0,0,0,.71-1.25l1.79-3.7c1.55-3.21,3.81-7.85,6.77-13.5,5.86-11.31,12.86-23.16,23.23-39.62,9.76-15.47,21.45-33.31,30-44.43,1.92-2.55,3.7-4.81,5.3-6.78s2.93-3.69,4.1-5l2.61-3.17a5.72,5.72,0,0,0,.84-1.16,5.83,5.83,0,0,0-1,1l-2.8,3c-1.22,1.3-2.64,3-4.27,4.91s-3.5,4.15-5.46,6.67a464.19,464.19,0,0,0-28.71,40.82c-10.39,16.49-19,31.93-24.64,43.38-2.87,5.71-5,10.42-6.43,13.7L838,720A6,6,0,0,0,837.53,721.4Z" transform="translate(-147.68 -133.55)"/><path class="cls-32" d="M852.51,690.85a28.27,28.27,0,0,0,1.85-3.88,116.55,116.55,0,0,0,3.91-11,154.79,154.79,0,0,0,4-16.89,140,140,0,0,0,2.41-21.13c.82-15.1-1.37-28.84-4.52-38.23a54,54,0,0,0-2.41-6.23c-.4-.9-.72-1.76-1.11-2.51l-1.13-2a25.6,25.6,0,0,0-2.24-3.66c-.3.16,3.11,5.31,6,14.68s4.91,22.93,4.1,37.91a158.45,158.45,0,0,1-2.29,21c-1.06,6.41-2.46,12.1-3.73,16.85s-2.58,8.5-3.5,11.09A27.75,27.75,0,0,0,852.51,690.85Z" transform="translate(-147.68 -133.55)"/><rect class="cls-33" x="496.64" y="83.91" width="340" height="334" rx="24.7"/><line class="cls-34" x1="504.41" y1="282.8" x2="586.02" y2="402.08"/><rect class="cls-35" x="650.45" y="414.51" width="4.5" height="4.68" transform="translate(480.51 -490.76) rotate(55.62)"/><rect class="cls-35" x="732.39" y="534.45" width="4.5" height="4.68" transform="translate(615.19 -506.17) rotate(55.62)"/><rect class="cls-35" x="691.3" y="473.29" width="9.28" height="9.65" transform="translate(549.91 -499.78) rotate(55.62)"/><path class="cls-36" d="M985,247H644V237c0-11.3,10.16-20,21.47-20h301A18.51,18.51,0,0,1,985,235.51Z" transform="translate(-147.68 -133.55)"/><circle class="cls-4" cx="525.14" cy="98.41" r="8.5"/><circle class="cls-3" cx="551.33" cy="98.73" r="6.18"/><circle class="cls-37" cx="596.66" cy="99.06" r="6.18"/><circle class="cls-4" cx="574.66" cy="99.06" r="6.18"/><path class="cls-38" d="M628.24,474.18s17-3.59,17.94-3.47.78,1.39.72,2.39a8.83,8.83,0,0,1-.66,1.7c-1.15,2.62-3.09,7.3.43,8.15,4.63,1.11,9-9.39,9.43-11.14a5.54,5.54,0,0,0-.27-2.37c-.77-2.77-2.93-6.75-6.3-7.63-4.62-1.21-9.77-.3-14.3.18Z" transform="translate(-147.68 -133.55)"/><path class="cls-39" d="M628.24,474.18s17-3.59,17.94-3.47.78,1.39.72,2.39a8.83,8.83,0,0,1-.66,1.7c3.42-1.89,7.19-4,9.59-5.36-.77-2.77-2.93-6.75-6.3-7.63-4.62-1.21-9.77-.3-14.3.18Z" transform="translate(-147.68 -133.55)"/><path class="cls-40" d="M625.24,498.05c.87-.53,9-3.85,15.14-6.35,1.42-4.92,5.39-14.38,6.43-16.89.68-3,3.84-9,4.12-8.88.52.22,2.36,1,4.66,1.75,3,1,6.9,2,9.61,1.66a3.46,3.46,0,0,0,3.07-1.87c.87-2.05-3.54-4.13-8.54-7.06-6.81-4-15.4-8.53-19.4-7.11-5.92,2.09-11.46,9.77-13.37,11.86S614,477,614,477C612.05,492.18,624.07,498.75,625.24,498.05Z" transform="translate(-147.68 -133.55)"/><path class="cls-41" d="M611.9,476.37c-5.72,5.73-18.18,15.14-22.08,16.85-2.66,1.16-23.8-4.47-38.52-8.28-12.29-3.18-15.26,3.54-4.9,12.48,8.17,7.06,40.56,27.9,50.23,24.4,15.18-5.48,29.45-17.49,37.44-23.84" transform="translate(-147.68 -133.55)"/><path class="cls-39" d="M585.93,491.09s3.7,4.33,12.07-3.17l14.73-12.55,22.7,21.2-36.77,9.92Z" transform="translate(-147.68 -133.55)"/><path class="cls-39" d="M569.4,515.63s24.06,24.7,66.22-19.46l-8.08-7Z" transform="translate(-147.68 -133.55)"/><polygon class="cls-42" points="545.8 346.33 531.52 351.17 526.49 346.08 528.42 337.96 535.21 335.67 545.8 346.33"/><rect class="cls-43" x="669.86" y="474.16" width="8.34" height="2.28" transform="translate(1144.65 -204.08) rotate(103.37)"/><rect class="cls-43" x="680.28" y="475.92" width="2.28" height="2.28" transform="translate(1155.45 -209.1) rotate(103.37)"/><path class="cls-42" d="M674,471l-44.09-8.35s-4.26,1.12-1.08,3.83,43.26,12.76,43.26,12.76" transform="translate(-147.68 -133.55)"/><path class="cls-40" d="M640.38,491.7c2.1-.85,4-1.58,5.26-2.05a16.12,16.12,0,0,0,9.21-7.61c1.89-3.13,12.22-6.93,6.94-9.83s-14,5.37-15,4.08a2.11,2.11,0,0,1,0-1.48C645.77,477.32,641.8,486.78,640.38,491.7Z" transform="translate(-147.68 -133.55)"/><path class="cls-40" d="M647.39,472.94c.07-.12.14-.07.1.09-.15.48-.78,2.64-.31,2.84.83.36,5.5-2.49,7.67-3.35.12,0,.19.11.08.15a35.37,35.37,0,0,0-3.16,1.72c-1,.56-3.87,2.48-4.91,2C646.17,476.12,647.13,473.43,647.39,472.94Z" transform="translate(-147.68 -133.55)"/><line class="cls-34" x1="534.86" y1="343.72" x2="546.37" y2="346.46"/><ellipse class="cls-44" cx="418.14" cy="714.91" rx="309.5" ry="49"/><path class="cls-45" d="M768.61,641.75" transform="translate(-147.68 -133.55)"/><polygon class="cls-46" points="490.64 638.91 490.64 641.84 490.63 638.91 490.64 638.91"/><rect class="cls-4" x="437.64" y="114.91" width="47" height="180" rx="11.49"/><polygon class="cls-35" points="458.17 159.91 457.64 174.91 462.42 171.06 468.35 170.62 458.17 159.91"/><polygon class="cls-34" points="458.18 134.67 457.68 148.67 462.15 145.08 467.68 144.67 458.18 134.67"/><polygon class="cls-35" points="457.53 198.28 467.63 194.66 468.18 189.6 463.51 185.93 458.72 187.66 457.53 198.28"/><rect class="cls-4" x="609.88" y="324.11" width="1.62" height="1.62" transform="translate(183.74 -441.5) rotate(38.17)"/><line class="cls-47" x1="462.48" y1="191.99" x2="457.27" y2="198.61"/><rect class="cls-35" x="612.52" y="318.1" width="5.65" height="2.42" transform="translate(181.27 -445.57) rotate(38.17)"/><polygon class="cls-35" points="457.35 222.12 467.44 218.5 467.99 213.43 463.32 209.77 458.53 211.49 457.35 222.12"/><rect class="cls-4" x="609.69" y="347.94" width="1.62" height="1.62" transform="translate(198.43 -436.28) rotate(38.17)"/><line class="cls-47" x1="462.29" y1="215.82" x2="457.09" y2="222.44"/><rect class="cls-35" x="612.33" y="341.93" width="5.65" height="2.42" transform="translate(195.96 -440.36) rotate(38.17)"/><path class="cls-48" d="M596.32,342.45s5-1,5,3-2,6,3,10" transform="translate(-147.68 -133.55)"/><rect class="cls-49" x="455.14" y="234.41" width="16" height="13"/><path class="cls-35" d="M605.32,402.45l7.4-9.25a2.27,2.27,0,0,1,2.1-.87,1.62,1.62,0,0,1,1.19.76,1.81,1.81,0,0,1-.22,2l-7.47,9.33-3-2" transform="translate(-147.68 -133.55)"/><path class="cls-35" d="M604.32,404.45s-2,0-3,3a3.1,3.1,0,0,1-4,2s4.33,1.45,8.08-.57a2.36,2.36,0,0,0-1-4.43Z" transform="translate(-147.68 -133.55)"/><polygon class="cls-50" points="381.43 538.21 378.14 558.77 346.41 727.77 337.14 727.77 362.14 559.77 364.79 538.21 381.43 538.21"/><path class="cls-50" d="M616.82,861.31h-9.28L575.81,695.74c-.44-2.3-.69-5.1-1-7.43l-2.3-16.55h16.64l2.66,20.55Z" transform="translate(-147.68 -133.55)"/><polygon class="cls-2" points="361.14 566.77 376.14 568.77 381.56 538.21 365.14 537.77 361.14 566.77"/><polygon class="cls-2" points="445.14 566.77 429.14 566.77 424.74 538.21 441.14 537.77 445.14 566.77"/><rect class="cls-50" x="354.23" y="517.29" width="101.84" height="21.1"/><path class="cls-40" d="M772.62,814.92c-3.19,1.38-97.13,9.56-100.91,7.61-1.44-.73-3.43-14.35-5.37-30.86-.41-3.57-.82-7.26-1.22-11-2.6-24.31-4.79-50.17-4.79-50.17l62.83-5.65,3.06,50.32.68,11.05s37.37,12.95,41.28,15.54S775.8,813.53,772.62,814.92Z" transform="translate(-147.68 -133.55)"/><path class="cls-35" d="M772.62,814.92c-3.19,1.38-97.13,9.56-100.91,7.61-1.75-.9-4.32-20.81-6.59-41.86l61.1-5.5.68,11.05s37.37,12.95,41.28,15.54S775.8,813.53,772.62,814.92Z" transform="translate(-147.68 -133.55)"/><path class="cls-51" d="M772.62,814.92c-3.19,1.38-98,8.34-101.8,6.39-1.44-.73-2.54-13.13-4.48-29.64l60.56-5.45s37.37,12.95,41.28,15.54S775.8,813.53,772.62,814.92Z" transform="translate(-147.68 -133.55)"/><path class="cls-39" d="M770.94,811.28c-15.78,1-79.34,6.44-94.86,8.61-.13,0-.12.11,0,.1,15.66-.63,79.17-6.61,94.88-8.45C771.3,811.5,771.28,811.26,770.94,811.28Z" transform="translate(-147.68 -133.55)"/><path class="cls-35" d="M761.85,798.91a12.69,12.69,0,0,0-9.09,4.66,12.34,12.34,0,0,0-2.79,8.72c0,.09.19.08.19,0a14.7,14.7,0,0,1,11.7-13.17A.1.1,0,0,0,761.85,798.91Z" transform="translate(-147.68 -133.55)"/><path class="cls-35" d="M733.14,787.25c-6.31.46-13.42,3.32-16.89,8.82-.13.21.17.4.35.29A87.86,87.86,0,0,1,733.32,788,.4.4,0,0,0,733.14,787.25Z" transform="translate(-147.68 -133.55)"/><path class="cls-35" d="M738.17,788.73c-6.31.46-13.42,3.32-16.89,8.81-.13.22.17.41.35.29a87.86,87.86,0,0,1,16.72-8.34A.39.39,0,0,0,738.17,788.73Z" transform="translate(-147.68 -133.55)"/><path class="cls-35" d="M743.2,790.2c-6.31.46-13.42,3.32-16.89,8.82-.13.21.17.4.35.29A86.7,86.7,0,0,1,743.38,791,.4.4,0,0,0,743.2,790.2Z" transform="translate(-147.68 -133.55)"/><path class="cls-35" d="M748.24,791.67c-6.32.46-13.43,3.32-16.9,8.82-.13.21.17.4.35.29a87.86,87.86,0,0,1,16.72-8.34A.4.4,0,0,0,748.24,791.67Z" transform="translate(-147.68 -133.55)"/><path class="cls-40" d="M657.56,858.38c-3.47.21-94.53-24.28-97.42-27.4-1.1-1.18,1.7-14.66,5.53-30.84.83-3.49,1.71-7.09,2.62-10.75,5.88-23.73,12.68-48.78,12.68-48.78l61,16.2-14.36,48.33-3.14,10.62s30.68,25,33.47,28.74S661,858.17,657.56,858.38Z" transform="translate(-147.68 -133.55)"/><path class="cls-35" d="M657.56,858.38c-3.47.21-94.53-24.28-97.42-27.4-1.33-1.45,3.07-21,8.15-41.59l59.28,15.75-3.14,10.62s30.68,25,33.47,28.74S661,858.17,657.56,858.38Z" transform="translate(-147.68 -133.55)"/><path class="cls-52" d="M520.76,383.45s-20-3.81-24.74,15.22-26.65,57.1-26.65,57.1l23.79-19" transform="translate(-147.68 -133.55)"/><path class="cls-52" d="M517.91,384.4s12.37-3.81,19,1.9S560.48,446.43,557,470" transform="translate(-147.68 -133.55)"/><path class="cls-53" d="M536.94,492.88s9.51,4.76,24.74-9.51-35.06-13-35.06-13Z" transform="translate(-147.68 -133.55)"/><path class="cls-54" d="M500.78,404.38l-13.33,43.78L557,470l-6.87-25.67a122.78,122.78,0,0,1-2.79-13.44l-1.84-12.23-4.76-23.79-10.46-5.71-6.66-2.86-21.89,12.37Z" transform="translate(-147.68 -133.55)"/><path class="cls-55" d="M470.6,568.91c-10.8,23.42-6.18,51.19,12.52,69,.54.52,1.1,1,1.67,1.57,34.26,31.4,110.39,21.89,110.39,21.89s-2.81,20.93-4.71,37.11S561,781.23,561,781.23l75.18,13.33s39-79.94,22.84-121.82-102.77-65.66-102.77-65.66,3.8-20.93-4.76-37.11c0,0-29.5,9.51-78-9.52A34.91,34.91,0,0,1,470.6,568.91Z" transform="translate(-147.68 -133.55)"/><path class="cls-55" d="M551.45,570l104.27,24.95a44.32,44.32,0,0,1,21,11.5,31.62,31.62,0,0,1,8.9,14.94c3.81,16.17,53.29,148.45,53.29,148.45l-76.13,6.66s-23.79-77.08-20.94-119l-85.64-50.44S540,585.19,551.45,570Z" transform="translate(-147.68 -133.55)"/><path class="cls-39" d="M662.79,776.47s-29.5-98-23.79-124.66c0,0-106.62,32.35-151.35-9.52,0,0,48.53,39,155.16,1.91,0,0-5.8,35.12,31.36,131.28Z" transform="translate(-147.68 -133.55)"/><path class="cls-39" d="M672.31,802.17" transform="translate(-147.68 -133.55)"/><path class="cls-39" d="M674.21,761.25s20.94,4.76,51.39-1.91c0,0-20,10.47-48.54,7.62Z" transform="translate(-147.68 -133.55)"/><path class="cls-39" d="M693.24,797.41" transform="translate(-147.68 -133.55)"/><path class="cls-39" d="M595.18,661.33s-18.08,79-34.25,119.9l10.54,1.86s28.37-72.68,29.37-122.92Z" transform="translate(-147.68 -133.55)"/><path class="cls-56" d="M634.36,653.11s4.6,86.25-29.66,133.83l-1,1.87,32.4,5.75s15.73-35.85,18.33-47.9c0,0-18.33-62.5-15.48-94.85Z" transform="translate(-147.68 -133.55)"/><path class="cls-39" d="M572.45,763.38s18.24,11.33,49.2,15c0,0-22.31,3.38-48.37-8.63Z" transform="translate(-147.68 -133.55)"/><path class="cls-41" d="M533.16,450.61c29,22.37,55.35,48,58.45,63,2,9.46-5.3,24.68-10.6,33.66-2.58,4.38-43.5-21.83-39.13-25,10.81-8,13-11.57,12.33-13.69-.39-1.35-29.9-38-37.25-53.48C506.72,433.53,520.48,440.82,533.16,450.61Z" transform="translate(-147.68 -133.55)"/><path class="cls-39" d="M467.47,541.42c5.71-1.91,75.82,13.34,76.76,12.45,1.31-1.24-7.27-88.43-20.69-110-3.35-5.39-19.14-9.4-26.22-2.07C470,470.14,466.35,541.79,467.47,541.42Z" transform="translate(-147.68 -133.55)"/><path class="cls-41" d="M517.37,562.59c3.75,3.09,10.6-6.81,10.6-6.81a9,9,0,0,0,1.48,5.93c2.2,3,7.82.81,7.82.81a11.06,11.06,0,0,0,2.56,6c2.39,2.63,8.38,1.27,8.38,1.27a9.66,9.66,0,0,0,5.56,3.85c6.1,1.3,12.71-5.55,17-9.86s12.26-20.51,14.1-23.44L557.4,512.82s-24.54,13.91-28.82,19.69C525,537.38,511.63,557.86,517.37,562.59Z" transform="translate(-147.68 -133.55)"/><path class="cls-39" d="M527.92,555.62c2.59-6.09,6.63-11.56,10.59-16.78.09-.12.27,0,.18.13-4,5.16-6.71,11.5-10.49,16.81A.16.16,0,0,1,527.92,555.62Z" transform="translate(-147.68 -133.55)"/><path class="cls-39" d="M537,562.07a17.23,17.23,0,0,1,2.66-3.65q1.53-1.83,3.14-3.62,3.21-3.59,6.59-7c.1-.1.28,0,.18.14-2.13,2.38-4.22,4.79-6.24,7.26-1,1.23-2,2.47-3,3.72a20.14,20.14,0,0,1-3,3.41A.23.23,0,0,1,537,562.07Z" transform="translate(-147.68 -133.55)"/><path class="cls-39" d="M548.29,569.67a12.09,12.09,0,0,1,2.57-3.15c1-1.07,2-2.14,3-3.22,2-2.15,3.93-4.31,5.83-6.53.09-.11.27,0,.18.14-1.91,2.27-3.79,4.56-5.73,6.81-.94,1.1-1.9,2.2-2.86,3.3a11.32,11.32,0,0,1-2.85,2.76C548.33,569.81,548.27,569.73,548.29,569.67Z" transform="translate(-147.68 -133.55)"/><path class="cls-41" d="M491.62,444.14c-44.72,22.51-86.18,57.44-85.25,71,1,14.37,29.66,29.3,53.13,36.77,4.81,1.53,22.32-26.47,17.58-29-3.7-2-20.65-10.3-22.34-13.13-1.18-2,33.57-36,46.27-54.73C514.29,435.44,503.59,438.12,491.62,444.14Z" transform="translate(-147.68 -133.55)"/><path class="cls-40" d="M467.13,520s14.76,4.21,24.28,7.43c5.31,1.79,14.14,5.68,17.44,8.78,4.93,4.64,22.61,27.19,17.24,31.6-4.87,4-9.59-4.57-9.59-4.57s6,8.86,0,11.33-11.16-9.24-11.16-9.24,7.06,9,.36,11c-5.82,1.76-13.12-11.12-13.12-11.12s8.45,8.59,2.66,11c-4.39,1.81-12.09-6.1-16.47-11.22a33.94,33.94,0,0,0-8.44-7.08c-10.23-6.08-18.14-11.61-23.68-17.15C445.4,539.46,467.13,520,467.13,520Z" transform="translate(-147.68 -133.55)"/><path class="cls-39" d="M503.16,438.49s2.85-1.08,2.85,8.57c0,13.82-48.12,58.28-48.12,58.28s-7.23,6,24.11,17.68c0,0-5.6,22.26-21.28,28.81-12.21,5.1-41.39-16.4-53.2-25.64-7.26-5.68-7.82-15-2.38-22.39.4-.55.84-1.11,1.32-1.67C416.11,490.88,486.54,441,503.16,438.49Z" transform="translate(-147.68 -133.55)"/><path class="cls-39" d="M523.79,444.27s57.32,38.46,66.42,65l-35.89-.74-19.49-23.93S530.21,460.34,523.79,444.27Z" transform="translate(-147.68 -133.55)"/><path class="cls-6" d="M461.51,502s-10.69,6-17.36,4.08A13.31,13.31,0,0,0,459,510.81S455.07,506.47,461.51,502Z" transform="translate(-147.68 -133.55)"/><path class="cls-6" d="M467.42,496.32s17.69-10.69,23.4-24Z" transform="translate(-147.68 -133.55)"/><path class="cls-6" d="M504.11,437.54s5.61,8.9-2.91,21.11S491.33,471,492.49,470s12-18.37,7.81-30.53l3.81-1.9" transform="translate(-147.68 -133.55)"/><path class="cls-6" d="M496,465s-27.1,38.2-13.78,58.19c0,0-8.85-2.46-12.85-5.56L467,496.54Z" transform="translate(-147.68 -133.55)"/><path class="cls-6" d="M410.73,527.36c3.2,2.3,12.7,6.4,33.42-3.22,0,0-9.14,13.33-25.22,10.62l-13.32-10.47.78.39A30.7,30.7,0,0,1,410.73,527.36Z" transform="translate(-147.68 -133.55)"/><path class="cls-6" d="M523.84,445c7.37,12.24,11.16,40,11.16,40s16.65,22,18,22h9c-5.16-9.45-29-32-29-32" transform="translate(-147.68 -133.55)"/><path class="cls-6" d="M533.31,467" transform="translate(-147.68 -133.55)"/><path class="cls-6" d="M484.6,487.17s9.51,11.42,22.84,2.86c0,0-6.57,13.06-26.65-.95l-1.9-.95,4.67-7.1S482.69,485.27,484.6,487.17Z" transform="translate(-147.68 -133.55)"/><path class="cls-6" d="M479.55,492.2s18.37,12.1,27.89-2.17c0,0-9.62,12.28-26.65-1.9Z" transform="translate(-147.68 -133.55)"/><path class="cls-40" d="M515.86,455.33c-3.93-.5-10.78-9.21-12.88-15.91-.14-.46,1.37-4.7,3-9.94.95-3.18,1.94-6.74,2.6-10.06l19.8,9.22A53.91,53.91,0,0,0,523.78,441a6.73,6.73,0,0,0-.13,1.39c0,.06,0,.14,0,.23C523.53,445.27,522,456.12,515.86,455.33Z" transform="translate(-147.68 -133.55)"/><path class="cls-57" d="M523.64,442.37a1.89,1.89,0,0,0,0,.24,15.52,15.52,0,0,1-2.18-.32c-12-2.69-12-18.13-11.8-22.33l18.68,8.68A54.27,54.27,0,0,0,523.77,441,10.13,10.13,0,0,0,523.64,442.37Z" transform="translate(-147.68 -133.55)"/><path class="cls-40" d="M506.79,397.09c-2.5,7.46.88,29.29,6.1,34.28,7.56,7.24,20.24,8.25,26.46-.91,6-8.87,1.12-37.25-4.74-41.82C526,381.92,510.48,386.07,506.79,397.09Z" transform="translate(-147.68 -133.55)"/><path class="cls-39" d="M526.34,410.76c0-.05-.1.1-.09.15.33,1.46.47,3.17-.76,3.92a0,0,0,0,0,0,.08C527.09,414.37,526.88,412.09,526.34,410.76Z" transform="translate(-147.68 -133.55)"/><path class="cls-39" d="M524.74,409.49c-2.39.28-1.65,5,.55,4.77S526.73,409.26,524.74,409.49Z" transform="translate(-147.68 -133.55)"/><path class="cls-39" d="M534.56,409.22c0-.06.13,0,.13.11.18,1.48.64,3.14,2,3.42,0,0,.06.09,0,.09C535.08,412.86,534.49,410.65,534.56,409.22Z" transform="translate(-147.68 -133.55)"/><path class="cls-39" d="M535.64,407.48c2.33-.55,3.25,4.17,1.09,4.67S533.68,407.94,535.64,407.48Z" transform="translate(-147.68 -133.55)"/><path class="cls-40" d="M511,414.92c.15-.05-4.4-7.22-8.07-5.33-3.23,1.67.43,11.94,4.16,13.36a3.81,3.81,0,0,0,5.12-2Z" transform="translate(-147.68 -133.55)"/><path class="cls-57" d="M504,411.54a.05.05,0,0,0,0,.1c2.61,1.08,4,3.53,4.93,6.06a2.1,2.1,0,0,0-3.14-.6.08.08,0,0,0,.07.14,2.34,2.34,0,0,1,2.57.84,11.43,11.43,0,0,1,1.22,2.09c.12.24.54.11.46-.16a.14.14,0,0,1,0-.06C510.16,416.61,507.59,411.9,504,411.54Z" transform="translate(-147.68 -133.55)"/><path class="cls-40" d="M538.07,427.81a2,2,0,0,0-2-2.16h-4.21c-3,0-8.68.84-8.81,1.47-.32,1.58-.32,7.67,11.86,4.62A4.49,4.49,0,0,0,538.07,427.81Z" transform="translate(-147.68 -133.55)"/><path class="cls-39" d="M533.82,425.78s-3.91,2.51-8,.56C525.8,426.34,530.18,431.32,533.82,425.78Z" transform="translate(-147.68 -133.55)"/><path class="cls-52" d="M506.82,410.31l4.42,4.54S507.3,411.7,517,402a43.64,43.64,0,0,0,5.34-7.11A21.55,21.55,0,0,1,526,390h0a25.79,25.79,0,0,0,6.12,3.8,17.24,17.24,0,0,1,9.28,11.25c3,12,6.82,33.72.71,52.56L552,466l5,3s-2.32-9.24-5-24c-2-11-7-32.76-8-42.94a21.83,21.83,0,0,0-6.66-13.84,18.67,18.67,0,0,0-16.57-4.77s-23.79,0-23.79,23.79S469.07,456,469.07,456s19.64-12.45,30-16.31c0,0,3.3-.63,4.42-2.24s4-14,4-14a14.63,14.63,0,0,1-5.79-11.53s.19-3.4,3.17-2.57A4.73,4.73,0,0,1,506.82,410.31Z" transform="translate(-147.68 -133.55)"/><path class="cls-45" d="M577.64,410.06" transform="translate(-147.68 -133.55)"/><path class="cls-45" d="M538.84,395.82" transform="translate(-147.68 -133.55)"/><path class="cls-54" d="M524.81,437.07a29.89,29.89,0,0,0-1.27,6.81s20.17,14.93,24.4,18.64c0,0-2.94-23.52-4.94-43.52C543,419,541,438,524.81,437.07Z" transform="translate(-147.68 -133.55)"/><path class="cls-58" d="M526.23,405.45a2,2,0,0,1,.93,2.79s-5.57-1.86-8.35.92l-1.86.93a10.49,10.49,0,0,1,4.64-3.71A16.24,16.24,0,0,1,526.23,405.45Z" transform="translate(-147.68 -133.55)"/><path class="cls-58" d="M532.7,404.55a1.62,1.62,0,0,0,.09,2.34s3.64-2.95,6.51-1.65l1.65.17a8.34,8.34,0,0,0-4.52-1.47A13.06,13.06,0,0,0,532.7,404.55Z" transform="translate(-147.68 -133.55)"/><path class="cls-58" d="M531.23,413s2.85,3.8,2.85,6.66-4.75,1.9-4.75,1.9,4.75,0,3.8-2.85Z" transform="translate(-147.68 -133.55)"/><path class="cls-54" d="M501.65,413s1.66,20.58-15.58,33c0,0,10.9-4.81,16.75-6.61l4.87-16.15S502.82,421.31,501.65,413Z" transform="translate(-147.68 -133.55)"/><path class="cls-59" d="M497.13,571.61s-4.31-11.3-10.31-16.3c0,0,8.63,13.81,10.31,17.41Z" transform="translate(-147.68 -133.55)"/><path class="cls-59" d="M508.82,570.87s-4.31-11.3-10.31-16.3c0,0,8.62,13.81,10.31,17.4Z" transform="translate(-147.68 -133.55)"/><path class="cls-59" d="M515.82,562.87s-4.31-11.3-10.31-16.3c0,0,8.62,13.81,10.31,17.4Z" transform="translate(-147.68 -133.55)"/><rect class="cls-60" x="324.72" y="440.65" width="107.98" height="4.84"/><polygon class="cls-60" points="367.66 445.49 472.89 445.49 481.65 374.02 376.42 374.02 367.66 445.49"/><path class="cls-61" d="M523.82,507.31a3.66,3.66,0,0,1,3.5,2.84c1,3-8.17,69-8.17,69l-6.64-.15" transform="translate(-147.68 -133.55)"/><path class="cls-6" d="M482,523s-4.5-24.37,12.16-26c0,0-6.34-.67-14.34-5.67C479.82,491.31,473.18,508.73,482,523Z" transform="translate(-147.68 -133.55)"/><path class="cls-39" d="M577.34,489.44s2.47,5.12,12.48,0L607.25,481l16.57,26.28-38.08.25Z" transform="translate(-147.68 -133.55)"/><path class="cls-39" d="M523.7,409.91c-.34.23-.67.62-1.09.67s-.84-.36-1.16-.75c0,0-.06,0-.06.05,0,.75.29,1.52,1.1,1.62s1.26-.58,1.44-1.33C524,410,523.84,409.82,523.7,409.91Z" transform="translate(-147.68 -133.55)"/><path class="cls-39" d="M536.62,407.91c.34.23.67.62,1.08.67s.85-.36,1.17-.75c0,0,.06,0,.06.05,0,.75-.29,1.52-1.1,1.62s-1.26-.58-1.44-1.33C536.36,408,536.48,407.82,536.62,407.91Z" transform="translate(-147.68 -133.55)"/><polygon class="cls-62" points="473.14 445.77 481.49 375.37 444.26 445.49 473.14 445.77"/><polygon class="cls-61" points="473.14 440.77 473.14 445.49 359.3 445.49 365.04 440.65 473.14 440.77"/><path class="cls-63" d="M810.75,750.22c-4.64-2.39-10.1-2.7-15.24-1.85-2.77.46-5.65,1.29-7.53,3.36s-2.24,5.73-.08,7.52a7.23,7.23,0,0,0,4.75,1.2c4,0,8.5-.75,11.71,1.67,1.84,1.38,3.06,3.68,5.26,4.36a5.18,5.18,0,0,0,5.71-2.54,8.88,8.88,0,0,0,.64-6.55A10,10,0,0,0,810.75,750.22Z" transform="translate(-147.68 -133.55)"/><path class="cls-64" d="M821.37,729.72c-2.84,4-8.35,2.71-10.9.24s-3.64-6.05-4.62-9.47c-2.24-7.8-4.51-16-2.84-23.93a13.29,13.29,0,0,1,3.06-6.51,7,7,0,0,1,6.58-2.19c2.78.73,4.51,3.45,5.75,6A57.06,57.06,0,0,1,824,718.39c0,3.94-.45,8.08-2.67,11.33" transform="translate(-147.68 -133.55)"/><path class="cls-65" d="M829.15,735.53c-3.08-3.65-3.66-9-2.29-13.55s4.46-8.47,8-11.65a43,43,0,0,1,14.37-8.48,15.34,15.34,0,0,1,6.47-1.1,6.78,6.78,0,0,1,5.42,3.28c1.52,2.89.07,6.39-1.5,9.24a109.66,109.66,0,0,1-9.45,14.38c-2.83,3.65-6.07,7.25-10.38,8.9S831,738,828.74,735" transform="translate(-147.68 -133.55)"/><path class="cls-66" d="M821.56,790.79a8.32,8.32,0,0,1-.26-1.84c-.13-1.34-.29-3-.49-5a70.34,70.34,0,0,0-1.13-7.36,56.86,56.86,0,0,0-2.67-8.69,32.24,32.24,0,0,0-4.44-7.87,16.55,16.55,0,0,0-5.61-4.66,15.4,15.4,0,0,0-4.73-1.47,8.75,8.75,0,0,1-1.83-.27,9,9,0,0,1,1.87,0,14.31,14.31,0,0,1,4.92,1.28,16.58,16.58,0,0,1,5.92,4.71,31.24,31.24,0,0,1,4.6,8,53,53,0,0,1,2.66,8.83,62.5,62.5,0,0,1,1,7.46c.16,2.13.22,3.86.25,5A9.26,9.26,0,0,1,821.56,790.79Z" transform="translate(-147.68 -133.55)"/><path class="cls-67" d="M821.21,786.93a4.46,4.46,0,0,1-.05-.86c0-.64,0-1.45,0-2.44,0-2.12,0-5.18-.11-9-.19-7.57-.84-15.72-2.1-27.2-1.19-10.8-2.79-23.37-4.48-31.55-.36-1.86-.73-3.53-1.07-5s-.61-2.74-.88-3.76l-.57-2.37a4.34,4.34,0,0,1-.15-.85,3.43,3.43,0,0,1,.3.8l.71,2.34c.31,1,.64,2.28,1,3.74s.79,3.13,1.19,5a277.36,277.36,0,0,1,4.71,29.27c1.26,11.51,1.83,22,1.88,29.58,0,3.8,0,6.87-.14,9-.06,1-.11,1.8-.15,2.44A3.37,3.37,0,0,1,821.21,786.93Z" transform="translate(-147.68 -133.55)"/><path class="cls-68" d="M821.16,766.71a17.15,17.15,0,0,1,0-2.55c.09-1.64.32-4,.78-6.91a89.91,89.91,0,0,1,2.25-10.06,82.32,82.32,0,0,1,4.2-11.91A63.85,63.85,0,0,1,840.77,716a32.8,32.8,0,0,1,2.91-2.7c.45-.38.84-.75,1.24-1.05l1.13-.78a14.86,14.86,0,0,1,2.15-1.37c.12.16-3,2-7,6.28a66.73,66.73,0,0,0-12,19.17,93.91,93.91,0,0,0-4.23,11.8,102.22,102.22,0,0,0-2.39,10c-.53,2.87-.83,5.21-1,6.84A16.84,16.84,0,0,1,821.16,766.71Z" transform="translate(-147.68 -133.55)"/><polygon class="cls-36" points="693.02 668.83 690.99 696.58 655.34 696.58 653.32 668.83 693.02 668.83"/><rect class="cls-69" x="649.06" y="657.89" width="47.4" height="10.94"/><polygon class="cls-70" points="696.46 693.51 696.46 696.55 694.24 696.55 649.85 696.55 649.85 693.51 696.46 693.51"/><polygon class="cls-71" points="692.05 703.88 694.24 698.55 651.54 698.55 654.09 703.88 692.05 703.88"/><path class="cls-36" d="M798.7,832.39c0,.12,9.71.22,21.68.22s21.69-.1,21.69-.22-9.71-.22-21.69-.22S798.7,832.27,798.7,832.39Z" transform="translate(-147.68 -133.55)"/><path class="cls-35" d="M670.82,822.31s-3-4-3-14c0,0,69,5,106,1,0,0,1.24,6.69.18,8.69S693,822.31,670.82,822.31Z" transform="translate(-147.68 -133.55)"/><path class="cls-35" d="M761.82,799.31s-10,3-9,12h-2.56S750.82,799.31,761.82,799.31Z" transform="translate(-147.68 -133.55)"/><path class="cls-51" d="M657.67,858.38c-3.47.2-94.48-24.49-97.35-27.62-1.1-1.19,1.72-14.65,5.6-30.82l58.72,15.75s30.61,25,33.4,28.81S661.14,858.18,657.67,858.38Z" transform="translate(-147.68 -133.55)"/><path class="cls-35" d="M653.07,839.64a12.67,12.67,0,0,0-10.13,1.25,12.28,12.28,0,0,0-5.62,7.22c0,.09.14.14.18,0A14.66,14.66,0,0,1,653,839.83.1.1,0,1,0,653.07,839.64Z" transform="translate(-147.68 -133.55)"/><path class="cls-35" d="M630.14,818.81c-6.08-1.74-13.74-1.51-18.89,2.46-.2.15,0,.43.23.39a87.06,87.06,0,0,1,18.57-2.07A.4.4,0,0,0,630.14,818.81Z" transform="translate(-147.68 -133.55)"/><path class="cls-35" d="M634.36,821.93c-6.08-1.75-13.75-1.51-18.9,2.45-.2.16,0,.44.23.39a87.77,87.77,0,0,1,18.57-2.06A.4.4,0,0,0,634.36,821.93Z" transform="translate(-147.68 -133.55)"/><path class="cls-35" d="M638.57,825c-6.08-1.74-13.74-1.51-18.89,2.46-.2.15,0,.43.23.39a87.7,87.7,0,0,1,18.57-2.07A.4.4,0,0,0,638.57,825Z" transform="translate(-147.68 -133.55)"/><path class="cls-35" d="M642.79,828.16c-6.08-1.74-13.75-1.51-18.9,2.46-.2.15,0,.43.23.39a87.13,87.13,0,0,1,18.57-2.07A.4.4,0,0,0,642.79,828.16Z" transform="translate(-147.68 -133.55)"/><path class="cls-35" d="M559.82,831.31s-.76-5.51,2.68-14.89c0,0,62.19,27.89,98.32,36.89,0,0-1.14,6.18-2.82,7.69S580.67,839,559.82,831.31Z" transform="translate(-147.68 -133.55)"/><path class="cls-35" d="M652.91,840s-10.42-.63-12.58,8.16l-2.41-.88S642.58,836.22,652.91,840Z" transform="translate(-147.68 -133.55)"/><rect class="cls-2" x="155.64" y="445.91" width="470" height="10"/><rect class="cls-50" x="167.64" y="455.91" width="446" height="10"/><polygon class="cls-50" points="237.45 466.09 232.84 494.91 188.34 731.91 175.34 731.91 210.4 496.31 214.11 466.09 237.45 466.09"/><polygon class="cls-2" points="209 506.13 230.03 508.93 237.64 466.09 214.6 465.46 209 506.13"/><polygon class="cls-50" points="548.53 465.86 553.14 494.69 597.64 731.91 610.64 731.68 575.58 496.09 571.87 465.86 548.53 465.86"/><polygon class="cls-2" points="576.98 505.91 555.95 508.71 548.34 465.86 571.37 465.24 576.98 505.91"/><path class="cls-35" d="M863.11,386.77H837.44a2.43,2.43,0,0,0-.88.18h0a2.67,2.67,0,0,0-.81.52h0a2.75,2.75,0,0,0-.54.84h0a2.32,2.32,0,0,0-.19.94v27.26a2.56,2.56,0,0,0,2.42,2.56h25.67a2.15,2.15,0,0,0,.87-.18h0a2.09,2.09,0,0,0,.79-.52h0a3.06,3.06,0,0,0,.56-.82h0a2.9,2.9,0,0,0,.19-.92h0V389.35A2.55,2.55,0,0,0,863.11,386.77ZM840.4,413.69V395.44l17.75,18.25Zm21.54-3.27-17.73-18.27h17.73Z" transform="translate(-147.68 -133.55)"/><path class="cls-35" d="M792.89,381.39h-27a2.6,2.6,0,0,0-2.63,2.56h0v27.16a2.6,2.6,0,0,0,2.61,2.58H793a2.59,2.59,0,0,0,2.58-2.59V384A2.61,2.61,0,0,0,792.89,381.39Zm-2.73,26.91H768.62V386.77h21.54Z" transform="translate(-147.68 -133.55)"/><path class="cls-35" d="M864.68,422.66h-27a2.62,2.62,0,0,0-2.65,2.56V452.4a2.62,2.62,0,0,0,2.65,2.56h27a2.6,2.6,0,0,0,2.64-2.56h0V425.22a2.6,2.6,0,0,0-2.64-2.56Zm-2.74,26.92H840.4v-9h21.54Zm0-12.56H840.4v-9h21.54Z" transform="translate(-147.68 -133.55)"/><path class="cls-35" d="M792.89,420.87h-27a2.61,2.61,0,0,0-2.63,2.58V450.6a2.57,2.57,0,0,0,2.57,2.57h27.08a2.62,2.62,0,0,0,2.65-2.57V423.45A2.63,2.63,0,0,0,792.89,420.87Zm-2.73,26.91H768.62V426.25h21.54Z" transform="translate(-147.68 -133.55)"/><path class="cls-35" d="M816,421.36A17.19,17.19,0,0,0,798.85,439a17.39,17.39,0,0,0,16.7,16.7,17.19,17.19,0,0,0,17.67-17.19h0A17.21,17.21,0,0,0,816,421.36Zm-.21,29.22a12,12,0,1,1,12-12h0A12.07,12.07,0,0,1,815.82,450.58Z" transform="translate(-147.68 -133.55)"/><path class="cls-35" d="M801.76,374.21h27a2.6,2.6,0,0,0,2.65-2.55h0V344.47a2.55,2.55,0,0,0-2.57-2.56h-27.1a2.6,2.6,0,0,0-2.63,2.56h0v27.18a2.6,2.6,0,0,0,2.63,2.56Zm17.11-26.92h9v21.54h-9Zm-12.56,0h7.18v21.54h-7.18Z" transform="translate(-147.68 -133.55)"/><path class="cls-35" d="M864.69,341.91H837.76A2.63,2.63,0,0,0,835,344.4v27.24a2.61,2.61,0,0,0,2.66,2.57h27a2.6,2.6,0,0,0,2.63-2.57h0V344.47a2.6,2.6,0,0,0-2.63-2.56Zm-2.75,26.92H840.4v-9h21.54Zm0-12.56H840.4v-9h21.54Z" transform="translate(-147.68 -133.55)"/><path class="cls-35" d="M778.37,340.88a17.18,17.18,0,0,0-17.2,17.66,17.37,17.37,0,0,0,16.67,16.72,17.2,17.2,0,0,0,17.7-17.17v0A17.21,17.21,0,0,0,778.37,340.88Zm.64,29.23a12,12,0,1,1,12-12A12,12,0,0,1,779,370.11Z" transform="translate(-147.68 -133.55)"/><path class="cls-35" d="M815.82,382.15A17.2,17.2,0,1,0,833,399.34,17.2,17.2,0,0,0,815.82,382.15Zm-.54,29.67a12,12,0,0,1-12-12.21,12.2,12.2,0,0,1,11.87-11.87,12,12,0,0,1,12.21,12v0a12.07,12.07,0,0,1-12,12.07h0Z" transform="translate(-147.68 -133.55)"/><path class="cls-72" d="M984.32,366.22q3.33-6.41,6.5-13.27" transform="translate(-147.68 -133.55)"/><path class="cls-72" d="M649.5,540.5s7.82-75.05,84.82-66.05c74.42,8.7,185.75,15,250-108.23" transform="translate(-147.68 -133.55)"/><path class="cls-72" d="M636.82,263" transform="translate(-147.68 -133.55)"/><path class="cls-72" d="M645.5,252.5S652.17,328,729.17,319s193.5-15.39,256.5,121.5" transform="translate(-147.68 -133.55)"/><path class="cls-4" d="M353.92,517s-3.55,9.91-7.68,20-8.56,33.58-7.93,34.22S348.13,549.35,351,539,356,517.9,356,517.9Z" transform="translate(-147.68 -133.55)"/><polygon class="cls-5" points="206.2 383.22 203.44 389.94 207.21 391.07 208.73 384.08 206.2 383.22"/><path class="cls-6" d="M353.88,516.77c.4-5.53,4.79-10,4.79-10s1.79,6.5-2.26,10.89Z" transform="translate(-147.68 -133.55)"/><path class="cls-73" d="M343,504s1.4,10.44,3.33,21.18,1.36,34.63.61,35.13-5-23.49-5.64-34.23-.56-21.67-.56-21.67Z" transform="translate(-147.68 -133.55)"/><polygon class="cls-5" points="195.4 370.23 196.7 377.38 192.78 377.69 192.75 370.54 195.4 370.23"/><path class="cls-6" d="M340.43,504.08s2.51-.25,2.65-.31a60.09,60.09,0,0,0,1.86-7.45c-.15-.2-8.44,1-8.4,1.75S340.43,504.08,340.43,504.08Z" transform="translate(-147.68 -133.55)"/><rect class="cls-74" x="178.9" y="410.02" width="29.22" height="36.79" rx="4.38"/><rect class="cls-74" x="182.59" y="404.21" width="21.85" height="5.81"/><polygon class="cls-36" points="128.37 708.91 166.57 708.91 170.69 671.54 124.25 671.54 128.37 708.91"/><rect class="cls-75" x="269.89" y="800.47" width="50.52" height="9.23" transform="translate(442.62 1476.62) rotate(180)"/><polygon class="cls-76" points="166.67 716.49 168.85 711.15 126.17 711.15 128.71 716.49 166.67 716.49"/><polygon class="cls-77" points="170.82 705.92 170.82 708.96 168.59 708.96 124.2 708.96 124.2 705.92 170.82 705.92"/><path class="cls-39" d="M330.32,543.45s11,4,22,0C352.32,543.45,342.32,551.45,330.32,543.45Z" transform="translate(-147.68 -133.55)"/><rect class="cls-78" x="181.64" y="417.91" width="4" height="19" rx="2"/><rect class="cls-78" x="181.64" y="438.91" width="4" height="5" rx="2"/><path class="cls-2" d="M328.78,544.16a27.19,27.19,0,0,0,25,.08,4.78,4.78,0,0,0-1.65-.67s-6.8,2.88-21.8-.12Z" transform="translate(-147.68 -133.55)"/><rect class="cls-79" x="837.14" y="210.41" width="6.5" height="102"/><path class="cls-35" d="M361.21,385.49l1.2,1.77a12.52,12.52,0,0,0,5.46,4.46l2,.84-1.76,1.21a12.55,12.55,0,0,0-4.47,5.46l-.83,2-1.21-1.77a12.61,12.61,0,0,0-5.46-4.47l-2-.83,1.76-1.21a12.55,12.55,0,0,0,4.47-5.46Z" transform="translate(-147.68 -133.55)"/><path class="cls-35" d="M385.83,257l2.21,3.24a23,23,0,0,0,10,8.17l3.61,1.53-3.23,2.21a22.9,22.9,0,0,0-8.18,10l-1.53,3.6-2.21-3.23a23.07,23.07,0,0,0-10-8.18l-3.61-1.52,3.23-2.22a22.93,22.93,0,0,0,8.18-10Z" transform="translate(-147.68 -133.55)"/><path class="cls-35" d="M415.34,301.69l3,4.36a31,31,0,0,0,13.48,11l4.86,2.06-4.36,3a31,31,0,0,0-11,13.47l-2,4.86-3-4.35a31,31,0,0,0-13.48-11L397.9,323l4.36-3a31,31,0,0,0,11-13.48Z" transform="translate(-147.68 -133.55)"/><rect class="cls-4" x="837.32" y="187.45" width="6" height="194"/></svg>