<svg id="Layer_1" data-name="Layer 1" xmlns="http://www.w3.org/2000/svg" xmlns:xlink="http://www.w3.org/1999/xlink" viewBox="0 0 950.85 864.13"><defs><style>.cls-1{fill:#1a2e35;}.cls-2{fill:#e7f3ff;}.cls-3{fill:#cce3ff;}.cls-4{fill:url(#linear-gradient);}.cls-5{font-size:78.71px;font-family:CambriaMath, Cambria Math;}.cls-12,.cls-5,.cls-75{fill:#fff;}.cls-46,.cls-6{fill-rule:evenodd;}.cls-6{fill:url(#linear-gradient-2);}.cls-7{fill:#ffaba1;}.cls-8{fill:#ffbf9d;}.cls-9{fill:#c17e67;}.cls-10{fill:#385b64;}.cls-11{fill:#2b444e;}.cls-13{fill:#333;}.cls-14{fill:#d1945d;}.cls-15{fill:#c18859;}.cls-16{fill:#ffc800;}.cls-17{fill:#4d4d4d;}.cls-18{fill:#16282d;}.cls-19{fill:#dd9373;}.cls-20{fill:#89705d;}.cls-21{fill:#412d70;}.cls-22{fill:#b7845e;}.cls-23{fill:#2b454e;}.cls-24{fill:#1d343a;}.cls-25{fill:#203391;}.cls-26{fill:#385962;}.cls-27,.cls-28{fill:#152428;}.cls-28{opacity:0.74;}.cls-29{fill:#c6c1df;}.cls-30,.cls-44{fill:#fafafa;}.cls-31{fill:url(#linear-gradient-3);}.cls-32{fill:url(#linear-gradient-4);}.cls-33{fill:url(#linear-gradient-5);}.cls-34,.cls-35,.cls-47,.cls-48,.cls-68{fill:none;}.cls-34{stroke:#fafafa;}.cls-34,.cls-35,.cls-44,.cls-47,.cls-48,.cls-68{stroke-miterlimit:10;}.cls-35{stroke:#e4e6fe;}.cls-36{fill:url(#linear-gradient-6);}.cls-37{fill:url(#linear-gradient-7);}.cls-38{fill:url(#linear-gradient-8);}.cls-39{fill:url(#linear-gradient-9);}.cls-40{fill:url(#linear-gradient-10);}.cls-41{fill:url(#linear-gradient-11);}.cls-42{fill:url(#linear-gradient-12);}.cls-43{opacity:0.1;}.cls-44,.cls-68{stroke:#fff;}.cls-45{fill:url(#linear-gradient-13);}.cls-46{fill:url(#linear-gradient-14);}.cls-47,.cls-48{stroke:#1a2e35;stroke-width:0.75px;}.cls-48{stroke-dasharray:4.1 5.12;}.cls-49{fill:url(#linear-gradient-15);}.cls-50{fill:url(#linear-gradient-16);}.cls-51{fill:url(#linear-gradient-17);}.cls-52{fill:url(#linear-gradient-18);}.cls-53{fill:url(#linear-gradient-19);}.cls-54{fill:url(#linear-gradient-20);}.cls-55{fill:#9fc9ff;}.cls-56{fill:url(#linear-gradient-21);}.cls-57{fill:url(#linear-gradient-22);}.cls-58{fill:url(#linear-gradient-23);}.cls-59{fill:url(#linear-gradient-24);}.cls-60{fill:#f5f5f5;}.cls-61{fill:url(#linear-gradient-25);}.cls-62{fill:url(#linear-gradient-26);}.cls-63{opacity:0.8;}.cls-64{fill:#9ec8fe;}.cls-65{fill:url(#linear-gradient-27);}.cls-66{fill:url(#linear-gradient-28);}.cls-67{fill:url(#linear-gradient-29);}.cls-68,.cls-75{opacity:0.6;isolation:isolate;}.cls-69{fill:url(#linear-gradient-30);}.cls-70,.cls-74{fill:#91b3fa;}.cls-70{opacity:0.67;}.cls-71{fill:url(#linear-gradient-31);}.cls-72{fill:url(#linear-gradient-32);}.cls-73{fill:url(#linear-gradient-33);}.cls-76{fill:#f4f8fc;}.cls-77{fill:url(#linear-gradient-34);}.cls-78{fill:url(#linear-gradient-35);}.cls-79{fill:url(#linear-gradient-36);}.cls-80{fill:url(#linear-gradient-37);}.cls-81{fill:url(#linear-gradient-38);}.cls-82{fill:url(#linear-gradient-39);}.cls-83{fill:url(#linear-gradient-40);}.cls-84{fill:url(#linear-gradient-41);}.cls-85{fill:url(#linear-gradient-42);}.cls-86{fill:url(#linear-gradient-43);}.cls-87{fill:url(#linear-gradient-44);}.cls-88{fill:url(#linear-gradient-45);}.cls-89{fill:url(#linear-gradient-46);}.cls-90{fill:url(#linear-gradient-47);}.cls-91{fill:url(#linear-gradient-48);}.cls-92{fill:url(#linear-gradient-49);}.cls-93{fill:url(#linear-gradient-50);}.cls-94{fill:url(#linear-gradient-51);}.cls-95{fill:url(#linear-gradient-52);}.cls-96{fill:url(#linear-gradient-53);}.cls-97{fill:url(#linear-gradient-54);}.cls-98{fill:url(#linear-gradient-55);}.cls-99{fill:url(#linear-gradient-56);}.cls-100{fill:url(#linear-gradient-57);}.cls-101{fill:url(#linear-gradient-58);}.cls-102{fill:url(#linear-gradient-59);}.cls-103{fill:url(#linear-gradient-60);}.cls-104{fill:url(#linear-gradient-61);}.cls-105{fill:url(#linear-gradient-62);}.cls-106{fill:url(#linear-gradient-63);}.cls-107{fill:url(#linear-gradient-64);}.cls-108{fill:url(#linear-gradient-65);}</style><linearGradient id="linear-gradient" x1="137.04" y1="278.63" x2="226.04" y2="278.63" gradientUnits="userSpaceOnUse"><stop offset="0.04" stop-color="#6b24d6"/><stop offset="0.22" stop-color="#5c28cc" stop-opacity="0.96"/><stop offset="0.57" stop-color="#3634b2" stop-opacity="0.86"/><stop offset="0.98" stop-color="#00448e" stop-opacity="0.72"/></linearGradient><linearGradient id="linear-gradient-2" x1="435.62" y1="440.02" x2="503.1" y2="440.02" xlink:href="#linear-gradient"/><linearGradient id="linear-gradient-3" x1="335.11" y1="357.69" x2="360.7" y2="357.69" gradientUnits="userSpaceOnUse"><stop offset="0" stop-color="#98b8f8"/><stop offset="1" stop-color="#b7adfe"/></linearGradient><linearGradient id="linear-gradient-4" x1="341.2" y1="374.65" x2="354.61" y2="374.65" xlink:href="#linear-gradient"/><linearGradient id="linear-gradient-5" x1="346.08" y1="362.46" x2="349.73" y2="362.46" xlink:href="#linear-gradient"/><linearGradient id="linear-gradient-6" x1="319.36" y1="362.49" x2="323.01" y2="362.49" xlink:href="#linear-gradient"/><linearGradient id="linear-gradient-7" x1="372.61" y1="363.73" x2="376.27" y2="363.73" xlink:href="#linear-gradient"/><linearGradient id="linear-gradient-8" x1="371.38" y1="337.83" x2="373.83" y2="337.83" xlink:href="#linear-gradient"/><linearGradient id="linear-gradient-9" x1="320.95" y1="337.48" x2="323.41" y2="337.48" xlink:href="#linear-gradient"/><linearGradient id="linear-gradient-10" x1="655.01" y1="459.47" x2="689.44" y2="459.47" xlink:href="#linear-gradient-3"/><linearGradient id="linear-gradient-11" x1="664.89" y1="480.86" x2="679.79" y2="480.86" xlink:href="#linear-gradient"/><linearGradient id="linear-gradient-12" x1="664.89" y1="486.78" x2="679.79" y2="486.78" xlink:href="#linear-gradient"/><linearGradient id="linear-gradient-13" x1="346.09" y1="337.81" x2="349.75" y2="337.81" xlink:href="#linear-gradient"/><linearGradient id="linear-gradient-14" x1="742.55" y1="353.51" x2="810.02" y2="353.51" xlink:href="#linear-gradient"/><linearGradient id="linear-gradient-15" x1="585.22" y1="785.55" x2="615.1" y2="785.55" xlink:href="#linear-gradient"/><linearGradient id="linear-gradient-16" x1="601.23" y1="738.24" x2="622.84" y2="738.24" xlink:href="#linear-gradient"/><linearGradient id="linear-gradient-17" x1="624.96" y1="747.39" x2="660.59" y2="747.39" xlink:href="#linear-gradient"/><linearGradient id="linear-gradient-18" x1="599.2" y1="800.43" x2="620.41" y2="800.43" xlink:href="#linear-gradient"/><linearGradient id="linear-gradient-19" x1="610.6" y1="773.69" x2="620.41" y2="773.69" xlink:href="#linear-gradient"/><linearGradient id="linear-gradient-20" x1="619.92" y1="766.67" x2="647" y2="766.67" xlink:href="#linear-gradient"/><linearGradient id="linear-gradient-21" x1="479.96" y1="717.72" x2="527.36" y2="717.72" gradientUnits="userSpaceOnUse"><stop offset="0" stop-color="#2d085d"/><stop offset="1" stop-color="#410f82"/></linearGradient><linearGradient id="linear-gradient-22" x1="480.75" y1="751.39" x2="527.36" y2="751.39" xlink:href="#linear-gradient-21"/><linearGradient id="linear-gradient-23" x1="482.45" y1="755.57" x2="525.14" y2="755.57" xlink:href="#linear-gradient-21"/><linearGradient id="linear-gradient-24" x1="599.3" y1="830.44" x2="639.2" y2="830.44" xlink:href="#linear-gradient-21"/><linearGradient id="linear-gradient-25" x1="517.62" y1="287.51" x2="579.57" y2="287.51" xlink:href="#linear-gradient-3"/><linearGradient id="linear-gradient-26" x1="529.89" y1="287.61" x2="578.64" y2="287.61" xlink:href="#linear-gradient"/><linearGradient id="linear-gradient-27" x1="277.04" y1="123.13" x2="652.04" y2="123.13" gradientUnits="userSpaceOnUse"><stop offset="0" stop-color="#98b8f8"/><stop offset="1" stop-color="#e4e6fe"/></linearGradient><linearGradient id="linear-gradient-28" x1="321.09" y1="104.83" x2="364.35" y2="104.83" xlink:href="#linear-gradient-27"/><linearGradient id="linear-gradient-29" x1="350.22" y1="111.32" x2="374.5" y2="111.32" xlink:href="#linear-gradient-27"/><linearGradient id="linear-gradient-30" x1="352.51" y1="88.2" x2="361.75" y2="88.2" xlink:href="#linear-gradient-27"/><linearGradient id="linear-gradient-31" x1="551.69" y1="200.45" x2="594.95" y2="200.45" xlink:href="#linear-gradient-27"/><linearGradient id="linear-gradient-32" x1="580.81" y1="206.94" x2="605.1" y2="206.94" xlink:href="#linear-gradient-27"/><linearGradient id="linear-gradient-33" x1="583.1" y1="183.83" x2="592.34" y2="183.83" xlink:href="#linear-gradient-27"/><linearGradient id="linear-gradient-34" x1="158.32" y1="855.76" x2="192.23" y2="855.76" xlink:href="#linear-gradient"/><linearGradient id="linear-gradient-35" x1="188.93" y1="868.41" x2="228.51" y2="868.41" xlink:href="#linear-gradient"/><linearGradient id="linear-gradient-36" x1="228.13" y1="888.94" x2="265.76" y2="888.94" xlink:href="#linear-gradient"/><linearGradient id="linear-gradient-37" x1="256.06" y1="900.96" x2="285.38" y2="900.96" xlink:href="#linear-gradient"/><linearGradient id="linear-gradient-38" x1="262.07" y1="870.58" x2="276.23" y2="870.58" xlink:href="#linear-gradient"/><linearGradient id="linear-gradient-39" x1="229.42" y1="851.71" x2="248.32" y2="851.71" xlink:href="#linear-gradient"/><linearGradient id="linear-gradient-40" x1="192.24" y1="836.28" x2="212.57" y2="836.28" xlink:href="#linear-gradient"/><linearGradient id="linear-gradient-41" x1="153.33" y1="824.97" x2="178.53" y2="824.97" xlink:href="#linear-gradient"/><linearGradient id="linear-gradient-42" x1="115.58" y1="834.28" x2="156.19" y2="834.28" xlink:href="#linear-gradient"/><linearGradient id="linear-gradient-43" x1="238.49" y1="779.18" x2="268.15" y2="779.18" xlink:href="#linear-gradient"/><linearGradient id="linear-gradient-44" x1="250.59" y1="812.04" x2="282.5" y2="812.04" xlink:href="#linear-gradient"/><linearGradient id="linear-gradient-45" x1="261.44" y1="854.2" x2="292.36" y2="854.2" xlink:href="#linear-gradient"/><linearGradient id="linear-gradient-46" x1="270.78" y1="880.5" x2="296.64" y2="880.5" xlink:href="#linear-gradient"/><linearGradient id="linear-gradient-47" x1="295.63" y1="859.55" x2="316.32" y2="859.55" xlink:href="#linear-gradient"/><linearGradient id="linear-gradient-48" x1="287.03" y1="824.38" x2="311.56" y2="824.38" xlink:href="#linear-gradient"/><linearGradient id="linear-gradient-49" x1="275.93" y1="788.05" x2="298.89" y2="788.05" xlink:href="#linear-gradient"/><linearGradient id="linear-gradient-50" x1="261.36" y1="753.33" x2="279.09" y2="753.33" xlink:href="#linear-gradient"/><linearGradient id="linear-gradient-51" x1="225.95" y1="737.22" x2="252.94" y2="737.22" xlink:href="#linear-gradient"/><linearGradient id="linear-gradient-52" x1="956.54" y1="826" x2="1005.71" y2="826" xlink:href="#linear-gradient"/><linearGradient id="linear-gradient-53" x1="1005.39" y1="732.93" x2="1066.42" y2="732.93" xlink:href="#linear-gradient"/><linearGradient id="linear-gradient-54" x1="968.87" y1="713.2" x2="1008.16" y2="713.2" xlink:href="#linear-gradient"/><linearGradient id="linear-gradient-55" x1="868.31" y1="875.63" x2="897.1" y2="875.63" xlink:href="#linear-gradient"/><linearGradient id="linear-gradient-56" x1="893.86" y1="831.09" x2="913.71" y2="831.09" xlink:href="#linear-gradient"/><linearGradient id="linear-gradient-57" x1="912.78" y1="846.13" x2="952.08" y2="846.13" xlink:href="#linear-gradient"/><linearGradient id="linear-gradient-58" x1="125.07" y1="868.71" x2="299.97" y2="868.71" xlink:href="#linear-gradient"/><linearGradient id="linear-gradient-59" x1="236.96" y1="816.59" x2="299.78" y2="816.59" xlink:href="#linear-gradient"/><linearGradient id="linear-gradient-60" x1="920.88" y1="834.71" x2="987.13" y2="834.71" xlink:href="#linear-gradient"/><linearGradient id="linear-gradient-61" x1="947.28" y1="777.14" x2="1044.47" y2="777.14" xlink:href="#linear-gradient"/><linearGradient id="linear-gradient-62" x1="967.96" y1="749.23" x2="993.96" y2="749.23" xlink:href="#linear-gradient"/><linearGradient id="linear-gradient-63" x1="882.56" y1="891.53" x2="897.67" y2="891.53" xlink:href="#linear-gradient"/><linearGradient id="linear-gradient-64" x1="896.43" y1="866.37" x2="904.35" y2="866.37" xlink:href="#linear-gradient"/><linearGradient id="linear-gradient-65" x1="902.69" y1="861.48" x2="940.31" y2="861.48" xlink:href="#linear-gradient"/></defs><title>webdesign_webfejlesztes</title><path class="cls-1" d="M5899.9,1524.67" transform="translate(-115.58 -107.44)"/><path class="cls-2" d="M908.83,862.52c17.53-12.78,49.41-36.69,53.78-73,4.3-35.84-22.56-47-25.43-87.05-3.85-54,42.54-67.25,54.76-130.07,12.35-63.47-21.41-119.91-32.27-138.07-34-56.93-68.14-55.94-139.82-116.06-92.38-77.48-9.13-130.06-77.23-174.67s-239.82-50-314.87-4.43c-46.24,28.08-27,52.05-110.49,159.09-60.67,77.83-88.65,88-103.65,143.07-3.87,14.22-23,84.41,11.74,138.08,30.58,47.25,74.29,37.48,90,79,16.35,43.39-24.36,72.36-16.63,122.07,8.59,55.17,69.43,88,111.47,110C605,992.51,823.17,925,908.83,862.52Z" transform="translate(-115.58 -107.44)"/><ellipse class="cls-3" cx="484.04" cy="811.13" rx="305" ry="53"/><rect class="cls-4" x="137.04" y="234.13" width="89" height="89" rx="7.93"/><text class="cls-5" transform="translate(159 308.19)">T</text><polygon class="cls-6" points="500.88 465.79 503.1 414.25 435.62 414.25 438.4 465.64 500.88 465.79"/><path class="cls-7" d="M375.29,557.76c6.11,8.9,32.14,37.29,42.39,36.36,16.06-1.44,32.92-9.43,42.26-13.55,3-1.3-10.53-29.69-15.95-26.53-7,4.09-21.43,10-25.63,10.69-2.87.45-21.89-10.37-35.16-17.8C372.13,540.74,367.55,546.48,375.29,557.76Z" transform="translate(-115.58 -107.44)"/><path class="cls-8" d="M439.2,557.17,444,554a18.74,18.74,0,0,0,4-3.76C452.8,545,467.82,535,486.65,542c7.22,2.69,8.48,8.92.49,7.46-5.63-1-9.44-2.23-11.37-2,0,0,5.76,6.6,4.57,11.54a93.65,93.65,0,0,1-4,12.67,19.25,19.25,0,0,1-2.44-.54,10.66,10.66,0,0,1-8.81,7.19l-7.61,3.36Z" transform="translate(-115.58 -107.44)"/><path class="cls-8" d="M453.39,545.92c3.72-.46,11.62-1.31,18.32.25,7.45,1.73,21.33,7.07,20,12.55-1,4-6.45,2.45-6.45,2.45s5.27,3.42,3.59,6.85c-1.53,3.14-5.69,1.67-5.69,1.67s2.84,2.62.78,5.35c-2.47,3.29-8-2.74-13.4-1.57C469.33,573.73,453.39,545.92,453.39,545.92Z" transform="translate(-115.58 -107.44)"/><path class="cls-8" d="M468.57,553.73A30.41,30.41,0,0,1,485.2,561c.12.1.1.25,0,.17a75.72,75.72,0,0,0-16.61-7.39A0,0,0,0,1,468.57,553.73Z" transform="translate(-115.58 -107.44)"/><path class="cls-8" d="M467.05,561.3c3.06.44,11.23,3.28,16.16,8.26.11.11.08.26,0,.18A80.36,80.36,0,0,0,467,561.37S467,561.29,467.05,561.3Z" transform="translate(-115.58 -107.44)"/><path class="cls-9" d="M486,561.69a25.09,25.09,0,0,0-16.34-2.13S480.29,555.81,486,561.69Z" transform="translate(-115.58 -107.44)"/><path class="cls-9" d="M483.75,570.38a17.12,17.12,0,0,0-13.13-3.82S479.87,564.2,483.75,570.38Z" transform="translate(-115.58 -107.44)"/><path class="cls-9" d="M477.45,547.84s-6.83-1.28-12.83.72A12.23,12.23,0,0,1,477.45,547.84Z" transform="translate(-115.58 -107.44)"/><polygon class="cls-10" points="251.33 636.57 248.04 657.13 216.31 826.13 207.04 826.13 232.04 658.13 234.69 636.57 251.33 636.57"/><path class="cls-10" d="M454.62,933.56h-9.28L413.61,768c-.44-2.31-.7-5.11-1-7.44L410.32,744H427l2.66,20.55Z" transform="translate(-115.58 -107.44)"/><rect class="cls-11" x="229.04" y="689.32" width="86" height="6.33"/><polygon class="cls-11" points="231.04 665.13 246.04 667.13 251.47 636.57 235.04 636.13 231.04 665.13"/><polygon class="cls-11" points="315.04 665.13 299.04 665.13 294.64 636.57 311.04 636.13 315.04 665.13"/><rect class="cls-10" x="224.13" y="615.65" width="101.84" height="21.1"/><path class="cls-8" d="M610.42,887.17c-3.19,1.38-97.13,9.56-100.92,7.61-1.43-.73-3.42-14.35-5.36-30.86-.42-3.57-.83-7.25-1.22-11-2.6-24.31-4.79-50.17-4.79-50.17L561,797.1,564,847.42l.68,11.05s37.37,13,41.29,15.54S613.6,885.78,610.42,887.17Z" transform="translate(-115.58 -107.44)"/><path class="cls-12" d="M610.42,887.17c-3.19,1.38-97.13,9.56-100.92,7.61-1.74-.9-4.32-20.81-6.58-41.86l61.09-5.5.68,11.05s37.37,13,41.29,15.54S613.6,885.78,610.42,887.17Z" transform="translate(-115.58 -107.44)"/><path class="cls-13" d="M610.42,887.17c-3.19,1.38-98,8.34-101.8,6.39-1.44-.73-2.54-13.13-4.48-29.64l60.55-5.45s37.37,13,41.29,15.54S613.6,885.78,610.42,887.17Z" transform="translate(-115.58 -107.44)"/><path class="cls-1" d="M608.74,883.53c-15.78,1-79.34,6.44-94.87,8.61-.12,0-.11.11,0,.1,15.67-.63,79.18-6.61,94.88-8.45C609.1,883.75,609.07,883.51,608.74,883.53Z" transform="translate(-115.58 -107.44)"/><path class="cls-12" d="M599.64,871.16a12.66,12.66,0,0,0-9.08,4.66,12.3,12.3,0,0,0-2.79,8.72c0,.09.18.08.19,0a14.66,14.66,0,0,1,11.7-13.16A.1.1,0,0,0,599.64,871.16Z" transform="translate(-115.58 -107.44)"/><path class="cls-12" d="M570.94,859.5c-6.31.46-13.43,3.33-16.89,8.82-.14.21.17.4.35.29a87.57,87.57,0,0,1,16.72-8.34A.4.4,0,0,0,570.94,859.5Z" transform="translate(-115.58 -107.44)"/><path class="cls-12" d="M576,861c-6.31.46-13.42,3.32-16.89,8.82-.14.21.17.4.35.28a87.57,87.57,0,0,1,16.72-8.34A.4.4,0,0,0,576,861Z" transform="translate(-115.58 -107.44)"/><path class="cls-12" d="M581,862.45c-6.31.46-13.42,3.32-16.89,8.82-.14.21.17.4.35.29a86.7,86.7,0,0,1,16.72-8.34A.4.4,0,0,0,581,862.45Z" transform="translate(-115.58 -107.44)"/><path class="cls-12" d="M586,863.92c-6.31.46-13.42,3.33-16.89,8.82-.13.21.17.4.35.29a87.86,87.86,0,0,1,16.72-8.34A.4.4,0,0,0,586,863.92Z" transform="translate(-115.58 -107.44)"/><path class="cls-8" d="M495.36,930.63c-3.47.21-94.54-24.27-97.42-27.4-1.1-1.18,1.69-14.65,5.53-30.84.83-3.49,1.7-7.09,2.61-10.75,5.89-23.73,12.68-48.78,12.68-48.78l61,16.2L465.37,877.4,462.23,888s30.67,25,33.47,28.74S498.83,930.42,495.36,930.63Z" transform="translate(-115.58 -107.44)"/><path class="cls-12" d="M495.36,930.63c-3.47.21-94.54-24.27-97.42-27.4-1.33-1.45,3.07-21,8.14-41.59l59.29,15.76L462.23,888s30.67,25,33.47,28.74S498.83,930.42,495.36,930.63Z" transform="translate(-115.58 -107.44)"/><path class="cls-14" d="M358.56,455.7s-20-3.81-24.75,15.22S307.17,528,307.17,528L331,509" transform="translate(-115.58 -107.44)"/><path class="cls-14" d="M355.7,456.65s12.37-3.81,19,1.9S387.4,478,383.92,501.6" transform="translate(-115.58 -107.44)"/><path class="cls-14" d="M377.52,470.53s4.83,30.85,20.05,48.93,8.68,35.8,8.68,35.8l-1.14-1.16s5.79-16.56-8.49-33.69-18.32-44.29-18.32-44.29" transform="translate(-115.58 -107.44)"/><path class="cls-15" d="M374.74,565.14s9.51,4.75,24.74-9.52-35.07-13-35.07-13Z" transform="translate(-115.58 -107.44)"/><polygon class="cls-14" points="223 369.2 209.67 412.97 269.63 425.34 270.58 402.5 267.72 383.47 262.96 359.68 252.5 353.97 245.84 351.12 223.95 363.49 223 369.2"/><rect class="cls-16" x="629.78" y="556.41" width="101.84" height="21.1"/><polygon class="cls-10" points="657.12 577.33 654.26 604.28 619.06 826.13 608.98 826.13 636.77 604.28 639.03 577.33 657.12 577.33"/><polygon class="cls-10" points="752.44 826.13 742.35 826.13 707.15 604.28 704.29 577.33 722.38 577.33 724.64 604.28 752.44 826.13"/><rect class="cls-11" x="623.1" y="756.07" width="112.34" height="6.33"/><polygon class="cls-11" points="636.77 603.33 654.26 603.33 657.12 577.33 639.03 577.33 636.77 603.33"/><polygon class="cls-11" points="724.64 603.33 707.15 603.33 704.29 577.33 722.38 577.33 724.64 603.33"/><path class="cls-8" d="M637.63,699.76c1.11-3.36,60.77-82.19,64.85-83.71.46-.2,27.13,18.78,27.13,18.78,1.1,1.47,51.79-9.24,51.79-9.24l.51,61.15-92.34-2s-12.48,7.33-23.89,13.3c0,0,0,0,0,0-7,3.7-13.23,6.81-15,7.28C646,706.55,636.49,703.12,637.63,699.76Z" transform="translate(-115.58 -107.44)"/><path class="cls-12" d="M650.63,705.37c1.78-.46,8-3.58,15-7.29,0,0,0,0,0,0,11.41-6,23.88-13.31,23.88-13.31l20.55.44,32.18-51.91c-7.07,1.25-12.33,2-12.68,1.53,0,0-26.66-19-27.13-18.78-4.08,1.52-63.73,80.34-64.85,83.71S646,706.56,650.63,705.37Z" transform="translate(-115.58 -107.44)"/><path class="cls-17" d="M637.08,699.87c1.18-3.45,61.1-82.23,65.29-83.79,1.58-.6,14.63,7.45,27.24,18.75l-38.7,50.74s-35.7,18.92-40.47,20.14S635.91,703.32,637.08,699.87Z" transform="translate(-115.58 -107.44)"/><path class="cls-1" d="M641.09,701.14c10.37-13,51-66.21,60.24-79.81.08-.11,0-.17-.08-.06-10.56,12.62-50.73,66.19-60.37,79.7C640.67,701.26,640.88,701.41,641.09,701.14Z" transform="translate(-115.58 -107.44)"/><path class="cls-1" d="M657.13,702.79a13.29,13.29,0,0,0,2.78-10.35,12.88,12.88,0,0,0-4.8-8.31c-.08-.06-.2.08-.12.16a15.4,15.4,0,0,1,2,18.38A.1.1,0,0,0,657.13,702.79Z" transform="translate(-115.58 -107.44)"/><path class="cls-1" d="M686.44,688.71c4.09-5.23,6.89-12.78,5.06-19.35-.07-.26-.43-.15-.47.07a92,92,0,0,1-5.31,18.88A.42.42,0,0,0,686.44,688.71Z" transform="translate(-115.58 -107.44)"/><path class="cls-1" d="M681.74,691.58c4.1-5.23,6.89-12.78,5.07-19.35-.07-.25-.43-.15-.47.07A91.44,91.44,0,0,1,681,691.18.42.42,0,0,0,681.74,691.58Z" transform="translate(-115.58 -107.44)"/><path class="cls-1" d="M677.05,694.45c4.09-5.23,6.89-12.78,5.06-19.35-.07-.25-.43-.15-.47.07a92,92,0,0,1-5.31,18.88A.42.42,0,0,0,677.05,694.45Z" transform="translate(-115.58 -107.44)"/><path class="cls-1" d="M672.35,697.32c4.1-5.23,6.89-12.78,5.07-19.35-.07-.25-.43-.15-.47.07a91.44,91.44,0,0,1-5.32,18.88A.42.42,0,0,0,672.35,697.32Z" transform="translate(-115.58 -107.44)"/><path class="cls-1" d="M711.32,634.24c4.49-6-4.74-12.94-9.24-7S706.82,640.19,711.32,634.24Z" transform="translate(-115.58 -107.44)"/><path class="cls-1" d="M696.2,705.15c4.25-1,4.65-6,3.6-9.41a34.78,34.78,0,0,0-9.87-15.08c-.1-.1-.21,0-.27.05a.81.81,0,0,0-1.15.62c-.26,5.75-1.25,11.85.26,17.51C689.65,702.14,692.17,706.09,696.2,705.15Zm-6.3-15c.05-2.83.25-5.63.21-8.46a102.42,102.42,0,0,1,5.56,8.93,37.36,37.36,0,0,1,2.1,4.65c.87,2.47,1.34,11-4.81,7.17C689.57,700.29,689.83,693.49,689.9,690.12Z" transform="translate(-115.58 -107.44)"/><path class="cls-1" d="M698,666c-4.21,4.07-6.51,9.81-9.25,14.87a.81.81,0,0,0,.66,1.13.17.17,0,0,0,.21.18,34.84,34.84,0,0,0,16.23-7.84c2.65-2.37,4.9-6.88,1.76-9.92C704.62,661.58,700.42,663.66,698,666Zm5.43-.9c7.26-.13,2.45,7,.42,8.63a39,39,0,0,1-4.19,2.9,103.33,103.33,0,0,1-9.38,4.78c1.5-2.4,2.78-4.9,4.19-7.36C696.11,671.16,699.4,665.2,703.4,665.13Z" transform="translate(-115.58 -107.44)"/><path class="cls-18" d="M784.19,606.84h41.45S869,586,903.92,594.39c40,9.63,45.15,59.91,15.22,77.69-37.91,22.53-206.62,18.17-206.62,18.17L749,628.43s56.11-11.81,107-10.1l-71.78,9.79Z" transform="translate(-115.58 -107.44)"/><path class="cls-8" d="M716.21,900.92c3.64-.37,94-41,96.49-44.72.94-1.41-4.21-14.91-10.89-31.06-1.45-3.49-3-7.08-4.51-10.72C787.22,790.78,776,765.94,776,765.94l-60.54,27,23,47.74,5,10.48s-27.65,31-29.92,35.41S712.58,901.28,716.21,900.92Z" transform="translate(-115.58 -107.44)"/><path class="cls-12" d="M716.21,900.92c3.64-.37,94-41,96.49-44.72,1.14-1.72-6.7-21.3-15.4-41.78l-58.88,26.26,5,10.48s-27.65,31-29.92,35.41S712.58,901.28,716.21,900.92Z" transform="translate(-115.58 -107.44)"/><path class="cls-18" d="M795.92,808.87l-68.09,30.79s-81-155.55-83.16-203.16c-1.8-40.52,26.41-56.16,117.6-30l22.34.29v15.41c-9.81,1.29-36,5.4-36,5.4-19,7.18-25.16,10.15-24.85,10.77C771.25,734.27,795.92,808.87,795.92,808.87Z" transform="translate(-115.58 -107.44)"/><path class="cls-7" d="M756.09,499.3c-30.45,23.5-58.16,50.41-61.43,66.22-2,10,5.57,25.93,11.15,35.37,2.71,4.6,45.71-22.94,41.12-26.33-11.37-8.37-13.62-12.15-13-14.38.41-1.42,31.42-39.95,39.14-56.2C783.87,481.35,769.41,489,756.09,499.3Z" transform="translate(-115.58 -107.44)"/><path class="cls-1" d="M841.62,605.56c-.21.28-96.18,3.18-97.16,2.25-1.38-1.31,7.63-92.92,21.73-115.58,3.53-5.67,20.13-9.88,27.56-2.18C822.48,519.82,842.35,604.57,841.62,605.56Z" transform="translate(-115.58 -107.44)"/><path class="cls-7" d="M772.68,617c-3.94,3.25-11.14-7.15-11.14-7.15A9.43,9.43,0,0,1,760,616c-2.32,3.12-8.22.85-8.22.85a11.61,11.61,0,0,1-2.69,6.3c-2.52,2.77-8.8,1.33-8.8,1.33a10.2,10.2,0,0,1-5.85,4.05c-6.41,1.37-13.36-5.83-17.82-10.36s-12.88-21.56-14.82-24.64l28.82-28.9s25.8,14.62,30.29,20.69C764.68,590.47,778.71,612,772.68,617Z" transform="translate(-115.58 -107.44)"/><path class="cls-1" d="M761.59,609.64c-2.72-6.4-7-12.14-11.12-17.63-.09-.13-.29,0-.19.14,4.2,5.42,7.05,12.09,11,17.66A.17.17,0,0,0,761.59,609.64Z" transform="translate(-115.58 -107.44)"/><path class="cls-1" d="M752.05,616.42a18.06,18.06,0,0,0-2.79-3.83q-1.62-1.94-3.3-3.81-3.37-3.76-6.92-7.35c-.11-.1-.3,0-.19.15,2.23,2.5,4.43,5,6.55,7.63,1.07,1.3,2.12,2.6,3.17,3.92a21.25,21.25,0,0,0,3.12,3.57A.24.24,0,0,0,752.05,616.42Z" transform="translate(-115.58 -107.44)"/><path class="cls-1" d="M740.19,624.41a13,13,0,0,0-2.7-3.32q-1.57-1.68-3.12-3.37c-2.07-2.27-4.14-4.53-6.12-6.87-.1-.11-.29,0-.19.15,2,2.38,4,4.79,6,7.15,1,1.17,2,2.32,3,3.47a11.8,11.8,0,0,0,3,2.9C740.14,624.55,740.21,624.48,740.19,624.41Z" transform="translate(-115.58 -107.44)"/><path class="cls-7" d="M799.74,492.5c47,23.65,90.55,60.36,89.58,74.64-1,15.11-31.16,30.8-55.83,38.65C828.44,607.4,810,578,815,575.27c3.88-2.1,21.7-10.82,23.48-13.8,1.24-2.07-35.29-37.81-48.62-57.51C775.92,483.36,787.16,486.17,799.74,492.5Z" transform="translate(-115.58 -107.44)"/><path class="cls-8" d="M825.47,572.2S810,576.63,800,580c-5.59,1.88-14.87,6-18.33,9.22-5.19,4.88-23.77,28.58-18.12,33.21,5.12,4.19,10.08-4.79,10.08-4.79s-6.35,9.3,0,11.9,11.74-9.71,11.74-9.71-7.43,9.41-.39,11.54c6.12,1.84,13.79-11.69,13.79-11.69s-8.87,9-2.8,11.53c4.62,1.9,12.71-6.42,17.32-11.8a35.54,35.54,0,0,1,8.86-7.43c10.75-6.39,19.07-12.21,24.88-18C848.31,592.66,825.47,572.2,825.47,572.2Z" transform="translate(-115.58 -107.44)"/><path class="cls-8" d="M774.06,507.05c4.13-.53,11.33-9.68,13.53-16.72.15-.48-1.44-4.94-3.11-10.44-1-3.34-2-7.09-2.73-10.57L761,479a56.59,56.59,0,0,1,4.79,13,7.5,7.5,0,0,1,.14,1.46,2.09,2.09,0,0,0,0,.24C766,496.48,767.58,507.88,774.06,507.05Z" transform="translate(-115.58 -107.44)"/><path class="cls-19" d="M765.88,493.43a1.85,1.85,0,0,1,0,.25,14.49,14.49,0,0,0,2.28-.34c12.61-2.82,12.64-19,12.41-23.46L760.94,479a56.65,56.65,0,0,1,4.8,12.95A9.83,9.83,0,0,1,765.88,493.43Z" transform="translate(-115.58 -107.44)"/><path class="cls-8" d="M783.59,445.85c2.63,7.84-.92,30.78-6.41,36-7.94,7.6-21.27,8.67-27.8-1-6.34-9.33-1.18-39.15,5-43.94C763.41,429.91,779.71,434.27,783.59,445.85Z" transform="translate(-115.58 -107.44)"/><path class="cls-1" d="M763.05,460.22c0-.06.11.1.09.16-.35,1.52-.49,3.33.8,4.11,0,0,0,.1,0,.08C762.26,464,762.48,461.61,763.05,460.22Z" transform="translate(-115.58 -107.44)"/><path class="cls-1" d="M764.73,458.88c2.51.3,1.74,5.29-.58,5S762.63,458.64,764.73,458.88Z" transform="translate(-115.58 -107.44)"/><path class="cls-1" d="M754.41,458.6c0-.07-.13,0-.14.11-.19,1.56-.67,3.3-2.15,3.6,0,0,0,.09,0,.09C753.87,462.42,754.48,460.1,754.41,458.6Z" transform="translate(-115.58 -107.44)"/><path class="cls-1" d="M753.28,456.77c-2.46-.57-3.42,4.38-1.15,4.91S755.34,457.25,753.28,456.77Z" transform="translate(-115.58 -107.44)"/><path class="cls-1" d="M762.25,474.89c-.43.3-.87.74-1.44.7a4.27,4.27,0,0,1-1.6-.64c-.05,0-.1,0-.08.07a2.13,2.13,0,0,0,1.83,1.14,1.68,1.68,0,0,0,1.43-1.18C762.43,474.89,762.31,474.84,762.25,474.89Z" transform="translate(-115.58 -107.44)"/><path class="cls-8" d="M779.22,464.59s5.11-7.42,8.47-5.6-.44,12.55-4.36,14a4,4,0,0,1-5.38-2.11Z" transform="translate(-115.58 -107.44)"/><path class="cls-9" d="M786.53,461c.06,0,.07.08,0,.1-2.75,1.14-4.19,3.71-5.18,6.37.81-1,1.92-1.6,3.3-.63.07.05,0,.16-.08.15a2.45,2.45,0,0,0-2.7.87,11.8,11.8,0,0,0-1.28,2.2c-.13.25-.58.12-.48-.16a.25.25,0,0,1,0-.07C780.05,466.36,782.75,461.42,786.53,461Z" transform="translate(-115.58 -107.44)"/><path class="cls-1" d="M787.62,486.56s-3-1.13-3,9c0,14.53,50.56,61.25,50.56,61.25s7.6,6.26-25.33,18.58c0,0,5.88,23.39,22.36,30.27C845,611,874.5,589.68,886.92,580a18.06,18.06,0,0,0,3.7-24.77c-.43-.59-.89-1.17-1.4-1.76C879.09,541.61,805.08,489.18,787.62,486.56Z" transform="translate(-115.58 -107.44)"/><path class="cls-1" d="M765.94,492.64S704.73,534.24,695,563l38.33-.8,20.81-25.89S759.07,510,765.94,492.64Z" transform="translate(-115.58 -107.44)"/><path class="cls-20" d="M770.63,454a6.16,6.16,0,0,0-4.22-1.41,6.2,6.2,0,0,1-4.23-1.4s0,2.81,1.41,2.81S767.81,452.57,770.63,454Z" transform="translate(-115.58 -107.44)"/><path class="cls-14" d="M779.62,467.56s-.16-.79-3.55,3.12c-1.53,1.77-3.38,4.57-5.62,3.89-2.52-.78-5.81-3.17-9.58-2.2-6.54,1.69-13-4.62-14.25-.81-1,3,3,11.37,5.43,15.06a5.69,5.69,0,0,0,5,2.57c3.57-.13,9.24-.51,12.1-1.62,4.36-1.69,9.82-3.37,12-8.44S779.62,474.32,779.62,467.56Z" transform="translate(-115.58 -107.44)"/><path class="cls-21" d="M965.62,148.56" transform="translate(-115.58 -107.44)"/><path class="cls-8" d="M750.72,478.13a2.11,2.11,0,0,1,2.12-2.27h4.42c3.21,0,9.13.88,9.27,1.55.34,1.65.34,8.06-12.47,4.86A4.73,4.73,0,0,1,750.72,478.13Z" transform="translate(-115.58 -107.44)"/><path class="cls-1" d="M754,476a11.93,11.93,0,0,0,9.62.59S758.36,481.82,754,476Z" transform="translate(-115.58 -107.44)"/><path class="cls-9" d="M756.27,463.29s-3.61,5.42-2.41,6.63,7.83,0,7.83,0,1.81-1.21-3-.61-4.21-.6-4.21-.6S754.47,466.9,756.27,463.29Z" transform="translate(-115.58 -107.44)"/><path class="cls-15" d="M779.62,467.56s-1.13-1.08-6.07,6-2.93,8-5.93,12c-2.17,2.89-1,2.07-8.5,3.54a32.63,32.63,0,0,0,19.62-6.54s4.12-4.1,3-7.05S779.62,471.56,779.62,467.56Z" transform="translate(-115.58 -107.44)"/><path class="cls-22" d="M751.09,485s8.72,4.87,17.12-.27c0,0,.7,4.93-10.45,4.39C757.76,489.1,753.57,490.39,751.09,485Z" transform="translate(-115.58 -107.44)"/><path class="cls-20" d="M762.28,452.15s0,2.2,1.68,1.8a33.5,33.5,0,0,1,3.58-.59S763.93,453.74,762.28,452.15Z" transform="translate(-115.58 -107.44)"/><path class="cls-20" d="M748.54,454a6.18,6.18,0,0,1,4.23-1.41,6.16,6.16,0,0,0,4.22-1.41s0,2.82-1.41,2.82S751.36,452.56,748.54,454Z" transform="translate(-115.58 -107.44)"/><path class="cls-20" d="M756.9,452.14s0,2.19-1.69,1.8a33.09,33.09,0,0,0-3.58-.59S755.24,453.73,756.9,452.14Z" transform="translate(-115.58 -107.44)"/><path class="cls-18" d="M831.38,553.28s11.24,6.28,18.24,4.28a14,14,0,0,1-15.64,5S838.15,558,831.38,553.28Z" transform="translate(-115.58 -107.44)"/><path class="cls-18" d="M825.17,547.33s-18.55-16.77-24.55-30.77Z" transform="translate(-115.58 -107.44)"/><path class="cls-18" d="M786.62,485.56s-5.9,9.36,3,22.18,10.37,13,9.16,11.9-12.6-19.3-8.21-32.08l-4-2" transform="translate(-115.58 -107.44)"/><path class="cls-18" d="M803.6,522.24s20,32.32,6,53.32c0,0,17.6-7.47,21.8-10.73l-5.8-17.27Z" transform="translate(-115.58 -107.44)"/><path class="cls-18" d="M871.49,538.34s26.13,23.22,11.13,44.93c0,0,19-10.71,9.91-25C892.53,558.25,890.36,552.12,871.49,538.34Z" transform="translate(-115.58 -107.44)"/><path class="cls-18" d="M885.9,576.88s-8.28,12.68-36.28-.32c0,0,13.22,11.7,30.11,8.85l7.89-6.85Z" transform="translate(-115.58 -107.44)"/><path class="cls-18" d="M737.52,557s-11.54,7.66-25.77-1.61l7.76,7.12,13.58.09Z" transform="translate(-115.58 -107.44)"/><path class="cls-18" d="M765.88,493.43c-7.74,12.87-12.78,43.13-12.78,43.13s-14.48,18-15.48,19-6.58,2.07-6.58,2.07c5.42-9.93,24-30.82,24-30.82" transform="translate(-115.58 -107.44)"/><path d="M830.62,632.56s31-10,53-10" transform="translate(-115.58 -107.44)"/><path d="M830.62,627.56s35-1,51-17c0,0-20.9,14-56.45,17" transform="translate(-115.58 -107.44)"/><path d="M723.62,637.56,751,696.18S722.62,660.56,723.62,637.56Z" transform="translate(-115.58 -107.44)"/><path class="cls-1" d="M723.62,637.56l12-4.85h-9.67A6.72,6.72,0,0,0,723.62,637.56Z" transform="translate(-115.58 -107.44)"/><path d="M726.31,666.87s51.31,102.69,44.31,143.69C770.62,810.56,791,779.18,726.31,666.87Z" transform="translate(-115.58 -107.44)"/><path d="M682.62,632.56s37.35,8.14,48.67,32.57l-7.48-22.69s-1.19-8.88,2.81-9.88Z" transform="translate(-115.58 -107.44)"/><path class="cls-23" d="M308.4,641.16c-10.8,23.42-6.19,51.19,12.51,69l1.68,1.57C356.85,743.09,433,733.58,433,733.58s-2.81,20.93-4.72,37.11-29.5,82.79-29.5,82.79l75.18,13.33S513,786.87,496.78,745,394,679.33,394,679.33s3.81-20.93-4.76-37.11c0,0-29.5,9.51-78-9.52A35.47,35.47,0,0,1,308.4,641.16Z" transform="translate(-115.58 -107.44)"/><path class="cls-23" d="M389.24,642.22l104.28,24.95a44.37,44.37,0,0,1,21,11.5,31.62,31.62,0,0,1,8.9,14.94c3.8,16.18,53.29,148.45,53.29,148.45l-76.13,6.66s-23.79-77.08-20.94-119L394,679.33S377.83,657.44,389.24,642.22Z" transform="translate(-115.58 -107.44)"/><path class="cls-1" d="M500.59,848.72s-29.5-98-23.79-124.66c0,0-106.63,32.36-151.35-9.52,0,0,48.53,39,155.15,1.91,0,0-5.79,35.12,31.37,131.28Z" transform="translate(-115.58 -107.44)"/><path class="cls-1" d="M510.1,874.42" transform="translate(-115.58 -107.44)"/><path class="cls-1" d="M512,833.5s20.93,4.76,51.39-1.9c0,0-20,10.46-48.54,7.61Z" transform="translate(-115.58 -107.44)"/><path class="cls-1" d="M531,869.66" transform="translate(-115.58 -107.44)"/><path class="cls-1" d="M433,733.58s-18.08,79-34.26,119.9l10.55,1.87s28.36-72.69,29.37-122.93Z" transform="translate(-115.58 -107.44)"/><path class="cls-24" d="M472.16,725.36s4.6,86.25-29.66,133.83l-1,1.87,32.39,5.75s15.74-35.85,18.34-47.9c0,0-18.34-62.49-15.48-94.85Z" transform="translate(-115.58 -107.44)"/><path class="cls-1" d="M410.24,835.63s18.24,11.33,49.2,15c0,0-22.3,3.38-48.36-8.63Z" transform="translate(-115.58 -107.44)"/><path d="M682,629.25s-1.84-22.24-21.1-29.46c0,0,8.93-5.36,16.84-5.3Z" transform="translate(-115.58 -107.44)"/><path class="cls-7" d="M371,522.86c29,22.37,55.35,48,58.45,63,1.95,9.47-5.3,24.68-10.6,33.66-2.59,4.38-43.51-21.83-39.14-25,10.82-8,13-11.57,12.34-13.69-.4-1.35-29.91-38-37.25-53.48C344.52,505.78,358.28,513.07,371,522.86Z" transform="translate(-115.58 -107.44)"/><path class="cls-1" d="M305.27,613.67c5.7-1.9,75.82,13.34,76.76,12.45,1.31-1.24-7.27-88.42-20.69-110-3.36-5.39-19.15-9.4-26.22-2.07C307.77,542.39,304.15,614,305.27,613.67Z" transform="translate(-115.58 -107.44)"/><path class="cls-7" d="M355.17,634.84c3.75,3.09,10.6-6.81,10.6-6.81a9,9,0,0,0,1.47,5.93c2.21,3,7.83.81,7.83.81a11.11,11.11,0,0,0,2.56,6C380,643.39,386,642,386,642a9.75,9.75,0,0,0,5.57,3.86c6.1,1.29,12.71-5.56,17-9.87s12.26-20.51,14.1-23.44l-27.43-27.5s-24.55,13.9-28.82,19.68C362.78,609.63,349.43,630.11,355.17,634.84Z" transform="translate(-115.58 -107.44)"/><path class="cls-1" d="M365.72,627.87c2.59-6.09,6.63-11.56,10.59-16.78.08-.12.27,0,.18.14-4,5.15-6.71,11.49-10.5,16.8C365.89,628.17,365.65,628,365.72,627.87Z" transform="translate(-115.58 -107.44)"/><path class="cls-1" d="M374.8,634.32a17.54,17.54,0,0,1,2.65-3.65q1.55-1.83,3.15-3.62,3.19-3.59,6.58-7c.1-.1.28,0,.18.14-2.12,2.38-4.21,4.79-6.23,7.26-1,1.23-2,2.48-3,3.72a21.07,21.07,0,0,1-3,3.41A.23.23,0,0,1,374.8,634.32Z" transform="translate(-115.58 -107.44)"/><path class="cls-1" d="M386.09,641.92a12.09,12.09,0,0,1,2.57-3.15l3-3.22c2-2.15,3.93-4.31,5.82-6.53.1-.11.28,0,.18.14-1.91,2.27-3.79,4.56-5.72,6.81l-2.86,3.3a11.36,11.36,0,0,1-2.86,2.76C386.13,642.06,386.07,642,386.09,641.92Z" transform="translate(-115.58 -107.44)"/><path class="cls-7" d="M329.41,516.39c-44.71,22.51-86.17,57.45-85.24,71,1,14.37,29.65,29.31,53.13,36.77,4.81,1.53,22.32-26.47,17.58-29-3.7-2-20.65-10.3-22.35-13.13-1.18-2,33.58-36,46.27-54.73C352.08,507.69,341.38,510.37,329.41,516.39Z" transform="translate(-115.58 -107.44)"/><path class="cls-8" d="M304.93,592.24s14.75,4.22,24.27,7.43c5.31,1.79,14.15,5.68,17.44,8.78,4.94,4.64,22.62,27.19,17.24,31.6-4.86,4-9.59-4.56-9.59-4.56s6,8.85,0,11.32-11.17-9.24-11.17-9.24,7.07,9,.37,11c-5.82,1.76-13.12-11.12-13.12-11.12s8.44,8.59,2.66,11c-4.4,1.81-12.1-6.1-16.48-11.22a33.93,33.93,0,0,0-8.43-7.08C297.89,624,290,618.49,284.44,613,283.2,611.71,304.93,592.24,304.93,592.24Z" transform="translate(-115.58 -107.44)"/><path class="cls-1" d="M341,510.74s2.86-1.08,2.86,8.57c0,13.82-48.12,58.29-48.12,58.29s-7.24,5.95,24.11,17.67c0,0-5.6,22.26-21.28,28.81-12.21,5.1-41.39-16.4-53.21-25.64-7.26-5.67-7.82-15-2.38-22.38.41-.56.85-1.12,1.33-1.68C253.9,563.13,324.33,513.24,341,510.74Z" transform="translate(-115.58 -107.44)"/><path class="cls-1" d="M361.58,516.52S418.9,555,428,581.55l-35.89-.74-19.49-23.93S368,532.6,361.58,516.52Z" transform="translate(-115.58 -107.44)"/><path class="cls-18" d="M299.3,574.23s-10.69,6-17.35,4.08a13.31,13.31,0,0,0,14.88,4.75S292.86,578.72,299.3,574.23Z" transform="translate(-115.58 -107.44)"/><path class="cls-18" d="M305.22,568.57s17.69-10.68,23.4-24Z" transform="translate(-115.58 -107.44)"/><path class="cls-18" d="M341.9,509.79s5.62,8.91-2.9,21.11-9.87,12.34-8.72,11.32,12-18.37,7.82-30.53l3.8-1.9" transform="translate(-115.58 -107.44)"/><path class="cls-18" d="M328.62,544.56s-21.93,30.89-8.6,50.88c0,0-8.86-2.46-12.85-5.56l-2.38-21.09Z" transform="translate(-115.58 -107.44)"/><path class="cls-18" d="M248.53,599.61c3.2,2.3,12.7,6.4,33.42-3.22,0,0-9.14,13.33-25.22,10.62l-13.32-10.47.78.39A32.26,32.26,0,0,1,248.53,599.61Z" transform="translate(-115.58 -107.44)"/><path class="cls-18" d="M391.86,573.7s7.14,9.37,20.47.8l-7.27,6.58-12.72.08Z" transform="translate(-115.58 -107.44)"/><path class="cls-18" d="M361.64,517.28c7.37,12.24,12.16,41,12.16,41s13.78,17.13,14.73,18.09,6.27,2,6.27,2C389.64,568.92,372,549,372,549" transform="translate(-115.58 -107.44)"/><path class="cls-18" d="M371.11,539.29" transform="translate(-115.58 -107.44)"/><path class="cls-18" d="M322.39,559.43s9.52,11.42,22.84,2.85c0,0-6.56,13.06-26.64-.95l-1.9-1,4.67-7.09S320.49,557.52,322.39,559.43Z" transform="translate(-115.58 -107.44)"/><path class="cls-18" d="M317.34,564.45s18.38,12.11,27.89-2.17c0,0-9.61,12.28-26.64-1.9Z" transform="translate(-115.58 -107.44)"/><path class="cls-8" d="M353.66,527.58c-3.94-.5-10.78-9.21-12.88-15.91-.14-.46,1.37-4.7,3-9.93.95-3.18,1.93-6.75,2.6-10.07l19.79,9.22a54.43,54.43,0,0,0-4.56,12.34,7.5,7.5,0,0,0-.13,1.39,2,2,0,0,1,0,.23C361.33,517.52,359.82,528.37,353.66,527.58Z" transform="translate(-115.58 -107.44)"/><path class="cls-19" d="M361.44,514.62a1.63,1.63,0,0,0,0,.24,15.61,15.61,0,0,1-2.17-.32c-12-2.69-12-18.12-11.81-22.33l18.69,8.68a54.27,54.27,0,0,0-4.57,12.33A10.27,10.27,0,0,0,361.44,514.62Z" transform="translate(-115.58 -107.44)"/><path class="cls-8" d="M344.59,469.34c-2.5,7.46.88,29.29,6.09,34.28,7.57,7.24,20.25,8.25,26.47-.9,6-8.88,1.12-37.26-4.74-41.83C363.79,454.17,348.28,458.32,344.59,469.34Z" transform="translate(-115.58 -107.44)"/><path class="cls-1" d="M364.13,483c0-.05-.1.1-.08.16.33,1.45.46,3.17-.76,3.91,0,0,0,.09,0,.08C364.88,486.62,364.68,484.34,364.13,483Z" transform="translate(-115.58 -107.44)"/><path class="cls-1" d="M362.53,481.74c-2.38.28-1.65,5,.56,4.77S364.53,481.51,362.53,481.74Z" transform="translate(-115.58 -107.44)"/><path class="cls-1" d="M372.36,481.47c0-.06.12,0,.13.11.18,1.48.64,3.14,2,3.42.05,0,.05.09,0,.09C372.87,485.11,372.29,482.9,372.36,481.47Z" transform="translate(-115.58 -107.44)"/><path class="cls-1" d="M373.43,479.73c2.34-.54,3.26,4.17,1.09,4.68S371.47,480.19,373.43,479.73Z" transform="translate(-115.58 -107.44)"/><path class="cls-8" d="M348.75,487.17c.14-.05-4.41-7.22-8.07-5.33-3.23,1.67.42,11.94,4.16,13.37a3.8,3.8,0,0,0,5.11-2Z" transform="translate(-115.58 -107.44)"/><path class="cls-19" d="M341.79,483.79a.05.05,0,0,0,0,.1c2.62,1.08,4,3.53,4.93,6.06a2.1,2.1,0,0,0-3.14-.6.08.08,0,0,0,.07.14,2.35,2.35,0,0,1,2.58.84,11.77,11.77,0,0,1,1.22,2.09c.12.24.54.11.45-.16a.14.14,0,0,0,0-.06C348,488.86,345.38,484.15,341.79,483.79Z" transform="translate(-115.58 -107.44)"/><path class="cls-8" d="M375.86,500.06a2,2,0,0,0-2-2.16h-4.21c-3.05,0-8.69.84-8.82,1.47-.32,1.58-.32,7.67,11.87,4.62A4.47,4.47,0,0,0,375.86,500.06Z" transform="translate(-115.58 -107.44)"/><path class="cls-1" d="M371.62,498a8.89,8.89,0,0,1-8,.56S368,503.57,371.62,498Z" transform="translate(-115.58 -107.44)"/><path class="cls-14" d="M344.62,482.56,349,487.1S346.43,468,359.5,463.79a9.6,9.6,0,0,0,3.82-2.38h0a22.39,22.39,0,0,0,6.51,4.6,17.35,17.35,0,0,1,9.36,11.28c3,12,6.83,33.73.71,52.57l16.26,13.69,7,5.93S400.43,528,391.86,514.7c-4.32-6.73-9.06-30.2-10.07-40.38a21.83,21.83,0,0,0-6.66-13.85,18.67,18.67,0,0,0-16.57-4.77s-23.79,0-23.79,23.79-27.9,48.71-27.9,48.71,19.64-12.45,29.95-16.31c0,0,3.3-.63,4.43-2.24s4-14,4-14a14.64,14.64,0,0,1-5.78-11.54s.19-3.39,3.17-2.57A4.73,4.73,0,0,1,344.62,482.56Z" transform="translate(-115.58 -107.44)"/><path class="cls-25" d="M415.44,482.31" transform="translate(-115.58 -107.44)"/><path class="cls-25" d="M376.64,468.07" transform="translate(-115.58 -107.44)"/><path class="cls-15" d="M362.61,509.32a29.89,29.89,0,0,0-1.27,6.81s20.17,14.93,24.39,18.64c0,0-11.19-18.16-6.81-36.25C378.92,498.52,377.13,509.65,362.61,509.32Z" transform="translate(-115.58 -107.44)"/><path class="cls-20" d="M364,477.7a2,2,0,0,1,.93,2.79s-5.57-1.86-8.35.92l-1.86.93a10.49,10.49,0,0,1,4.64-3.71A16.24,16.24,0,0,1,364,477.7Z" transform="translate(-115.58 -107.44)"/><path class="cls-20" d="M370.5,476.8a1.62,1.62,0,0,0,.09,2.34s3.64-2.95,6.51-1.65l1.65.17a8.38,8.38,0,0,0-4.52-1.47A13.06,13.06,0,0,0,370.5,476.8Z" transform="translate(-115.58 -107.44)"/><path class="cls-20" d="M369,485.2s2.85,3.8,2.85,6.66-4.76,1.9-4.76,1.9,4.76,0,3.81-2.85Z" transform="translate(-115.58 -107.44)"/><path class="cls-14" d="M363.32,461.41a56.83,56.83,0,0,1-10.47,9.51c-5.71,3.81-3.87,15.6-3.87,15.6l-1.58-20Z" transform="translate(-115.58 -107.44)"/><path class="cls-15" d="M339.45,485.2s1.66,20.58-15.59,33c0,0,10.91-4.81,16.76-6.61l4.87-16.15S340.62,493.56,339.45,485.2Z" transform="translate(-115.58 -107.44)"/><path class="cls-9" d="M334.93,643.87s-4.31-11.31-10.31-16.31c0,0,8.63,13.81,10.31,17.41Z" transform="translate(-115.58 -107.44)"/><path class="cls-9" d="M346.62,643.12s-4.32-11.3-10.32-16.3c0,0,8.63,13.81,10.32,17.4Z" transform="translate(-115.58 -107.44)"/><path class="cls-9" d="M353.62,635.12s-4.32-11.3-10.32-16.3c0,0,8.63,13.81,10.32,17.4Z" transform="translate(-115.58 -107.44)"/><rect class="cls-26" x="194.62" y="539.01" width="107.98" height="4.84"/><polygon class="cls-26" points="237.56 543.85 342.79 543.85 351.55 472.38 246.32 472.38 237.56 543.85"/><path class="cls-27" d="M361.62,579.56a3.67,3.67,0,0,1,3.5,2.85c1,3-8.17,69-8.17,69l-6.64-.15" transform="translate(-115.58 -107.44)"/><path class="cls-18" d="M319.8,595.27s-4.5-24.37,12.16-26c0,0-6.34-.67-14.34-5.67C317.62,563.56,311,581,319.8,595.27Z" transform="translate(-115.58 -107.44)"/><path class="cls-9" d="M793.33,627.24s7.29-9.65,14.45-12.79c0,0-12.13,10.87-14.75,13.85Z" transform="translate(-115.58 -107.44)"/><path class="cls-9" d="M783.32,622.27s7.29-9.65,14.44-12.78c0,0-12.13,10.86-14.75,13.84Z" transform="translate(-115.58 -107.44)"/><path class="cls-27" d="M778.62,560.56s-2,0-3,3,8.17,69,8.17,69l6.64-.15" transform="translate(-115.58 -107.44)"/><rect class="cls-27" x="606.99" y="520.17" width="107.98" height="4.84"/><polygon class="cls-26" points="672.02 525.01 566.79 525.01 558.03 453.54 663.26 453.54 672.02 525.01"/><path class="cls-1" d="M415.14,561.69s2.47,5.12,12.47,0l17.44-8.4,16.57,26.27-38.09.26Z" transform="translate(-115.58 -107.44)"/><path class="cls-18" d="M416.07,562.77s6.55,3.79,6.55,9.79c0,0,3.07-3.45,1-9.22C423.66,563.34,418.53,565,416.07,562.77Z" transform="translate(-115.58 -107.44)"/><polygon class="cls-18" points="275.8 472.38 271.93 467.78 275.04 468.13 278.56 470.8 279.56 472.38 275.8 472.38"/><path class="cls-1" d="M361.5,482.16c-.34.23-.68.62-1.09.67s-.84-.35-1.16-.75c0,0-.07,0-.07.05,0,.75.3,1.52,1.11,1.62s1.26-.57,1.43-1.33C361.76,482.28,361.63,482.07,361.5,482.16Z" transform="translate(-115.58 -107.44)"/><path class="cls-1" d="M374.42,480.16c.34.23.67.62,1.08.67s.85-.35,1.16-.75c0,0,.07,0,.07.05,0,.75-.3,1.52-1.1,1.62s-1.26-.57-1.44-1.33C374.15,480.28,374.28,480.07,374.42,480.16Z" transform="translate(-115.58 -107.44)"/><polygon class="cls-28" points="343.04 544.13 351.39 473.73 314.16 543.85 343.04 544.13"/><polygon class="cls-28" points="566.79 525.4 558.42 455 595.74 525.13 566.79 525.4"/><polygon class="cls-27" points="343.04 539.13 343.04 543.85 229.2 543.85 234.94 539.01 343.04 539.13"/><polygon class="cls-27" points="566.42 520.17 566.42 525 680.38 525 674.64 520.17 566.42 520.17"/><polyline class="cls-29" points="308.58 372.2 299.57 388.94 316.61 385.64"/><circle class="cls-29" cx="463" cy="466.31" r="44.05" transform="translate(-263.33 601.36) rotate(-66.86)"/><path class="cls-25" d="M457.54,458.21" transform="translate(-115.58 -107.44)"/><circle class="cls-12" cx="463.39" cy="462.62" r="44.05" transform="translate(-259.69 599.48) rotate(-66.86)"/><polyline class="cls-30" points="309.61 370.65 300.61 387.39 317.64 384.09"/><polygon class="cls-31" points="347.83 342.55 360.7 363.07 354.61 372.82 341.2 372.82 335.11 363.07 347.83 342.55"/><rect class="cls-32" x="341.2" y="372.82" width="13.41" height="3.66"/><rect class="cls-33" x="346.08" y="360.64" width="3.66" height="3.66"/><line class="cls-34" x1="347.82" y1="360.63" x2="347.82" y2="333.88"/><path class="cls-35" d="M436.69,470.23a26.75,26.75,0,0,1,53.46,1.55" transform="translate(-115.58 -107.44)"/><rect class="cls-36" x="319.36" y="360.67" width="3.66" height="3.66"/><rect class="cls-37" x="372.61" y="361.9" width="3.66" height="3.66"/><line class="cls-35" x1="322.31" y1="337.59" x2="372.59" y2="337.59"/><rect class="cls-38" x="371.38" y="336.6" width="2.46" height="2.46"/><rect class="cls-39" x="320.95" y="336.25" width="2.46" height="2.46"/><polyline class="cls-29" points="590.31 371.57 598.04 385.93 583.42 383.1"/><circle class="cls-29" cx="672.56" cy="467.56" r="37.8" transform="translate(-245.21 194.5) rotate(-23.14)"/><path class="cls-25" d="M677.24,460.61" transform="translate(-115.58 -107.44)"/><circle class="cls-30" cx="672.22" cy="464.39" r="37.8" transform="translate(-243.99 194.11) rotate(-23.14)"/><polyline class="cls-30" points="589.42 370.23 597.15 384.59 582.54 381.76"/><path class="cls-40" d="M689.44,458.12a17.22,17.22,0,1,0-24.55,15.58V478H680s.09-2.44.12-4.61A17.21,17.21,0,0,0,689.44,458.12Z" transform="translate(-115.58 -107.44)"/><path class="cls-41" d="M678.82,481.83h-13a1,1,0,0,1-1-1h0a1,1,0,0,1,1-1h13a1,1,0,0,1,1,1h0A1,1,0,0,1,678.82,481.83Z" transform="translate(-115.58 -107.44)"/><path class="cls-42" d="M678.82,483.68h-13a1,1,0,0,0,0,1.95h1.42l1.89,3.59a1.24,1.24,0,0,0,1.1.67h4.63a1.28,1.28,0,0,0,1.12-.68l1.83-3.58h1a1,1,0,0,0,0-1.95Z" transform="translate(-115.58 -107.44)"/><path class="cls-30" d="M661.16,447.15a12.56,12.56,0,0,1,3.45-2.29,8.83,8.83,0,0,1,2.65-.77c.66-.07,1,0,1.06.13.07.31-1.23.77-3,1.95a14.14,14.14,0,0,0-6.45,13.9c.23,2.1.72,3.4.43,3.54-.12.07-.41-.17-.78-.71a9.13,9.13,0,0,1-1.12-2.53,13,13,0,0,1-.48-4.11,13.44,13.44,0,0,1,1.21-5" transform="translate(-115.58 -107.44)"/><path class="cls-30" d="M672.46,445c-1.09,0-2.06-.31-2.17-.89,0-.28.16-.59.55-.83a3.22,3.22,0,0,1,1.63-.39,3.17,3.17,0,0,1,1.62.41c.4.24.59.55.54.84" transform="translate(-115.58 -107.44)"/><polygon class="cls-43" points="551.68 378.28 552.31 379.35 561.68 379.35 562.25 378.17 551.68 378.28"/><polygon class="cls-43" points="552.75 380.17 553.24 381.11 560.78 381.11 561.26 380.17 552.75 380.17"/><path class="cls-44" d="M674.75,473.5s0-.07,0-.22,0-.37.08-.65c.07-.58.17-1.43.33-2.51s.38-2.42.72-3.94a27.58,27.58,0,0,1,1.65-5.05,16.16,16.16,0,0,1,1.49-2.71,3.26,3.26,0,0,1,1.24-1.11,1.84,1.84,0,0,1,1.72.05,1.27,1.27,0,0,1,.5,1.65,2.64,2.64,0,0,1-1.4,1.21,5,5,0,0,1-3.77-.27,5,5,0,0,1-2.56-3,3.83,3.83,0,0,1-.11-2.1,1.64,1.64,0,0,1,1.65-1.26,1.17,1.17,0,0,1,.92.64,1.68,1.68,0,0,1,.15,1.12,3.53,3.53,0,0,1-1.28,1.8,5.39,5.39,0,0,1-4.22,1.23,4.73,4.73,0,0,1-3.51-2.61,2.72,2.72,0,0,1-.12-2.2,1.38,1.38,0,0,1,.79-.8,1.37,1.37,0,0,1,1.12.1,1.92,1.92,0,0,1,.77.8,3,3,0,0,1,.27,1,5.41,5.41,0,0,1-2.83,5.11,5.49,5.49,0,0,1-3.75.52,2.93,2.93,0,0,1-1.63-.87,1.39,1.39,0,0,1-.1-1.74,1.13,1.13,0,0,1,.81-.4,1.74,1.74,0,0,1,.87.17,2.61,2.61,0,0,1,1.11,1.24c.45,1,.82,1.94,1.19,2.85,1.45,3.65,2.48,6.66,3.17,8.75.34,1,.59,1.86.76,2.41.09.27.15.48.19.63l.06.22-.08-.21-.21-.63c-.19-.55-.46-1.36-.81-2.39-.71-2.08-1.76-5.08-3.23-8.72-.37-.91-.75-1.87-1.2-2.83a2.38,2.38,0,0,0-1-1.16,1.08,1.08,0,0,0-1.35,1.69,2.68,2.68,0,0,0,1.52.8,5.31,5.31,0,0,0,3.61-.51,5.19,5.19,0,0,0,2.46-2.93,5.1,5.1,0,0,0,.26-2,2,2,0,0,0-.93-1.67,1.1,1.1,0,0,0-1.61.6,2.52,2.52,0,0,0,.12,2,4.49,4.49,0,0,0,3.34,2.49A5.2,5.2,0,0,0,676,457a3.33,3.33,0,0,0,1.2-1.67,1.47,1.47,0,0,0-.12-1,1,1,0,0,0-.75-.53,1.28,1.28,0,0,0-.9.29,1.56,1.56,0,0,0-.52.81,3.57,3.57,0,0,0,.1,2,4.84,4.84,0,0,0,2.45,2.91A4.74,4.74,0,0,0,681,460a2.34,2.34,0,0,0,1.29-1.1,1.06,1.06,0,0,0-.42-1.41,1.7,1.7,0,0,0-1.55,0,3.28,3.28,0,0,0-1.17,1,17,17,0,0,0-1.49,2.68,27.89,27.89,0,0,0-1.67,5c-.35,1.52-.58,2.85-.75,3.93s-.29,1.92-.38,2.5l-.09.65C674.76,473.43,674.75,473.5,674.75,473.5Z" transform="translate(-115.58 -107.44)"/><rect class="cls-45" x="346.09" y="335.98" width="3.66" height="3.66"/><polygon class="cls-46" points="807.8 379.28 810.02 327.75 742.55 327.75 745.32 379.13 807.8 379.28"/><path class="cls-12" d="M899.61,445.55s7.39-.28,8.7.32-.34,12.66-.34,12.66l2.95,2.7-2.76,2.68s.15,12.22-1.59,13.23-7.69,0-7.69,0v-3.05s4.86.31,5.66-.34.72-11.33.72-11.33l1.31-1.43-1.31-1.54s.24-7.61.1-9.7c-.1-1.39-5.75-1.46-5.75-1.46Z" transform="translate(-115.58 -107.44)"/><path class="cls-12" d="M882.66,445.55s-7.4-.28-8.7.32.33,12.66.33,12.66l-2.94,2.7,2.75,2.68s-.14,12.22,1.6,13.23,7.68,0,7.68,0v-3.05s-4.85.31-5.65-.34-.73-11.33-.73-11.33L875.7,461l1.3-1.54s-.24-7.61-.09-9.7c.09-1.39,5.75-1.46,5.75-1.46Z" transform="translate(-115.58 -107.44)"/><polygon class="cls-12" points="458.79 427.53 446.75 441.48 459.01 451.88 459.01 446.51 451.92 440.38 458.5 432.93 458.79 427.53"/><polygon class="cls-12" points="479.94 428.16 491.97 442.11 479.71 452.51 479.71 447.14 486.8 441 478.91 432.65 479.94 428.16"/><polygon class="cls-12" points="461.41 451.88 471.89 428.79 476.82 428.79 464.94 451.88 461.41 451.88"/><path class="cls-47" d="M509.38,525c.65-.16,1.29-.33,1.93-.51" transform="translate(-115.58 -107.44)"/><path class="cls-48" d="M516.16,522.83C560,505.67,573,435.56,634.69,414.44" transform="translate(-115.58 -107.44)"/><path class="cls-47" d="M637.13,413.64l1.92-.58" transform="translate(-115.58 -107.44)"/><path class="cls-49" d="M609.54,778.47c-4.63-2.39-10.09-2.7-15.24-1.85-2.76.46-5.64,1.29-7.53,3.36s-2.23,5.73-.07,7.52a7.2,7.2,0,0,0,4.74,1.2c4,0,8.5-.75,11.72,1.67,1.84,1.38,3.06,3.68,5.25,4.36a5.19,5.19,0,0,0,5.72-2.54,8.9,8.9,0,0,0,.64-6.54A10,10,0,0,0,609.54,778.47Z" transform="translate(-115.58 -107.44)"/><path class="cls-50" d="M620.16,758c-2.83,4-8.34,2.71-10.9.24s-3.63-6.05-4.61-9.47c-2.25-7.8-4.51-16-2.84-23.93a13.29,13.29,0,0,1,3.06-6.51,6.94,6.94,0,0,1,6.58-2.19c2.78.73,4.5,3.45,5.75,6a57.06,57.06,0,0,1,5.64,24.49c0,3.94-.45,8.08-2.68,11.33" transform="translate(-115.58 -107.44)"/><path class="cls-51" d="M628,763.78c-3.08-3.65-3.67-9-2.3-13.55s4.47-8.47,8-11.65a43.06,43.06,0,0,1,14.38-8.48,15.34,15.34,0,0,1,6.47-1.1,6.78,6.78,0,0,1,5.42,3.28c1.51,2.89.06,6.39-1.51,9.24A108.59,108.59,0,0,1,649,755.9c-2.83,3.65-6.07,7.25-10.38,8.9s-8.8,1.46-11.08-1.54" transform="translate(-115.58 -107.44)"/><path class="cls-52" d="M620.35,819a9.76,9.76,0,0,1-.25-1.84c-.13-1.34-.3-3-.49-5a70.34,70.34,0,0,0-1.13-7.36,55.85,55.85,0,0,0-2.68-8.69,31.9,31.9,0,0,0-4.43-7.87,16.58,16.58,0,0,0-5.62-4.66,15.35,15.35,0,0,0-4.72-1.47,8.75,8.75,0,0,1-1.83-.27,8.93,8.93,0,0,1,1.86,0,14.35,14.35,0,0,1,4.93,1.29,16.63,16.63,0,0,1,5.92,4.7,31.41,31.41,0,0,1,4.6,8,54.09,54.09,0,0,1,2.66,8.84,61.89,61.89,0,0,1,1,7.45c.16,2.13.22,3.86.25,5A7.68,7.68,0,0,1,620.35,819Z" transform="translate(-115.58 -107.44)"/><path class="cls-53" d="M620,815.18a3.62,3.62,0,0,1,0-.86c0-.64,0-1.45,0-2.44,0-2.11,0-5.18-.11-9-.19-7.57-.84-15.71-2.1-27.2-1.19-10.8-2.79-23.37-4.48-31.55-.36-1.85-.73-3.53-1.07-5s-.61-2.74-.88-3.76l-.57-2.37a4.45,4.45,0,0,1-.15-.84,3,3,0,0,1,.3.8c.18.61.42,1.38.71,2.33s.63,2.28,1,3.74.79,3.13,1.18,5a277.36,277.36,0,0,1,4.71,29.27c1.26,11.51,1.83,22,1.88,29.58.05,3.8,0,6.87-.13,9-.06,1-.11,1.8-.15,2.44A4.09,4.09,0,0,1,620,815.18Z" transform="translate(-115.58 -107.44)"/><path class="cls-54" d="M620,795a15.51,15.51,0,0,1,0-2.55,66.8,66.8,0,0,1,.78-6.9A91.56,91.56,0,0,1,623,775.44a82.88,82.88,0,0,1,4.21-11.91,63.47,63.47,0,0,1,12.36-19.24,31.58,31.58,0,0,1,2.91-2.71c.45-.37.84-.75,1.24-1.05l1.13-.78a16.1,16.1,0,0,1,2.15-1.37c.12.16-3,2-7,6.28a66.73,66.73,0,0,0-12.05,19.17,93.91,93.91,0,0,0-4.23,11.8,99.39,99.39,0,0,0-2.39,10c-.53,2.87-.84,5.21-1,6.84A16.84,16.84,0,0,1,620,795Z" transform="translate(-115.58 -107.44)"/><polygon class="cls-55" points="523.92 723.18 521.89 750.94 486.24 750.94 484.22 723.18 523.92 723.18"/><rect class="cls-56" x="479.96" y="712.25" width="47.4" height="10.94"/><polygon class="cls-57" points="527.36 749.87 527.36 752.91 525.14 752.91 480.75 752.91 480.75 749.87 527.36 749.87"/><polygon class="cls-58" points="522.95 758.24 525.14 752.91 482.44 752.91 484.99 758.24 522.95 758.24"/><path class="cls-59" d="M599.3,830.44c0,.12,8.93.22,20,.22s20-.1,20-.22-8.93-.22-20-.22S599.3,830.32,599.3,830.44Z" transform="translate(-115.58 -107.44)"/><path class="cls-60" d="M597.5,860.64c0,.12,9.71.22,21.68.22s21.68-.1,21.68-.22-9.7-.22-21.68-.22S597.5,860.52,597.5,860.64Z" transform="translate(-115.58 -107.44)"/><polygon class="cls-61" points="517.62 285.52 529.89 292.36 530.79 302.64 538.61 296.17 549.11 301.04 579.57 272.38 517.62 285.52"/><polygon class="cls-62" points="529.89 292.36 578.64 272.57 535.69 294.82 530.79 302.64 530.79 302.64 529.89 292.36"/><g class="cls-63"><polygon points="535.69 294.82 538.61 296.17 530.79 302.64 535.69 294.82"/></g><path class="cls-12" d="M562.65,412l1.46,2.62a17.58,17.58,0,0,0,7.06,7l2.65,1.42-2.63,1.46a17.71,17.71,0,0,0-7,7.06l-1.42,2.65-1.46-2.62a17.58,17.58,0,0,0-7.06-7l-2.64-1.42,2.62-1.46a17.64,17.64,0,0,0,7-7.06Z" transform="translate(-115.58 -107.44)"/><path class="cls-12" d="M397.76,386.85l1.08,1.93A12.85,12.85,0,0,0,404,393.9l2,1.05L404.05,396a12.94,12.94,0,0,0-5.12,5.2l-1.05,1.94-1.07-1.93a13,13,0,0,0-5.2-5.12l-1.94-1L391.6,394a13,13,0,0,0,5.12-5.19Z" transform="translate(-115.58 -107.44)"/><path class="cls-12" d="M706.59,399.6l.8,1.44a9.61,9.61,0,0,0,3.87,3.82l1.45.78-1.44.8a9.68,9.68,0,0,0-3.81,3.88l-.78,1.45-.81-1.44a9.68,9.68,0,0,0-3.87-3.82l-1.45-.78,1.44-.8a9.74,9.74,0,0,0,3.82-3.87Z" transform="translate(-115.58 -107.44)"/><rect class="cls-64" x="281.04" y="9.13" width="375" height="236" rx="19.45"/><rect class="cls-65" x="277.04" y="5.13" width="375" height="236" rx="19.45"/><rect class="cls-30" x="316.24" y="61.18" width="63.29" height="63.29"/><polygon class="cls-66" points="321.09 119.62 341.84 90.05 364.35 119.62 321.09 119.62"/><polyline class="cls-67" points="374.5 119.62 350.22 119.62 361.87 103.02"/><rect class="cls-68" x="320.86" y="65.8" width="54.05" height="54.05"/><circle class="cls-69" cx="357.13" cy="88.2" r="4.62"/><rect class="cls-68" x="311.08" y="55.9" width="73.62" height="73.85"/><rect class="cls-70" x="405.19" y="53.45" width="204.85" height="7.68"/><rect class="cls-70" x="405.19" y="72.8" width="204.85" height="4.75"/><rect class="cls-70" x="405.49" y="80.43" width="216.56" height="4.75"/><rect class="cls-70" x="405.49" y="88.06" width="216.56" height="4.75"/><rect class="cls-70" x="405.49" y="95.69" width="207.84" height="4.75"/><rect class="cls-70" x="405.55" y="109.61" width="216.56" height="4.75"/><rect class="cls-70" x="405.55" y="117.24" width="216.56" height="4.75"/><rect class="cls-70" x="405.55" y="124.87" width="207.84" height="4.75"/><rect class="cls-30" x="546.84" y="156.8" width="63.29" height="63.29"/><polygon class="cls-71" points="551.69 215.24 572.44 185.67 594.95 215.24 551.69 215.24"/><polyline class="cls-72" points="605.1 215.24 580.81 215.24 592.46 198.64"/><rect class="cls-68" x="551.46" y="161.42" width="54.05" height="54.05"/><circle class="cls-73" cx="587.72" cy="183.83" r="4.62"/><rect class="cls-68" x="541.67" y="151.52" width="73.62" height="73.85"/><rect class="cls-70" x="308.78" y="156.07" width="204.85" height="7.68"/><rect class="cls-70" x="308.78" y="175.42" width="204.85" height="4.75"/><rect class="cls-70" x="309.08" y="183.05" width="216.56" height="4.75"/><rect class="cls-70" x="309.08" y="190.68" width="216.56" height="4.75"/><rect class="cls-70" x="309.08" y="198.31" width="207.84" height="4.75"/><rect class="cls-70" x="308.15" y="206.86" width="216.56" height="4.75"/><rect class="cls-74" x="305.92" y="21.04" width="315.12" height="20.93" rx="3.85"/><path class="cls-75" d="M704.64,138.94a4,4,0,1,1-4-4.08A4.06,4.06,0,0,1,704.64,138.94Z" transform="translate(-115.58 -107.44)"/><path class="cls-75" d="M717.27,138.94a4,4,0,1,1-4-4.08A4.06,4.06,0,0,1,717.27,138.94Z" transform="translate(-115.58 -107.44)"/><path class="cls-75" d="M729.9,138.94a4,4,0,1,1-4-4.08A4.06,4.06,0,0,1,729.9,138.94Z" transform="translate(-115.58 -107.44)"/><circle class="cls-76" cx="319.04" cy="31.13" r="7"/><path class="cls-12" d="M508.62,894.56s-3-4-3-14c0,0,69,5,106,1,0,0,2.44,6.44,1.38,8.44S530.83,894.56,508.62,894.56Z" transform="translate(-115.58 -107.44)"/><path class="cls-12" d="M599.62,871.56s-10,3-9,12h-2.56S588.62,871.56,599.62,871.56Z" transform="translate(-115.58 -107.44)"/><path class="cls-13" d="M495.47,930.63c-3.47.2-94.48-24.49-97.36-27.62-1.09-1.18,1.73-14.65,5.6-30.82l58.73,15.75s30.61,25,33.4,28.81S498.94,930.43,495.47,930.63Z" transform="translate(-115.58 -107.44)"/><path class="cls-12" d="M490.87,911.89a12.7,12.7,0,0,0-10.14,1.25,12.38,12.38,0,0,0-5.62,7.22c0,.09.15.14.19,0a14.68,14.68,0,0,1,15.52-8.33A.1.1,0,0,0,490.87,911.89Z" transform="translate(-115.58 -107.44)"/><path class="cls-12" d="M467.94,891.06c-6.08-1.74-13.75-1.51-18.9,2.46-.2.15,0,.43.23.39a87.13,87.13,0,0,1,18.57-2.07A.4.4,0,0,0,467.94,891.06Z" transform="translate(-115.58 -107.44)"/><path class="cls-12" d="M472.16,894.18c-6.09-1.75-13.75-1.51-18.9,2.45-.2.16,0,.44.23.39A87.69,87.69,0,0,1,472.06,895,.4.4,0,0,0,472.16,894.18Z" transform="translate(-115.58 -107.44)"/><path class="cls-12" d="M476.37,897.29c-6.08-1.74-13.75-1.5-18.89,2.46-.2.15,0,.44.22.39a87.85,87.85,0,0,1,18.57-2.07A.4.4,0,0,0,476.37,897.29Z" transform="translate(-115.58 -107.44)"/><path class="cls-12" d="M480.59,900.41c-6.09-1.74-13.75-1.51-18.9,2.46-.2.15,0,.43.23.39a87.06,87.06,0,0,1,18.57-2.07A.4.4,0,0,0,480.59,900.41Z" transform="translate(-115.58 -107.44)"/><path class="cls-12" d="M397.62,903.56s-.76-5.5,2.68-14.89c0,0,62.19,27.89,98.32,36.89,0,0-1.94,8.93-3.62,10.44S418.47,911.22,397.62,903.56Z" transform="translate(-115.58 -107.44)"/><path class="cls-12" d="M490.71,912.26s-10.42-.63-12.59,8.17l-2.4-.89S480.38,908.47,490.71,912.26Z" transform="translate(-115.58 -107.44)"/><path class="cls-17" d="M711.71,902.65c3.85-.3,100.35-41.33,103-45.22,1-1.47-4.13-15.88-10.86-33.1L741.61,850.6s-29.92,32.24-32.42,36.82S707.86,903,711.71,902.65Z" transform="translate(-115.58 -107.44)"/><path class="cls-1" d="M713.92,880.31a14.1,14.1,0,0,1,11.36-.16c2.94,1.34,6,3.69,7.29,7.1,0,.09-.14.17-.2.08-3.61-5.94-11.73-9.05-18.36-6.82A.11.11,0,0,1,713.92,880.31Z" transform="translate(-115.58 -107.44)"/><path class="cls-1" d="M736,853.88c6.44-2.85,14.91-3.75,21.19-.17.24.14,0,.49-.19.47a97.49,97.49,0,0,0-20.77.54A.44.44,0,0,1,736,853.88Z" transform="translate(-115.58 -107.44)"/><path class="cls-1" d="M731.85,858c6.43-2.84,14.91-3.75,21.19-.16.24.14,0,.48-.19.46a96.84,96.84,0,0,0-20.77.55A.45.45,0,0,1,731.85,858Z" transform="translate(-115.58 -107.44)"/><path class="cls-1" d="M727.68,862c6.43-2.85,14.91-3.75,21.19-.17.24.14,0,.48-.19.47a97.49,97.49,0,0,0-20.77.54A.44.44,0,0,1,727.68,862Z" transform="translate(-115.58 -107.44)"/><path class="cls-1" d="M723.51,866.1c6.43-2.84,14.91-3.75,21.19-.17.24.14,0,.49-.19.47a97.49,97.49,0,0,0-20.77.54A.44.44,0,0,1,723.51,866.1Z" transform="translate(-115.58 -107.44)"/><path class="cls-1" d="M814.62,857.56s.77-6.78-4.45-16.6c0,0-64.12,40.2-102.55,55.6,0,0,.91,4.59,3,6S792.81,869.16,814.62,857.56Z" transform="translate(-115.58 -107.44)"/><path class="cls-1" d="M714.16,880.69s11.38-2.27,15.1,7.09l2.52-1.34S725,875,714.16,880.69Z" transform="translate(-115.58 -107.44)"/><path class="cls-1" d="M654.21,676.14l-16.44,22.54s-2.93,3.07,2,5l16.4-22Z" transform="translate(-115.58 -107.44)"/><path class="cls-77" d="M184.66,847.88A32.54,32.54,0,0,0,163,851.39c-2.23,1.24-4.52,3.1-4.66,5.65-.2,3.39,3.43,5.7,6.74,6.5a23.93,23.93,0,0,0,16.63-2.08c5.06-2.66,8.5-5.83,10.53-11.17" transform="translate(-115.58 -107.44)"/><path class="cls-78" d="M224.32,862.91c-8.58-2.19-22.53-2.15-30.6,1.46a10.38,10.38,0,0,0-3.51,2.26,4.23,4.23,0,0,0-1.17,3.84c.5,1.95,2.61,3,4.53,3.54a34.52,34.52,0,0,0,34.94-9.79" transform="translate(-115.58 -107.44)"/><path class="cls-79" d="M258.77,880.62a50,50,0,0,0-25.87,4.26c-1.89.86-3.88,2-4.55,4-1,3,1.6,6,4.47,7.34,5.91,2.65,12.83.86,18.81-1.63,6.44-2.68,14.13-9.4,14.13-9.4" transform="translate(-115.58 -107.44)"/><path class="cls-80" d="M281.28,894.12c-7.07.16-14.25,1.26-20.58,4.42a10.23,10.23,0,0,0-3.66,2.73,4.26,4.26,0,0,0-.63,4.33c1.11,2.21,4.17,2.4,6.62,2.06,8.47-1.18,16.14-4.35,22.35-10.23" transform="translate(-115.58 -107.44)"/><path class="cls-81" d="M270.28,884.88a154.25,154.25,0,0,1-8-27.2c-.29-1.45-.47-3.18.62-4.18a3,3,0,0,1,3.22-.29,7.59,7.59,0,0,1,2.52,2.27c7.05,8.9,9.25,21.84,6.33,32.81" transform="translate(-115.58 -107.44)"/><path class="cls-82" d="M240.16,868.81q-4.5-11.44-9-22.89a19.18,19.18,0,0,1-1.73-6.76c0-2.34,1.07-4.84,3.18-5.85s4.72-.29,6.52,1.19a16.71,16.71,0,0,1,4,5.7c2.44,5,4.48,10.28,5,15.81s.29,10.17-3.1,14.58" transform="translate(-115.58 -107.44)"/><path class="cls-83" d="M205.55,852a54.4,54.4,0,0,1-12.94-25.19,9.15,9.15,0,0,1-.09-4.73c1-3,4.74-4.39,7.87-3.81a12.91,12.91,0,0,1,8.33,6.28,27.37,27.37,0,0,1,3.2,10.18,63,63,0,0,1-.27,19.72" transform="translate(-115.58 -107.44)"/><path class="cls-84" d="M173.09,841.59c-8.89-6.68-14.11-16.17-18.66-26.32-1-2.14-1.75-4.82-.31-6.67a4.5,4.5,0,0,1,4-1.48,10.46,10.46,0,0,1,4.15,1.6,34.08,34.08,0,0,1,15.8,34.13" transform="translate(-115.58 -107.44)"/><path class="cls-85" d="M156.19,837.75c-4.68-3.24-9.4-6.5-14.61-8.8s-11-3.63-16.62-2.8a13.08,13.08,0,0,0-6.7,2.75,7.17,7.17,0,0,0-2.59,6.52,7.6,7.6,0,0,0,4.19,5.06,19.37,19.37,0,0,0,6.56,1.64c10.76,1.25,23.8.58,29.77-4.37" transform="translate(-115.58 -107.44)"/><path class="cls-86" d="M264.79,782a32.59,32.59,0,0,0-17.27-13.55c-2.43-.79-5.34-1.22-7.32.4-2.63,2.15-1.86,6.4-.21,9.36A24,24,0,0,0,252.8,789c5.38,1.91,10.05,2.29,15.35.16" transform="translate(-115.58 -107.44)"/><path class="cls-87" d="M280.62,821.33c-4.2-7.78-13.68-18-21.81-21.51a10.46,10.46,0,0,0-4-1,4.26,4.26,0,0,0-3.62,1.75c-1.09,1.68-.4,3.92.47,5.72a34.48,34.48,0,0,0,30.88,19" transform="translate(-115.58 -107.44)"/><path class="cls-88" d="M291,858.67a50.08,50.08,0,0,0-20.67-16.14c-1.91-.8-4.11-1.48-6-.64-2.88,1.27-3.36,5.28-2.36,8.26,2.06,6.14,8.06,10,13.94,12.73,6.34,2.92,16.5,4,16.5,4" transform="translate(-115.58 -107.44)"/><path class="cls-89" d="M296.29,884.36c-4.9-5.09-10.58-9.62-17.19-12.12a10.14,10.14,0,0,0-4.49-.84,4.23,4.23,0,0,0-3.61,2.47c-.88,2.31,1.06,4.69,3,6.26,6.61,5.42,14.14,8.92,22.67,9.49" transform="translate(-115.58 -107.44)"/><path class="cls-90" d="M295.63,870a154.75,154.75,0,0,1,14.58-24.32c.87-1.19,2-2.49,3.49-2.38a3,3,0,0,1,2.4,2.17,7.5,7.5,0,0,1,0,3.4c-1.77,11.22-9.78,21.6-19.83,26.9" transform="translate(-115.58 -107.44)"/><path class="cls-91" d="M287,837l10.72-22.14a18.69,18.69,0,0,1,3.8-5.85c1.72-1.59,4.27-2.5,6.45-1.64s3.42,3.28,3.54,5.61a16.63,16.63,0,0,1-1.49,6.79c-2,5.18-4.51,10.26-8.23,14.4s-7.28,7.1-12.82,7.59" transform="translate(-115.58 -107.44)"/><path class="cls-92" d="M275.93,800.13a54.42,54.42,0,0,1,9.75-26.59,9.26,9.26,0,0,1,3.42-3.28c2.9-1.32,6.44.52,8.14,3.21a12.91,12.91,0,0,1,1,10.38A27.23,27.23,0,0,1,293,793.1a62.86,62.86,0,0,1-14.68,13.17" transform="translate(-115.58 -107.44)"/><path class="cls-93" d="M261.57,769.23c-1.11-11.08,2.32-21.34,6.7-31.57.92-2.15,2.36-4.55,4.69-4.75a4.49,4.49,0,0,1,3.82,2,10.47,10.47,0,0,1,1.64,4.14A34.07,34.07,0,0,1,264,773.76" transform="translate(-115.58 -107.44)"/><path class="cls-94" d="M252.94,754.19c-.8-5.63-1.6-11.31-3.43-16.7s-4.79-10.54-9.22-14.12a13.17,13.17,0,0,0-6.56-3.06,7.16,7.16,0,0,0-6.55,2.52,7.58,7.58,0,0,0-.88,6.5,19.12,19.12,0,0,0,3.24,5.94c6.38,8.75,15.71,17.9,23.4,18.92" transform="translate(-115.58 -107.44)"/><path class="cls-95" d="M976.72,808.43C985.37,810,993,815.1,999,821.49c3.24,3.43,6.26,7.48,6.66,12.18s-2.84,10-7.56,10.14c-2.8.11-5.37-1.5-7.58-3.22-5.35-4.17-10.61-9.68-17.4-9.71-3.87,0-7.85,1.81-11.48.48s-5.51-5.47-5.06-9.22,2.87-7,5.81-9.43A16.82,16.82,0,0,1,976.72,808.43Z" transform="translate(-115.58 -107.44)"/><path class="cls-96" d="M1005.4,751.15c-.33,8.31,8.41,12.13,14.35,11.43s11-4.41,15.84-8c11-8.16,22.34-16.82,28.2-29.16,1.76-3.69,3-7.77,2.54-11.84s-2.8-8.08-6.58-9.64c-4.47-1.85-9.56,0-13.86,2.23a96,96,0,0,0-32.52,27c-4,5.27-7.63,11.28-8,17.91" transform="translate(-115.58 -107.44)"/><path class="cls-97" d="M989.05,751c7.85-1.75,14.06-8.29,16.89-15.82s2.66-15.89,1.12-23.78a72.78,72.78,0,0,0-10.61-26c-2-3.1-4.39-6.11-7.54-8.06s-7.25-2.71-10.61-1.14c-5,2.33-6.6,8.49-7.41,13.92a184.81,184.81,0,0,0-2,28.88c.07,7.78.75,15.9,4.84,22.51s10.3,10.91,16.41,9.24" transform="translate(-115.58 -107.44)"/><path class="cls-98" d="M893.37,869.94c-4.08-3.26-9.37-4.63-14.58-4.81-2.8-.09-5.79.15-8,1.82s-3.32,5.18-1.55,7.36a7.23,7.23,0,0,0,4.42,2.11c4,.74,8.48.92,11.16,3.93,1.53,1.72,2.27,4.21,4.29,5.31a5.21,5.21,0,0,0,6.1-1.37,8.89,8.89,0,0,0,1.92-6.3A10,10,0,0,0,893.37,869.94Z" transform="translate(-115.58 -107.44)"/><path class="cls-99" d="M907.8,851.92c-3.57,3.41-8.71,1-10.73-1.91s-2.38-6.65-2.67-10.19c-.67-8.09-1.29-16.56,1.91-24a13.27,13.27,0,0,1,4.27-5.78,7,7,0,0,1,6.89-.85c2.58,1.26,3.74,4.27,4.45,7.05a56.92,56.92,0,0,1,.73,25.11c-.76,3.87-2,7.84-4.85,10.6" transform="translate(-115.58 -107.44)"/><path class="cls-100" d="M914.3,859.14c-2.31-4.19-1.83-9.53.41-13.74s6-7.43,10.15-9.85a43.4,43.4,0,0,1,15.76-5.5,15.42,15.42,0,0,1,6.56.19,6.8,6.8,0,0,1,4.68,4.29c.91,3.12-1.19,6.27-3.29,8.76a110,110,0,0,1-12.08,12.25c-3.49,3-7.38,5.92-11.93,6.69s-8.91-.3-10.57-3.68" transform="translate(-115.58 -107.44)"/><path class="cls-101" d="M125.07,830.78a11.18,11.18,0,0,0,1.89.51l5.48,1.19c2.38.48,5.3,1.09,8.65,1.91s7.21,1.62,11.4,2.78c8.43,2.12,18.37,5,29.29,8.6s22.72,8.1,34.9,13.34,23.47,10.94,33.59,16.38,19,10.8,26.3,15.51c3.71,2.27,6.93,4.52,9.81,6.43s5.33,3.59,7.31,5l4.61,3.19a10.6,10.6,0,0,0,1.67,1,10.49,10.49,0,0,0-1.49-1.26L294,902c-1.93-1.48-4.33-3.26-7.18-5.22s-6-4.29-9.72-6.62c-7.25-4.83-16.13-10.21-26.21-15.82s-21.46-11.2-33.66-16.53-24.11-9.66-35.06-13.28-21-6.33-29.45-8.33c-4.22-1.09-8.09-1.84-11.48-2.57s-6.31-1.28-8.71-1.68L127,831A10.08,10.08,0,0,0,125.07,830.78Z" transform="translate(-115.58 -107.44)"/><path class="cls-102" d="M237,726.59a10.35,10.35,0,0,0,.9,1.74c.73,1.23,1.67,2.83,2.84,4.83s2.79,4.64,4.46,7.66,3.69,6.4,5.69,10.26c4.15,7.64,8.76,16.91,13.52,27.36s9.46,22.2,13.86,34.71,7.87,24.67,10.73,35.79,4.94,21.28,6.43,29.85c.84,4.26,1.37,8.16,1.93,11.57s1,6.35,1.27,8.77.58,4.13.78,5.55a10.45,10.45,0,0,0,.37,1.92,9.89,9.89,0,0,0-.08-2l-.51-5.59c-.22-2.43-.54-5.39-1-8.82s-.94-7.34-1.72-11.63c-1.36-8.6-3.43-18.78-6.14-30s-6.31-23.37-10.66-36-9.25-24.28-14-34.77-9.56-19.72-13.84-27.31c-2.06-3.84-4.13-7.19-5.89-10.18s-3.33-5.51-4.67-7.54l-3.07-4.7A10.56,10.56,0,0,0,237,726.59Z" transform="translate(-115.58 -107.44)"/><path class="cls-103" d="M920.89,851.75a15,15,0,0,0,2.21-2.2l5.78-6.23a120.64,120.64,0,0,1,9-8.71,95.42,95.42,0,0,1,12.44-8.91,53.6,53.6,0,0,1,14-6,28,28,0,0,1,12.27-.53A26.16,26.16,0,0,1,984.4,822a15,15,0,0,0,2.73,1.51,14.92,14.92,0,0,0-2.47-1.94,24.27,24.27,0,0,0-7.91-3.31,28,28,0,0,0-12.72.27,52.47,52.47,0,0,0-14.34,6.06,89.33,89.33,0,0,0-12.57,9.12,106.34,106.34,0,0,0-8.91,9c-2.39,2.69-4.23,4.94-5.48,6.51A14.07,14.07,0,0,0,920.89,851.75Z" transform="translate(-115.58 -107.44)"/><path class="cls-104" d="M947.29,827.93a7.49,7.49,0,0,0,.93-1.1c.66-.86,1.48-1.94,2.48-3.27,2.15-2.85,5.28-6.95,9.29-11.9,8-9.95,17.15-20.2,30.55-34.31,12.61-13.25,27.57-28.45,38.16-37.68,2.38-2.12,4.57-4,6.53-5.6s3.6-3,5-4.14l3.18-2.59a6.36,6.36,0,0,0,1.06-1,6,6,0,0,0-1.21.77l-3.33,2.41c-1.46,1-3.17,2.39-5.16,4s-4.24,3.39-6.66,5.47A463.87,463.87,0,0,0,992,773.39c-13.43,14.13-24.87,27.59-32.68,37.7-3.93,5-6.95,9.24-9,12.18L948,826.69A5.58,5.58,0,0,0,947.29,827.93Z" transform="translate(-115.58 -107.44)"/><path class="cls-105" d="M968,800.9a26,26,0,0,0,2.58-3.43c1.54-2.29,3.66-5.69,6-10.05a155.9,155.9,0,0,0,7.25-15.77,139.89,139.89,0,0,0,6.5-20.24c3.77-14.66,4.32-28.56,3.07-38.38a55.22,55.22,0,0,0-1.14-6.59c-.22-1-.36-1.86-.6-2.67s-.49-1.52-.71-2.19a26.88,26.88,0,0,0-1.48-4c-.33.1,2,5.81,3,15.58s.32,23.44-3.41,38a157.78,157.78,0,0,1-6.36,20.12,171,171,0,0,1-7,15.78c-2.22,4.39-4.2,7.84-5.61,10.2A27.46,27.46,0,0,0,968,800.9Z" transform="translate(-115.58 -107.44)"/><path class="cls-106" d="M896,911.84a8.42,8.42,0,0,1,.1-1.86c.14-1.34.31-3,.51-5a70.49,70.49,0,0,0,.34-7.44,57.73,57.73,0,0,0-.92-9,32.38,32.38,0,0,0-2.81-8.58,16.66,16.66,0,0,0-4.59-5.67,15.58,15.58,0,0,0-4.35-2.37,9.16,9.16,0,0,1-1.74-.62,8.65,8.65,0,0,1,1.83.34,14.17,14.17,0,0,1,4.58,2.22,16.54,16.54,0,0,1,4.89,5.77,31.42,31.42,0,0,1,2.93,8.77,52.54,52.54,0,0,1,.88,9.19,60.87,60.87,0,0,1-.51,7.5c-.26,2.12-.54,3.83-.74,5A9.24,9.24,0,0,1,896,911.84Z" transform="translate(-115.58 -107.44)"/><path class="cls-107" d="M896.43,908a4.37,4.37,0,0,1,.12-.85l.49-2.39c.42-2.08,1-5.08,1.65-8.82,1.3-7.46,2.26-15.57,3.28-27.08.95-10.83,1.84-23.47,1.79-31.82,0-1.89,0-3.6-.07-5.1s-.06-2.8-.12-3.86-.07-1.8-.1-2.44a3.45,3.45,0,0,1,0-.85,3.15,3.15,0,0,1,.13.84c.07.64.14,1.44.24,2.43s.18,2.35.25,3.86.16,3.22.19,5.12a279,279,0,0,1-1.12,29.62c-1,11.54-2.52,21.93-4,29.38-.7,3.73-1.38,6.73-1.89,8.79-.26,1-.46,1.74-.63,2.36A3.09,3.09,0,0,1,896.43,908Z" transform="translate(-115.58 -107.44)"/><path class="cls-108" d="M902.7,886.58a17.17,17.17,0,0,1,.52-2.5c.41-1.59,1.1-3.86,2.12-6.62a90.86,90.86,0,0,1,4.18-9.43A81.78,81.78,0,0,1,916,857.18a63.35,63.35,0,0,1,15.89-16.45,31.48,31.48,0,0,1,3.38-2.08c.51-.28,1-.57,1.43-.79l1.26-.54a15.9,15.9,0,0,1,2.37-.92c.09.18-3.38,1.39-8.13,4.77a67.07,67.07,0,0,0-15.58,16.44,95.45,95.45,0,0,0-6.46,10.74,100.58,100.58,0,0,0-4.3,9.3c-1.08,2.72-1.84,5-2.34,6.51A15.67,15.67,0,0,1,902.7,886.58Z" transform="translate(-115.58 -107.44)"/><path class="cls-1" d="M748.14,689.9s104.62,3.92,159-12.74c0,0-93.91,15.22-161.77,7.78Z" transform="translate(-115.58 -107.44)"/></svg>