<svg id="Layer_1" data-name="Layer 1" xmlns="http://www.w3.org/2000/svg" viewBox="0 0 67.9 46.43"><defs><style>.cls-1{fill:#fff;}</style></defs><title>whitelogofrafika</title><path class="cls-1" d="M84.06,38.11Z" transform="translate(-47.16 -15.29)"/><path class="cls-1" d="M96.86,27.71v-1.2c-.2-7-4.6-11.1-11.6-11.2a17.39,17.39,0,0,0-10.7,3,13.36,13.36,0,0,1,6.4,3.2c2,2.1,2.9,5.2,3.2,8l-.1,6.7v1.9l-.1,9.2a7.21,7.21,0,0,0,.6,2.9,6.25,6.25,0,0,0,8.3,3h0a6.14,6.14,0,0,0,3.6-5.6l.2-14.4.1-4.3C96.76,28.51,96.86,28.11,96.86,27.71Z" transform="translate(-47.16 -15.29)"/><path class="cls-1" d="M99.76,53.31" transform="translate(-47.16 -15.29)"/><path class="cls-1" d="M53.06,15.71a16.72,16.72,0,0,0-5.9-.2v31.8a6.19,6.19,0,0,0,6.08,6.3h.12a6.28,6.28,0,0,0,4.1-1.5,6,6,0,0,0,2.2-4.6v-9.8h.1v-10l.1-3.4A8.79,8.79,0,0,0,53.06,15.71Z" transform="translate(-47.16 -15.29)"/><path class="cls-1" d="M102.46,39.61Z" transform="translate(-47.16 -15.29)"/><path class="cls-1" d="M115.06,29.31v-5a8.58,8.58,0,0,0-6.7-8.6,16.72,16.72,0,0,0-5.9-.2v32c-.4,2.9-1.3,6-3.2,8a12.8,12.8,0,0,1-6.5,3.2c2.8,2.2,6.9,3.1,10.7,3,7-.1,11.5-4.2,11.6-11.2v-6.7h0V31.51h0Z" transform="translate(-47.16 -15.29)"/><path class="cls-1" d="M78.36,49.41l-.2-7.5-.1-11.3a6.14,6.14,0,0,0-6.39-5.9h0a6.24,6.24,0,0,0-5.5,3.4,5.34,5.34,0,0,0-.6,2.8V31l.1,8.4v.5l.1,7.9c-.4,3-1.4,6.3-3.8,8.3a2.88,2.88,0,0,1-.7.5l-.6.3a.3.3,0,0,0,.2-.1,11.62,11.62,0,0,1-4.8,1.8c2.8,2.1,6.9,2.9,10.7,2.9,7-.1,11.5-4.1,11.6-10.8Z" transform="translate(-47.16 -15.29)"/><polygon class="cls-1" points="49.3 32.32 49.67 12.61 45.94 10.94 49.3 32.32"/><polyline class="cls-1" points="12.6 22.02 12.48 32.71 10.76 31.55"/></svg>