<svg id="Layer_1" data-name="Layer 1" xmlns="http://www.w3.org/2000/svg" viewBox="0 0 159.32 46.43"><defs><style>.cls-1{fill:#fff;}</style></defs><title>whitelogoteljes</title><path class="cls-1" d="M86.92,16.5h2.6L93.92,29l-.4-.1,3.3-8.4,1,3-4.4,10.1Zm7.9,0H97l4.9,12.3-.5-.1,4.2-12.3H108l-6.5,17.1Z" transform="translate(-9.38 -15.73)"/><path class="cls-1" d="M115.82,16.4h10.7v2.1H118v5h7.6v2.1H118v5.1h8.8v2.1h-11Z" transform="translate(-9.38 -15.73)"/><path class="cls-1" d="M139.42,16.4a6.61,6.61,0,0,1,3.9,1,3.4,3.4,0,0,1,1.4,3.1,4.57,4.57,0,0,1-.6,2.3,4,4,0,0,1-1.7,1.5,5.55,5.55,0,0,1-2.5.6l-.3-1.1a7.91,7.91,0,0,1,3,.6,5.08,5.08,0,0,1,2.1,1.5,4,4,0,0,1,.8,2.3,5.07,5.07,0,0,1-.4,2.1,3.32,3.32,0,0,1-1.2,1.4,5.12,5.12,0,0,1-1.8.8,7.12,7.12,0,0,1-2,.3h-4.9V16.4Zm.4,7.2a2.3,2.3,0,0,0,2-.8,3,3,0,0,0,.6-1.8,2.06,2.06,0,0,0-.8-1.9,3.8,3.8,0,0,0-2.1-.6h-2.2v5.1Zm.1,7.2a10.8,10.8,0,0,0,1.7-.2,3.77,3.77,0,0,0,1.2-.8,1.78,1.78,0,0,0,.4-1.4,2.62,2.62,0,0,0-.5-1.5,3.5,3.5,0,0,0-1.3-.8,4.13,4.13,0,0,0-1.6-.2h-2.4V31Z" transform="translate(-9.38 -15.73)"/><path class="cls-1" d="M90,44.68l5.4,13.6L94.1,58l5.1-13.3h2.7l-7.3,17.2-7.3-17.2Z" transform="translate(-9.38 -15.73)"/><path class="cls-1" d="M109.7,44.68h2.2v16.4h-2.2Z" transform="translate(-9.38 -15.73)"/><path class="cls-1" d="M125.4,44.68a6.63,6.63,0,0,1,3.9,1,3.42,3.42,0,0,1,1.4,3.1,4,4,0,0,1-2.2,3.8,5.42,5.42,0,0,1-2.5.6l-.3-1.2a7.91,7.91,0,0,1,3,.6,5.08,5.08,0,0,1,2.1,1.5,4,4,0,0,1,.8,2.3,5.23,5.23,0,0,1-.4,2.1,3.39,3.39,0,0,1-1.2,1.4,5,5,0,0,1-1.8.8,6.78,6.78,0,0,1-2,.3h-4.9V44.68Zm.5,7.2a2.28,2.28,0,0,0,2-.8,3,3,0,0,0,.6-1.8,2.09,2.09,0,0,0-.8-1.9,3.91,3.91,0,0,0-2.1-.6h-2.1v5.1Zm.1,7.2a5.2,5.2,0,0,0,1.7-.3,3.61,3.61,0,0,0,1.2-.8,1.78,1.78,0,0,0,.4-1.4,2.69,2.69,0,0,0-.5-1.5,3.5,3.5,0,0,0-1.3-.8,4.35,4.35,0,0,0-1.6-.2h-2.4v5.1Z" transform="translate(-9.38 -15.73)"/><path class="cls-1" d="M139.8,44.68h10.7v2.1H142v5h7.6v2.1H142V59h8.8v2.1h-11Z" transform="translate(-9.38 -15.73)"/><path class="cls-1" d="M167.6,47.58c-.6-.3-1.2-.5-1.8-.8a6.18,6.18,0,0,0-2-.3,3.65,3.65,0,0,0-2.1.6,2.09,2.09,0,0,0-.8,1.6,1.91,1.91,0,0,0,.5,1.3,3.89,3.89,0,0,0,1.3.9,8.69,8.69,0,0,0,1.7.7,9.29,9.29,0,0,1,1.5.7,5.58,5.58,0,0,1,1.4.9,4,4,0,0,1,1,1.3,4.45,4.45,0,0,1,.4,2,4.53,4.53,0,0,1-2.5,4.1,7.21,7.21,0,0,1-2.9.6,16.4,16.4,0,0,1-2.1-.2,6.8,6.8,0,0,1-1.8-.7,12,12,0,0,1-1.5-.8l1-1.7a5.44,5.44,0,0,0,1.3.7,8,8,0,0,0,1.6.5,5.66,5.66,0,0,0,3,0,3.89,3.89,0,0,0,1.3-.9,2.21,2.21,0,0,0,.5-1.6,2.32,2.32,0,0,0-.4-1.4,4,4,0,0,0-1.2-1,7.85,7.85,0,0,0-1.6-.7c-.5-.2-1.1-.4-1.6-.6a4.15,4.15,0,0,1-1.4-.9,3.09,3.09,0,0,1-1.1-1.2,4,4,0,0,1-.4-1.8,4.62,4.62,0,0,1,.6-2.3,3.55,3.55,0,0,1,1.7-1.5,5.42,5.42,0,0,1,2.5-.6,8.55,8.55,0,0,1,2.8.4,7.66,7.66,0,0,1,2.1.9Z" transform="translate(-9.38 -15.73)"/><path class="cls-1" d="M46.28,38.55Z" transform="translate(-9.38 -15.73)"/><path class="cls-1" d="M59.08,28.15V27c-.2-7-4.6-11.1-11.6-11.2a17.49,17.49,0,0,0-10.7,3,13.45,13.45,0,0,1,6.4,3.2c2,2.1,2.9,5.2,3.2,8l-.1,6.7v1.9l-.1,9.2a7.21,7.21,0,0,0,.6,2.9,6.25,6.25,0,0,0,8.3,3h0a6.11,6.11,0,0,0,3.6-5.6l.2-14.4.1-4.3C59,29,59.08,28.55,59.08,28.15Z" transform="translate(-9.38 -15.73)"/><path class="cls-1" d="M62,53.75" transform="translate(-9.38 -15.73)"/><path class="cls-1" d="M15.28,16.15a16.94,16.94,0,0,0-5.9-.2v31.8a6.2,6.2,0,0,0,6.08,6.3h.12a6.21,6.21,0,0,0,4.1-1.5,6,6,0,0,0,2.2-4.6v-9.8H22v-10l.1-3.4A8.78,8.78,0,0,0,15.28,16.15Z" transform="translate(-9.38 -15.73)"/><path class="cls-1" d="M64.68,40.05Z" transform="translate(-9.38 -15.73)"/><path class="cls-1" d="M77.28,29.75v-5a8.6,8.6,0,0,0-6.7-8.6,16.94,16.94,0,0,0-5.9-.2V48c-.4,2.9-1.3,6-3.2,8a12.8,12.8,0,0,1-6.5,3.2c2.8,2.2,6.9,3.1,10.7,3,7-.1,11.5-4.2,11.6-11.2v-6.7h0V32h0Z" transform="translate(-9.38 -15.73)"/><path class="cls-1" d="M40.58,49.85l-.2-7.5-.1-11.3a6.15,6.15,0,0,0-6.39-5.9h0a6.24,6.24,0,0,0-5.5,3.4,5.34,5.34,0,0,0-.6,2.8v.1l.1,8.4v.5l.1,7.9c-.4,3-1.4,6.3-3.8,8.3a2.7,2.7,0,0,1-.7.5l-.6.3a.26.26,0,0,0,.2-.1,11.49,11.49,0,0,1-4.8,1.8c2.8,2.1,6.9,2.9,10.7,2.9,7-.1,11.5-4.1,11.6-10.8Z" transform="translate(-9.38 -15.73)"/><polygon class="cls-1" points="49.3 32.32 49.67 12.61 45.94 10.94 49.3 32.32"/><polyline class="cls-1" points="12.6 22.02 12.48 32.71 10.76 31.55"/></svg>