<svg id="Layer_1" data-name="Layer 1" xmlns="http://www.w3.org/2000/svg" xmlns:xlink="http://www.w3.org/1999/xlink" viewBox="0 0 530.84 601.52"><defs><linearGradient id="linear-gradient" x1="248" y1="608.4" x2="498.2" y2="608.4" gradientTransform="translate(-35.2 -483.3)" gradientUnits="userSpaceOnUse"><stop offset="0" stop-color="#6e0ef3"/><stop offset="0" stop-color="#1356dd"/><stop offset="1" stop-color="#5bccf8"/></linearGradient></defs><title>celunk_kek</title><circle cx="337.9" cy="125.1" r="125.1" fill="url(#linear-gradient)"/><path d="M56,588.68H78.44a32.49,32.49,0,0,1,32.48-32.48,29.27,29.27,0,0,1,11.76,2.24l9.52,3.92,4.48-9.52h0a30.84,30.84,0,0,1,26.84-16.24,29.68,29.68,0,0,1,29.68,28l1.12,15.12,14-5,7.84-1.12h0a23.52,23.52,0,0,1,23.52,23.52h0v1.12h22.4v-1.68h0a45.92,45.92,0,0,0-45.88-46h-2.84a52.07,52.07,0,0,0-49.84-36.4,51,51,0,0,0-41.44,20.72l-11.2-1.12A41.87,41.87,0,0,0,96.32,536,52.64,52.64,0,0,0,47,500.76,51.51,51.51,0,0,0,0,529.32L20.2,539.4h0a29.67,29.67,0,0,1,26.88-16.24,29.12,29.12,0,0,1,28.56,23A56.56,56.56,0,0,0,56,588.72Z" transform="translate(-0.04)"/><path d="M478.8,554a29.69,29.69,0,0,1,29.68,28l22.4-1.12h0A52.08,52.08,0,0,0,478.8,531.6,53.22,53.22,0,0,0,443.52,545,59.92,59.92,0,0,0,392,516.48a61.61,61.61,0,0,0-57.12,39.12A62.18,62.18,0,0,0,285,593.12l20.72,8.4h0a39.22,39.22,0,0,1,36.4-24.08h10.08l1.68-9h0a38.64,38.64,0,0,1,76.72,8.4A35.75,35.75,0,0,1,429,588l21.28,7.28A48.14,48.14,0,0,0,453,577.4a43,43,0,0,0-.56-8.4,29.12,29.12,0,0,1,26.32-15.12Z" transform="translate(-0.04)"/><path d="M266,295.8a44.25,44.25,0,1,0-31.28-13A44.25,44.25,0,0,0,266,295.8Zm0-66.08a21.85,21.85,0,1,1-15.44,6.4A21.85,21.85,0,0,1,266,229.72Z" transform="translate(-0.04)"/><path d="M387.52,406.12l7.28-8.4a82.32,82.32,0,0,0-4.27-116.33l-.73-.67A94.65,94.65,0,0,0,355.64,260C353.4,193.92,326,132.32,273.88,80.8L266,73,258.2,80.8C206.08,132.28,178.64,193.88,176.44,260h0a88.49,88.49,0,0,0-33.6,20.72,82.33,82.33,0,0,0-6.27,116.26l.67.74,7.28,8.4,48.72-43.68a263.92,263.92,0,0,0,29.68,58.8c8.36,12.4,28.52,17.4,45.32,17.4h.56c9,0,29.68-1.68,38.64-14a294.29,294.29,0,0,0,31.36-62.16Zm6.72-66.64a60,60,0,0,1-9,34.16l-37-33h1.2l-2.8-3.36c1.68-5.6,2.8-10.64,3.92-16.24h0A277.24,277.24,0,0,0,355,284a118.63,118.63,0,0,1,19.6,14,61.62,61.62,0,0,1,19.6,41.44ZM266,104.84a277.39,277.39,0,0,1,30.24,38.64,75.56,75.56,0,0,1-60.48,0A277.39,277.39,0,0,1,266,104.84Zm-41.44,58.24a98.64,98.64,0,0,0,41.44,9,96.89,96.89,0,0,0,41.44-9,235.16,235.16,0,0,1,21.28,153.44c-1.12,3.92-1.67,7.84-2.8,12.32h0a113.15,113.15,0,0,1-119.84,0c-.55-3.92-1.68-7.84-2.23-11.76h0a226.84,226.84,0,0,1,20.72-154Zm-67.19,134.4a118.55,118.55,0,0,1,19.59-14,223.12,223.12,0,0,0,5,38.08,72.51,72.51,0,0,0,3.37,15.12L183.09,340h.56l-37,33h0a61.58,61.58,0,0,1,10.64-75.6ZM289,411.72a41.46,41.46,0,0,1-24.08,4.48c-13.44-1.12-21.84-5-23.52-7.28a251.1,251.1,0,0,1-25.76-50.4,131,131,0,0,0,100.8,0A281.07,281.07,0,0,1,289,411.72Z" transform="translate(-0.04)"/><path d="M254.8,468.84h22.4v59H254.8Z" transform="translate(-0.04)"/><path d="M306.88,453.16h22.4v48.55h-22.4Z" transform="translate(-0.04)"/><path d="M202.72,453.16h22.4v48.55h-22.4Z" transform="translate(-0.04)"/></svg>